<svg width="20" height="20" viewBox="0 0 20 20" fill="none" xmlns="http://www.w3.org/2000/svg">
<path d="M8.55863 18.7032L8.5596 18.7038C8.9766 18.9384 9.48561 19.0583 10.0003 19.0583C10.5047 19.0583 11.0234 18.9475 11.4342 18.7029C11.4344 18.7028 11.4346 18.7027 11.4348 18.7025L15.417 16.4032L15.4171 16.4034L15.4227 16.3996C16.2175 15.8657 16.6671 15.5342 16.9081 15.1098C17.1504 14.6828 17.1753 14.1737 17.1753 13.3166V9.1833C17.1753 8.32621 17.1505 7.81684 16.9037 7.38667C16.6586 6.95942 16.2008 6.62177 15.3895 6.07536L15.3896 6.07516L15.3836 6.07169L11.4421 3.79676C11.442 3.79674 11.442 3.79671 11.4419 3.79669C10.6193 3.32048 9.38948 3.3205 8.56686 3.79676L4.58362 6.0967L4.58351 6.0965L4.57786 6.1003C3.78311 6.63427 3.33345 6.96574 3.0925 7.39018C2.85014 7.81709 2.82529 8.32628 2.82529 9.1833V13.3166C2.82529 14.1737 2.85012 14.6831 3.09688 15.1133C3.34197 15.5405 3.79975 15.8782 4.6111 16.4246L4.61097 16.4248L4.61697 16.4282L8.55863 18.7032ZM9.28361 5.05324L9.28401 5.05301C9.46376 4.94816 9.72788 4.89163 10.0003 4.89163C10.2733 4.89163 10.5363 4.94838 10.7066 5.05205L10.7066 5.05208L10.7087 5.0533L14.6139 7.3015C14.9032 7.49714 15.1159 7.64108 15.2746 7.76647C15.4334 7.89184 15.531 7.99322 15.5943 8.10072C15.6569 8.20698 15.6905 8.32691 15.7077 8.49703C15.7252 8.66948 15.7253 8.88547 15.7253 9.1833V13.3166C15.7253 13.6144 15.7252 13.8306 15.7083 14.0029C15.6917 14.173 15.6592 14.2923 15.599 14.397C15.5382 14.5027 15.4446 14.6015 15.2919 14.7232C15.1391 14.8449 14.9344 14.9841 14.6555 15.1735L10.717 17.4467L10.7166 17.4469C10.5367 17.5519 10.2746 17.6083 10.0045 17.6083C9.73433 17.6083 9.47222 17.5519 9.29235 17.4469L9.29185 17.4466L5.38665 15.1984C5.09735 15.0028 4.88471 14.8589 4.72594 14.7335C4.56719 14.6081 4.46956 14.5067 4.40625 14.3992C4.34366 14.293 4.31012 14.173 4.29288 14.0029C4.27541 13.8305 4.27529 13.6145 4.27529 13.3166V9.1833C4.27529 8.88553 4.2754 8.66935 4.29227 8.49708C4.30892 8.32696 4.34134 8.20766 4.40156 8.10295C4.46235 7.99725 4.55603 7.8984 4.70871 7.77674C4.8615 7.65499 5.06621 7.51582 5.34512 7.32641L9.28361 5.05324Z" fill="#8C90A5" stroke="#8C90A5" stroke-width="0.2"/>
<path d="M13.8582 6.35842C13.8582 6.75531 14.1863 7.08342 14.5832 7.08342C14.9801 7.08342 15.3082 6.75531 15.3082 6.35842V4.16675C15.3082 3.1406 15.0259 2.33058 14.4726 1.77729C13.9193 1.224 13.1093 0.941748 12.0832 0.941748H7.9165C6.89036 0.941748 6.08033 1.224 5.52704 1.77729C4.97375 2.33058 4.6915 3.1406 4.6915 4.16675V6.30008C4.6915 6.70618 5.02048 7.02508 5.4165 7.02508C5.8134 7.02508 6.1415 6.69698 6.1415 6.30008V4.16675C6.1415 3.51971 6.27911 3.08307 6.55596 2.80621C6.83282 2.52935 7.26946 2.39175 7.9165 2.39175H12.0832C12.7302 2.39175 13.1669 2.52935 13.4437 2.80621C13.7206 3.08307 13.8582 3.51971 13.8582 4.16675V6.35842Z" fill="#8C90A5" stroke="#8C90A5" stroke-width="0.2"/>
<path d="M9.22021 14.6847L9.22034 14.6847L10.0005 14.3742L10.7797 14.6763C10.9749 14.7561 11.1708 14.7918 11.3584 14.7918C11.6291 14.7918 11.8826 14.7103 12.0995 14.5567L12.0995 14.5567L12.1017 14.5551C12.4657 14.2821 12.6514 13.8395 12.6249 13.3365L12.6249 13.3361L12.5771 12.5003L13.1104 11.8555L13.1108 11.8551C13.4286 11.4666 13.5405 10.9903 13.4036 10.5614C13.2665 10.1317 12.8942 9.81028 12.4081 9.68653C12.4081 9.68653 12.408 9.68652 12.408 9.68652L11.5963 9.47961L11.1428 8.77147C11.1427 8.77143 11.1427 8.7714 11.1427 8.77136C10.5951 7.90969 9.41336 7.90968 8.86572 8.77132C8.86569 8.77137 8.86566 8.77142 8.86563 8.77147L8.4121 9.47961L7.60037 9.68652C7.11444 9.81021 6.74226 10.1314 6.60496 10.5607C6.45922 10.9987 6.57183 11.4666 6.88861 11.8626L6.8886 11.8626L6.88965 11.8638L7.42296 12.5086L7.3752 13.3444L7.37517 13.3448C7.34875 13.8468 7.53372 14.2991 7.89967 14.5644C8.26495 14.8292 8.75195 14.8703 9.22021 14.6847ZM11.1662 13.2742L10.4953 13.0072L10.495 13.0071C10.1965 12.8894 9.8036 12.8894 9.50505 13.0071L9.50473 13.0072L8.83382 13.2742L8.87487 12.5558C8.89285 12.2411 8.77788 11.8572 8.5683 11.6108L8.11233 11.0596L8.81529 10.8889L8.81529 10.889L8.81729 10.8884C9.12438 10.8071 9.44543 10.5755 9.61757 10.304L10.0076 9.70186L10.3907 10.3038L10.3907 10.3038L10.3914 10.3049C10.5633 10.5673 10.884 10.7988 11.1911 10.8801L11.1911 10.8801L11.192 10.8803L11.889 11.058L11.4313 11.6114L11.4311 11.6116C11.223 11.865 11.1071 12.2399 11.1252 12.5558L11.1662 13.2742Z" fill="#8C90A5" stroke="#8C90A5" stroke-width="0.2"/>
</svg>
