<svg width="18" height="18" viewBox="0 0 18 18" fill="none" xmlns="http://www.w3.org/2000/svg">
<path d="M16.5 3.63751V12.555C16.5 13.2825 15.9075 13.95 15.18 14.04L14.9475 14.07C13.7175 14.235 11.985 14.745 10.59 15.33C10.1025 15.5325 9.5625 15.165 9.5625 14.6325V4.20001C9.5625 3.92251 9.72 3.66751 9.9675 3.53251C11.34 2.79001 13.4175 2.13001 14.8275 2.01001H14.8725C15.7725 2.01001 16.5 2.73751 16.5 3.63751Z" fill="#8C90A5"/>
<path d="M8.03255 3.53251C6.66005 2.79001 4.58255 2.13001 3.17255 2.01001H3.12005C2.22005 2.01001 1.49255 2.73751 1.49255 3.63751V12.555C1.49255 13.2825 2.08505 13.95 2.81255 14.04L3.04505 14.07C4.27505 14.235 6.00755 14.745 7.40255 15.33C7.89005 15.5325 8.43005 15.165 8.43005 14.6325V4.20001C8.43005 3.91501 8.28005 3.66751 8.03255 3.53251ZM3.75005 5.80501H5.43755C5.74505 5.80501 6.00005 6.06001 6.00005 6.36751C6.00005 6.68251 5.74505 6.93001 5.43755 6.93001H3.75005C3.44255 6.93001 3.18755 6.68251 3.18755 6.36751C3.18755 6.06001 3.44255 5.80501 3.75005 5.80501ZM6.00005 9.18001H3.75005C3.44255 9.18001 3.18755 8.93251 3.18755 8.61751C3.18755 8.31001 3.44255 8.05501 3.75005 8.05501H6.00005C6.30755 8.05501 6.56255 8.31001 6.56255 8.61751C6.56255 8.93251 6.30755 9.18001 6.00005 9.18001Z" fill="#8C90A5"/>
</svg>
