<svg width="18" height="18" viewBox="0 0 18 18" fill="none" xmlns="http://www.w3.org/2000/svg">
<path d="M13.8523 12.6225L14.1448 14.9925C14.2198 15.615 13.5523 16.05 13.0198 15.7275L10.4248 14.1825C10.2448 14.0775 10.1998 13.8525 10.2973 13.6725C10.6723 12.9825 10.8748 12.2025 10.8748 11.4225C10.8748 8.6775 8.5198 6.4425 5.6248 6.4425C5.0323 6.4425 4.4548 6.5325 3.9148 6.7125C3.6373 6.8025 3.3673 6.5475 3.4348 6.2625C4.1173 3.5325 6.7423 1.5 9.8773 1.5C13.5373 1.5 16.4998 4.2675 16.4998 7.68C16.4998 9.705 15.4573 11.4975 13.8523 12.6225Z" fill="#19224C"/>
<path d="M9.75 11.4225C9.75 12.315 9.42 13.14 8.865 13.7925C8.1225 14.6925 6.945 15.27 5.625 15.27L3.6675 16.4325C3.3375 16.635 2.9175 16.3575 2.9625 15.975L3.15 14.4975C2.145 13.8 1.5 12.6825 1.5 11.4225C1.5 10.1025 2.205 8.94 3.285 8.25C3.9525 7.815 4.755 7.5675 5.625 7.5675C7.905 7.5675 9.75 9.2925 9.75 11.4225Z" fill="#19224C"/>
</svg>
