<svg width="18" height="18" viewBox="0 0 18 18" fill="none" xmlns="http://www.w3.org/2000/svg">
<path d="M16.5 3.63763V12.5551C16.5 13.2826 15.9075 13.9501 15.18 14.0401L14.9475 14.0701C13.7175 14.2351 11.985 14.7451 10.59 15.3301C10.1025 15.5326 9.5625 15.1651 9.5625 14.6326V4.20013C9.5625 3.92263 9.72 3.66763 9.9675 3.53263C11.34 2.79013 13.4175 2.13013 14.8275 2.01013H14.8725C15.7725 2.01013 16.5 2.73763 16.5 3.63763Z" fill="#19224C"/>
<path d="M8.03268 3.53263C6.66018 2.79013 4.58268 2.13013 3.17268 2.01013H3.12018C2.22018 2.01013 1.49268 2.73763 1.49268 3.63763V12.5551C1.49268 13.2826 2.08518 13.9501 2.81268 14.0401L3.04518 14.0701C4.27518 14.2351 6.00768 14.7451 7.40268 15.3301C7.89018 15.5326 8.43018 15.1651 8.43018 14.6326V4.20013C8.43018 3.91513 8.28018 3.66763 8.03268 3.53263ZM3.75018 5.80513H5.43768C5.74518 5.80513 6.00018 6.06013 6.00018 6.36763C6.00018 6.68263 5.74518 6.93013 5.43768 6.93013H3.75018C3.44268 6.93013 3.18768 6.68263 3.18768 6.36763C3.18768 6.06013 3.44268 5.80513 3.75018 5.80513ZM6.00018 9.18013H3.75018C3.44268 9.18013 3.18768 8.93263 3.18768 8.61763C3.18768 8.31013 3.44268 8.05513 3.75018 8.05513H6.00018C6.30768 8.05513 6.56268 8.31013 6.56268 8.61763C6.56268 8.93263 6.30768 9.18013 6.00018 9.18013Z" fill="#19224C"/>
</svg>
