<svg width="20" height="20" viewBox="0 0 20 20" fill="none" xmlns="http://www.w3.org/2000/svg">
<path d="M14.1797 6.875L9.60938 18.125H11.4547L12.4113 15.8594H15.948L16.9047 18.125H18.75L14.1797 6.875ZM13.1371 14.1406L14.1797 10.9316L15.2223 14.1406H13.1371ZM10.625 12.5C10.6152 12.4926 9.8207 11.884 8.85078 10.8332C10.3969 8.73789 11.2727 6.35625 11.6301 5.23438H13.75V3.51562H8.35938V1.875H6.64062V3.51562H1.25V5.23438H9.81445C9.44258 6.28711 8.75781 7.94922 7.71328 9.46719C6.43672 7.77031 5.87188 6.50313 5.86445 6.48984L5.58594 5.9375L4.10156 6.79688L4.36992 7.33828C4.40469 7.39922 5.04141 8.81875 6.50703 10.7199C6.54297 10.7672 6.5793 10.8133 6.61562 10.8594C4.67344 13.0805 3.1332 13.9488 3.11328 13.9637L2.5 14.375L3.39844 15.7812L4.15234 15.3332C4.23828 15.268 5.7668 14.3957 7.74609 12.1777C8.70391 13.2043 9.43437 13.7727 9.47656 13.8055L9.96094 14.1406L10.625 12.5Z" fill="#8C90A5"/>
</svg>
