<svg width="16" height="16" viewBox="0 0 16 16" fill="none" xmlns="http://www.w3.org/2000/svg">
<g id="vuesax/bold/magicpen">
<g id="magicpen">
<path id="Vector" d="M13 5L12.0067 5.99334L10.0067 3.99334L11 3C11.28 2.72 11.64 2.58667 12 2.58667C12.36 2.58667 12.72 2.72 13 3C13.5534 3.55334 13.5534 4.44667 13 5Z" fill="#19224C"/>
<path id="Vector_2" d="M11.54 6.46667L4.33333 13.6667C3.78 14.22 2.88667 14.22 2.33333 13.6667C1.78 13.1133 1.78 12.22 2.33333 11.6667L9.54 4.46667L11.54 6.46667Z" fill="#19224C"/>
<path id="Vector_3" d="M6.63339 2.33334L6.90672 1.40668C6.93339 1.32001 6.90672 1.22668 6.84672 1.16001C6.78672 1.09334 6.68005 1.06668 6.59339 1.09334L5.66672 1.36668L4.74005 1.09334C4.65339 1.06668 4.56005 1.09334 4.49339 1.15334C4.42672 1.22001 4.40672 1.31334 4.43339 1.40001L4.70005 2.33334L4.42672 3.26001C4.40005 3.34668 4.42672 3.44001 4.48672 3.50668C4.55339 3.57334 4.64672 3.59334 4.73339 3.56668L5.66672 3.30001L6.59339 3.57334C6.62005 3.58001 6.64005 3.58668 6.66672 3.58668C6.73339 3.58668 6.79339 3.56001 6.84672 3.51334C6.91339 3.44668 6.93339 3.35334 6.90672 3.26668L6.63339 2.33334Z" fill="#19224C"/>
<path id="Vector_4" d="M3.96664 6.33334L4.23997 5.40668C4.26664 5.32001 4.23997 5.22668 4.17997 5.16001C4.1133 5.09334 4.01997 5.07334 3.9333 5.10001L2.99997 5.36668L2.0733 5.09334C1.98664 5.06668 1.8933 5.09334 1.82664 5.15334C1.75997 5.22001 1.73997 5.31334 1.76664 5.40001L2.0333 6.33334L1.75997 7.26001C1.7333 7.34668 1.75997 7.44001 1.81997 7.50668C1.88664 7.57334 1.97997 7.59334 2.06664 7.56668L2.9933 7.29334L3.91997 7.56668C3.93997 7.57334 3.96664 7.57334 3.9933 7.57334C4.05997 7.57334 4.11997 7.54668 4.1733 7.50001C4.23997 7.43334 4.25997 7.34001 4.2333 7.25334L3.96664 6.33334Z" fill="#19224C"/>
<path id="Vector_5" d="M13.9667 9.66664L14.2401 8.73997C14.2667 8.6533 14.2401 8.55997 14.1801 8.4933C14.1134 8.42664 14.0201 8.40664 13.9334 8.4333L13.0067 8.70664L12.0801 8.4333C11.9934 8.40664 11.9001 8.4333 11.8334 8.4933C11.7667 8.55997 11.7467 8.6533 11.7734 8.73997L12.0467 9.66664L11.7734 10.5933C11.7467 10.68 11.7734 10.7733 11.8334 10.84C11.9001 10.9066 11.9934 10.9266 12.0801 10.9L13.0067 10.6266L13.9334 10.9C13.9534 10.9066 13.9801 10.9066 14.0067 10.9066C14.0734 10.9066 14.1334 10.88 14.1867 10.8333C14.2534 10.7666 14.2734 10.6733 14.2467 10.5866L13.9667 9.66664Z" fill="#19224C"/>
</g>
</g>
</svg>
