<svg width="16" height="16" viewBox="0 0 16 16" fill="none" xmlns="http://www.w3.org/2000/svg">
<rect width="16" height="16" rx="2" fill="#EEF6FF"/>
<path d="M6.19776 13.0575C6.08693 13.0575 5.97609 13.0167 5.88859 12.9292C5.71943 12.76 5.71943 12.48 5.88859 12.3108L9.69193 8.50751C9.97193 8.22751 9.97193 7.77251 9.69193 7.49251L5.88859 3.68918C5.71943 3.52001 5.71943 3.24001 5.88859 3.07084C6.05776 2.90168 6.33776 2.90168 6.50693 3.07084L10.3103 6.87418C10.6078 7.17168 10.7769 7.57418 10.7769 8.00001C10.7769 8.42585 10.6136 8.82835 10.3103 9.12585L6.50693 12.9292C6.41943 13.0108 6.30859 13.0575 6.19776 13.0575Z" fill="#19224C"/>
</svg>
