<svg width="20" height="20" viewBox="0 0 20 20" fill="none" xmlns="http://www.w3.org/2000/svg">
<path d="M9.99984 18.9584C9.34984 18.9584 8.7165 18.6251 8.28317 18.0417L7.4415 16.9167C7.2665 16.6834 7.03317 16.5501 6.78317 16.5334C6.53317 16.5251 6.28317 16.6334 6.08317 16.8417L5.60817 16.4167L6.0665 16.8417C4.8665 18.1251 3.9415 18.0251 3.49984 17.8501C3.04984 17.6751 2.2915 17.1001 2.2915 15.2501V5.86675C2.2915 2.16675 3.35817 1.04175 6.84984 1.04175H13.1498C16.6415 1.04175 17.7082 2.16675 17.7082 5.86675V15.2501C17.7082 17.0917 16.9498 17.6667 16.4998 17.8501C16.0582 18.0251 15.1415 18.1251 13.9332 16.8417C13.7332 16.6251 13.4915 16.5084 13.2248 16.5334C12.9748 16.5501 12.7332 16.6834 12.5582 16.9167L11.7165 18.0417C11.2832 18.6251 10.6498 18.9584 9.99984 18.9584ZM6.73317 15.2751C6.7665 15.2751 6.80817 15.2751 6.8415 15.2751C7.45817 15.3084 8.0415 15.6334 8.43317 16.1584L9.27484 17.2834C9.68317 17.8251 10.3082 17.8251 10.7165 17.2834L11.5582 16.1584C11.9582 15.6334 12.5332 15.3084 13.1582 15.2751C13.7748 15.2417 14.3915 15.5001 14.8415 15.9834C15.4748 16.6584 15.8915 16.7417 16.0332 16.6834C16.2332 16.6001 16.4498 16.1167 16.4498 15.2501V5.86675C16.4498 2.85841 15.9248 2.29175 13.1415 2.29175H6.84984C4.0665 2.29175 3.5415 2.85841 3.5415 5.86675V15.2501C3.5415 16.1251 3.75817 16.6084 3.95817 16.6834C4.09984 16.7417 4.5165 16.6584 5.14984 15.9834C5.59984 15.5251 6.15817 15.2751 6.73317 15.2751Z" fill="#8C90A5"/>
<path d="M13.3332 6.45825H6.6665C6.32484 6.45825 6.0415 6.17492 6.0415 5.83325C6.0415 5.49159 6.32484 5.20825 6.6665 5.20825H13.3332C13.6748 5.20825 13.9582 5.49159 13.9582 5.83325C13.9582 6.17492 13.6748 6.45825 13.3332 6.45825Z" fill="#8C90A5"/>
<path d="M12.5 9.79175H7.5C7.15833 9.79175 6.875 9.50841 6.875 9.16675C6.875 8.82508 7.15833 8.54175 7.5 8.54175H12.5C12.8417 8.54175 13.125 8.82508 13.125 9.16675C13.125 9.50841 12.8417 9.79175 12.5 9.79175Z" fill="#8C90A5"/>
</svg>
