<svg width="16" height="16" viewBox="0 0 16 16" fill="none" xmlns="http://www.w3.org/2000/svg">
<g clip-path="url(#clip0_440_54136)">
<path d="M10.6667 5.99333V13.5667C10.6667 14.5333 9.97334 14.94 9.12668 14.4733L6.50668 13.0133C6.22668 12.86 5.77334 12.86 5.49334 13.0133L2.87334 14.4733C2.02668 14.94 1.33334 14.5333 1.33334 13.5667V5.99333C1.33334 4.85333 2.26668 3.92 3.40668 3.92H8.59334C9.73334 3.92 10.6667 4.85333 10.6667 5.99333Z" stroke="#1678F2" stroke-linecap="round" stroke-linejoin="round"/>
<path d="M4.66666 7.99999H7.33332M5.99999 9.33333V6.66666M14.6667 3.40666V10.98C14.6667 11.9467 13.9733 12.3533 13.1267 11.8867L10.6667 10.5133V5.99333C10.6667 4.85333 9.73332 3.91999 8.59332 3.91999H5.33332V3.40666C5.33332 2.26666 6.26666 1.33333 7.40666 1.33333H12.5933C13.7333 1.33333 14.6667 2.26666 14.6667 3.40666Z" stroke="#1678F2" stroke-linecap="round" stroke-linejoin="round"/>
</g>
<defs>
<clipPath id="clip0_440_54136">
<rect width="16" height="16" fill="white"/>
</clipPath>
</defs>
</svg>
