<svg xmlns="http://www.w3.org/2000/svg" width="20" height="20" viewBox="0 0 20 20" fill="none">
  <path d="M18.3334 5.41667H13.3334M5.00008 5.41667H1.66675M18.3334 14.5833H15.0001M6.66675 14.5833H1.66675M8.33341 8.33333C8.71644 8.33333 9.09571 8.25789 9.44957 8.11132C9.80344 7.96474 10.125 7.7499 10.3958 7.47906C10.6666 7.20822 10.8815 6.88669 11.0281 6.53283C11.1746 6.17896 11.2501 5.79969 11.2501 5.41667C11.2501 5.03364 11.1746 4.65437 11.0281 4.30051C10.8815 3.94664 10.6666 3.62511 10.3958 3.35427C10.125 3.08343 9.80344 2.86859 9.44957 2.72202C9.09571 2.57544 8.71644 2.5 8.33341 2.5C7.55987 2.5 6.818 2.80729 6.27102 3.35427C5.72404 3.90125 5.41675 4.64312 5.41675 5.41667C5.41675 6.19021 5.72404 6.93208 6.27102 7.47906C6.818 8.02604 7.55987 8.33333 8.33341 8.33333ZM11.6667 17.5C12.4403 17.5 13.1822 17.1927 13.7291 16.6457C14.2761 16.0987 14.5834 15.3569 14.5834 14.5833C14.5834 13.8098 14.2761 13.0679 13.7291 12.5209C13.1822 11.974 12.4403 11.6667 11.6667 11.6667C10.8932 11.6667 10.1513 11.974 9.60435 12.5209C9.05737 13.0679 8.75008 13.8098 8.75008 14.5833C8.75008 15.3569 9.05737 16.0987 9.60435 16.6457C10.1513 17.1927 10.8932 17.5 11.6667 17.5Z" stroke="#1678F2" stroke-width="1.25" stroke-miterlimit="10" stroke-linecap="round" stroke-linejoin="round"/>
</svg>