<svg width="16" height="16" viewBox="0 0 16 16" fill="none" xmlns="http://www.w3.org/2000/svg">
<path d="M7.94596 15.1667C3.9993 15.1667 0.779297 11.9534 0.779297 8.00004C0.779297 4.04671 3.9993 0.833374 7.94596 0.833374C11.8926 0.833374 15.1126 4.04671 15.1126 8.00004C15.1126 11.9534 11.8993 15.1667 7.94596 15.1667ZM7.94596 1.83337C4.54596 1.83337 1.7793 4.60004 1.7793 8.00004C1.7793 11.4 4.54596 14.1667 7.94596 14.1667C11.346 14.1667 14.1126 11.4 14.1126 8.00004C14.1126 4.60004 11.346 1.83337 7.94596 1.83337Z" fill="#1678F2"/>
<path d="M10.6126 8.5H5.2793C5.00596 8.5 4.7793 8.27333 4.7793 8C4.7793 7.72667 5.00596 7.5 5.2793 7.5H10.6126C10.886 7.5 11.1126 7.72667 11.1126 8C11.1126 8.27333 10.8926 8.5 10.6126 8.5Z" fill="#1678F2"/>
</svg>
