<svg width="20" height="20" viewBox="0 0 20 20" fill="none" xmlns="http://www.w3.org/2000/svg">
<path d="M2.5 4.475H17.5C17.8969 4.475 18.225 4.1469 18.225 3.75C18.225 3.3531 17.8969 3.025 17.5 3.025H2.5C2.1031 3.025 1.775 3.3531 1.775 3.75C1.775 4.1469 2.1031 4.475 2.5 4.475Z" fill="#8C90A5" stroke="#8C90A5" stroke-width="0.2"/>
<path d="M2.5 8.64175H10.3917C10.7978 8.64175 11.1167 8.31277 11.1167 7.91675C11.1167 7.51985 10.7886 7.19175 10.3917 7.19175H2.5C2.1031 7.19175 1.775 7.51985 1.775 7.91675C1.775 8.31364 2.1031 8.64175 2.5 8.64175Z" fill="#8C90A5" stroke="#8C90A5" stroke-width="0.2"/>
<path d="M2.5 12.8083H17.5C17.8969 12.8083 18.225 12.4801 18.225 12.0833C18.225 11.6864 17.8969 11.3583 17.5 11.3583H2.5C2.1031 11.3583 1.775 11.6864 1.775 12.0833C1.775 12.4801 2.1031 12.8083 2.5 12.8083Z" fill="#8C90A5" stroke="#8C90A5" stroke-width="0.2"/>
<path d="M2.5 16.975H10.3917C10.7978 16.975 11.1167 16.646 11.1167 16.25C11.1167 15.8531 10.7886 15.525 10.3917 15.525H2.5C2.1031 15.525 1.775 15.8531 1.775 16.25C1.775 16.6469 2.1031 16.975 2.5 16.975Z" fill="#8C90A5" stroke="#8C90A5" stroke-width="0.2"/>
</svg>
