<svg width="20" height="20" viewBox="0 0 20 20" fill="none" xmlns="http://www.w3.org/2000/svg">
<path d="M5.1085 5.83342C5.1085 8.53031 7.30327 10.7251 10.0002 10.7251C12.6971 10.7251 14.8918 8.53031 14.8918 5.83342C14.8918 3.13652 12.6971 0.941748 10.0002 0.941748C7.30327 0.941748 5.1085 3.13652 5.1085 5.83342ZM6.5585 5.83342C6.5585 3.93864 8.10539 2.39175 10.0002 2.39175C11.8949 2.39175 13.4418 3.93864 13.4418 5.83342C13.4418 7.72819 11.8949 9.27508 10.0002 9.27508C8.10539 9.27508 6.5585 7.72819 6.5585 5.83342Z" fill="#8C90A5" stroke="#8C90A5" stroke-width="0.2"/>
<path d="M12.0926 16.4609L12.0926 16.4611L11.9344 17.5852C11.9344 17.5854 11.9343 17.5855 11.9343 17.5856C11.8719 18.0057 11.9967 18.4131 12.2793 18.6957C12.5161 18.9326 12.8423 19.0583 13.1833 19.0583C13.2577 19.0583 13.3228 19.0491 13.394 19.0316L14.5139 18.874L14.5141 18.874C14.8272 18.8293 15.197 18.6443 15.4207 18.4207L18.3707 15.4707C18.8246 15.0168 19.0583 14.5511 19.0583 14.0416C19.0583 13.5409 18.8166 13.0502 18.3707 12.6043C18.1102 12.3438 17.705 12.0318 17.204 11.9422C16.6953 11.8512 16.1072 11.993 15.4959 12.6043L12.5459 15.5543L12.5459 15.5543L12.5446 15.5557C12.3229 15.7862 12.1375 16.1467 12.0926 16.4609ZM13.5323 16.6642L13.5333 16.6571V16.6547C13.5336 16.6534 13.5342 16.6515 13.5351 16.6489C13.5377 16.641 13.5419 16.6306 13.5473 16.6194C13.5527 16.6083 13.5585 16.5978 13.5637 16.5894C13.5686 16.5817 13.5712 16.5786 13.5712 16.5785C13.5712 16.5785 13.5711 16.5786 13.5711 16.5786L16.5207 13.629C16.7157 13.434 16.8216 13.3666 16.925 13.3666C17.0228 13.3666 17.1472 13.4303 17.3459 13.629L17.3459 13.6291L17.3475 13.6306C17.4385 13.7176 17.5051 13.8003 17.5484 13.873C17.5925 13.9471 17.6083 14.004 17.6083 14.0416C17.6083 14.0857 17.5831 14.1502 17.5296 14.2294C17.4783 14.3054 17.4103 14.3816 17.3459 14.4459L14.3962 17.3957C14.3963 17.3956 14.3963 17.3955 14.3963 17.3955C14.3963 17.3955 14.3931 17.3982 14.3849 17.4034C14.3761 17.409 14.365 17.4153 14.3529 17.4216C14.3409 17.4279 14.3289 17.4335 14.3186 17.4379C14.3135 17.44 14.3092 17.4417 14.3057 17.443C14.305 17.4432 14.3043 17.4435 14.3037 17.4437L13.4013 17.5736L13.5323 16.6642Z" fill="#8C90A5" stroke="#8C90A5" stroke-width="0.2"/>
<path d="M17.6 14.7916L17.627 14.6953C16.9774 14.5131 16.462 13.9977 16.2797 13.3481C16.1731 12.961 15.776 12.7391 15.3902 12.8452C15.0029 12.9517 14.7808 13.3488 14.8869 13.7348L14.8869 13.7348L14.887 13.7352C15.2046 14.8681 16.1049 15.7689 17.2374 16.0872C17.2987 16.1073 17.3671 16.1165 17.4333 16.1165C17.7523 16.1165 18.0425 15.9041 18.1297 15.5849C18.236 15.2073 18.0138 14.8017 17.6265 14.6951L17.6 14.7916ZM17.6 14.7916C17.9333 14.8832 18.125 15.2332 18.0334 15.5582L14.9833 13.7082C14.8917 13.3749 15.0833 13.0333 15.4167 12.9416C15.75 12.8499 16.0917 13.0416 16.1833 13.3749C16.375 14.0582 16.9167 14.5999 17.6 14.7916Z" fill="#8C90A5" stroke="#8C90A5" stroke-width="0.2"/>
<path d="M12.6789 12.1626L12.6786 12.1625C11.8277 11.9098 10.9181 11.775 10.0002 11.775C5.67151 11.775 2.1168 14.7031 2.1168 18.3333C2.1168 18.7302 2.4449 19.0583 2.8418 19.0583C3.23955 19.0583 3.5668 18.7294 3.5668 18.325C3.5668 15.5252 6.43298 13.2167 10.0002 13.2167C10.7817 13.2167 11.5387 13.3318 12.263 13.5458C12.6407 13.6616 13.0464 13.4486 13.1625 13.0624C13.2786 12.6845 13.0653 12.2785 12.6789 12.1626Z" fill="#8C90A5" stroke="#8C90A5" stroke-width="0.2"/>
</svg>
