<svg width="16" height="16" viewBox="0 0 16 16" fill="none" xmlns="http://www.w3.org/2000/svg">
<path d="M8.00141 5.16671V8.66671M14.0547 5.72004V10.28C14.0547 11.0267 13.6547 11.72 13.0081 12.1L9.04807 14.3867C8.40141 14.76 7.60141 14.76 6.94808 14.3867L2.98808 12.1C2.66926 11.9152 2.4047 11.6497 2.22097 11.3302C2.03725 11.0108 1.94083 10.6486 1.94141 10.28V5.72004C1.94141 4.97337 2.34141 4.28004 2.98808 3.90004L6.94808 1.61337C7.59474 1.24004 8.39474 1.24004 9.04807 1.61337L13.0081 3.90004C13.6547 4.28004 14.0547 4.96671 14.0547 5.72004Z" stroke="#FF0000" stroke-linecap="round" stroke-linejoin="round"/>
<path d="M8 10.7999V10.8666" stroke="#FF0000" stroke-width="1.33333" stroke-linecap="round" stroke-linejoin="round"/>
</svg>
