<svg width="20" height="20" viewBox="0 0 20 20" fill="none" xmlns="http://www.w3.org/2000/svg">
<g clip-path="url(#clip0_28_5668)">
<path d="M7.79063 3.79408L7.79081 3.79417L14.9241 7.36084C16.4806 8.13909 17.1583 9.11328 17.1583 10.0008C17.1583 10.8884 16.4806 11.8626 14.9241 12.6409L7.79081 16.2075C6.60893 16.7985 5.62371 17.1091 4.85302 17.1825C4.08105 17.2561 3.5658 17.0897 3.25808 16.7816C2.95033 16.4734 2.78456 15.9578 2.85875 15.1862C2.93281 14.4159 3.24391 13.4318 3.83474 12.2521C3.83479 12.252 3.83483 12.2519 3.83488 12.2519L4.55966 10.8106L4.55967 10.8106L4.56102 10.8079C4.81018 10.2996 4.81018 9.71043 4.56102 9.20213L4.56103 9.20213L4.55997 9.20001L3.83497 7.75001L3.83488 7.74983C3.24398 6.5701 2.93339 5.58597 2.85995 4.81573C2.78639 4.04424 2.95276 3.52858 3.26107 3.22027C3.56937 2.91196 4.08503 2.74559 4.85653 2.81915C5.62676 2.89259 6.6109 3.20319 7.79063 3.79408ZM7.86664 10.9258H12.3666C12.874 10.9258 13.2916 10.5082 13.2916 10.0008C13.2916 9.49349 12.874 9.07585 12.3666 9.07585H7.86664C7.35929 9.07585 6.94164 9.49349 6.94164 10.0008C6.94164 10.5082 7.35929 10.9258 7.86664 10.9258Z" fill="#1678F2" stroke="#1678F2" stroke-width="0.599997"/>
</g>
<defs>
<clipPath id="clip0_28_5668">
<rect width="20" height="20" fill="white"/>
</clipPath>
</defs>
</svg>
