<svg width="10" height="10" viewBox="0 0 10 10" fill="none" xmlns="http://www.w3.org/2000/svg">
<path d="M6.70002 4.99987C6.70002 5.21472 6.61721 5.42925 6.45455 5.59191L3.73789 8.30857C3.73705 8.30941 3.73465 8.31133 3.72918 8.31133C3.72371 8.31133 3.72131 8.30941 3.72048 8.30857C3.71965 8.30774 3.71772 8.30534 3.71772 8.29987C3.71772 8.2944 3.71965 8.292 3.72048 8.29117L6.43715 5.5745C6.7543 5.25734 6.7543 4.7424 6.43715 4.42524L3.72048 1.70857C3.71965 1.70774 3.71772 1.70534 3.71772 1.69987C3.71772 1.6944 3.71965 1.692 3.72048 1.69117C3.72131 1.69033 3.72371 1.68841 3.72918 1.68841C3.73465 1.68841 3.73705 1.69033 3.73789 1.69117L6.45455 4.40783C6.61721 4.57049 6.70002 4.78502 6.70002 4.99987Z" fill="#19224C" stroke="#19224C" stroke-width="0.599997"/>
</svg>
