<svg width="18" height="18" viewBox="0 0 18 18" fill="none" xmlns="http://www.w3.org/2000/svg">
<path d="M9 16.875C4.6575 16.875 1.125 13.3425 1.125 9C1.125 4.6575 4.6575 1.125 9 1.125C13.3425 1.125 16.875 4.6575 16.875 9C16.875 13.3425 13.3425 16.875 9 16.875ZM9 2.25C5.27625 2.25 2.25 5.27625 2.25 9C2.25 12.7238 5.27625 15.75 9 15.75C12.7238 15.75 15.75 12.7238 15.75 9C15.75 5.27625 12.7238 2.25 9 2.25Z" fill="#19224C"/>
<path d="M9 5.0625C7.75125 5.0625 6.75 6.06375 6.75 7.3125H7.875C7.875 6.69375 8.38125 6.1875 9 6.1875C9.61875 6.1875 10.125 6.69375 10.125 7.3125C10.125 8.4375 8.4375 8.3025 8.4375 10.125H9.5625C9.5625 8.865 11.25 8.71875 11.25 7.3125C11.25 6.06375 10.2487 5.0625 9 5.0625Z" fill="#19224C"/>
<path d="M8.99999 13.0722C9.38521 13.0722 9.69749 12.76 9.69749 12.3747C9.69749 11.9895 9.38521 11.6772 8.99999 11.6772C8.61477 11.6772 8.30249 11.9895 8.30249 12.3747C8.30249 12.76 8.61477 13.0722 8.99999 13.0722Z" fill="#19224C"/>
<path d="M7.3125 7.875C7.62316 7.875 7.875 7.62316 7.875 7.3125C7.875 7.00184 7.62316 6.75 7.3125 6.75C7.00184 6.75 6.75 7.00184 6.75 7.3125C6.75 7.62316 7.00184 7.875 7.3125 7.875Z" fill="#19224C"/>
<path d="M9 10.6875C9.31066 10.6875 9.5625 10.4357 9.5625 10.125C9.5625 9.81434 9.31066 9.5625 9 9.5625C8.68934 9.5625 8.4375 9.81434 8.4375 10.125C8.4375 10.4357 8.68934 10.6875 9 10.6875Z" fill="#19224C"/>
</svg>
