<svg width="16" height="16" viewBox="0 0 16 16" fill="none" xmlns="http://www.w3.org/2000/svg">
<path d="M1.80657 5.71554C1.80657 6.18024 1.80566 6.64449 1.8052 7.1092C1.24993 6.66725 0.694193 6.2253 0.138916 5.78336C0.268177 5.43244 0.500756 5.16573 0.808434 4.96046C0.861686 4.93542 0.90629 4.95454 0.949074 4.98685C1.21988 5.18894 1.46976 5.41697 1.74103 5.61814C1.7738 5.64226 1.78153 5.68505 1.80566 5.716L1.80657 5.71554Z" fill="#FE6500"/>
<path d="M1.80652 5.71554C1.51295 5.48387 1.21892 5.25266 0.926265 5.01962C0.890308 4.99095 0.856173 4.9641 0.808838 4.96046C1.13154 4.69784 1.45378 4.43522 1.77648 4.1726C1.81562 4.18944 1.81471 4.22494 1.81471 4.25862C1.81243 4.74426 1.8097 5.23036 1.80697 5.716L1.80652 5.71554Z" fill="#FE8200"/>
<path d="M1.60568 15.9923C1.1296 15.9235 0.730437 15.7119 0.418662 15.3432C0.317165 15.2231 0.217944 15.1002 0.17334 14.9445C0.191546 14.8803 0.241156 14.843 0.290767 14.8039C2.10589 13.352 3.92055 11.8996 5.73612 10.4481C5.77618 10.4163 5.81395 10.3821 5.85264 10.3485C6.06883 10.1832 6.27411 10.0044 6.49303 9.8428C7.19987 9.32075 8.05918 9.32029 8.7683 9.8428C8.98722 10.0039 9.19341 10.1823 9.40869 10.348C10.1233 10.9342 10.8501 11.505 11.5706 12.0835C12.7071 12.9956 13.8459 13.9041 14.9842 14.8139C15.0293 14.8498 15.0711 14.8867 15.088 14.9445C14.8258 15.5034 14.3889 15.8393 13.7876 15.9659C13.7439 15.975 13.6998 15.9836 13.6556 15.9923C13.6001 15.9745 13.5428 15.9832 13.4863 15.9832C9.58255 15.9832 5.67832 15.9832 1.77454 15.9832C1.7181 15.9832 1.66121 15.975 1.60523 15.9923H1.60568Z" fill="#FEC243"/>
<path d="M1.80639 4.1462C1.80639 3.64236 1.80958 3.13851 1.80685 2.63466C1.8032 1.96059 2.30386 1.43763 2.99068 1.45402C3.65838 1.4704 4.32698 1.45766 4.99468 1.4572C5.0675 1.4572 5.1426 1.46858 5.2086 1.42261C5.39976 1.39485 5.59229 1.40213 5.78436 1.40213C6.99322 1.40213 8.20255 1.40213 9.41141 1.40213C9.62624 1.40213 9.84107 1.39439 10.0545 1.42216C10.1196 1.46949 10.1952 1.45675 10.268 1.45675C10.9471 1.4572 11.6261 1.4613 12.3057 1.45584C12.9588 1.45083 13.4385 1.9301 13.4526 2.60007C13.4636 3.11484 13.4558 3.63007 13.4563 4.14529C13.4745 4.64413 13.4586 5.14297 13.4654 5.64181C13.4672 5.78472 13.3712 5.85254 13.2788 5.92627C12.7117 6.37914 12.1446 6.83201 11.5788 7.2867C10.9161 7.81968 10.2466 8.344 9.58573 8.87971C9.38592 9.04174 9.38228 9.03218 9.15608 8.89792C8.14429 8.29803 7.12704 8.29257 6.11297 8.89291C5.87857 9.03173 5.88358 9.04038 5.67103 8.8697C4.45033 7.89068 3.22826 6.91303 2.00392 5.93856C1.85737 5.82159 1.78773 5.69597 1.7941 5.50572C1.80912 5.0524 1.78682 4.59862 1.80594 4.14529L1.80639 4.1462Z" fill="#EEF2F8"/>
<path d="M0.00787023 13.6842C0.00604965 13.5764 0.0028643 13.4689 0.0028643 13.3611C0.0028643 11.0298 0.00240827 8.69811 0.00195312 6.36685C0.00195312 6.16158 0.0433718 5.96633 0.138952 5.78336C0.207224 5.76015 0.241816 5.81613 0.283234 5.8489C0.800279 6.25762 1.31414 6.67044 1.828 7.08325C2.85799 7.90524 3.88662 8.72906 4.91479 9.55287C4.96258 9.5911 5.01993 9.62342 5.02038 9.69715C5.00127 9.75586 4.94984 9.78317 4.90614 9.81867C3.34317 11.074 1.7752 12.3233 0.21041 13.5768C0.151241 13.6241 0.0984451 13.6933 0.00741603 13.6842H0.00787023Z" fill="#FEA121"/>
<path d="M15.1226 5.78381C15.2132 5.94994 15.2583 6.13109 15.2583 6.31633C15.261 8.74954 15.2596 11.1832 15.2592 13.6164C15.2592 13.6392 15.256 13.6615 15.2542 13.6842C15.1631 13.6933 15.1103 13.6241 15.0512 13.5768C13.4873 12.3242 11.9202 11.0749 10.3582 9.82049C10.3145 9.78545 10.263 9.75768 10.2416 9.70034C10.238 9.63343 10.2863 9.6002 10.3304 9.56516C11.3649 8.73816 12.3968 7.90752 13.4336 7.08325C13.9443 6.67544 14.4517 6.26399 14.9651 5.85982C15.0107 5.82387 15.0475 5.76105 15.1226 5.78336V5.78381Z" fill="#FEA121"/>
<path d="M13.4573 7.1092C12.593 7.80329 11.7287 8.49739 10.8648 9.19194C10.6577 9.35852 10.4525 9.52647 10.2463 9.69396C9.98958 9.95522 9.71013 10.1878 9.39334 10.3735C9.1685 10.2406 8.98144 10.0585 8.77571 9.9006C8.07342 9.36171 7.18544 9.36171 6.48816 9.9006C6.28289 10.059 6.09536 10.2406 5.87098 10.3735C5.64067 10.2797 5.48228 10.0881 5.28839 9.94475C5.19054 9.87193 5.07538 9.81185 5.01758 9.69396C4.18421 9.0249 3.35038 8.35629 2.51701 7.68677C2.27897 7.49561 2.04275 7.30218 1.80562 7.10965C1.76284 7.04001 1.75283 6.96309 1.75328 6.88299C1.75465 6.4952 1.7501 6.10742 1.7551 5.71918C1.75374 5.28816 1.75419 4.85714 1.75328 4.42611C1.75328 4.34055 1.75647 4.25635 1.77695 4.17305C1.78696 4.16441 1.79697 4.15576 1.80699 4.14711C1.86297 4.19718 1.84067 4.26363 1.84112 4.32325C1.84294 4.7429 1.84613 5.16299 1.83976 5.58264C1.83794 5.69597 1.87116 5.77835 1.95764 5.84708C2.72228 6.45424 3.48602 7.06186 4.24975 7.67039C4.76634 8.08184 5.28475 8.49102 5.79406 8.91066C5.88509 8.98576 5.93652 8.96255 6.01025 8.91066C6.50682 8.55701 7.06846 8.40226 7.67017 8.41C8.23455 8.41728 8.76661 8.56429 9.2304 8.89928C9.34829 8.98439 9.42566 8.96027 9.52215 8.8829C10.5967 8.02176 11.6723 7.16245 12.7473 6.30177C12.9412 6.14656 13.1287 5.98362 13.3263 5.83297C13.4041 5.7738 13.4246 5.70871 13.4237 5.61677C13.42 5.18575 13.4214 4.75427 13.4232 4.32325C13.4232 4.26363 13.4014 4.19672 13.4573 4.14711C13.4674 4.1553 13.4774 4.1635 13.4874 4.17214C13.5329 4.40836 13.5047 4.64686 13.5088 4.88445C13.5138 5.16208 13.5106 5.43972 13.5079 5.71782C13.5133 6.10651 13.5088 6.4952 13.5101 6.88344C13.5101 6.96355 13.5006 7.04092 13.4578 7.11056L13.4573 7.1092Z" fill="#CEDFF2"/>
<path d="M5.01712 9.69306C5.31251 9.90561 5.59379 10.1364 5.87051 10.3726C5.63065 10.6134 5.35074 10.8063 5.08766 11.0189C4.26157 11.6866 3.42957 12.3475 2.59938 13.0106C1.79105 13.6555 0.982253 14.2996 0.173916 14.9441C0.0328206 14.681 -0.00996301 14.3983 0.00187076 14.1039C0.0073325 13.9641 0.00596729 13.824 0.00778787 13.6838C0.915347 12.9605 1.82382 12.2387 2.73001 11.5136C3.43822 10.947 4.14324 10.3762 4.85053 9.80821C4.90333 9.76588 4.96159 9.73083 5.01712 9.6926V9.69306Z" fill="#FE8100"/>
<path d="M9.39279 10.3735C9.66906 10.1373 9.95034 9.90697 10.2457 9.69396C10.7068 10.0576 11.1688 10.4204 11.6285 10.7859C12.2871 11.3097 12.9438 11.8359 13.6006 12.3611C14.1522 12.8021 14.703 13.2432 15.2541 13.6842C15.2605 14.0907 15.3019 14.5012 15.1212 14.8867C15.1117 14.9067 15.0989 14.9249 15.088 14.9445C13.9806 14.0588 12.8733 13.1731 11.765 12.2883C11.0013 11.6784 10.2357 11.0708 9.47153 10.4609C9.44103 10.4368 9.41873 10.4026 9.39233 10.3735H9.39279Z" fill="#FE8100"/>
<path d="M10.0552 1.42261C10.0224 1.4836 9.96416 1.45629 9.91865 1.45629C8.39437 1.45811 6.87009 1.45811 5.34626 1.45629C5.30029 1.45629 5.24249 1.48406 5.20972 1.42307C5.62253 1.09627 6.03672 0.7713 6.44771 0.44223C7.18459 -0.147638 8.07895 -0.147183 8.81765 0.44223C9.2291 0.770845 9.64328 1.09582 10.0561 1.42216L10.0552 1.42261Z" fill="#FE8200"/>
<path d="M13.4574 7.1092C13.4574 6.64449 13.4565 6.18024 13.4561 5.71554C13.5835 5.53075 13.7829 5.42789 13.9467 5.28406C14.0564 5.18757 14.1743 5.10064 14.2885 5.00916C14.3377 4.96956 14.385 4.9286 14.4546 4.96046C14.7623 5.16618 14.994 5.43335 15.1233 5.78381C14.568 6.22576 14.0127 6.6677 13.4574 7.1092Z" fill="#FE6500"/>
<path d="M14.4541 4.96046C14.2725 5.031 14.1514 5.18439 13.998 5.29408C13.8123 5.42743 13.6362 5.57445 13.4555 5.71554C13.4528 5.22945 13.45 4.7429 13.4478 4.2568C13.4478 4.22312 13.4468 4.18762 13.486 4.17078C13.8087 4.43385 14.1309 4.69693 14.4536 4.96046H14.4541Z" fill="#FE8200"/>
<path d="M1.60571 15.9923C1.66033 15.9467 1.72542 15.9668 1.78595 15.9668C5.68245 15.9659 9.57894 15.9659 13.4759 15.9668C13.536 15.9668 13.6015 15.9463 13.6561 15.9923C13.6052 15.995 13.5546 16 13.5037 16C9.5885 16 5.6738 16 1.75864 16C1.70766 16 1.65714 15.995 1.60617 15.9923H1.60571Z" fill="#FEAF30"/>
<path d="M4.72859 5.51664C4.72632 3.93501 5.89376 2.67335 7.41622 2.5541C8.91684 2.43622 10.2568 3.50581 10.5007 5.01371C10.5886 5.55624 10.5194 6.05417 10.1139 6.46426C9.67921 6.90347 8.98147 7.0564 8.52814 6.75919C8.31149 6.61718 8.18724 6.63311 7.97196 6.75373C7.51818 7.00815 7.04756 6.96856 6.63383 6.64085C6.19507 6.29312 6.08402 5.82569 6.2201 5.2959C6.43994 4.44068 7.27195 3.88995 8.14901 4.01193C8.48946 4.05927 8.7589 4.3674 8.75344 4.72651C8.74798 5.06696 8.72568 5.40695 8.70656 5.74649C8.68927 6.06373 8.86723 6.22257 9.18173 6.16431C9.57043 6.0924 9.81575 5.79155 9.80938 5.39557C9.79026 4.26727 8.87815 3.34424 7.71252 3.27369C6.64475 3.20906 5.63661 4.03332 5.48186 5.11338C5.35305 6.01184 5.67029 6.74144 6.41172 7.25075C7.13221 7.74549 7.9046 7.75823 8.68289 7.36089C8.73797 7.33267 8.79349 7.29945 8.85266 7.28488C9.03062 7.24028 9.19994 7.32812 9.2714 7.49334C9.34422 7.6622 9.28869 7.84425 9.11756 7.94939C8.77984 8.15648 8.41117 8.28711 8.01884 8.33354C6.47589 8.51559 5.12184 7.5566 4.7864 6.05007C4.74316 5.85573 4.72495 5.65819 4.72814 5.51664H4.72859Z" fill="#0D3B8C"/>
<path d="M8.01378 5.16755C8.00103 5.33732 7.99557 5.50754 7.97372 5.67594C7.93731 5.95313 7.67196 6.17979 7.39524 6.18115C7.1003 6.18298 6.87182 5.9331 6.89548 5.63453C6.93645 5.11612 7.40525 4.70557 7.92502 4.72424C8.01969 4.72788 8.04109 4.75837 8.02971 4.84439C8.01605 4.9509 8.01241 5.05922 8.00422 5.16664C8.00741 5.16664 8.01059 5.16709 8.01378 5.16755Z" fill="#EEF2F8"/>
</svg>
