<svg width="16" height="16" viewBox="0 0 16 16" fill="none" xmlns="http://www.w3.org/2000/svg">
<path d="M2.48095 4.38479C2.48141 3.12673 2.48233 1.8682 2.48279 0.610139C2.48279 0.214748 2.69523 0 3.0874 0C6.36205 0 9.63717 0 12.9118 0C13.304 0 13.5169 0.214747 13.5169 0.609678C13.5178 1.86774 13.5183 3.12627 13.5187 4.38433C13.5588 4.44378 13.5717 4.5106 13.5717 4.58111C13.5713 5.75346 13.5773 6.92581 13.5685 8.09816C13.5685 8.10968 13.5662 8.1212 13.5648 8.1318C13.5275 8.3189 13.3625 8.40323 13.239 8.51429C12.7491 8.953 12.2579 9.39032 11.7653 9.82627C11.3625 10.1825 10.9634 10.5429 10.5579 10.8954C10.5229 10.9258 10.4874 10.9544 10.439 10.9599C10.3372 10.9613 10.2745 10.8922 10.2026 10.835C9.81275 10.5253 9.46943 10.1576 9.04178 9.89493C8.38187 9.49032 7.37081 9.52258 6.71413 10.059C6.41689 10.3018 6.13486 10.5622 5.84823 10.818C5.77588 10.8825 5.71229 10.9613 5.6003 10.9535C5.40629 10.8774 5.28417 10.7092 5.13579 10.5783C4.67311 10.1691 4.21136 9.75899 3.75053 9.34747C3.39247 9.02719 3.03486 8.70599 2.67127 8.39171C2.56804 8.30231 2.45238 8.22074 2.4344 8.06728C2.41827 6.90507 2.43026 5.74332 2.42749 4.58111C2.42749 4.51106 2.44039 4.4447 2.48049 4.38525L2.48095 4.38479Z" fill="#F2F4F8"/>
<path d="M5.5875 10.929C5.68197 10.9373 5.72806 10.8618 5.78658 10.8111C6.08059 10.5558 6.36723 10.2917 6.66585 10.0419C7.41516 9.41567 8.58198 9.41613 9.33313 10.0396C9.64603 10.2991 9.95294 10.5659 10.2635 10.8286C10.3193 10.8756 10.3677 10.9378 10.4511 10.9387C11.182 11.5489 11.8999 12.1742 12.6267 12.7894C13.2046 13.2783 13.7769 13.7742 14.3566 14.2613C14.6861 14.5378 15.0069 14.8249 15.34 15.0972C15.388 15.1364 15.4396 15.177 15.4516 15.2452C15.0921 15.6848 14.6202 15.9152 14.0658 15.9945C14.0101 15.976 13.9539 15.9756 13.8981 15.9945C13.8525 15.9963 13.8064 16 13.7608 16C9.91976 16 6.07921 16 2.2382 16C2.19257 16 2.14649 15.9963 2.10087 15.9945C2.04511 15.9747 1.98935 15.976 1.93313 15.9936C1.43681 15.9184 0.997642 15.7295 0.652941 15.3521C0.628056 15.3037 0.663542 15.277 0.692574 15.2512C1.06907 14.9157 1.44787 14.583 1.82668 14.2502C2.26999 13.8608 2.71193 13.47 3.15433 13.0797C3.60548 12.682 4.05571 12.2834 4.50778 11.8862C4.86907 11.5687 5.22621 11.247 5.58704 10.929H5.5875Z" fill="#FED44F"/>
<path d="M5.58751 10.929C5.49903 11.1419 5.28981 11.2383 5.13544 11.3848C4.80456 11.7 4.44926 11.9899 4.10548 12.2917C3.5382 12.7899 2.97092 13.288 2.40548 13.788C1.9723 14.1705 1.54189 14.5558 1.11055 14.9406C0.957555 15.077 0.805943 15.2147 0.653408 15.3521C0.250182 14.9631 0.0423473 14.4853 0.00732422 13.929C0.0243749 13.8848 0.0179252 13.8383 0.0179252 13.7926C0.0179252 11.5862 0.0179252 9.37926 0.0179252 7.17281C0.0179252 7.12719 0.0243754 7.08065 0.0077855 7.03595C0.0248362 6.7424 0.0865878 6.46175 0.238662 6.20599C0.322993 6.1553 0.36493 6.22811 0.412856 6.27005C0.698571 6.51798 0.981979 6.76913 1.26308 7.02258C1.63774 7.36083 2.02299 7.6871 2.39027 8.03272C2.42392 8.06452 2.4594 8.09355 2.47737 8.13733C2.74143 8.42535 3.05018 8.66452 3.33958 8.92489C4.08613 9.59586 4.83774 10.2613 5.58705 10.929H5.58751Z" fill="#FEC007"/>
<path d="M15.4521 15.2442C14.9549 14.8221 14.4572 14.4 13.9599 13.9774C13.3664 13.4737 12.7724 12.9705 12.1802 12.4654C11.7535 12.1014 11.3291 11.7341 10.9028 11.3691C10.794 11.276 10.6825 11.1866 10.5728 11.0945C10.5212 11.0512 10.4549 11.0184 10.4512 10.9378C11.4742 10.0267 12.4973 9.11567 13.5203 8.20507C13.6456 7.9765 13.8719 7.84747 14.0558 7.67834C14.4221 7.34101 14.7931 7.00922 15.1728 6.6871C15.3678 6.52166 15.5235 6.30783 15.7636 6.1977C15.8341 6.21429 15.8383 6.28111 15.8567 6.33134C15.9456 6.57465 16.0009 6.82442 16.0009 7.08617C15.9991 9.34839 16.0032 11.6101 15.9977 13.8724C15.9963 14.3959 15.8037 14.8539 15.4521 15.2438V15.2442Z" fill="#FEC007"/>
<path d="M15.7638 6.19816C15.4223 6.50876 15.0822 6.82074 14.7389 7.12903C14.4799 7.36175 14.2172 7.5894 13.9564 7.81982C13.8108 7.94793 13.6661 8.07696 13.5209 8.20553C13.5205 6.9318 13.52 5.65807 13.5195 4.38433C14.0887 4.73272 14.6499 5.09447 15.1933 5.48157C15.4472 5.66267 15.6301 5.91429 15.7642 6.19816H15.7638Z" fill="#FE9F00"/>
<path d="M2.47745 8.13733C2.30049 8.05668 2.18621 7.89816 2.04427 7.7765C1.56685 7.36729 1.11109 6.93364 0.635516 6.52212C0.508788 6.41244 0.406023 6.26636 0.238281 6.20599C0.364088 5.90876 0.557636 5.65807 0.817083 5.47466C1.35856 5.09217 1.91524 4.7318 2.48068 4.38479C2.47976 5.63549 2.47838 6.88664 2.47745 8.13733Z" fill="#FE9F00"/>
<path d="M0.00737204 7.03595C0.053455 7.09125 0.0336397 7.15714 0.0336397 7.21843C0.0345613 9.39447 0.0345613 11.571 0.0336397 13.747C0.0336397 13.8078 0.0539182 13.8742 0.00691357 13.929C0.00460942 13.8834 0 13.8373 0 13.7917C0 11.5857 0 9.37927 0 7.17327C0 7.12765 0.00460942 7.08157 0.00691357 7.03595H0.00737204Z" fill="#FEB304"/>
<path d="M1.93359 15.9931C1.98981 15.9512 2.04557 15.9507 2.10133 15.994C2.04557 15.994 1.98981 15.9936 1.93359 15.9931Z" fill="#FECE42"/>
<path d="M13.8984 15.994C13.9542 15.9512 14.01 15.9512 14.0662 15.994C14.0104 15.994 13.9547 15.994 13.8984 15.994Z" fill="#FECE41"/>
<path d="M7.69727 6.93871C7.3945 6.94378 7.13367 6.83733 6.92031 6.62627C6.524 6.23456 6.12907 5.84148 5.74013 5.4424C5.41616 5.10968 5.42031 4.60092 5.73874 4.2788C6.06225 3.95161 6.5733 3.95023 6.91432 4.28019C7.14105 4.5 7.36593 4.72258 7.58344 4.95162C7.66685 5.03963 7.71478 5.03641 7.79957 4.95115C8.40142 4.34286 9.00649 3.73733 9.61524 3.13549C10.0793 2.6765 10.8162 2.83549 11.0083 3.43549C11.1051 3.73733 11.0553 4.02443 10.8318 4.25115C10.0374 5.05668 9.23598 5.85622 8.43275 6.653C8.23275 6.85115 7.98022 6.93963 7.69773 6.93871H7.69727Z" fill="#4AC965"/>
<path d="M3.60313 14.6203C3.76949 14.6203 3.93539 14.618 4.10175 14.6207C4.29345 14.624 4.41004 14.7277 4.41235 14.8917C4.41511 15.0562 4.2976 15.1691 4.1105 15.171C3.76074 15.1742 3.41143 15.1742 3.06166 15.171C2.8741 15.1691 2.75705 15.0562 2.75981 14.8917C2.76212 14.7277 2.87871 14.624 3.07041 14.6207C3.24783 14.618 3.42571 14.6203 3.60359 14.6203H3.60313Z" fill="#FEFEFE"/>
<path d="M5.51609 14.8899C5.51931 15.0406 5.4018 15.1654 5.25157 15.171C5.09443 15.177 4.96494 15.0512 4.96632 14.8936C4.9677 14.7424 5.08798 14.6221 5.23913 14.6212C5.39028 14.6203 5.5124 14.7392 5.51609 14.8899Z" fill="#FEFEFC"/>
</svg>
