<svg width="17" height="16" viewBox="0 0 17 16" fill="none" xmlns="http://www.w3.org/2000/svg">
<path d="M7.57292 8.00439C7.4293 8.19383 7.28567 8.38326 7.14204 8.5727C7.04184 8.64332 6.92636 8.62996 6.81423 8.62996C5.26773 8.63044 3.72123 8.62996 2.17473 8.62996C2.12701 8.62996 2.07977 8.62996 2.03206 8.62996C1.79586 8.63235 1.70043 8.77836 1.78536 9.00167C1.80588 9.05511 1.84358 9.07229 1.8932 9.07897C1.9643 9.08804 2.03587 9.08518 2.10697 9.08518C3.57617 9.08518 5.04537 9.08518 6.51457 9.08661C6.61907 9.08661 6.73072 9.06227 6.82186 9.14291L6.57087 9.71552C6.4783 9.79138 6.36712 9.77087 6.26215 9.77087C4.90031 9.7723 3.53847 9.77182 2.17664 9.77182C2.12892 9.77182 2.08168 9.77182 2.03397 9.77182C1.79443 9.77421 1.70233 9.91258 1.78393 10.1411C1.80302 10.1946 1.83928 10.2142 1.88938 10.2208C1.96048 10.2304 2.03206 10.2275 2.10315 10.2275C3.44113 10.2275 4.77911 10.2275 6.11709 10.2285C6.22206 10.2285 6.33324 10.2065 6.42581 10.2819C6.36426 10.4694 6.33229 10.6622 6.31941 10.8583C6.22683 10.9337 6.11566 10.9122 6.01068 10.9127C4.72614 10.9142 3.44161 10.9137 2.15707 10.9137C2.11556 10.9137 2.07405 10.9137 2.03206 10.9137C1.79395 10.9161 1.70043 11.0573 1.78393 11.284C1.80349 11.3374 1.84024 11.3565 1.89034 11.3632C1.96144 11.3727 2.03301 11.3699 2.10411 11.3699C3.39437 11.3699 4.68511 11.3699 5.97537 11.3708C6.08034 11.3708 6.19152 11.3498 6.2841 11.4257C6.2903 11.618 6.27121 11.8112 6.31988 12.0007C6.22731 12.0761 6.11613 12.0546 6.01116 12.0551C4.72662 12.0565 3.44161 12.056 2.15707 12.056C2.11556 12.056 2.07357 12.056 2.03206 12.056C1.79586 12.0589 1.70233 12.1996 1.78202 12.4282C1.80111 12.4826 1.8369 12.5007 1.88748 12.5069C1.94092 12.5136 1.99436 12.5122 2.0478 12.5122C3.38626 12.5122 4.72424 12.5122 6.06269 12.5127C6.17673 12.5127 6.28839 12.505 6.3948 12.4611L6.57183 13.1392C6.48164 13.2213 6.36951 13.1965 6.26501 13.1969C4.9027 13.1988 3.54038 13.1979 2.17759 13.1984C2.12988 13.1984 2.08264 13.1984 2.03492 13.1984C1.79347 13.2007 1.70233 13.3367 1.78345 13.5667C1.80254 13.6207 1.83833 13.6402 1.88843 13.6474C1.95953 13.6574 2.0311 13.6541 2.1022 13.6541C3.57188 13.6541 5.04107 13.6541 6.51075 13.655C6.6162 13.655 6.72691 13.6354 6.81948 13.7104C7.03707 14.105 7.27374 14.4867 7.61157 14.8527H0.570971C0.497964 14.7663 0.515142 14.6614 0.515142 14.5621C0.513711 13.6049 0.514188 12.6477 0.514188 11.6905C0.514188 7.90943 0.514188 4.12836 0.515142 0.347288C0.515142 0.230859 0.488421 0.107272 0.570494 0.00324959C3.3896 0.00277242 6.2087 0.00229723 9.02781 0.00229723C9.07934 0.00229723 9.13612 -0.012972 9.17811 0.0352219C9.19672 0.116818 9.19911 0.19889 9.19863 0.282394C9.19768 0.857381 9.1972 1.43237 9.19863 2.00688C9.19911 2.2154 9.21247 2.22876 9.42099 2.22924C9.99598 2.23114 10.571 2.23019 11.146 2.22924C11.229 2.22924 11.3115 2.23114 11.3931 2.24975C11.4451 2.29795 11.4256 2.36094 11.4256 2.4182C11.4265 3.64404 11.4241 4.8694 11.4294 6.09525C11.4299 6.23983 11.3946 6.28755 11.2423 6.28898C10.7179 6.2947 10.2117 6.41542 9.71302 6.57098C9.66101 6.34958 9.50211 6.33669 9.30981 6.33812C8.40129 6.34576 7.49276 6.34051 6.58423 6.3429C6.5055 6.3429 6.39862 6.30997 6.3614 6.40541C6.32036 6.50991 6.32036 6.63158 6.36665 6.73656C6.40434 6.82197 6.50073 6.79811 6.57469 6.79811C7.0676 6.80098 7.56052 6.79907 8.05343 6.79954C8.30299 6.79954 8.55207 6.79764 8.80163 6.8005C8.88323 6.80145 8.97007 6.78953 9.03592 6.85871C8.74532 7.05435 8.43087 7.21611 8.17511 7.46185C7.77954 7.5048 7.38301 7.47426 6.98649 7.48237C6.86194 7.48524 6.73788 7.48237 6.61334 7.48285C6.35806 7.4838 6.27169 7.60739 6.34899 7.85313C6.37857 7.94665 6.45254 7.93998 6.52125 7.94141C6.79371 7.9457 7.06617 7.94141 7.33863 7.94427C7.41975 7.94522 7.5066 7.93234 7.57197 8.00153L7.57292 8.00439Z" fill="#EFEFEF"/>
<path d="M11.569 6.86587C12.6231 6.89546 13.5679 7.23902 14.359 7.92995C15.7443 9.14053 16.2854 10.6784 15.8655 12.4683C15.4455 14.2567 14.2774 15.3838 12.5024 15.8686C12.1984 15.9516 11.8859 15.9927 11.569 15.9922C10.6371 15.9502 9.82117 15.5999 9.10829 15.0188C8.13487 14.2247 7.55702 13.2012 7.4153 11.9439C7.27071 10.6594 7.61762 9.51367 8.42594 8.51592C9.0954 7.68899 9.96098 7.15837 11.0045 6.9279C11.1906 6.88687 11.381 6.88687 11.5695 6.86635L11.569 6.86587Z" fill="#F9B300"/>
<path d="M0.570872 0.0056386C0.571349 3.61684 0.572304 7.22804 0.572781 10.8392C0.572781 12.1777 0.571826 13.5166 0.570872 14.8551C0.422473 14.8551 0.273597 14.8527 0.125198 14.8575C0.0326272 14.8608 -0.00745484 14.8255 0.00113417 14.7329C0.00447434 14.6976 0.00113417 14.6618 0.00113417 14.626C0.00113417 9.82908 0.00113417 5.03164 0.00113417 0.234678C0.00113417 0.0813486 0.0779581 0.00452382 0.231606 0.0042057C0.344695 0.0042057 0.457306 0.00516144 0.570395 0.0056386H0.570872Z" fill="#D1D1D1"/>
<path d="M11.569 6.86587C11.3385 6.91168 11.1038 6.94126 10.8786 7.00616C9.03574 7.53772 7.88863 8.73971 7.50737 10.6193C7.24541 11.9114 7.55127 13.112 8.33955 14.1603C9.07296 15.1357 10.054 15.7445 11.2775 15.9301C11.3753 15.9449 11.4712 15.9717 11.5685 15.9927C9.5067 16.1172 7.53075 14.6451 7.00062 12.5905C6.34165 10.0362 7.93873 7.47283 10.5245 6.94127C10.8681 6.87064 11.2169 6.83724 11.569 6.86635V6.86587Z" fill="#DB9500"/>
<path d="M6.82127 9.14387C5.18697 9.14387 3.55267 9.14148 1.91837 9.14769C1.75232 9.14816 1.70699 9.10092 1.71176 8.93869C1.72226 8.57318 1.71415 8.5727 2.0787 8.5727C3.76644 8.5727 5.45418 8.5727 7.14192 8.5727C7.03504 8.76309 6.92815 8.95348 6.82127 9.14387Z" fill="#D1D1D1"/>
<path d="M6.82026 13.7123C5.17404 13.7123 3.52781 13.7118 1.88206 13.7166C1.74607 13.7166 1.71171 13.6741 1.71267 13.5434C1.71505 13.1425 1.7098 13.1425 2.1154 13.1425C3.60082 13.1425 5.08672 13.1421 6.57214 13.1416C6.65469 13.332 6.73772 13.5224 6.82026 13.7123Z" fill="#D1D1D1"/>
<path d="M6.42627 10.2833C4.90554 10.2843 3.38481 10.2843 1.86407 10.2886C1.74478 10.2886 1.71472 10.2471 1.71329 10.1335C1.70804 9.71504 1.70422 9.71504 2.11554 9.71504C3.60048 9.71504 5.08591 9.71599 6.57085 9.71647C6.52266 9.90543 6.47446 10.0944 6.42675 10.2833H6.42627Z" fill="#D1D1D1"/>
<path d="M6.39459 12.463C6.40032 12.6019 6.29725 12.5704 6.22043 12.5704C5.54858 12.5718 4.87672 12.5714 4.20487 12.5714C3.43186 12.5714 2.65933 12.5685 1.88632 12.5742C1.75653 12.5752 1.7112 12.5423 1.71167 12.4058C1.71406 12.0007 1.70786 12.0002 2.11059 12.0007C3.51346 12.0011 4.91681 12.0021 6.31968 12.0026C6.34449 12.1562 6.36978 12.3099 6.39459 12.4635V12.463Z" fill="#D1D1D1"/>
<path d="M11.3941 2.25262C11.3478 2.30749 11.2843 2.28841 11.2276 2.28841C10.5915 2.28984 9.9559 2.28507 9.31984 2.29222C9.17859 2.29366 9.13756 2.25309 9.13947 2.11185C9.14662 1.47627 9.14233 0.840204 9.14328 0.204617C9.14328 0.147834 9.12372 0.0838934 9.17907 0.0376081C9.91773 0.775786 10.6559 1.51444 11.3946 2.25262H11.3941Z" fill="#D1D1D1"/>
<path d="M6.28438 11.4271C4.81709 11.4276 3.3498 11.4271 1.88251 11.4319C1.74747 11.4319 1.71169 11.3908 1.71216 11.2596C1.71455 10.8579 1.7093 10.8579 2.11394 10.8579C3.51586 10.8583 4.91777 10.8593 6.31969 10.8602C6.30776 11.0492 6.29631 11.2382 6.28438 11.4271Z" fill="#D1D1D1"/>
<path d="M9.03624 6.86158C8.1864 6.86062 7.33657 6.85681 6.48721 6.86158C6.33976 6.86253 6.2763 6.83724 6.28155 6.66976C6.29252 6.28802 6.28346 6.28754 6.66806 6.28754C7.58899 6.28754 8.5104 6.28659 9.43133 6.28754C9.76249 6.28754 9.70618 6.25271 9.71429 6.57289C9.49002 6.67262 9.27434 6.79239 9.03624 6.86062V6.86158Z" fill="#D1D1D1"/>
<path d="M7.57286 8.00439C7.19256 8.00344 6.81178 7.99962 6.43147 8.00344C6.32745 8.00439 6.28642 7.97624 6.28308 7.86363C6.27067 7.43036 6.26685 7.43036 6.7068 7.43036C7.14675 7.43036 7.56284 7.42941 7.99086 7.43179C8.05289 7.43179 8.12303 7.40603 8.17552 7.46519C7.95364 7.62171 7.77899 7.83118 7.57286 8.00487V8.00439Z" fill="#D1D1D1"/>
<path d="M3.92882 5.79272C4.65602 6.02558 5.12937 6.65687 5.14273 7.41461C5.1456 7.56874 5.13987 7.72334 5.14512 7.87794C5.14798 7.96383 5.13176 8.00439 5.0306 8.00392C4.30626 7.99771 3.58192 7.99771 2.85758 7.9958C2.84183 7.97815 2.82561 7.95906 2.82275 7.93521C2.72922 7.07153 2.94156 6.22647 3.92882 5.79368V5.79272Z" fill="#505050"/>
<path d="M5.13918 3.99857C5.14634 4.66613 4.746 5.35277 3.95962 5.63764C3.29445 5.38952 2.9423 4.89135 2.82253 4.20948C2.80917 4.13361 2.80249 4.05536 2.85785 3.98808C2.8755 3.97567 2.89459 3.96708 2.91558 3.96088C3.42377 3.92843 3.93243 3.95372 4.44109 3.94608C4.60094 3.9437 4.76031 3.94418 4.92016 3.94656C4.99651 3.94752 5.07572 3.94131 5.13918 3.9981V3.99857Z" fill="#EFC79F"/>
<path d="M5.13926 3.99857C4.37866 3.99857 3.61805 3.99857 2.85745 3.99857C2.81832 3.96231 2.82023 3.9165 2.82643 3.86926C2.84457 3.80914 2.84791 3.74711 2.84886 3.6846C2.98485 3.04615 3.34177 2.59618 3.96686 2.3743C4.70075 2.64819 5.14928 3.26994 5.13926 3.99905V3.99857Z" fill="#F9B300"/>
<path d="M3.92874 5.79272C3.92731 5.85332 3.87625 5.86716 3.83522 5.88816C3.16146 6.23744 2.84557 6.79621 2.85798 7.54918C2.86036 7.69758 2.85798 7.84645 2.85798 7.99533C2.51394 7.99724 2.16943 7.99962 1.82539 8.00106C1.77433 8.00106 1.71516 8.01537 1.71564 7.929C1.71946 7.51578 1.67413 7.09682 1.86929 6.70793C2.1303 6.18829 2.5378 5.85857 3.11279 5.74405C3.32417 5.62619 3.53556 5.62333 3.74646 5.74453C3.80707 5.76075 3.86814 5.77698 3.92874 5.7932V5.79272Z" fill="#3C3C3C"/>
<path d="M7.99509 2.86005C8.51234 2.86005 9.02911 2.86435 9.54636 2.85719C9.6814 2.85528 9.71767 2.89822 9.71671 3.02992C9.71433 3.43122 9.71958 3.43122 9.31446 3.43122C8.36347 3.43122 7.41247 3.42836 6.46148 3.43456C6.31785 3.43552 6.28063 3.39162 6.28254 3.25276C6.28779 2.86005 6.28158 2.86005 6.67573 2.86005C7.11567 2.86005 7.55514 2.86005 7.99509 2.86005Z" fill="#D1D1D1"/>
<path d="M7.98931 4.57404C7.47827 4.57404 6.96722 4.57022 6.45617 4.5769C6.32543 4.57881 6.28153 4.5435 6.28249 4.40751C6.28487 4.00287 6.27915 4.00287 6.6814 4.00287C7.63239 4.00287 8.58339 4.00525 9.5339 4C9.67133 3.99905 9.71905 4.0334 9.71666 4.17846C9.71093 4.57403 9.71761 4.57404 9.32634 4.57404C8.88066 4.57404 8.43499 4.57404 7.98931 4.57404Z" fill="#D1D1D1"/>
<path d="M7.99219 5.71638C7.47494 5.71638 6.95817 5.71399 6.44092 5.71828C6.32974 5.71924 6.28488 5.69252 6.2825 5.57036C6.27534 5.14473 6.27057 5.14521 6.69573 5.14521C7.63479 5.14521 8.57386 5.14807 9.51292 5.14186C9.66275 5.14091 9.72192 5.16954 9.71715 5.33559C9.70617 5.7159 9.71524 5.71638 9.32921 5.71638C8.88354 5.71638 8.43786 5.71638 7.99219 5.71638Z" fill="#D1D1D1"/>
<path d="M2.8585 3.86019C2.8585 3.906 2.85803 3.95181 2.85755 3.9981L2.85946 4.00812C2.81126 4.04772 2.75353 4.05727 2.69388 4.05822C2.42905 4.06204 2.16422 4.06204 1.89987 4.05822C1.8345 4.05727 1.77008 4.05058 1.72046 3.99953C1.6861 2.84955 2.86757 1.99495 3.96696 2.37382C3.91925 2.46066 3.81952 2.45971 3.74651 2.50361C3.2932 2.77512 2.99306 3.15542 2.89381 3.68173C2.85087 3.73518 2.90002 3.80675 2.85898 3.86019H2.8585Z" fill="#DB9500"/>
<path d="M1.7203 3.99953C2.10013 4.00239 2.47995 4.00525 2.85978 4.00812C2.87982 4.6814 3.18664 5.18052 3.77069 5.5131C3.83606 5.55032 3.92004 5.56082 3.95965 5.63764C3.88998 5.67629 3.77785 5.63001 3.74635 5.74453C3.53497 5.7054 3.32358 5.70588 3.1122 5.74405C3.14035 5.67391 3.085 5.68727 3.04826 5.67725C2.32774 5.47922 1.88779 5.01685 1.73271 4.28344C1.71267 4.18849 1.71601 4.09448 1.7203 3.99953Z" fill="#D1A982"/>
<path d="M11.9985 12.005C11.9985 12.7126 12.0013 13.4202 11.9956 14.1284C11.9947 14.2505 12.0228 14.2896 12.1512 14.2887C12.5854 14.2853 12.5816 14.2906 12.5725 14.7296C12.5701 14.8317 12.541 14.8594 12.4408 14.8589C11.7627 14.8551 11.0847 14.8556 10.4066 14.8589C10.3174 14.8589 10.2854 14.8384 10.2816 14.7415C10.2654 14.2939 10.2621 14.2896 10.7096 14.2892C10.8256 14.2892 10.8585 14.2577 10.858 14.1408C10.8537 12.9039 10.8537 11.6667 10.858 10.4298C10.858 10.3067 10.816 10.2857 10.7053 10.2853C10.2702 10.2853 10.2754 10.2814 10.2802 9.84674C10.2816 9.72697 10.3279 9.71408 10.4272 9.71504C10.9029 9.71886 11.3791 9.72124 11.8548 9.71408C11.977 9.71217 12.0009 9.75417 11.9999 9.86582C11.9956 10.5797 11.9975 11.293 11.9975 12.0069L11.9985 12.005Z" fill="#EFEFEF"/>
<path d="M11.4198 8.00201C11.7309 7.99819 11.9924 8.25061 11.9981 8.56077C12.0043 8.87952 11.7442 9.14435 11.426 9.14339C11.1153 9.14244 10.8581 8.88572 10.8567 8.57556C10.8553 8.26206 11.1067 8.00582 11.4198 8.00248V8.00201Z" fill="#EFEFEF"/>
<path d="M2.85843 3.86019C2.86654 3.80007 2.83409 3.73184 2.89326 3.68173C2.88611 3.74233 2.91664 3.81009 2.85843 3.86019Z" fill="#E2A31C"/>
</svg>
