<svg width="16" height="16" viewBox="0 0 16 16" fill="none" xmlns="http://www.w3.org/2000/svg">
<path d="M15.5912 15.9323C15.5497 15.955 15.5086 15.9773 15.4671 16H0.499365C0.466088 15.9683 0.359602 16.0027 0.406972 15.8978C0.45121 15.8461 0.511501 15.8324 0.575313 15.8297C0.616811 15.8277 0.6587 15.8285 0.700198 15.8285C5.56522 15.8285 10.4306 15.8285 15.2956 15.8305C15.401 15.8305 15.5325 15.7843 15.5912 15.9327V15.9323Z" fill="#FE9202"/>
<path d="M0 15.4688V15.4061C0.0446296 15.2593 -0.0121358 15.1055 0.0321023 14.9586C0.0857361 14.9175 0.149157 14.9215 0.211013 14.9211C0.423591 14.9195 0.635776 14.9191 0.848354 14.9211C0.920387 14.9219 0.995162 14.9179 1.05232 14.9751C1.10008 15.1121 0.967757 15.134 0.907077 15.2018C0.838566 15.2538 0.779452 15.3176 0.707027 15.3642C0.646738 15.4194 0.579011 15.4656 0.516765 15.5189C0.475658 15.5568 0.435726 15.5956 0.389139 15.6273C0.31045 15.6743 0.26073 15.7745 0.147981 15.7585C0.0274029 15.6982 0.0454126 15.5666 0 15.4684V15.4688Z" fill="#FE9302"/>
<path d="M0 11.2818V7.46987C0.0223148 7.46087 0.0395406 7.46675 0.0516767 7.48749C0.0779064 7.53486 0.0806464 7.58693 0.0806464 7.639C0.0802549 8.50654 0.087301 9.37368 0.0775138 10.2412C0.0814287 10.4589 0.0833854 10.6762 0.0767301 10.8938C0.0712493 11.0187 0.0994383 11.1459 0.0493279 11.2677C0.0368002 11.2865 0.0203574 11.2912 0 11.2818Z" fill="#FED557"/>
<path d="M0 11.2818C0.00939571 11.2818 0.0187899 11.2818 0.0277941 11.2818C0.0434536 11.2935 0.0548066 11.3088 0.0618534 11.3268C0.0892575 11.4486 0.0743832 11.5723 0.0763406 11.6952C0.0810385 11.8483 0.0810365 12.0013 0.0767301 12.154C0.079862 12.3063 0.0814296 12.459 0.0759488 12.6113C0.0735998 12.6958 0.0892589 12.7824 0.0485441 12.8626C0.0360165 12.8806 0.0199659 12.8849 0 12.8752V11.2818Z" fill="#FECB57"/>
<path d="M0.0344511 14.9688C0.0105704 15.1137 0.0673359 15.2648 0 15.4061V14.0938C0.0187914 14.0841 0.0348413 14.0876 0.0477604 14.1048C0.0579391 14.1209 0.0645959 14.1377 0.0689023 14.1561C0.0841703 14.3045 0.0759491 14.4528 0.0763406 14.6016C0.0708598 14.7249 0.108834 14.8533 0.0344511 14.9688Z" fill="#FEBB58"/>
<path d="M0.0277941 14.0938C0.0183984 14.0938 0.00939571 14.0938 0 14.0938V12.8751C0.00939571 12.8751 0.0187903 12.8751 0.028186 12.8751C0.0861262 12.928 0.0739917 12.9985 0.0763406 13.0654C0.0802555 13.1891 0.079862 13.3128 0.0767301 13.4365C0.080645 13.5418 0.0802535 13.6475 0.0767301 13.7529C0.0696833 13.8676 0.111573 13.9897 0.0277941 14.0935V14.0938Z" fill="#FEC358"/>
<path d="M0.0301429 7.47105C0.0199643 7.47027 0.0101787 7.46987 0 7.46948V6.31342C0.0101787 6.3146 0.020748 6.31538 0.0309267 6.31655C0.0555904 6.33769 0.0657703 6.36588 0.0712511 6.3968C0.0908255 6.70725 0.0782976 7.0177 0.0782976 7.32815C0.0782976 7.37983 0.0732066 7.43229 0.0301429 7.47066V7.47105Z" fill="#FEBE20"/>
<path d="M6.74916 0.00223637C7.55132 0.00223637 8.35309 0.00223637 9.15525 0.00223637C9.20144 0.102457 9.11218 0.14239 9.06286 0.192109C8.50264 0.756635 7.94046 1.31959 7.37515 1.87942C7.29607 1.95772 7.25027 2.07634 7.12421 2.10335C6.09655 2.1151 5.06929 2.10492 4.04202 2.10922C3.97117 2.10922 3.89561 2.09082 3.83219 2.14054C3.77268 2.26778 3.77464 2.39501 3.83297 2.52146C3.89326 2.56766 3.96333 2.55082 4.0291 2.55082C4.76001 2.552 5.49131 2.55121 6.22222 2.55161C6.29465 2.55161 6.36746 2.54769 6.4395 2.55787C6.50761 2.57431 6.52288 2.6115 6.48334 2.67062C6.45398 2.71407 6.41562 2.74931 6.37882 2.78611C6.04762 3.11731 5.71955 3.45164 5.38326 3.77775C5.29792 3.86035 5.25798 3.98406 5.14171 4.03652C4.7608 4.0561 4.37949 4.04004 3.99857 4.04592C3.93828 4.0467 3.87329 4.03065 3.82475 4.08467C3.80752 4.11169 3.80126 4.14144 3.79852 4.17276C3.77464 4.43506 3.79265 4.45267 4.0569 4.4562C4.24207 4.45854 4.42803 4.44132 4.61242 4.46833C4.69111 4.49652 4.68211 4.54741 4.64531 4.603C4.6136 4.65076 4.56975 4.68835 4.52943 4.72867C3.61217 5.64632 2.69452 6.56357 1.77688 7.48044C1.72951 7.52781 1.68879 7.58379 1.62185 7.60767C1.56547 7.61159 1.5228 7.58223 1.48208 7.54895C1.24915 7.3583 1.00721 7.179 0.773882 6.98873C0.712026 6.93823 0.658003 6.8842 0.648215 6.79925C0.640777 6.64931 0.648999 6.49898 0.643518 6.34943C0.638037 6.19636 0.641951 6.05229 0.775057 5.94033C0.83887 5.88669 0.826734 5.79783 0.827126 5.72031C0.829083 5.41025 0.82556 5.0998 0.829475 4.78974C0.831432 4.63628 0.818512 4.48243 0.840435 4.32935C0.865882 4.24283 0.947704 4.20564 1.00525 4.14809C2.27172 2.88007 3.53896 1.61321 4.80699 0.346748C4.86141 0.292722 4.89664 0.217164 4.97572 0.188585C5.2756 0.187019 5.57392 0.157658 5.87419 0.167446C6.0852 0.174101 6.29738 0.142391 6.50957 0.136127C6.60862 0.133387 6.67517 0.0566532 6.74995 0.00223637H6.74916Z" fill="#FBFCFC"/>
<path d="M7.18652 2.06421C7.21549 1.98943 7.26952 1.93423 7.32472 1.87903C7.90138 1.30354 8.47726 0.727664 9.05235 0.151393C9.09503 0.108721 9.15414 0.0750536 9.15532 0.00262833C10.4053 0.00262833 11.655 0.00262833 12.905 0.00262833C12.9163 0.102849 12.8353 0.148263 12.7793 0.204637C12.2543 0.732755 11.727 1.25852 11.2004 1.78507C11.1562 1.82931 11.0975 1.8665 11.0744 1.92249C10.9996 2.10296 10.8563 2.11001 10.6903 2.10922C9.59691 2.10453 8.5031 2.10727 7.40967 2.1057C7.33411 2.1057 7.2519 2.12684 7.18691 2.06381L7.18652 2.06421Z" fill="#F8FAFA"/>
<path d="M15.969 6.32007C16.0179 6.36118 15.996 6.41716 15.996 6.4661C15.9956 9.39599 15.994 12.3259 15.9921 15.2558C15.9921 15.3071 16.0007 15.3603 15.9721 15.4081C15.8899 15.3145 15.929 15.2022 15.9224 15.0968C15.9188 14.9716 15.9185 14.8459 15.9224 14.7206C15.9188 14.5957 15.9185 14.4709 15.9224 14.346C15.9188 14.2305 15.9185 14.115 15.9224 13.9995C15.9181 13.864 15.9181 13.7286 15.9224 13.5927C15.9177 13.4268 15.9177 13.2608 15.9224 13.0952C15.9181 12.9288 15.9177 12.7624 15.9224 12.596C15.9181 12.4394 15.9177 12.2828 15.9224 12.1262C15.9177 11.9497 15.9173 11.7731 15.9224 11.5965C15.9177 11.449 15.9177 11.3014 15.9224 11.1538C15.9169 10.9251 15.9169 10.6961 15.9224 10.4675C15.9134 10.296 15.9192 10.1242 15.9188 9.95269C15.9188 9.84816 15.8738 9.79923 15.7693 9.80158C15.7172 9.80275 15.6652 9.80079 15.6131 9.80079C14.4527 9.80079 13.2927 9.80079 12.1324 9.8004C12.0392 9.8004 11.9445 9.81058 11.8552 9.773C11.7507 9.69901 11.829 9.65046 11.8826 9.60544C12.1414 9.38778 12.4072 9.17833 12.6703 8.96497C12.9936 8.70267 13.3256 8.45134 13.6341 8.17103C14.062 7.83827 14.4891 7.50433 14.91 7.16216C15.0341 7.06116 15.1539 6.95429 15.2838 6.86033C15.3003 6.84663 15.3171 6.83292 15.3332 6.81883C15.5481 6.65597 15.747 6.47275 15.9697 6.32007H15.969Z" fill="#FEC100"/>
<path d="M7.18677 2.06421C8.39451 2.06421 9.60225 2.06342 10.81 2.06656C10.9036 2.06656 10.9654 2.05324 10.9979 1.95263C11.014 1.90252 11.0641 1.86102 11.104 1.8207C11.6666 1.25696 12.2299 0.693999 12.7929 0.130648C12.8328 0.0903247 12.8684 0.0453028 12.906 0.00263065C13.4968 0.00263065 14.0875 -0.00519806 14.6779 0.00615509C14.9331 0.0112444 15.1477 0.117337 15.2495 0.377285C14.8842 0.753505 14.5107 1.12111 14.1396 1.49185C14.0229 1.50869 13.9188 1.4527 13.8076 1.43704C12.9679 1.2781 12.2244 1.48833 11.564 2.01919C11.5033 2.06773 11.4493 2.12606 11.3659 2.13624C11.288 2.14798 11.2097 2.14681 11.1318 2.14681C8.76799 2.14681 6.40418 2.14681 4.04038 2.14603C3.94368 2.14603 3.84111 2.16756 3.75342 2.10101C3.8004 2.03719 3.86852 2.06577 3.92685 2.06577C5.01362 2.06382 6.10078 2.06421 7.18755 2.06421H7.18677Z" fill="#F6F8F8"/>
<path d="M0.218291 15.8133C0.188929 15.8011 0.168571 15.7808 0.161133 15.7487C0.249218 15.7197 0.298937 15.6387 0.374886 15.5932C0.498596 15.6109 0.623087 15.6042 0.747189 15.6042C5.69168 15.6046 10.6362 15.6042 15.5807 15.6042C15.6535 15.6042 15.7263 15.605 15.7991 15.6081C15.8426 15.6022 15.8805 15.6081 15.8997 15.6547C15.8786 15.7217 15.839 15.7745 15.7803 15.8129C15.6621 15.8422 15.5423 15.827 15.4229 15.827C10.4737 15.827 5.52452 15.827 0.575328 15.827C0.455924 15.827 0.336128 15.8426 0.217899 15.8125L0.218291 15.8133Z" fill="#FE9A02"/>
<path d="M15.9652 3.78284C15.9989 4.01499 15.9953 4.24597 15.939 4.4746C15.4363 4.65625 14.9512 4.88057 14.4572 5.08297C14.2556 5.16557 14.0567 5.25444 13.8531 5.33274C13.7905 5.35701 13.7173 5.40595 13.6593 5.31786C13.6272 5.11781 13.6292 4.91776 13.6574 4.71771C13.6738 4.67465 13.711 4.65742 13.7502 4.64137C14.4278 4.36655 15.0984 4.07411 15.7757 3.79811C15.8356 3.77384 15.8975 3.7296 15.9652 3.78284Z" fill="#C32A03"/>
<path d="M15.9655 3.78284C15.7259 3.8353 15.5117 3.95353 15.2878 4.04592C14.8047 4.24558 14.3243 4.4515 13.8416 4.65312C13.7946 4.67269 13.7418 4.67739 13.6917 4.68913C13.6099 4.60183 13.6431 4.493 13.64 4.39278C13.6365 4.28434 13.6275 4.17472 13.6549 4.06784C13.6756 4.00677 13.7293 3.98524 13.7825 3.96371C14.3885 3.71903 14.9879 3.45947 15.592 3.21009C15.6703 3.17799 15.7517 3.12318 15.8406 3.18974C15.904 3.38313 15.9698 3.57575 15.9658 3.78323L15.9655 3.78284Z" fill="#C62C03"/>
<path d="M0.218262 15.8133C0.263674 15.7608 0.325138 15.7819 0.379555 15.7819C5.4595 15.7812 10.5394 15.7812 15.6194 15.7819C15.6738 15.7819 15.7353 15.7612 15.7807 15.8137C15.729 15.8712 15.6754 15.9256 15.5916 15.9323C15.5352 15.8736 15.4624 15.8747 15.3888 15.8747C10.4651 15.8747 5.54093 15.8747 0.617188 15.8747C0.53889 15.8747 0.459027 15.8681 0.404218 15.9417C0.331793 15.9143 0.263674 15.8802 0.218262 15.8137V15.8133Z" fill="#FE9502"/>
<path d="M15.3432 2.28148C15.4066 2.39149 15.5088 2.47527 15.5574 2.59585C15.5163 2.65379 15.454 2.68276 15.3922 2.70899C14.8746 2.92822 14.3567 3.14628 13.836 3.35886C13.7796 3.38196 13.7099 3.43089 13.6579 3.3432C13.6258 3.08521 13.6309 2.82682 13.6543 2.56883C13.6798 2.4968 13.746 2.4737 13.8074 2.44826C14.2001 2.28657 14.5908 2.12058 14.9811 1.95302C15.1635 1.99413 15.2618 2.12841 15.3432 2.28148Z" fill="#CE3004"/>
<path d="M13.6913 3.37686C14.3133 3.11652 14.935 2.85618 15.5571 2.59584C15.6698 2.78493 15.7928 2.96893 15.8394 3.18934C15.5994 3.20578 15.4021 3.34163 15.1864 3.42502C14.6841 3.61841 14.2006 3.85761 13.6913 4.033C13.6036 3.81416 13.6036 3.5957 13.6913 3.37686Z" fill="#CA2E04"/>
<path d="M15.3432 2.28148C15.2273 2.18009 15.1372 2.0509 15.0041 1.96829C14.8972 1.9495 14.8283 1.86611 14.741 1.81366C14.5825 1.71852 14.4259 1.61987 14.2501 1.55723C14.2098 1.54275 14.1554 1.53766 14.1538 1.47463C14.1534 1.42882 14.1804 1.39829 14.2102 1.36853C14.5214 1.05769 14.8323 0.746459 15.1435 0.435617C15.1732 0.405864 15.2022 0.376503 15.2484 0.377286C15.3201 0.506869 15.3412 0.648588 15.3416 0.79383C15.3428 1.28984 15.3424 1.78547 15.3428 2.28148H15.3432Z" fill="#F4F7F7"/>
<path d="M13.6915 5.34527C14.1476 5.18906 14.5813 4.97844 15.028 4.79875C15.297 4.69031 15.5632 4.57482 15.8298 4.46129C15.8705 4.44406 15.9077 4.42762 15.9386 4.47499C15.9093 4.66917 15.8811 4.86413 15.7828 5.03952C15.5119 5.09785 15.27 5.23252 15.0163 5.33548C14.6221 5.49521 14.2333 5.66785 13.8387 5.82641C13.7678 5.85499 13.6895 5.91527 13.6128 5.8311C13.6633 5.67294 13.5967 5.49638 13.6911 5.34566L13.6915 5.34527Z" fill="#BF2802"/>
<path d="M15.4798 5.59934L15.3412 5.78452C15.1866 6.04721 14.954 6.22572 14.7007 6.3831C14.5586 6.47353 14.4087 6.54792 14.249 6.60195C14.1155 6.65793 13.9757 6.69199 13.8355 6.72448C13.7518 6.73309 13.6699 6.75619 13.5858 6.76285C13.5157 6.76206 13.4456 6.76715 13.3755 6.76558C13.3223 6.76206 13.2687 6.76402 13.2154 6.76363C13.1258 6.76011 13.0361 6.7695 12.9469 6.75932C12.9116 6.75227 12.8791 6.74014 12.8623 6.70452C12.8686 6.57572 12.9817 6.55771 13.0663 6.5213C13.4859 6.34082 13.9072 6.16387 14.3288 5.98848C14.626 5.86516 14.9211 5.73597 15.2195 5.61539C15.3017 5.58212 15.3882 5.52104 15.4798 5.59973V5.59934Z" fill="#BA2502"/>
<path d="M15.4799 5.59934C15.236 5.59856 15.0399 5.73989 14.8265 5.82523C14.2608 6.0523 13.7006 6.29463 13.1396 6.53344C13.0421 6.57494 12.929 6.59568 12.8699 6.7006C12.8338 6.72644 12.7935 6.72526 12.7524 6.72096C12.6976 6.71039 12.6436 6.6963 12.5888 6.68377C12.5383 6.66263 12.4725 6.66576 12.4521 6.59725C12.4784 6.45866 12.6033 6.434 12.7039 6.39094C13.0053 6.26175 13.3083 6.13569 13.6113 6.01002C14.2365 5.75085 14.8571 5.47994 15.4854 5.22861C15.5488 5.20316 15.6346 5.12486 15.6866 5.25288C15.6416 5.38246 15.5684 5.4956 15.4799 5.59974V5.59934Z" fill="#BD2702"/>
<path d="M15.6867 5.25248C15.6358 5.19415 15.5841 5.2286 15.532 5.25052C14.5917 5.64319 13.6506 6.03428 12.711 6.42929C12.6186 6.46805 12.5102 6.49585 12.4643 6.60507C12.4076 6.63952 12.3567 6.61016 12.3046 6.59098C12.2631 6.56945 12.2126 6.5577 12.2017 6.50093C12.2146 6.41207 12.2913 6.39563 12.3559 6.36587C12.7376 6.19244 13.1369 6.05777 13.5049 5.85342C13.5405 5.83815 13.5758 5.81583 13.6157 5.84206C13.8929 5.80409 14.1301 5.65649 14.3838 5.55588C14.8078 5.38793 15.2243 5.20198 15.644 5.02307C15.6937 5.00193 15.7423 4.98274 15.7826 5.03912C15.7231 5.09784 15.736 5.18906 15.6863 5.25248H15.6867Z" fill="#BD2702"/>
<path d="M14.6865 6.35335C14.939 6.20302 15.1403 5.99397 15.3415 5.78452C15.3446 5.79196 15.3446 5.799 15.3415 5.80644C15.3795 5.87104 15.3932 5.94111 15.3928 6.0155C15.3928 6.22846 15.3928 6.44104 15.3928 6.65401C15.3928 6.72292 15.3806 6.7883 15.3407 6.84624C15.3305 6.85446 15.3203 6.86229 15.3102 6.87051C15.2326 6.76128 15.2765 6.63718 15.2671 6.51973C15.2644 6.4524 15.2683 6.38506 15.2694 6.31773C15.264 6.26331 15.2914 6.20576 15.2546 6.15135C15.1931 6.16818 15.1626 6.22025 15.1234 6.2594C14.6071 6.77381 14.0926 7.28979 13.5763 7.80421C13.5187 7.86136 13.4702 7.93731 13.3719 7.93183C13.3148 7.91617 13.276 7.88368 13.2686 7.82143C13.2862 7.75723 13.339 7.71964 13.3825 7.67619C13.7794 7.27805 14.1772 6.88069 14.5753 6.48333C14.6161 6.443 14.6572 6.40346 14.6865 6.35413V6.35335Z" fill="#D9E0DF"/>
<path d="M0.87477 4.7827C0.87477 5.12094 0.872815 5.45919 0.876338 5.79744C0.877121 5.88082 0.86694 5.95677 0.79334 6.00258C0.695077 6.06365 0.68255 6.15056 0.686073 6.25548C0.692337 6.45318 0.686856 6.65088 0.686073 6.84858C0.664541 6.85406 0.648098 6.84741 0.636745 6.82861C0.583503 6.49154 0.605427 6.15369 0.625785 5.81583C0.664542 5.74889 0.65632 5.67529 0.65632 5.60287C0.65632 4.05884 0.65632 2.51442 0.65632 0.97039C0.737749 0.981743 0.725223 1.05025 0.731487 1.10193C0.74284 1.19432 0.731879 1.28749 0.734228 1.38028C0.736968 1.6183 0.738924 1.85672 0.73266 2.09474C0.739315 2.32415 0.738141 2.55318 0.73266 2.78259C0.738532 3.14745 0.739707 3.51271 0.732268 3.87719C0.730702 4.13635 0.738533 4.39591 0.727962 4.65468C0.722873 4.778 0.768285 4.8054 0.874379 4.78231L0.87477 4.7827Z" fill="#F8F9F9"/>
<path d="M15.3402 6.84584C15.3406 6.49937 15.341 6.1529 15.3414 5.80644C15.5505 5.97752 15.7595 6.14899 15.9682 6.32007C15.9251 6.42694 15.8202 6.46923 15.7396 6.53539C15.6092 6.64265 15.4733 6.74249 15.3398 6.84584H15.3402Z" fill="#FE9205"/>
<path d="M0.625528 5.81622C0.688558 5.83893 0.663893 5.89374 0.663893 5.93485C0.665459 6.23747 0.663503 6.54048 0.66272 6.8431C0.630618 6.86463 0.601647 6.84819 0.578157 6.82979C0.391418 6.68415 0.193325 6.55183 0.0324232 6.37488C0.0320317 6.3557 0.0316415 6.33612 0.03125 6.31694C0.229343 6.15016 0.427827 5.983 0.62592 5.81622H0.625528Z" fill="#FE9102"/>
<path d="M0.686968 0.626663C0.694406 0.278239 0.962966 0.00928618 1.31217 0.00263088C1.44724 0.000281954 1.58269 0.00263088 1.71815 0.00263088C1.74007 0.0942391 1.67743 0.146699 1.62536 0.204248C1.57721 0.231652 1.52084 0.228519 1.47034 0.246919C1.21587 0.286459 1.04753 0.433269 0.949657 0.666987C0.931257 0.710442 0.910115 0.75194 0.872141 0.782477C0.846303 0.800094 0.823205 0.822015 0.7958 0.836892C0.713979 0.880738 0.665046 0.867819 0.673267 0.763292C0.67679 0.717488 0.659956 0.669726 0.687752 0.626663H0.686968Z" fill="#E6E9E9"/>
<path d="M6.749 0.00223637C6.71455 0.131819 6.61982 0.185845 6.49611 0.188585C5.97621 0.201113 5.45631 0.210509 4.93681 0.220687C4.70387 0.306032 4.46859 0.280194 4.23252 0.238697C4.21412 0.226169 4.20786 0.209335 4.21334 0.187804C4.30886 0.117727 4.41848 0.149045 4.52261 0.144739C4.73871 0.142781 4.95521 0.137301 5.17092 0.145914C5.33378 0.152569 5.47706 0.122815 5.59255 0.00223637C5.97777 0.00223637 6.36339 0.00223637 6.74862 0.00223637H6.749Z" fill="#F8F9F9"/>
<path d="M15.8997 15.6555C15.8805 15.6453 15.8613 15.6351 15.8421 15.625C15.7572 15.6426 15.7278 15.5576 15.6671 15.5302C15.6084 15.4915 15.563 15.4367 15.5027 15.3999C15.4169 15.327 15.3293 15.257 15.2408 15.1873C15.2267 15.1626 15.2251 15.1372 15.2341 15.1105C15.2431 15.0976 15.2502 15.08 15.2654 15.0773C15.4992 15.0338 15.7329 15.0095 15.9639 15.0937C15.9662 15.1986 15.9686 15.3035 15.9709 15.4085C15.9772 15.4997 15.9486 15.5803 15.8993 15.6555H15.8997Z" fill="#FE9102"/>
<path d="M4.53083 0.189761C4.4267 0.189761 4.32256 0.189761 4.21843 0.189761C4.18593 0.219122 4.14717 0.232041 4.1045 0.231258C3.87196 0.228518 3.63902 0.248875 3.40687 0.219122C3.29256 0.108723 3.41353 0.0648744 3.46833 0.00223637C3.85356 0.00223637 4.23918 0.00223637 4.6244 0.00223637C4.65024 0.0930616 4.58134 0.136909 4.53083 0.189369V0.189761Z" fill="#F2F4F4"/>
<path d="M4.53076 0.189761C4.53703 0.114987 4.60554 0.0711387 4.62433 0.00262833C4.94731 0.00262833 5.27028 0.00262833 5.59326 0.00262833C5.55255 0.129079 5.47229 0.194066 5.33292 0.191326C5.06553 0.186628 4.79815 0.189761 4.53076 0.189761Z" fill="#F6F7F7"/>
<path d="M3.46828 0.00262833C3.47337 0.0832748 3.36963 0.109114 3.37472 0.189761C3.17114 0.272756 2.96169 0.228127 2.75381 0.219514C2.65007 0.114204 2.75812 0.0656579 2.81214 0.00262833C3.03099 0.00262833 3.24944 0.00262833 3.46828 0.00262833Z" fill="#EFF1F1"/>
<path d="M0.687176 0.626662C0.687176 0.647411 0.684828 0.668161 0.68796 0.688518C0.695398 0.73628 0.659773 0.802832 0.717322 0.827888C0.764692 0.848245 0.787398 0.776994 0.83007 0.761726C0.844555 0.756637 0.860213 0.755463 0.87509 0.752331C0.960043 0.914407 0.918938 1.08431 0.906019 1.25265C0.855909 1.33369 0.793661 1.39359 0.687568 1.37714C0.669951 1.24208 0.723975 1.10193 0.656639 0.970782C0.67269 0.856859 0.621798 0.736671 0.687568 0.627054L0.687176 0.626662Z" fill="#E8EBEB"/>
<path d="M1.62451 0.189761C1.63038 0.114987 1.6989 0.0715307 1.71808 0.00302029C1.9056 0.00302029 2.09312 0.00302029 2.28065 0.00302029C2.31471 0.11616 2.23171 0.164314 2.16007 0.219514C1.98037 0.227344 1.79872 0.274323 1.62451 0.190153V0.189761Z" fill="#EAEDED"/>
<path d="M2.18719 0.189761C2.1821 0.109114 2.28585 0.0832753 2.28076 0.00302029C2.45771 0.00302029 2.63505 0.00302029 2.81201 0.00302029C2.80574 0.0777945 2.73763 0.121642 2.71844 0.190153C2.54149 0.259446 2.36415 0.259446 2.18719 0.190153V0.189761Z" fill="#ECEFEF"/>
<path d="M15.2485 15.1563C15.2591 15.1669 15.2692 15.1771 15.2798 15.1877C15.2731 15.271 15.2062 15.2801 15.1459 15.2918C15.0743 15.3059 15.0007 15.3008 14.9279 15.3008C10.3608 15.3008 5.79405 15.3008 1.22695 15.3008C1.15413 15.3008 1.08053 15.3059 1.00889 15.2918C0.948599 15.2801 0.881655 15.2707 0.875 15.1873C0.937247 15.1352 0.999886 15.0827 1.06213 15.0307C1.08484 14.986 1.12164 14.981 1.16509 14.9931C1.26297 15.0107 1.36201 15.0115 1.46067 15.0115C5.88174 15.0115 10.3028 15.0115 14.7239 15.0115C14.8178 15.0115 14.9114 15.0091 15.0046 15.0005C15.1475 14.9559 15.1913 15.0667 15.2485 15.1563Z" fill="#FEAB01"/>
<path d="M0.87492 15.1873C0.927771 15.2519 1.00098 15.2499 1.07458 15.2499C5.74307 15.2499 10.4116 15.2499 15.0801 15.2499C15.1537 15.2499 15.2269 15.2519 15.2797 15.1873C15.3862 15.219 15.4398 15.3212 15.5295 15.3748C15.5205 15.446 15.461 15.4437 15.4124 15.4515C15.3506 15.4613 15.2879 15.457 15.2253 15.457C10.4828 15.457 5.74072 15.457 0.99824 15.457C0.925423 15.457 0.851431 15.4641 0.780181 15.4476C0.728896 15.4359 0.654904 15.4343 0.687006 15.3435C0.749644 15.2914 0.81189 15.2393 0.874528 15.1873H0.87492Z" fill="#FEA601"/>
<path d="M15.686 15.5001C15.7381 15.5416 15.7901 15.5835 15.8422 15.625C15.796 15.6762 15.7349 15.6551 15.6801 15.6551C10.6342 15.6559 5.58835 15.6563 0.542459 15.6543C0.484127 15.6543 0.399958 15.6966 0.374512 15.5936C0.416009 15.5623 0.457899 15.531 0.499396 15.4997C0.576128 15.4817 0.653643 15.4793 0.73194 15.4793C5.6134 15.4797 10.4945 15.4797 15.3759 15.4789C15.4801 15.4789 15.5826 15.4891 15.686 15.4997V15.5001Z" fill="#FE9D01"/>
<path d="M15.6861 15.5001C15.6399 15.551 15.5788 15.5302 15.524 15.5302C10.5698 15.531 5.61587 15.531 0.661586 15.5302C0.606778 15.5302 0.545707 15.551 0.499512 15.4997C0.547273 15.43 0.625178 15.3963 0.687034 15.3435C0.692514 15.3771 0.707391 15.4026 0.745757 15.4038C0.792735 15.4053 0.839323 15.4057 0.886302 15.4057C5.70278 15.4057 10.5196 15.4057 15.3361 15.4046C15.4007 15.4046 15.4724 15.4308 15.5295 15.3748C15.5816 15.4163 15.6337 15.4582 15.6857 15.4997L15.6861 15.5001Z" fill="#FEA101"/>
<path d="M1.12496 14.9998C1.10421 15.0099 1.08307 15.0205 1.06232 15.0307C1.02905 14.9579 0.962884 14.9688 0.901812 14.9688C0.612894 14.9688 0.323586 14.9688 0.034668 14.9688C0.034668 14.8439 0.034668 14.7191 0.034668 14.5938C0.0749912 14.5538 0.126667 14.5468 0.178735 14.5464C0.583534 14.5433 0.988723 14.5417 1.39352 14.5472C1.4452 14.548 1.49766 14.5546 1.53602 14.5973C1.54933 14.6224 1.54972 14.6482 1.53759 14.6736C1.48043 14.7676 1.37747 14.8122 1.30387 14.889C1.24945 14.9344 1.19934 14.9872 1.12457 15.0001L1.12496 14.9998Z" fill="#FE9602"/>
<path d="M0.0325235 6.37488C0.242752 6.4888 0.403655 6.66732 0.598224 6.80199C0.619364 6.81648 0.641289 6.82939 0.663212 6.8431C0.671434 6.84388 0.67887 6.84584 0.686309 6.84936C0.97875 7.12458 1.30604 7.35634 1.62275 7.60141C1.72923 7.62294 1.80087 7.70241 1.87996 7.76505C2.154 7.98272 2.43235 8.1953 2.70404 8.4161C2.90096 8.57073 3.09866 8.72459 3.29284 8.88236C3.33238 8.92268 3.38131 8.95087 3.42555 8.98493C3.53321 9.06714 3.63695 9.15405 3.745 9.23665C4.10165 9.52048 4.46534 9.7957 4.81729 10.0846C4.87132 10.1289 4.98759 10.1782 4.84861 10.2639C4.75387 10.2995 4.65521 10.3015 4.55617 10.3015C3.12802 10.3019 1.69987 10.3019 0.271724 10.3011C0.189903 10.3011 0.103776 10.314 0.034091 10.2514C0.032525 9.32474 0.0313511 8.39848 0.0297852 7.47183C0.0305681 7.10657 0.031351 6.74092 0.032134 6.37566L0.0325235 6.37488Z" fill="#FEBF00"/>
<path d="M0.034668 10.2506C1.39352 10.2506 2.75238 10.2514 4.11162 10.2498C4.37588 10.2498 4.64131 10.2686 4.904 10.2193C5.09543 10.2608 5.21875 10.4096 5.36947 10.5153C5.48026 10.6049 5.59419 10.6902 5.7038 10.7815C5.75744 10.8261 5.78915 10.877 5.69637 10.9177C5.60202 10.9545 5.50297 10.9569 5.40392 10.9569C3.69351 10.9572 1.9831 10.9572 0.272691 10.9565C0.19087 10.9565 0.104353 10.9694 0.0350598 10.9064C0.0350598 10.6875 0.0350598 10.4691 0.0350598 10.2502L0.034668 10.2506Z" fill="#FEBC00"/>
<path d="M0.034489 10.9067C1.65212 10.9067 3.27014 10.9079 4.88776 10.9056C5.17238 10.9056 5.45855 10.9291 5.74199 10.8754C5.85631 10.897 5.95653 10.9373 5.98667 11.0669C5.90368 11.2262 5.7463 11.3033 5.61084 11.4047C5.57718 11.4298 5.54116 11.4106 5.50984 11.3891C5.40805 11.3577 5.30391 11.3636 5.20017 11.3636C3.57315 11.3636 1.94612 11.3636 0.319099 11.3624C0.222793 11.3624 0.119833 11.3847 0.034489 11.3131C0.0321401 11.3025 0.030181 11.2924 0.027832 11.2818C0.0297895 11.1569 0.0321401 11.032 0.034489 10.9071V10.9067Z" fill="#FEB900"/>
<path d="M0.034668 12.1568C0.034668 12.0006 0.034668 11.8444 0.034668 11.6882C0.0937827 11.6322 0.168947 11.6384 0.240981 11.638C1.78932 11.6369 3.33765 11.6369 4.88599 11.638C4.96311 11.638 5.04336 11.633 5.10874 11.6878C5.14828 11.7304 5.14045 11.7774 5.10522 11.8126C4.95802 11.9587 4.79829 12.0894 4.62134 12.1983C4.59942 12.212 4.57084 12.2069 4.545 12.2034C3.1102 12.2112 1.67578 12.2053 0.241372 12.2061C0.169339 12.2061 0.0941745 12.212 0.0350598 12.1564L0.034668 12.1568Z" fill="#FEB300"/>
<path d="M5.12479 11.7504C5.08212 11.6631 5.00108 11.6889 4.93179 11.6889C3.29928 11.6878 1.66678 11.6882 0.034668 11.6882C0.034668 11.5633 0.034668 11.4384 0.034668 11.3131C1.81202 11.3131 3.58938 11.3131 5.36673 11.3143C5.44229 11.3143 5.54408 11.2775 5.56209 11.4067C5.45325 11.5684 5.31976 11.6983 5.1244 11.7504H5.12479Z" fill="#FEB600"/>
<path d="M0.034668 12.1568C1.49531 12.1568 2.95556 12.1568 4.4162 12.1579C4.47571 12.1579 4.54187 12.1344 4.59354 12.1881C4.43969 12.3999 4.22398 12.5408 4.01571 12.69C3.98478 12.7123 3.94641 12.7045 3.91001 12.699C3.79648 12.6778 3.68216 12.6755 3.56745 12.6755C2.47951 12.6759 1.39196 12.6763 0.304012 12.6747C0.212404 12.6747 0.114923 12.6943 0.034668 12.6254C0.034668 12.4692 0.034668 12.313 0.034668 12.1568Z" fill="#FEAF01"/>
<path d="M0.0345855 12.6254C1.25759 12.6254 2.48021 12.6254 3.70322 12.6254C3.79717 12.6254 3.89035 12.6238 3.96865 12.688C3.85081 12.8904 3.64606 12.9942 3.46793 13.1277C3.43466 13.1527 3.38885 13.1433 3.34775 13.1327C3.24479 13.1112 3.14065 13.1132 3.03651 13.1132C2.12043 13.1132 1.20474 13.1136 0.288661 13.1124C0.202142 13.1124 0.109752 13.1292 0.0349773 13.0634C0.0326284 13.0008 0.0306692 12.9386 0.0283203 12.8759C0.0302778 12.7925 0.0326284 12.7095 0.0349773 12.6262L0.0345855 12.6254Z" fill="#FEAB01"/>
<path d="M0.027832 14.0939C0.030181 13.9795 0.0321401 13.8648 0.034489 13.7505C0.0939952 13.6949 0.168768 13.7012 0.240802 13.7012C0.946654 13.7 1.65212 13.7 2.35797 13.7012C2.4253 13.7012 2.49342 13.7 2.55567 13.7313C2.63632 13.7861 2.59051 13.8351 2.54549 13.8801C2.45858 13.9674 2.35445 14.0347 2.26519 14.1197C2.20255 14.1725 2.13913 14.2227 2.04869 14.1937C1.85256 14.1584 1.65446 14.1765 1.45715 14.1753C1.05705 14.1725 0.656955 14.1753 0.256854 14.1737C0.180122 14.1737 0.0990846 14.1843 0.034489 14.1256C0.0321401 14.115 0.0297895 14.1044 0.027832 14.0942V14.0939Z" fill="#FEA101"/>
<path d="M0.034668 14.1252C0.662223 14.1252 1.28978 14.1252 1.91733 14.1252C1.98232 14.1252 2.05631 14.1068 2.09389 14.1874C2.06884 14.3381 1.91694 14.3671 1.83238 14.4607C1.73059 14.5233 1.66521 14.6427 1.53133 14.6552C1.51136 14.5609 1.43463 14.5949 1.3806 14.5949C0.931958 14.5926 0.483705 14.5934 0.0350598 14.5938C0.0350598 14.4376 0.0350598 14.2814 0.0350598 14.1252H0.034668Z" fill="#FE9B02"/>
<path d="M0.034668 13.0627C1.0819 13.0627 2.12913 13.0627 3.17636 13.0627C3.25857 13.0627 3.34431 13.0501 3.40616 13.1253C3.27971 13.2991 3.16109 13.4835 2.91406 13.4988C2.43214 13.4729 1.95022 13.4917 1.46869 13.4878C1.06467 13.4847 0.660265 13.4878 0.256249 13.4863C0.179517 13.4863 0.0992635 13.496 0.034668 13.4373C0.034668 13.3124 0.034668 13.1876 0.034668 13.0623V13.0627Z" fill="#FEA801"/>
<path d="M0.034668 13.4377C0.948401 13.4377 1.86213 13.4373 2.77586 13.4385C2.84477 13.4385 2.9258 13.413 2.96887 13.4996C2.86826 13.6256 2.77586 13.7623 2.59461 13.7814C2.53353 13.7435 2.46542 13.7501 2.39808 13.7501C1.61041 13.7501 0.822733 13.7501 0.034668 13.7501C0.034668 13.646 0.034668 13.5418 0.034668 13.4377Z" fill="#FEA401"/>
<path d="M2.68545 8.43919C2.32175 8.17142 1.96589 7.89424 1.62256 7.60102C1.66288 7.55404 1.70046 7.50471 1.74392 7.46087C2.67566 6.52795 3.60818 5.59621 4.53993 4.66329C4.58612 4.6171 4.65111 4.58186 4.65581 4.50435C4.70278 4.45111 4.76738 4.45228 4.82924 4.45228C5.9943 4.45072 7.15937 4.44876 8.32444 4.45307C8.35028 4.45307 8.37651 4.45659 8.40156 4.46168C8.47712 4.47929 8.49395 4.52001 8.44737 4.58382C8.41683 4.6261 8.37846 4.66134 8.34206 4.69814C7.98267 5.05752 7.62603 5.41965 7.26155 5.77434C7.18443 5.8495 7.15115 5.96538 7.04036 6.00688C6.56157 6.02371 6.08317 6.01197 5.60477 6.01393C5.07431 6.01628 4.54345 6.01392 4.01298 6.0151C3.95152 6.0151 3.88732 6.00257 3.83329 6.04564C3.7683 6.17013 3.78475 6.29658 3.82233 6.42303C3.86735 6.47275 3.92725 6.45631 3.98205 6.45787C4.19189 6.46453 4.40212 6.44613 4.61157 6.46845C4.65033 6.48176 4.67577 6.50289 4.65541 6.54909C4.63819 6.58824 4.60883 6.61799 4.57947 6.64735C4.00554 7.22206 3.43162 7.79676 2.85535 8.36951C2.81112 8.41335 2.77079 8.48539 2.68623 8.43959L2.68545 8.43919Z" fill="#F8FAFA"/>
<path d="M0.874082 1.28319C0.874082 1.10623 0.874474 0.929281 0.874866 0.751936C0.976653 0.467716 1.12973 0.240261 1.46836 0.220687C1.50125 0.198764 1.53844 0.206202 1.57445 0.206202C2.42046 0.206202 3.26647 0.206202 4.11247 0.206202C4.1481 0.206202 4.18568 0.198764 4.21857 0.221079C4.45816 0.221079 4.69775 0.221079 4.93734 0.221079C4.93734 0.287632 4.88448 0.320124 4.84534 0.359273C3.56869 1.6367 2.29127 2.91373 1.01384 4.19077C0.974303 4.23031 0.942202 4.28276 0.875649 4.28276C0.78365 4.13322 0.844329 3.96801 0.827887 3.81063C0.825146 3.43833 0.821625 3.06563 0.829846 2.69333C0.823191 2.46274 0.824365 2.23215 0.829846 2.00157C0.821233 1.8207 0.827105 1.63944 0.826713 1.45818C0.826713 1.39554 0.830236 1.3333 0.874866 1.28279L0.874082 1.28319Z" fill="#FEFEFE"/>
<path d="M5.18701 4.00051C5.19641 3.91046 5.25709 3.8533 5.3162 3.79419C5.67324 3.43794 6.03028 3.0809 6.38653 2.72386C6.42646 2.68354 6.46209 2.63891 6.49967 2.59624C6.54391 2.54769 6.60341 2.55357 6.65979 2.55357C7.45608 2.55239 8.25236 2.55239 9.04904 2.55357C9.11364 2.55357 9.1982 2.53556 9.22638 2.61503C9.25261 2.68902 9.18567 2.73835 9.13947 2.78611C8.75582 3.1823 8.35023 3.55695 7.97871 3.96527C7.92547 4.02399 7.85892 4.04396 7.78297 4.04435C6.96593 4.04592 6.14851 4.04553 5.33147 4.04435C5.27979 4.04435 5.22616 4.04592 5.1874 4.0009L5.18701 4.00051Z" fill="#F9FAFA"/>
<path d="M3.75264 2.10101C3.77848 2.09905 3.80431 2.09513 3.83054 2.09513C6.35603 2.09513 8.88152 2.09553 11.407 2.09592C11.4242 2.15151 11.3843 2.18361 11.3526 2.21454C11.2445 2.31946 11.1612 2.44356 11.0727 2.56414C11.0414 2.60211 11.0018 2.61816 10.9529 2.61229C10.4428 2.61816 9.93228 2.63186 9.42334 2.61151C7.58805 2.53908 5.75236 2.60172 3.91746 2.57823C3.86226 2.57745 3.80275 2.5982 3.75146 2.55866C3.75186 2.40598 3.75264 2.2533 3.75303 2.10022L3.75264 2.10101Z" fill="#C1CDCD"/>
<path d="M3.75088 2.55904C3.81861 2.561 3.88594 2.56453 3.95367 2.56453C6.23879 2.56492 8.5239 2.56453 10.809 2.56609C10.8736 2.56609 10.9453 2.54104 11.0028 2.59584C11.0236 2.66357 10.9848 2.71721 10.9558 2.77084C10.7546 3.14236 10.6544 3.54168 10.6266 3.96135C10.6195 3.98993 10.6062 4.01538 10.5835 4.03495C10.5162 4.08585 10.4363 4.08271 10.3588 4.08271C8.22559 4.08389 6.09276 4.0835 3.95954 4.08271C3.88751 4.08271 3.81234 4.08937 3.75127 4.03652C3.79355 3.97819 3.85619 4.00246 3.90982 4.00207C4.33537 3.99972 4.76092 4.0005 5.18647 4.00011C6.00389 4.00011 6.82132 3.99737 7.63875 4.00364C7.80356 4.00481 7.91866 3.9731 8.03728 3.83451C8.2804 3.55068 8.5607 3.29896 8.82574 3.03392C8.93261 2.92704 9.03949 2.82095 9.14558 2.71329C9.17025 2.68824 9.2137 2.66396 9.20157 2.62638C9.18473 2.5747 9.13032 2.59584 9.09195 2.59584C8.57636 2.59467 8.06116 2.59506 7.54557 2.59506C7.19676 2.59506 6.84794 2.59506 6.49913 2.59506C5.64098 2.59506 4.78245 2.59545 3.92431 2.5935C3.86598 2.5935 3.79786 2.62129 3.75049 2.55826L3.75088 2.55904Z" fill="#F6F9F8"/>
<path d="M3.75158 4.03692C3.81931 4.03496 3.88664 4.03105 3.95437 4.03105C6.09425 4.03105 8.23412 4.03104 10.374 4.03026C10.446 4.03026 10.5204 4.04436 10.5874 4.00247C10.6582 4.17002 10.6915 4.34032 10.6195 4.51727C10.5533 4.55799 10.4793 4.55211 10.4069 4.55211C9.83452 4.5529 9.26216 4.55329 8.68981 4.55211C8.61308 4.55211 8.53204 4.56425 8.46705 4.50474C7.19667 4.50474 5.9263 4.50474 4.65553 4.50474C4.39597 4.50396 4.13641 4.49965 3.87686 4.50357C3.78368 4.50513 3.74453 4.47695 3.75001 4.37986C3.75628 4.26594 3.75119 4.15162 3.75119 4.03731L3.75158 4.03692Z" fill="#C2CDCD"/>
<path d="M0.874751 3.81415C0.874751 3.97036 0.874751 4.12656 0.874751 4.28276C0.874751 4.44954 0.874751 4.61592 0.874751 4.78269C0.810547 4.80344 0.778446 4.9158 0.716982 4.88526C0.648863 4.8512 0.69036 4.75333 0.689186 4.68482C0.684879 4.42605 0.687621 4.16689 0.687621 3.90811C0.740471 3.85761 0.783926 3.78871 0.875142 3.81455L0.874751 3.81415Z" fill="#F5F7F7"/>
<path d="M13.2795 7.8136C13.3002 7.85549 13.3312 7.88681 13.3731 7.90755C13.4271 7.93692 13.4768 7.97136 13.5179 8.01756C13.5559 8.05671 13.595 8.09429 13.6318 8.13422C13.6455 8.15027 13.6553 8.16828 13.6577 8.18982C13.4674 8.40318 13.2266 8.55703 13.009 8.73829C12.6116 9.06871 12.2084 9.39208 11.8075 9.71819C11.8005 9.7773 11.7503 9.8004 11.7116 9.8325C11.4583 10.0427 11.1929 10.2385 10.9458 10.4569C10.6847 10.6456 10.4518 10.8707 10.1824 11.0485C10.0979 11.0622 10.0478 10.9995 9.99296 10.9561C9.61282 10.657 9.23974 10.3489 8.86273 10.0459C8.81223 10.0051 8.74646 9.96561 8.78287 9.87987C9.13325 9.48134 9.52787 9.12665 9.89509 8.74456C9.95459 8.6827 10.0329 8.63415 10.0736 8.51279C9.15087 8.51318 8.24457 8.51162 7.3375 8.51475C6.39284 8.52532 5.44817 8.51945 4.50391 8.51827C4.30894 8.51632 4.11398 8.52649 3.91941 8.51592C3.85717 8.51279 3.76791 8.53863 3.75146 8.43254C3.83877 8.36598 3.94134 8.3883 4.03803 8.38791C6.63516 8.38674 9.23269 8.38673 11.8298 8.38673C11.887 8.38673 11.9445 8.38791 12.0017 8.38634C12.1775 8.38125 12.1966 8.35659 12.199 8.18512C12.2006 8.06454 12.1497 8.01404 12.0318 8.01952C11.9747 8.02226 11.9175 8.01952 11.86 8.01952C9.77803 8.01952 7.6961 8.01952 5.61417 8.01874C5.51668 8.01874 5.41529 8.03596 5.32368 7.98311C5.30528 7.96745 5.30254 7.94944 5.31546 7.92908C5.36322 7.89072 5.42077 7.88837 5.47793 7.88837C6.21314 7.88837 6.94836 7.88171 7.68357 7.89111C8.34088 7.88328 8.99819 7.88759 9.6555 7.88837C10.3195 7.89894 10.9838 7.88994 11.6482 7.89307C11.7323 7.89346 11.7922 7.86018 11.8502 7.79872C12.0667 7.56813 12.2859 7.33951 12.5231 7.12967C12.5752 7.09835 12.6167 7.12301 12.6566 7.1555C12.6938 7.18956 12.7271 7.22754 12.7635 7.26238C12.805 7.30584 12.8473 7.34812 12.8908 7.39001C12.9319 7.43268 12.9737 7.47418 13.0164 7.51528C13.0579 7.55795 13.1002 7.60023 13.1429 7.64134C13.1891 7.69811 13.2599 7.7353 13.2803 7.81281L13.2795 7.8136Z" fill="#F1F5F5"/>
<path d="M10.1851 11.0277C10.4219 10.8187 10.6678 10.6198 10.923 10.4334C11.0456 10.3908 11.1712 10.4197 11.2949 10.4197C12.7618 10.4178 14.2287 10.4182 15.6956 10.4193C15.7873 10.4193 15.8847 10.4002 15.9646 10.4695C15.9646 10.6985 15.9646 10.9279 15.9646 11.1569C15.8793 11.2286 15.7763 11.2062 15.6796 11.2062C14.0346 11.2078 12.3895 11.207 10.7445 11.2074C10.6353 11.2074 10.526 11.2047 10.4176 11.2227C10.2677 11.2215 10.1945 11.16 10.1855 11.0277H10.1851Z" fill="#FEBB00"/>
<path d="M15.964 10.4695C14.3809 10.4695 12.7977 10.4691 11.2145 10.4702C11.1151 10.4702 11.0176 10.4652 10.9229 10.4334C11.2086 10.1837 11.5046 9.94604 11.808 9.7178C11.8742 9.75891 11.9482 9.75068 12.0206 9.75068C13.2796 9.75068 14.5386 9.75303 15.7977 9.74755C15.9378 9.74677 15.9793 9.78709 15.9703 9.92372C15.9582 10.105 15.9656 10.2878 15.9644 10.4698L15.964 10.4695Z" fill="#FEBE00"/>
<path d="M15.9641 11.5942C15.9641 11.7711 15.9641 11.9481 15.9641 12.1251C15.8842 12.194 15.7867 12.1744 15.6955 12.1744C14.449 12.1756 13.2029 12.1752 11.9564 12.1752C11.8527 12.1752 11.7485 12.1752 11.646 12.1916C11.5794 12.2174 11.5223 12.1916 11.4721 12.1521C11.3167 12.0303 11.1582 11.9117 11.0129 11.7774C10.9699 11.7375 10.9303 11.6956 10.9558 11.6286C11.0176 11.5331 11.1167 11.5445 11.2083 11.5441C11.7329 11.5417 12.2575 11.5429 12.7821 11.5429C13.7533 11.5429 14.7246 11.5421 15.6959 11.5437C15.7875 11.5437 15.885 11.5245 15.9645 11.5938L15.9641 11.5942Z" fill="#FEB300"/>
<path d="M15.9642 11.5942C14.3638 11.5942 12.7638 11.5938 11.1634 11.5954C11.0878 11.5954 10.986 11.559 10.968 11.6878C10.9269 11.7062 10.896 11.6811 10.8701 11.658C10.7057 11.5108 10.4947 11.4157 10.3745 11.2192C10.4172 11.1319 10.4982 11.1577 10.5675 11.1573C12.3664 11.1565 14.1657 11.1565 15.9646 11.1565C15.9646 11.3022 15.9646 11.4482 15.9646 11.5938L15.9642 11.5942Z" fill="#FEB700"/>
<path d="M11.5928 12.1881C11.6354 12.1008 11.7165 12.1262 11.7854 12.1262C13.1783 12.1251 14.5712 12.1255 15.9641 12.1255C15.9641 12.2817 15.9641 12.4379 15.9641 12.5945C15.8894 12.6602 15.797 12.6434 15.7104 12.6434C14.6589 12.6446 13.6074 12.6442 12.5562 12.6442C12.4521 12.6442 12.348 12.6422 12.2458 12.6665C12.2309 12.6692 12.2133 12.6771 12.2004 12.672C11.9482 12.5729 11.7455 12.412 11.5928 12.1881Z" fill="#FEAF01"/>
<path d="M12.1864 12.6567C12.2482 12.5815 12.3344 12.5941 12.4162 12.5941C13.5989 12.5941 14.7815 12.5941 15.9638 12.5941C15.9638 12.7608 15.9638 12.9272 15.9638 13.094C15.8891 13.1594 15.7975 13.1429 15.7109 13.1429C14.8501 13.1445 13.9892 13.1437 13.1279 13.1437C13.0292 13.1437 12.931 13.1437 12.8331 13.1523C12.7873 13.1742 12.7439 13.1707 12.7027 13.1402C12.5332 13.0137 12.3708 12.8783 12.2118 12.7393C12.1887 12.7189 12.1723 12.6911 12.1864 12.6567Z" fill="#FEAB01"/>
<path d="M12.7803 13.1562C12.8057 13.0541 12.8895 13.0959 12.9474 13.0959C13.9532 13.0932 14.9585 13.094 15.9642 13.094C15.9642 13.2608 15.9642 13.4271 15.9642 13.5939C15.8946 13.6562 15.8084 13.6425 15.727 13.6425C15.0587 13.644 14.3905 13.6432 13.7222 13.6432C13.6341 13.6432 13.546 13.644 13.4587 13.6523C13.4301 13.6628 13.3969 13.68 13.3702 13.6609C13.1584 13.5105 12.9349 13.3735 12.7803 13.1562Z" fill="#FEA701"/>
<path d="M13.4053 13.6562C13.4303 13.554 13.5141 13.5959 13.572 13.5959C14.3695 13.5931 15.1666 13.5939 15.964 13.5939C15.964 13.7294 15.964 13.8648 15.964 13.9999C15.8944 14.0618 15.8082 14.0477 15.7268 14.0484C15.1364 14.0539 14.5457 14.0406 13.9557 14.0563C13.9279 14.0696 13.895 14.086 13.8688 14.0664C13.7028 13.9431 13.5125 13.8464 13.4053 13.6562Z" fill="#FEA101"/>
<path d="M13.9054 14.0625C13.9249 13.9674 14.0017 14.0015 14.0565 14.0015C14.6927 13.9995 15.3284 14.0003 15.9646 14.0003C15.9646 14.1146 15.9646 14.2293 15.9646 14.3436C15.9 14.4019 15.8197 14.391 15.7434 14.3914C15.3821 14.3929 15.0203 14.3922 14.659 14.3918C14.5709 14.3918 14.4832 14.3937 14.3979 14.4153C14.3121 14.4376 14.2464 14.3937 14.1876 14.342C14.1023 14.2669 14.0099 14.1999 13.9242 14.1248C13.9077 14.1068 13.8944 14.088 13.9054 14.0621V14.0625Z" fill="#FE9E01"/>
<path d="M14.3426 14.4066C14.3994 14.337 14.4785 14.3436 14.5556 14.3436C15.025 14.3436 15.4948 14.3436 15.9642 14.3436C15.9642 14.4685 15.9642 14.5938 15.9642 14.7187C15.8988 14.777 15.8181 14.7629 15.7414 14.7656C15.4458 14.7762 15.1495 14.7437 14.8551 14.7868C14.7705 14.8138 14.7134 14.7602 14.6519 14.7179C14.5677 14.6388 14.4726 14.5719 14.3841 14.4975C14.3575 14.4728 14.3242 14.4513 14.3418 14.4063L14.3426 14.4066Z" fill="#FE9902"/>
<path d="M13.6585 8.18982C13.6471 8.17886 13.6354 8.16829 13.624 8.15733C13.6369 8.09078 13.6914 8.05437 13.7348 8.01091C14.2003 7.54387 14.6662 7.07721 15.1344 6.61291C15.1829 6.56475 15.2193 6.48959 15.3086 6.5029C15.3094 6.62544 15.3098 6.74758 15.3106 6.87012C14.8537 7.25612 14.398 7.64291 13.909 7.9886C13.8217 8.05006 13.7419 8.12249 13.6589 8.18982H13.6585Z" fill="#E2E8E8"/>
<path d="M14.811 14.7813C14.8443 14.7085 14.91 14.7187 14.9715 14.7187C15.3023 14.7187 15.6335 14.7187 15.9643 14.7187C15.9643 14.8435 15.9643 14.9684 15.9643 15.0937C15.7701 15.0937 15.5759 15.0925 15.3818 15.0945C15.3305 15.0949 15.2628 15.071 15.2483 15.1563C15.1856 15.1043 15.1234 15.0522 15.0607 15.0001C14.9824 15.0001 14.9406 14.9352 14.8807 14.9015C14.8443 14.869 14.7918 14.8459 14.8106 14.7813H14.811Z" fill="#FE9602"/>
<path d="M10.5986 3.93826C10.6014 3.50097 10.729 3.09851 10.9369 2.71799C10.9588 2.67766 10.9807 2.63695 11.0026 2.59624C11.0218 2.5751 11.041 2.55395 11.0602 2.53281C11.5143 2.32689 11.9775 2.1425 12.4367 1.94793C12.8383 1.77763 13.2404 1.60734 13.6444 1.44291C13.7004 1.42021 13.7536 1.37753 13.821 1.40533L14.1541 1.47501C14.4567 1.60655 14.7598 1.73692 15.004 1.96868C14.6396 2.16912 14.2442 2.29949 13.8656 2.46861C13.8092 2.49406 13.7493 2.51207 13.6914 2.5336C13.6503 2.50698 13.655 2.46274 13.6475 2.42281C13.6131 2.24194 13.48 2.18439 13.33 2.29048C13.2024 2.38053 13.103 2.50267 12.9922 2.6119C12.8712 2.73091 12.735 2.83896 12.6884 3.01474C12.089 3.24493 11.5057 3.51349 10.9095 3.75034C10.7952 3.79575 10.6891 3.8537 10.5994 3.93865L10.5986 3.93826Z" fill="#D13104"/>
<path d="M13.8213 1.40494C13.0614 1.72713 12.3027 2.05207 11.5405 2.36957C11.3851 2.43416 11.2379 2.53008 11.0605 2.53242C11.1467 2.36369 11.2907 2.24116 11.4066 2.09592C11.7934 1.75219 12.228 1.4989 12.7416 1.39868C13.1014 1.3286 13.4615 1.31098 13.8209 1.40455L13.8213 1.40494Z" fill="#D43306"/>
<path d="M12.6812 3.00182C12.6741 2.88868 12.7278 2.80569 12.8076 2.7313C12.9552 2.59311 13.1005 2.45256 13.2441 2.31006C13.3342 2.2212 13.425 2.15856 13.5609 2.21493C13.6908 2.26896 13.69 2.37505 13.6869 2.48662C13.6865 2.50189 13.69 2.51755 13.6916 2.53282C13.6916 2.81391 13.6916 3.09539 13.6916 3.37648C13.6916 3.59532 13.6916 3.81377 13.6916 4.03261C13.6916 4.25145 13.6916 4.46991 13.6916 4.68875C13.6916 4.90759 13.6916 5.12603 13.6916 5.34488C13.6897 5.45097 13.6842 5.55745 13.6873 5.66355C13.6897 5.73558 13.6572 5.78922 13.6164 5.84128C13.58 5.83698 13.5546 5.85773 13.5299 5.87926C13.2575 5.93289 13.1929 5.90706 13.1157 5.71601C13.1059 4.83477 13.1177 3.95275 13.1059 3.05076C13.0006 3.14119 12.9098 3.25394 12.7654 3.1729C12.7019 3.13728 12.6362 3.09422 12.6816 3.00143L12.6812 3.00182Z" fill="#FEFEFE"/>
<path d="M13.2795 7.8136C13.2157 7.77327 13.1637 7.72081 13.1226 7.65739C13.4976 7.2937 13.8374 6.89438 14.2481 6.56749C14.3941 6.49585 14.5401 6.4246 14.6862 6.35295C14.6889 6.3968 14.676 6.4336 14.6435 6.46531C14.1886 6.91435 13.7341 7.36417 13.2792 7.8136H13.2795Z" fill="#D6DDDC"/>
<path d="M14.2481 6.56789C13.9008 6.91905 13.5536 7.2706 13.2051 7.6202C13.1852 7.64017 13.1507 7.64565 13.1229 7.65779C13.0705 7.62686 13.0286 7.58536 12.998 7.53251C13.2752 7.24751 13.5555 6.96564 13.8425 6.69042C13.9776 6.6497 14.113 6.6086 14.2481 6.56789Z" fill="#D1D9D8"/>
<path d="M13.8429 6.69041C13.8429 6.72995 13.8209 6.75775 13.7947 6.78398C13.5606 7.0177 13.3265 7.25181 13.0928 7.48592C13.0665 7.51254 13.038 7.5329 12.9984 7.5329C12.946 7.50197 12.9041 7.46086 12.8735 7.40801C13.0098 7.19152 13.2216 7.04549 13.3887 6.85719C13.4443 6.79494 13.5054 6.74013 13.5919 6.72604C13.6753 6.71195 13.7563 6.68258 13.8429 6.69081V6.69041Z" fill="#CCD4D3"/>
<path d="M13.5917 6.72565C13.3803 6.89321 13.2073 7.1007 13.0119 7.2847C12.9669 7.32698 12.9195 7.36691 12.8733 7.40763C12.8209 7.3767 12.779 7.3352 12.748 7.28274C12.8945 7.0729 13.0828 6.90378 13.2777 6.74171C13.3122 6.73153 13.3502 6.74171 13.383 6.72252C13.4527 6.7237 13.522 6.72448 13.5917 6.72565Z" fill="#C7CFCF"/>
<path d="M12.6547 7.18918C12.6238 7.16765 12.5932 7.14651 12.5623 7.12498C12.5537 7.11206 12.5517 7.09796 12.5556 7.08308C12.6684 6.9488 12.778 6.81139 12.9358 6.72487C13.0262 6.72448 13.117 6.7237 13.2075 6.72331C13.2247 6.7284 13.2298 6.73897 13.2227 6.75541C13.0493 6.81452 12.9585 6.97308 12.8277 7.08387C12.776 7.12771 12.7432 7.20523 12.6547 7.18879V7.18918Z" fill="#C0C8C8"/>
<path d="M12.9359 6.72526C12.8192 6.85719 12.6994 6.98639 12.5604 7.09561C12.4731 7.10188 12.4399 7.04981 12.4277 6.97425C12.5334 6.87951 12.6133 6.75502 12.7488 6.69395C12.7895 6.6963 12.8298 6.69825 12.8705 6.7006C12.8924 6.70882 12.9144 6.71704 12.9363 6.72526H12.9359Z" fill="#BCC4C4"/>
<path d="M13.2267 6.7468C13.2208 6.73858 13.2142 6.73075 13.2075 6.72331C13.2659 6.72331 13.3246 6.72331 13.3833 6.72292C13.3492 6.73192 13.3148 6.74053 13.2807 6.74954C13.2619 6.76989 13.2439 6.77107 13.2271 6.7468H13.2267Z" fill="#BD2702"/>
<path d="M12.7484 6.69395C12.6498 6.7926 12.5778 6.92179 12.4353 6.97034C12.3448 6.97386 12.3092 6.92179 12.3018 6.83997C12.3797 6.74954 12.4282 6.61252 12.5915 6.65793C12.6478 6.65167 12.6987 6.67007 12.7484 6.69395Z" fill="#B6BFBE"/>
<path d="M12.5915 6.65793C12.4502 6.64932 12.4157 6.80043 12.3104 6.84545C12.211 6.84428 12.1671 6.78242 12.146 6.69551C12.1898 6.63796 12.24 6.58824 12.3112 6.56515C12.3625 6.57846 12.4138 6.59177 12.4647 6.60508C12.4972 6.64579 12.5618 6.61056 12.5911 6.65832L12.5915 6.65793Z" fill="#B0B8B8"/>
<path d="M13.1482 5.71875C13.2144 5.91684 13.3804 5.87848 13.5295 5.87965C13.1553 6.10162 12.7403 6.23238 12.3461 6.41012C12.2944 6.43322 12.2372 6.4477 12.2153 6.50955C12.0908 6.53617 12.0074 6.44496 11.9092 6.39916C11.8501 6.37175 11.7925 6.33652 11.7389 6.29698C11.7146 6.27388 11.699 6.24647 11.6997 6.21163C11.7138 6.14195 11.7671 6.11102 11.825 6.08479C12.2071 5.91214 12.5986 5.76142 12.9842 5.59582C13.0265 5.57742 13.0719 5.56215 13.1193 5.58251C13.158 5.62127 13.1251 5.67568 13.1482 5.71797V5.71875Z" fill="#BF2802"/>
<path d="M11.7481 6.28171C11.9118 6.34161 12.0464 6.46023 12.2152 6.50994C12.2473 6.52834 12.279 6.54675 12.3111 6.56515C12.2715 6.62269 12.2332 6.6822 12.1537 6.68925C12.0218 6.67946 11.9783 6.55184 11.8867 6.48802C11.8401 6.41951 11.7391 6.38702 11.7481 6.28132V6.28171Z" fill="#A8B1B0"/>
<path d="M15.308 6.50289C14.8699 6.93627 14.4318 7.37043 13.993 7.80342C13.8716 7.92321 13.7467 8.03988 13.6234 8.15771C13.5702 8.12757 13.5287 8.08607 13.4985 8.03283C13.5075 7.97684 13.551 7.94435 13.587 7.90834C14.1006 7.39353 14.6143 6.87872 15.1306 6.36666C15.1768 6.32085 15.2144 6.23668 15.308 6.28327C15.308 6.35648 15.308 6.42969 15.308 6.50289Z" fill="#DFE5E5"/>
<path d="M15.3082 6.28328C15.2357 6.28563 15.2029 6.34552 15.1602 6.38819C14.6485 6.8983 14.138 7.40959 13.6263 7.92009C13.586 7.96002 13.5414 7.99525 13.4983 8.03283C13.4451 8.00269 13.4036 7.9608 13.373 7.90795C13.4451 7.90639 13.4791 7.84805 13.5218 7.80538C14.0578 7.271 14.5921 6.73505 15.1285 6.20145C15.1743 6.15565 15.2197 6.0613 15.278 6.08597C15.3508 6.11689 15.2988 6.21516 15.3078 6.28328H15.3082Z" fill="#DCE3E2"/>
<path d="M0.874534 3.81416C0.806023 3.83334 0.762177 3.90185 0.687012 3.90772C0.687012 3.53268 0.687012 3.15803 0.687012 2.78298C0.742994 2.73874 0.772355 2.64165 0.874142 2.68902C0.874142 3.06407 0.874142 3.43911 0.874142 3.81377L0.874534 3.81416Z" fill="#F2F4F4"/>
<path d="M0.874142 1.28319C0.874142 1.52278 0.874142 1.76237 0.874142 2.00196C0.81855 2.04698 0.78919 2.14368 0.687012 2.09592C0.687012 1.85633 0.687012 1.61674 0.687012 1.37714C0.755522 1.35796 0.799368 1.28984 0.874142 1.28319Z" fill="#EBEEEE"/>
<path d="M0.6875 2.09592C0.768147 2.101 0.794375 1.99765 0.87463 2.00196C0.87463 2.23098 0.87463 2.46039 0.87463 2.68941C0.794375 2.68471 0.768147 2.78807 0.6875 2.78337C0.6875 2.55435 0.6875 2.32494 0.6875 2.09592Z" fill="#EFF1F1"/>
<path d="M4.21807 0.221084C3.3016 0.221084 2.38473 0.221084 1.46826 0.221084C1.51211 0.169408 1.57201 0.197596 1.62486 0.190158C1.81238 0.190158 1.9999 0.190158 2.18742 0.190158C2.36438 0.190158 2.54172 0.190158 2.71867 0.190158C2.93752 0.190158 3.15596 0.190158 3.37481 0.190158C3.65589 0.190158 3.93738 0.190158 4.21846 0.190158C4.21846 0.200728 4.21846 0.210906 4.21846 0.221476L4.21807 0.221084Z" fill="#F6F7F7"/>
<path d="M14.9045 14.8753C14.9566 14.9168 15.0086 14.9583 15.0611 15.0001C15.0411 15.042 15.0078 15.062 14.9617 15.062C14.9252 15.062 14.8888 15.062 14.8524 15.062C10.346 15.062 5.83959 15.062 1.33318 15.0608C1.25997 15.0608 1.17227 15.0925 1.12451 14.9994C1.15896 14.9356 1.22943 14.9168 1.28072 14.8745C1.35197 14.8561 1.42439 14.8545 1.4976 14.8545C5.86856 14.8549 10.2395 14.8549 14.6105 14.8541C14.7095 14.8541 14.8066 14.867 14.9049 14.8753H14.9045Z" fill="#FEAF01"/>
<path d="M14.4049 14.4689C14.486 14.5444 14.5909 14.5926 14.6555 14.6869C14.6469 14.7582 14.5873 14.7562 14.5388 14.7641C14.4769 14.7739 14.4143 14.7699 14.3517 14.7699C10.169 14.7699 5.98636 14.7699 1.80331 14.7699C1.74106 14.7699 1.67803 14.7739 1.61617 14.7641C1.56724 14.7562 1.50812 14.7586 1.49951 14.6873C1.51008 14.6768 1.52026 14.6662 1.53083 14.6556C1.62479 14.5828 1.71835 14.51 1.81231 14.4376C1.93641 14.4528 2.06091 14.4489 2.1854 14.4489C6.12416 14.4489 10.0629 14.4489 14.0013 14.4489C14.136 14.4489 14.271 14.4446 14.4049 14.4689Z" fill="#FEB700"/>
<path d="M1.4996 14.6873C1.5458 14.7386 1.60687 14.7179 1.66129 14.7179C5.93869 14.7187 10.2161 14.7187 14.4935 14.7179C14.5483 14.7179 14.6094 14.7386 14.6552 14.6873C14.7072 14.7187 14.7589 14.75 14.811 14.7817C14.8313 14.8236 14.863 14.8545 14.9045 14.8757C14.8583 14.9262 14.7969 14.9054 14.7425 14.9054C10.3093 14.9062 5.87605 14.9062 1.44245 14.9054C1.38764 14.9054 1.32657 14.9262 1.28076 14.8749C1.33087 14.7856 1.42992 14.7539 1.4996 14.6873Z" fill="#FEB200"/>
<path d="M4.49899 8.47051C5.45735 8.47051 6.41571 8.47051 7.37408 8.47051C7.41871 8.53902 7.36233 8.57817 7.32553 8.61575C6.70659 9.239 6.08491 9.8599 5.46244 10.4796C5.43073 10.5113 5.39863 10.5517 5.34265 10.5325C5.19662 10.4283 5.0502 10.3238 4.90418 10.2197C4.65089 9.96756 4.34944 9.77456 4.07775 9.54554C3.95913 9.44571 3.83738 9.34979 3.7168 9.25192C3.74381 9.16227 3.82054 9.11177 3.88318 9.05305C4.08949 8.85965 4.26214 8.63024 4.49977 8.47051H4.49899Z" fill="#F6F8F8"/>
<path d="M4.49882 8.47052C4.25023 8.74338 3.99106 9.00568 3.71585 9.25193C3.60153 9.18302 3.49896 9.09964 3.40344 9.00646C3.38543 8.94382 3.32319 8.93717 3.27895 8.90781C3.08085 8.7516 2.88276 8.5954 2.68506 8.4392C2.73791 8.43998 2.76884 8.40357 2.80211 8.37029C3.40814 7.76427 4.01416 7.15825 4.61979 6.55183C4.63428 6.53735 4.64367 6.51816 4.65542 6.50133C4.69457 6.45748 4.7482 6.45827 4.79988 6.45827C5.32447 6.45983 5.84946 6.44926 6.37366 6.46297C6.43943 6.47823 6.46174 6.51268 6.42142 6.57415C6.39245 6.61799 6.35408 6.65323 6.31728 6.69003C5.97552 7.03219 5.6361 7.37709 5.28924 7.71416C5.20389 7.79676 5.16357 7.92008 5.04808 7.97332C4.69731 7.99368 4.34653 7.97685 3.99576 7.98311C3.93547 7.98429 3.87009 7.96745 3.82233 8.02344C3.77966 8.09978 3.8008 8.18277 3.79532 8.26263C3.79141 8.32292 3.79688 8.38556 3.75147 8.43489C3.82155 8.50301 3.90846 8.46543 3.98676 8.46856C4.15705 8.47482 4.32813 8.47091 4.49882 8.47091V8.47052Z" fill="#F8FAFA"/>
<path d="M3.2793 8.90781C3.34976 8.90428 3.40457 8.92034 3.40379 9.00646C3.36229 8.97358 3.32079 8.94069 3.2793 8.90781Z" fill="#F6F8F8"/>
<path d="M5.34229 10.5325C5.42215 10.4581 5.50397 10.3861 5.58109 10.3093C6.14523 9.74677 6.70819 9.18342 7.27076 8.61928C7.31343 8.57661 7.37293 8.54294 7.3745 8.47013C8.24869 8.47013 9.12249 8.46934 9.99669 8.47052C10.0456 8.47052 10.1118 8.4435 10.1404 8.49792C10.1756 8.56526 10.1036 8.59775 10.0664 8.63533C9.65453 9.05462 9.24151 9.47234 8.82731 9.88927C8.81439 9.90258 8.78973 9.90454 8.77055 9.91158C8.72396 9.93586 8.69068 9.90728 8.65819 9.88183C8.61317 9.8462 8.56776 9.81137 8.52234 9.77691C8.20563 9.53772 7.94177 9.53928 7.63092 9.78866C7.39955 9.97461 7.17132 10.1641 6.93877 10.3485C6.66982 10.5622 6.40204 10.7776 6.13622 10.9952C6.09042 11.0328 6.04696 11.09 5.97336 11.05C5.9166 10.9647 5.80894 10.9471 5.742 10.8754C5.60889 10.7611 5.47539 10.6464 5.34229 10.5321V10.5325Z" fill="#F3F6F6"/>
<path d="M5.97315 11.0504C6.18181 10.9412 6.34467 10.7717 6.52711 10.628C6.87396 10.3555 7.21573 10.0768 7.55789 9.79922C7.95643 9.47585 8.2246 9.47703 8.62392 9.80314C8.6705 9.84111 8.70025 9.90453 8.76994 9.91158C9.22211 10.2796 9.67389 10.6476 10.1268 11.0144C10.1405 11.0258 10.1652 11.0234 10.1848 11.0277C10.2192 11.1197 10.3069 11.1593 10.3739 11.2191C10.5716 11.3754 10.7697 11.5316 10.9674 11.6878C11.1694 11.8624 11.3714 12.037 11.5922 12.1877C11.7813 12.3552 11.9723 12.5201 12.1857 12.6567C12.3661 12.8438 12.5803 12.991 12.7796 13.1562C12.9878 13.323 13.1961 13.4894 13.4044 13.6562C13.5711 13.7916 13.7375 13.9271 13.9043 14.0625C13.9145 14.0731 13.9247 14.0837 13.9352 14.0942C13.9211 14.1835 13.8448 14.1839 13.7814 14.1972C13.7101 14.2125 13.6361 14.207 13.5633 14.207C9.91543 14.207 6.26755 14.207 2.61966 14.207C2.54685 14.207 2.47325 14.2125 2.40161 14.1972C2.33818 14.1835 2.26224 14.1827 2.24854 14.0935C2.36324 13.9893 2.47834 13.8856 2.59304 13.7814C2.73985 13.7164 2.83029 13.5771 2.96731 13.4996C3.11333 13.3747 3.25896 13.2502 3.40499 13.1253C3.61052 13.0028 3.78082 12.8344 3.96717 12.6872C4.17544 12.5205 4.38371 12.3541 4.59198 12.1873C4.76893 12.0417 4.94628 11.8956 5.12323 11.75C5.26926 11.6353 5.41489 11.521 5.56091 11.4063C5.69441 11.2834 5.86197 11.2 5.97237 11.05L5.97315 11.0504Z" fill="#FEC100"/>
<path d="M2.2494 14.0935C2.31791 14.1498 2.39895 14.1565 2.48312 14.1565C6.22261 14.1565 9.9621 14.1565 13.702 14.1565C13.7862 14.1565 13.8672 14.1498 13.9361 14.0942C14.0716 14.1984 14.207 14.3025 14.3429 14.4063C14.3636 14.427 14.3844 14.4481 14.4051 14.4689C14.3589 14.5198 14.2974 14.499 14.243 14.499C10.1555 14.4998 6.06797 14.5002 1.98045 14.4983C1.92212 14.4983 1.83795 14.5405 1.8125 14.4376C1.89863 14.3456 2.0196 14.2931 2.09398 14.1882C2.14605 14.1569 2.19772 14.1252 2.24979 14.0939L2.2494 14.0935Z" fill="#FEBC00"/>
<path d="M8.4671 4.50435C9.18548 4.50357 9.90386 4.50279 10.6222 4.50201C10.6958 4.54703 10.6892 4.63041 10.717 4.69736C10.7334 4.77292 10.7632 4.84691 10.742 4.92638C10.7154 4.99724 10.6594 5.045 10.6085 5.09667C10.338 5.36993 10.0612 5.63732 9.79542 5.91528C9.72847 5.98496 9.65526 6.01354 9.56092 6.01354C8.79164 6.01237 8.02237 6.01354 7.25349 6.01237C7.19711 6.01237 7.13761 6.01863 7.09337 5.97009C7.08162 5.89061 7.138 5.84794 7.18537 5.80018C7.5749 5.41065 7.96443 5.02151 8.35357 4.63159C8.3935 4.59126 8.42952 4.54703 8.46749 4.50474L8.4671 4.50435Z" fill="#F6F8F8"/>
<path d="M11.7483 6.2817C11.8004 6.34473 11.8528 6.40776 11.9049 6.47079C11.8254 6.54087 11.7275 6.52129 11.6363 6.52051C10.1698 6.50955 8.70291 6.53069 7.23678 6.50994C6.1093 6.49428 4.9822 6.48645 3.85472 6.48488C3.81949 6.48488 3.78112 6.49545 3.75098 6.46531C3.75098 6.31224 3.75098 6.15917 3.75098 6.00609C3.80265 5.96812 3.86216 5.9873 3.91736 5.9873C5.78632 5.98613 7.65568 6.0014 9.52425 5.97791C10.1318 5.97047 10.7394 5.95638 11.347 5.95442C11.5341 5.95833 11.6152 6.10475 11.7138 6.22807C11.7256 6.24608 11.7373 6.26369 11.7491 6.2817H11.7483Z" fill="#C1CDCD"/>
<path d="M3.75098 6.46531C3.80304 6.46688 3.85511 6.4704 3.90679 6.4704C6.57282 6.4704 9.23885 6.4704 11.9049 6.4704C11.9879 6.54322 12.0709 6.61643 12.1535 6.68924C12.1946 6.75227 12.2474 6.80356 12.3101 6.84545C12.341 6.89791 12.3833 6.93901 12.435 6.97033C12.4663 7.0224 12.5082 7.0639 12.5602 7.09522C12.561 7.105 12.5614 7.11518 12.5622 7.12497C12.3555 7.33716 12.1312 7.53525 11.948 7.76623C11.8242 7.92243 11.6915 7.94435 11.5142 7.94161C10.905 7.933 10.2959 7.93809 9.68672 7.93809C9.66166 7.83082 9.74387 7.77719 9.80299 7.7169C10.1397 7.37591 10.4799 7.03884 10.8177 6.69942C10.8569 6.66027 10.9039 6.62622 10.9344 6.54283C10.2634 6.544 9.60998 6.54048 8.95659 6.54596C8.1744 6.55692 7.3922 6.54948 6.6104 6.54987C6.54894 6.54987 6.48474 6.55222 6.43658 6.50094C5.84309 6.50094 5.2492 6.50094 4.6557 6.50094C4.40163 6.50094 4.14716 6.50172 3.89309 6.49976C3.84415 6.49976 3.78738 6.51973 3.75098 6.46453V6.46531Z" fill="#F2F6F5"/>
<path d="M11.4041 5.9787C11.3469 6.01706 11.2827 5.99906 11.2216 5.99906C8.80382 6.00023 6.38638 6.00023 3.96855 6.00023C3.89573 6.00023 3.82331 6.00375 3.75049 6.00571C3.79825 5.94346 3.86598 5.97126 3.9247 5.97087C4.98094 5.96891 6.03678 5.9693 7.09301 5.9693C7.9077 5.9693 8.72278 5.96812 9.53746 5.97126C9.63729 5.97165 9.70463 5.9462 9.77745 5.86947C10.0487 5.58329 10.3326 5.30925 10.6105 5.02934C10.6505 4.98941 10.6845 4.9436 10.7209 4.90015C10.8145 4.93264 10.8121 5.02777 10.847 5.09746C10.8744 5.15227 10.8967 5.21021 10.9253 5.26462C11.0216 5.44197 11.1293 5.61148 11.2663 5.76103C11.3223 5.8268 11.3951 5.88239 11.4041 5.97831V5.9787Z" fill="#F4F7F7"/>
<path d="M10.6833 4.69579C10.663 4.63119 10.6426 4.5666 10.6222 4.502C10.6105 4.33562 10.5991 4.16885 10.5874 4.00246C10.5913 3.98093 10.5948 3.95979 10.5988 3.93826C10.6238 3.849 10.679 3.80398 10.7698 3.76718C11.3348 3.5362 11.8946 3.29348 12.4568 3.05546C12.528 3.02531 12.6004 2.99477 12.6811 3.00182C12.7606 3.20422 12.8847 3.22771 13.0193 3.06642C13.055 3.02374 13.091 2.98107 13.1481 2.91256V5.71875C13.1105 5.6839 13.1282 5.63692 13.1219 5.59543C13.0409 5.47407 13.0851 5.33705 13.0761 5.20707C13.071 5.13073 13.0722 5.054 13.0784 4.97766C13.0741 4.77917 13.0753 4.58069 13.0777 4.38221C13.0867 4.21073 13.0835 4.03887 13.082 3.86701C13.0808 3.71628 13.0585 3.70219 12.916 3.76287C12.1972 4.06824 11.4733 4.36146 10.7573 4.67308C10.7334 4.68365 10.7103 4.69501 10.6833 4.69579Z" fill="#CE3004"/>
<path d="M3.75166 8.4345C3.75166 8.28103 3.75088 8.12796 3.75049 7.9745C3.79629 7.93731 3.84993 7.95571 3.89965 7.95532C4.26099 7.95375 4.62194 7.95023 4.98328 7.95688C5.09251 7.95884 5.20565 7.87898 5.31174 7.96667C7.50407 7.96745 9.6968 7.96824 11.8891 7.96902C11.9619 7.96902 12.0355 7.97489 12.1076 7.96784C12.2176 7.95688 12.2493 8.00112 12.2497 8.10956C12.2497 8.43998 12.2544 8.43998 11.9224 8.43998C9.27164 8.43998 6.62088 8.43998 3.97011 8.43959C3.8973 8.43959 3.82448 8.43646 3.75166 8.4345Z" fill="#C1CDCD"/>
<path d="M6.43685 6.50133C7.29108 6.50133 8.14491 6.50133 8.99914 6.50133C9.0469 6.5945 8.96351 6.63326 8.91771 6.67985C8.59316 7.00948 8.26549 7.33559 7.93781 7.6617C7.84934 7.74978 7.76282 7.83904 7.68687 7.93848H5.3121C5.23929 7.96236 5.16608 7.96236 5.09326 7.93848C5.10187 7.84844 5.16216 7.79089 5.22167 7.73178C5.58967 7.36456 5.95728 6.99734 6.3241 6.62895C6.36403 6.58863 6.39927 6.544 6.43685 6.50133Z" fill="#F6F8F8"/>
<path d="M7.68666 7.93848C7.67491 7.8594 7.73011 7.81673 7.77748 7.76936C8.15057 7.39627 8.52405 7.02358 8.89636 6.64971C8.93903 6.60703 8.99775 6.57336 8.99893 6.50133C9.62805 6.50133 10.2568 6.50094 10.8859 6.50211C10.929 6.50211 10.992 6.47627 11.0116 6.5303C11.0296 6.58002 10.9693 6.60742 10.9384 6.63874C10.568 7.01066 10.1969 7.38218 9.82497 7.75252C9.76937 7.80772 9.71496 7.86293 9.68677 7.93809H7.68705L7.68666 7.93848Z" fill="#F4F7F7"/>
<path d="M13.2267 6.7468C13.2447 6.74758 13.2623 6.74875 13.2803 6.74954C13.117 6.94137 12.9385 7.11793 12.7479 7.28274C12.7068 7.26121 12.6754 7.23029 12.6543 7.18918C12.7721 7.07643 12.8978 6.97034 13.0055 6.84819C13.0693 6.77577 13.1335 6.73858 13.2267 6.7468Z" fill="#C3CBCB"/>
<path d="M5.09339 7.93848C5.1662 7.93848 5.23941 7.93848 5.31223 7.93848C5.31223 7.94788 5.31223 7.95767 5.31223 7.96706C4.79194 7.96941 4.27166 7.97215 3.75098 7.9745C3.79287 7.91539 3.8555 7.93966 3.90914 7.93966C4.30376 7.9377 4.69877 7.93848 5.09339 7.93848Z" fill="#F4F7F7"/>
<path d="M13.1217 4.97061C13.1217 5.17888 13.1217 5.38715 13.1217 5.59582C12.6703 5.75398 12.2381 5.95951 11.7949 6.13842C11.7561 6.15408 11.7307 6.18931 11.7131 6.22807C11.6101 6.14508 11.5072 6.06208 11.4042 5.97909C11.3513 5.91606 11.2989 5.85264 11.246 5.78961C11.2312 5.69291 11.3067 5.66394 11.3705 5.63693C11.8947 5.41378 12.4221 5.19767 12.9463 4.97492C13.0019 4.95143 13.0625 4.92207 13.122 4.971L13.1217 4.97061Z" fill="#C32A03"/>
<path d="M10.6831 4.69579C10.8178 4.55563 11.0073 4.52196 11.1748 4.44954C11.7491 4.20094 12.3277 3.96253 12.9052 3.72059C12.9385 3.70649 12.9741 3.69788 13.0066 3.68222C13.1013 3.63759 13.126 3.67948 13.1244 3.76913C13.1213 3.96096 13.1225 4.15318 13.1217 4.34541C12.8183 4.49143 12.5043 4.61279 12.1946 4.74472C11.766 4.92755 11.3357 5.10724 10.9047 5.2838C10.815 5.16988 10.7919 5.02385 10.7207 4.90092C10.7082 4.83241 10.6956 4.7643 10.6831 4.69579Z" fill="#CA2E04"/>
<path d="M10.9048 5.2838C11.0402 5.14404 11.2297 5.11037 11.3981 5.03795C11.916 4.8148 12.4375 4.60027 12.957 4.38025C13.011 4.35754 13.0634 4.34071 13.1218 4.3458C13.1218 4.55407 13.1218 4.76234 13.1218 4.97061C12.8348 5.02855 12.5851 5.1828 12.3145 5.28459C12.01 5.39929 11.7128 5.53474 11.4118 5.65924C11.3433 5.68742 11.2779 5.71679 11.2458 5.78961C11.1033 5.64084 10.9854 5.47485 10.9048 5.28419V5.2838Z" fill="#C62C03"/>
</svg>
