<svg width="16" height="16" viewBox="0 0 16 16" fill="none" xmlns="http://www.w3.org/2000/svg">
<path d="M10.3922 8.17337C11.2993 8.17337 12.1691 7.81305 12.8105 7.17168C13.4519 6.5303 13.8122 5.66041 13.8122 4.75337C13.8122 3.84633 13.4519 2.97644 12.8105 2.33507C12.1691 1.69369 11.2993 1.33337 10.3922 1.33337C9.48517 1.33337 8.61528 1.69369 7.97391 2.33507C7.33253 2.97644 6.97221 3.84633 6.97221 4.75337C6.97221 5.66041 7.33253 6.5303 7.97391 7.17168C8.61528 7.81305 9.48517 8.17337 10.3922 8.17337ZM4.23888 12.96C4.78346 12.96 5.30573 12.7437 5.69081 12.3586C6.07588 11.9736 6.29221 11.4513 6.29221 10.9067C6.29221 10.3621 6.07588 9.83986 5.69081 9.45478C5.30573 9.06971 4.78346 8.85337 4.23888 8.85337C3.6943 8.85337 3.17203 9.06971 2.78695 9.45478C2.40188 9.83986 2.18555 10.3621 2.18555 10.9067C2.18555 11.4513 2.40188 11.9736 2.78695 12.3586C3.17203 12.7437 3.6943 12.96 4.23888 12.96ZM11.0789 14.6667C11.303 14.6667 11.5249 14.6226 11.732 14.5368C11.9391 14.451 12.1272 14.3253 12.2857 14.1668C12.4442 14.0084 12.5699 13.8202 12.6556 13.6132C12.7414 13.4061 12.7855 13.1842 12.7855 12.96C12.7855 12.7359 12.7414 12.514 12.6556 12.3069C12.5699 12.0999 12.4442 11.9117 12.2857 11.7532C12.1272 11.5948 11.9391 11.4691 11.732 11.3833C11.5249 11.2975 11.303 11.2534 11.0789 11.2534C10.6262 11.2534 10.1921 11.4332 9.87209 11.7532C9.55202 12.0733 9.37221 12.5074 9.37221 12.96C9.37221 13.4127 9.55202 13.8468 9.87209 14.1668C10.1921 14.4869 10.6262 14.6667 11.0789 14.6667Z" stroke="#1678F2" stroke-miterlimit="10"/>
</svg>
