<svg width="22" height="22" viewBox="0 0 22 22" fill="none" xmlns="http://www.w3.org/2000/svg">
<path fill-rule="evenodd" clip-rule="evenodd" d="M1.46484 3.66667C1.46484 2.69421 1.85115 1.76158 2.53879 1.07394C3.22642 0.386308 4.15905 0 5.13151 0L7.33151 0V7.33333H8.79818V0H10.2648V4.4H11.7315V0H16.8648C17.8373 0 18.7699 0.386308 19.4576 1.07394C20.1452 1.76158 20.5315 2.69421 20.5315 3.66667V13.9333C20.5315 14.4148 20.4367 14.8916 20.2524 15.3365C20.0681 15.7814 19.798 16.1856 19.4576 16.5261C19.1171 16.8665 18.7129 17.1366 18.268 17.3209C17.8232 17.5052 17.3464 17.6 16.8648 17.6H13.1982V19.8C13.1982 20.3835 12.9664 20.9431 12.5538 21.3556C12.1412 21.7682 11.5817 22 10.9982 22C10.4147 22 9.85512 21.7682 9.44254 21.3556C9.02996 20.9431 8.79818 20.3835 8.79818 19.8V17.6H5.13151C4.15905 17.6 3.22642 17.2137 2.53879 16.5261C1.85115 15.8384 1.46484 14.9058 1.46484 13.9333V3.66667ZM2.93151 11.7333V13.9333C2.93151 14.5168 3.1633 15.0764 3.57588 15.489C3.98846 15.9015 4.54803 16.1333 5.13151 16.1333H10.2648V19.8C10.2648 19.9945 10.3421 20.181 10.4796 20.3185C10.6172 20.4561 10.8037 20.5333 10.9982 20.5333C11.1927 20.5333 11.3792 20.4561 11.5167 20.3185C11.6542 20.181 11.7315 19.9945 11.7315 19.8V16.1333H16.8648C17.4483 16.1333 18.0079 15.9015 18.4205 15.489C18.8331 15.0764 19.0648 14.5168 19.0648 13.9333V11.7333H2.93151Z" fill="#8C90A5"/>
</svg>
