<svg width="40" height="40" viewBox="0 0 40 40" fill="none" xmlns="http://www.w3.org/2000/svg">
<rect width="40" height="40" rx="4" fill="#F3F4F8"/>
<path fill-rule="evenodd" clip-rule="evenodd" d="M10.4648 12.6667C10.4648 11.6942 10.8512 10.7616 11.5388 10.0739C12.2264 9.38631 13.159 9 14.1315 9H16.3315V16.3333H17.7982V9H19.2648V13.4H20.7315V9H25.8648C26.8373 9 27.7699 9.38631 28.4576 10.0739C29.1452 10.7616 29.5315 11.6942 29.5315 12.6667V22.9333C29.5315 23.4148 29.4367 23.8916 29.2524 24.3365C29.0681 24.7814 28.798 25.1856 28.4576 25.5261C28.1171 25.8665 27.7129 26.1366 27.268 26.3209C26.8232 26.5052 26.3464 26.6 25.8648 26.6H22.1982V28.8C22.1982 29.3835 21.9664 29.9431 21.5538 30.3556C21.1412 30.7682 20.5817 31 19.9982 31C19.4147 31 18.8551 30.7682 18.4425 30.3556C18.03 29.9431 17.7982 29.3835 17.7982 28.8V26.6H14.1315C13.159 26.6 12.2264 26.2137 11.5388 25.5261C10.8512 24.8384 10.4648 23.9058 10.4648 22.9333V12.6667ZM11.9315 20.7333V22.9333C11.9315 23.5168 12.1633 24.0764 12.5759 24.489C12.9885 24.9015 13.548 25.1333 14.1315 25.1333H19.2648V28.8C19.2648 28.9945 19.3421 29.181 19.4796 29.3185C19.6172 29.4561 19.8037 29.5333 19.9982 29.5333C20.1927 29.5333 20.3792 29.4561 20.5167 29.3185C20.6542 29.181 20.7315 28.9945 20.7315 28.8V25.1333H25.8648C26.4483 25.1333 27.0079 24.9015 27.4205 24.489C27.8331 24.0764 28.0648 23.5168 28.0648 22.9333V20.7333H11.9315Z" fill="#8C90A5"/>
</svg>
