<svg width="12" height="13" viewBox="0 0 12 13" fill="none" xmlns="http://www.w3.org/2000/svg">
<path d="M6 3.24509V10.7451M3.875 4.74509H2.75M4.25 6.24509H2.75M11 8.87009V2.83509C11 2.23509 10.51 1.79009 9.915 1.84009H9.885C8.835 1.93009 7.24 2.46509 6.35 3.02509L6.265 3.08009C6.12 3.17009 5.88 3.17009 5.735 3.08009L5.61 3.00509C4.72 2.45009 3.13 1.92009 2.08 1.83509C1.485 1.78509 1 2.23509 1 2.83009V8.87009C1 9.35009 1.39 9.80009 1.87 9.86009L2.015 9.88009C3.1 10.0251 4.775 10.5751 5.735 11.1001L5.755 11.1101C5.89 11.1851 6.105 11.1851 6.235 11.1101C7.195 10.5801 8.875 10.0251 9.965 9.88009L10.13 9.86009C10.61 9.80009 11 9.35009 11 8.87009Z" stroke="#19224C" stroke-width="0.75" stroke-linecap="round" stroke-linejoin="round"/>
</svg>
