<svg width="16" height="16" viewBox="0 0 16 16" fill="none" xmlns="http://www.w3.org/2000/svg">
<g id="Iconsax/Bold/educare">
<path id="Vector" d="M5.28663 3.65411L7.37329 5.74077C7.71996 6.08744 8.28663 6.08744 8.63329 5.74077L10.72 3.65411C11.28 3.09411 10.8866 2.12744 10.0866 2.12744H5.91329C5.11996 2.12744 4.71996 3.09411 5.28663 3.65411ZM5.28663 12.3468L7.37329 10.2601C7.54069 10.0936 7.76719 10.0001 8.00329 10.0001C8.2394 10.0001 8.4659 10.0936 8.63329 10.2601L10.72 12.3468C11.28 12.9068 10.8866 13.8734 10.0866 13.8734H5.91329C5.11996 13.8734 4.71996 12.9068 5.28663 12.3468ZM1.43996 7.62011L2.96663 5.22011C3.20663 4.84011 3.73996 4.78011 4.05996 5.10011L6.45996 7.50011C6.73329 7.77344 6.73329 8.22011 6.45996 8.49344L4.05996 10.8934C3.73996 11.2134 3.21329 11.1534 2.96663 10.7734L1.43996 8.37344C1.29996 8.14677 1.29996 7.85344 1.43996 7.62011ZM14.56 7.62011L13.0333 5.22011C12.7933 4.84011 12.26 4.78011 11.94 5.10011L9.53996 7.50011C9.26663 7.77344 9.26663 8.22011 9.53996 8.49344L11.94 10.8934C12.26 11.2134 12.7866 11.1534 13.0333 10.7734L14.56 8.37344C14.7 8.14677 14.7 7.85344 14.56 7.62011Z" fill="#19224C"/>
</g>
</svg>
