<svg width="16" height="16" viewBox="0 0 16 16" fill="none" xmlns="http://www.w3.org/2000/svg">
<g id="material-symbols:refresh">
<path id="Vector" d="M8.00008 13.3337C6.51119 13.3337 5.25008 12.817 4.21675 11.7837C3.18341 10.7503 2.66675 9.48921 2.66675 8.00033C2.66675 6.51144 3.18341 5.25033 4.21675 4.21699C5.25008 3.18366 6.51119 2.66699 8.00008 2.66699C8.76675 2.66699 9.50008 2.82521 10.2001 3.14166C10.9001 3.4581 11.5001 3.91099 12.0001 4.50033V2.66699H13.3334V7.33366H8.66675V6.00033H11.4667C11.1112 5.3781 10.625 4.88921 10.0081 4.53366C9.39119 4.1781 8.72186 4.00033 8.00008 4.00033C6.88897 4.00033 5.94453 4.38921 5.16675 5.16699C4.38897 5.94477 4.00008 6.88921 4.00008 8.00033C4.00008 9.11144 4.38897 10.0559 5.16675 10.8337C5.94453 11.6114 6.88897 12.0003 8.00008 12.0003C8.85564 12.0003 9.62786 11.7559 10.3167 11.267C11.0056 10.7781 11.489 10.1337 11.7667 9.33366H13.1667C12.8556 10.5114 12.2223 11.4725 11.2667 12.217C10.3112 12.9614 9.2223 13.3337 8.00008 13.3337Z" fill="#19224C"/>
</g>
</svg>
