<svg width="18" height="18" viewBox="0 0 18 18" fill="none" xmlns="http://www.w3.org/2000/svg">
<g id="Iconsax/Linear/message" clip-path="url(#clip0_557_93439)">
<path id="Vector" d="M6.375 14.25H6C3 14.25 1.5 13.5 1.5 9.75V6C1.5 3 3 1.5 6 1.5H12C15 1.5 16.5 3 16.5 6V9.75C16.5 12.75 15 14.25 12 14.25H11.625C11.3925 14.25 11.1675 14.3625 11.025 14.55L9.9 16.05C9.405 16.71 8.595 16.71 8.1 16.05L6.975 14.55C6.855 14.385 6.5775 14.25 6.375 14.25Z" stroke="#1678F2" stroke-width="1.125" stroke-miterlimit="10" stroke-linecap="round" stroke-linejoin="round"/>
<path id="Vector_2" d="M11.9971 8.25H12.0046M8.99634 8.25H9.00384M5.99634 8.25H6.00234" stroke="#1678F2" stroke-width="1.5" stroke-linecap="round" stroke-linejoin="round"/>
</g>
<defs>
<clipPath id="clip0_557_93439">
<rect width="18" height="18" fill="white"/>
</clipPath>
</defs>
</svg>
