<svg width="16" height="16" viewBox="0 0 16 16" fill="none" xmlns="http://www.w3.org/2000/svg">
<g id="Iconsax/Linear/volumehigh">
<path id="Vector" d="M1.33325 6.66685V9.33352C1.33325 10.6669 1.99992 11.3335 3.33325 11.3335H4.28658C4.53325 11.3335 4.77992 11.4069 4.99325 11.5335L6.93992 12.7535C8.61992 13.8069 9.99992 13.0402 9.99992 11.0602V4.94018C9.99992 2.95352 8.61992 2.19352 6.93992 3.24685L4.99325 4.46685C4.77992 4.59352 4.53325 4.66685 4.28658 4.66685H3.33325C1.99992 4.66685 1.33325 5.33352 1.33325 6.66685Z" stroke="#19224C" stroke-width="1.2"/>
<path id="Vector_2" d="M12 5.33366C12.5777 6.10268 12.89 7.0385 12.89 8.00033C12.89 8.96215 12.5777 9.89797 12 10.667M13.22 3.66699C14.1579 4.91699 14.665 6.43756 14.665 8.00033C14.665 9.56309 14.1579 11.0837 13.22 12.3337" stroke="#19224C" stroke-width="1.2" stroke-linecap="round" stroke-linejoin="round"/>
</g>
</svg>
