<svg width="24" height="24" viewBox="0 0 24 24" fill="none" xmlns="http://www.w3.org/2000/svg">
<path d="M16.0476 3.50877C16.4634 3.02951 16.7804 2.47282 16.9805 1.87069C17.1806 1.26855 17.2598 0.632818 17.2135 0C15.9369 0.103049 14.7519 0.703465 13.9137 1.67189C13.5123 2.13603 13.2082 2.67599 13.0193 3.25979C12.8303 3.84359 12.7605 4.45937 12.8138 5.07066C13.4365 5.07585 14.0521 4.93768 14.6128 4.66683C15.1736 4.39599 15.6645 3.99975 16.0476 3.50877ZM18.8194 11.6922C18.8268 10.8494 19.0488 10.0223 19.4645 9.28911C19.8801 8.55588 20.4758 7.94066 21.1952 7.5015C20.7412 6.84731 20.141 6.3079 19.4422 5.92605C18.7434 5.5442 17.9653 5.33041 17.1695 5.30165C15.4536 5.12566 13.8697 6.30258 12.9568 6.30258C12.0438 6.30258 10.7569 5.32365 9.32701 5.34564C8.39221 5.37644 7.48136 5.64898 6.68328 6.1367C5.8852 6.62441 5.22715 7.31064 4.77331 8.12846C2.83744 11.4942 4.27835 16.4989 6.21422 19.2157C7.09416 20.5466 8.19409 22.0535 9.64599 21.9985C11.0979 21.9435 11.5709 21.0966 13.2537 21.0966C14.9366 21.0966 15.4536 21.9985 16.8835 21.9655C18.3134 21.9325 19.3253 20.6016 20.2493 19.2707C20.9038 18.3045 21.4151 17.2486 21.7672 16.1359C20.8955 15.7642 20.1517 15.1452 19.6279 14.3555C19.104 13.5658 18.8229 12.6399 18.8194 11.6922Z" fill="black"/>
</svg>
