<svg width="20" height="20" viewBox="0 0 20 20" fill="none" xmlns="http://www.w3.org/2000/svg">
<path d="M10.0003 13.4995C9.54495 13.4995 9.09018 13.324 8.74548 12.9793L3.31215 7.54599C3.29062 7.52446 3.27734 7.49373 3.27734 7.45788C3.27734 7.42203 3.29062 7.39129 3.31215 7.36976C3.33367 7.34824 3.36441 7.33496 3.40026 7.33496C3.43611 7.33496 3.46685 7.34824 3.48837 7.36976L8.92171 12.8031C9.51697 13.3984 10.4836 13.3984 11.0788 12.8031L16.5121 7.36976C16.5337 7.34824 16.5644 7.33496 16.6003 7.33496C16.6361 7.33496 16.6668 7.34824 16.6884 7.36976C16.7099 7.39129 16.7232 7.42203 16.7232 7.45788C16.7232 7.49373 16.7099 7.52446 16.6884 7.54599L11.255 12.9793C10.9103 13.324 10.4556 13.4995 10.0003 13.4995Z" fill="#19224C" stroke="#19224C"/>
</svg>
