<svg width="24" height="24" viewBox="0 0 24 24" fill="none" xmlns="http://www.w3.org/2000/svg">
<path d="M14.5301 9.46984L9.47008 14.5298C8.79908 13.8588 8.42212 12.9488 8.42212 11.9998C8.42212 11.53 8.51467 11.0647 8.69448 10.6306C8.87428 10.1965 9.13784 9.80208 9.47008 9.46984C9.80232 9.13759 10.1968 8.87404 10.6309 8.69423C11.065 8.51442 11.5302 8.42188 12.0001 8.42188C12.949 8.42188 13.8591 8.79884 14.5301 9.46984Z" stroke="#6D77A0" stroke-width="1.5" stroke-linecap="round" stroke-linejoin="round"/>
<path d="M17.8201 5.77047C16.0701 4.45047 14.0701 3.73047 12.0001 3.73047C8.47009 3.73047 5.18009 5.81047 2.89009 9.41047C1.99009 10.8205 1.99009 13.1905 2.89009 14.6005C3.68009 15.8405 4.60009 16.9105 5.60009 17.7705M8.42009 19.5305C9.56009 20.0105 10.7701 20.2705 12.0001 20.2705C15.5301 20.2705 18.8201 18.1905 21.1101 14.5905C22.0101 13.1805 22.0101 10.8105 21.1101 9.40047C20.7801 8.88047 20.4201 8.39047 20.0501 7.93047" stroke="#6D77A0" stroke-width="1.5" stroke-linecap="round" stroke-linejoin="round"/>
<path d="M15.51 12.7C15.3745 13.3976 15.0337 14.0387 14.5312 14.5412C14.0287 15.0437 13.3876 15.3845 12.69 15.52M9.47 14.53L2 22M22 2L14.53 9.47" stroke="#6D77A0" stroke-width="1.5" stroke-linecap="round" stroke-linejoin="round"/>
</svg>
