<svg width="18" height="18" viewBox="0 0 18 18" fill="none" xmlns="http://www.w3.org/2000/svg">
<path d="M9.00759 17.0547C8.53509 17.0547 8.07009 16.8972 7.70259 16.5822L6.51759 15.5697C6.39759 15.4647 6.09759 15.3597 5.94009 15.3597H4.62759C3.51759 15.3597 2.61759 14.4597 2.61759 13.3497V12.0672C2.61759 11.9097 2.51259 11.6097 2.41509 11.4972L1.39509 10.2972C0.780088 9.56975 0.780088 8.42975 1.39509 7.69475L2.41509 6.49475C2.51259 6.38225 2.61759 6.08225 2.61759 5.92475V4.64975C2.61759 3.53975 3.51759 2.63975 4.62759 2.63975H5.92509C6.08259 2.63975 6.37509 2.52725 6.50259 2.42225L7.68759 1.40975C8.42259 0.787246 9.57009 0.787246 10.3051 1.40975L11.4901 2.42225C11.6101 2.52725 11.9176 2.63225 12.0751 2.63225H13.3501C14.4601 2.63225 15.3601 3.53225 15.3601 4.64225V5.91725C15.3601 6.07475 15.4726 6.36725 15.5776 6.49475L16.5901 7.67975C17.2201 8.42225 17.2126 9.56975 16.5901 10.2972L15.5776 11.4822C15.4726 11.6097 15.3676 11.9022 15.3676 12.0597V13.3347C15.3676 14.4447 14.4676 15.3447 13.3576 15.3447H12.0826C11.9251 15.3447 11.6326 15.4572 11.4976 15.5622L10.3126 16.5747C9.94509 16.8972 9.47259 17.0547 9.00759 17.0547ZM4.62759 3.76475C4.14009 3.76475 3.74259 4.16225 3.74259 4.64975V5.92475C3.74259 6.35225 3.54759 6.89225 3.27009 7.22225L2.25009 8.42225C1.99509 8.72975 1.99509 9.26975 2.25009 9.56975L3.26259 10.7622C3.53259 11.0697 3.73509 11.6322 3.73509 12.0597V13.3422C3.73509 13.8297 4.13259 14.2272 4.62009 14.2272H5.92509C6.34509 14.2272 6.90009 14.4297 7.23009 14.7072L8.42259 15.7272C8.73009 15.9897 9.27009 15.9897 9.57759 15.7272L10.7626 14.7147C11.1001 14.4297 11.6476 14.2347 12.0676 14.2347H13.3426C13.8301 14.2347 14.2276 13.8372 14.2276 13.3497V12.0747C14.2276 11.6547 14.4301 11.1072 14.7076 10.7697L15.7276 9.57725C15.9901 9.26975 15.9901 8.72975 15.7276 8.42225L14.7151 7.23725C14.4301 6.89975 14.2351 6.35225 14.2351 5.93225V4.64975C14.2351 4.16225 13.8376 3.76475 13.3501 3.76475H12.0751C11.6476 3.76475 11.0926 3.56225 10.7626 3.28475L9.57009 2.26475C9.26259 2.00225 8.73009 2.00225 8.41509 2.26475L7.23759 3.28475C6.90009 3.56225 6.35259 3.76475 5.92509 3.76475H4.62759Z" fill="#1678F2"/>
<path d="M9 12.6523C8.5875 12.6523 8.25 12.3148 8.25 11.9023C8.25 11.4898 8.58 11.1523 9 11.1523C9.4125 11.1523 9.75 11.4898 9.75 11.9023C9.75 12.3148 9.42 12.6523 9 12.6523Z" fill="#1678F2"/>
<path d="M9 10.2902C8.6925 10.2902 8.4375 10.0352 8.4375 9.72766V6.09766C8.4375 5.79016 8.6925 5.53516 9 5.53516C9.3075 5.53516 9.5625 5.79016 9.5625 6.09766V9.72016C9.5625 10.0352 9.315 10.2902 9 10.2902Z" fill="#1678F2"/>
</svg>
