<svg width="20" height="20" viewBox="0 0 20 20" fill="none" xmlns="http://www.w3.org/2000/svg">
<path d="M9.99984 18.4582C5.33431 18.4582 1.5415 14.6654 1.5415 9.99984C1.5415 5.33431 5.33431 1.5415 9.99984 1.5415C14.6654 1.5415 18.4582 5.33431 18.4582 9.99984C18.4582 14.6654 14.6654 18.4582 9.99984 18.4582ZM9.99984 1.7915C5.47369 1.7915 1.7915 5.47369 1.7915 9.99984C1.7915 14.526 5.47369 18.2082 9.99984 18.2082C14.526 18.2082 18.2082 14.526 18.2082 9.99984C18.2082 5.47369 14.526 1.7915 9.99984 1.7915Z" fill="#292D32" stroke="#FF0000"/>
<path d="M10 10.9582C9.96985 10.9582 9.93857 10.9459 9.91293 10.9202C9.88728 10.8946 9.875 10.8633 9.875 10.8332V6.6665C9.875 6.63636 9.88728 6.60508 9.91293 6.57943C9.93857 6.55379 9.96985 6.5415 10 6.5415C10.0301 6.5415 10.0614 6.55379 10.0871 6.57943C10.1127 6.60508 10.125 6.63636 10.125 6.6665V10.8332C10.125 10.8633 10.1127 10.8946 10.0871 10.9202C10.0614 10.9459 10.0301 10.9582 10 10.9582Z" fill="#292D32" stroke="#FF0000"/>
<path d="M9.69984 13.4707L9.70002 13.4707L9.69471 13.4579C9.67435 13.4091 9.6665 13.366 9.6665 13.3336C9.6665 13.3011 9.67435 13.2581 9.69471 13.2092C9.71092 13.1703 9.73297 13.1329 9.76267 13.0964C9.79917 13.0667 9.83656 13.0446 9.87548 13.0284C9.9524 12.9964 10.0473 12.9964 10.1242 13.0284C10.1631 13.0446 10.2005 13.0667 10.237 13.0964C10.2667 13.1329 10.2887 13.1703 10.305 13.2092C10.3253 13.2581 10.3332 13.3011 10.3332 13.3336C10.3332 13.366 10.3253 13.4091 10.305 13.4579L10.3048 13.4578L10.2998 13.4707C10.2881 13.5011 10.2724 13.5291 10.2381 13.5698C10.2013 13.6 10.1635 13.6223 10.1242 13.6387L10.3165 14.1002L10.1242 13.6387C10.0753 13.659 10.0323 13.6669 9.99984 13.6669C9.96735 13.6669 9.92433 13.659 9.87548 13.6387C9.83616 13.6223 9.79841 13.6 9.76155 13.5698C9.72724 13.5291 9.71154 13.5011 9.69984 13.4707Z" fill="#292D32" stroke="#FF0000"/>
</svg>
