<svg width="14" height="14" viewBox="0 0 14 14" fill="none" xmlns="http://www.w3.org/2000/svg">
<path d="M6.99992 0.333008C3.32659 0.333008 0.333252 3.32634 0.333252 6.99967C0.333252 10.673 3.32659 13.6663 6.99992 13.6663C10.6733 13.6663 13.6666 10.673 13.6666 6.99967C13.6666 3.32634 10.6733 0.333008 6.99992 0.333008ZM10.1866 5.46634L6.40659 9.24634C6.31325 9.33967 6.18659 9.39301 6.05325 9.39301C5.91992 9.39301 5.79325 9.33967 5.69992 9.24634L3.81325 7.35967C3.61992 7.16634 3.61992 6.84634 3.81325 6.65301C4.00659 6.45967 4.32659 6.45967 4.51992 6.65301L6.05325 8.18634L9.47992 4.75968C9.67325 4.56634 9.99325 4.56634 10.1866 4.75968C10.3799 4.95301 10.3799 5.26634 10.1866 5.46634Z" fill="#23B339"/>
</svg>
