<svg width="18" height="18" viewBox="0 0 18 18" fill="none" xmlns="http://www.w3.org/2000/svg">
<path d="M8.99905 15.75C10.4967 15.7498 11.9518 15.2515 13.1352 14.3335C14.3186 13.4156 15.1631 12.1301 15.5358 10.6795C15.9084 9.22896 15.7881 7.69563 15.1936 6.32096C14.5992 4.94629 13.5645 3.80835 12.2524 3.08629C10.9402 2.36423 9.42521 2.09906 7.94583 2.33253C6.46646 2.56599 5.10674 3.28484 4.08074 4.37589C3.05474 5.46694 2.42074 6.86823 2.27855 8.35915C2.13635 9.85007 2.49404 11.3459 3.2953 12.6113L2.24905 15.75L5.3878 14.7038C6.46745 15.3891 7.72026 15.752 8.99905 15.75Z" stroke="#19224C" stroke-width="1.5" stroke-linecap="round" stroke-linejoin="round"/>
</svg>
