<svg width="18" height="18" viewBox="0 0 18 18" fill="none" xmlns="http://www.w3.org/2000/svg">
<path d="M9 4.11764V15.3676M5.8125 6.36764H4.125M6.375 8.61764H4.125M16.5 12.5551V3.50264C16.5 2.60264 15.765 1.93514 14.8725 2.01014H14.8275C13.2525 2.14514 10.86 2.94764 9.525 3.78764L9.3975 3.87014C9.18 4.00514 8.82 4.00514 8.6025 3.87014L8.415 3.75764C7.08 2.92514 4.695 2.13014 3.12 2.00264C2.2275 1.92764 1.5 2.60264 1.5 3.49514V12.5551C1.5 13.2751 2.085 13.9501 2.805 14.0401L3.0225 14.0701C4.65 14.2876 7.1625 15.1126 8.6025 15.9001L8.6325 15.9151C8.835 16.0276 9.1575 16.0276 9.3525 15.9151C10.7925 15.1201 13.3125 14.2876 14.9475 14.0701L15.195 14.0401C15.915 13.9501 16.5 13.2751 16.5 12.5551Z" stroke="#19224C" stroke-width="1.125" stroke-linecap="round" stroke-linejoin="round"/>
</svg>
