<svg width="14" height="14" viewBox="0 0 14 14" fill="none" xmlns="http://www.w3.org/2000/svg">
<path d="M8.74984 13.2708H5.24984C2.08234 13.2708 0.729004 11.9175 0.729004 8.74996V5.24996C0.729004 2.08246 2.08234 0.729126 5.24984 0.729126H6.4165C6.65567 0.729126 6.854 0.927459 6.854 1.16663C6.854 1.40579 6.65567 1.60413 6.4165 1.60413H5.24984C2.56067 1.60413 1.604 2.56079 1.604 5.24996V8.74996C1.604 11.4391 2.56067 12.3958 5.24984 12.3958H8.74984C11.439 12.3958 12.3957 11.4391 12.3957 8.74996V7.58329C12.3957 7.34413 12.594 7.14579 12.8332 7.14579C13.0723 7.14579 13.2707 7.34413 13.2707 7.58329V8.74996C13.2707 11.9175 11.9173 13.2708 8.74984 13.2708Z" fill="#19224C"/>
<path d="M4.95828 10.3192C4.60244 10.3192 4.27578 10.1909 4.03661 9.95753C3.75078 9.6717 3.62828 9.25753 3.69244 8.82003L3.94328 7.0642C3.98994 6.72587 4.21161 6.28837 4.45078 6.0492L9.04744 1.45253C10.2083 0.291701 11.3866 0.291701 12.5474 1.45253C13.1833 2.08837 13.4691 2.73587 13.4108 3.38337C13.3583 3.90837 13.0783 4.4217 12.5474 4.9467L7.95078 9.54337C7.71161 9.78253 7.27411 10.0042 6.93578 10.0509L5.17994 10.3017C5.10411 10.3192 5.02828 10.3192 4.95828 10.3192ZM9.66578 2.07087L5.06911 6.66753C4.95828 6.77837 4.82994 7.03503 4.80661 7.1867L4.55578 8.94253C4.53244 9.1117 4.56744 9.2517 4.65494 9.3392C4.74244 9.4267 4.88244 9.4617 5.05161 9.43837L6.80745 9.18753C6.95911 9.1642 7.22161 9.03587 7.32661 8.92503L11.9233 4.32837C12.3024 3.9492 12.5008 3.61087 12.5299 3.29587C12.5649 2.9167 12.3666 2.5142 11.9233 2.06503C10.9899 1.1317 10.3483 1.3942 9.66578 2.07087Z" fill="#19224C"/>
<path d="M11.5794 5.73416C11.5386 5.73416 11.4977 5.72833 11.4627 5.71666C9.92857 5.285 8.7094 4.06583 8.27774 2.53166C8.21357 2.29833 8.34774 2.05916 8.58107 1.98916C8.8144 1.925 9.05357 2.05916 9.11774 2.2925C9.46774 3.535 10.4536 4.52083 11.6961 4.87083C11.9294 4.935 12.0636 5.18 11.9994 5.41333C11.9469 5.61166 11.7719 5.73416 11.5794 5.73416Z" fill="#19224C"/>
</svg>
