<svg width="14" height="14" viewBox="0 0 14 14" fill="none" xmlns="http://www.w3.org/2000/svg">
<path d="M6.99984 13.3058C6.59734 13.3058 6.21817 13.1016 5.94984 12.7458L5.07484 11.5791C5.05734 11.5558 4.98734 11.5266 4.95817 11.5208H4.6665C2.234 11.5208 0.729004 10.8616 0.729004 7.58329V4.66663C0.729004 2.08829 2.08817 0.729126 4.6665 0.729126H9.33317C11.9115 0.729126 13.2707 2.08829 13.2707 4.66663V7.58329C13.2707 10.1616 11.9115 11.5208 9.33317 11.5208H9.0415C8.99484 11.5208 8.954 11.5441 8.92484 11.5791L8.04984 12.7458C7.7815 13.1016 7.40234 13.3058 6.99984 13.3058ZM4.6665 1.60413C2.57817 1.60413 1.604 2.57829 1.604 4.66663V7.58329C1.604 10.22 2.50817 10.6458 4.6665 10.6458H4.95817C5.25567 10.6458 5.594 10.815 5.77484 11.0541L6.64984 12.2208C6.854 12.4891 7.14567 12.4891 7.34984 12.2208L8.22484 11.0541C8.41734 10.7975 8.72067 10.6458 9.0415 10.6458H9.33317C11.4215 10.6458 12.3957 9.67163 12.3957 7.58329V4.66663C12.3957 2.57829 11.4215 1.60413 9.33317 1.60413H4.6665Z" fill="#5F6583"/>
<path d="M6.99984 7.00004C6.67317 7.00004 6.4165 6.73754 6.4165 6.41671C6.4165 6.09587 6.679 5.83337 6.99984 5.83337C7.32067 5.83337 7.58317 6.09587 7.58317 6.41671C7.58317 6.73754 7.3265 7.00004 6.99984 7.00004Z" fill="#5F6583"/>
<path d="M9.33333 7.00004C9.00667 7.00004 8.75 6.73754 8.75 6.41671C8.75 6.09587 9.0125 5.83337 9.33333 5.83337C9.65417 5.83337 9.91667 6.09587 9.91667 6.41671C9.91667 6.73754 9.66 7.00004 9.33333 7.00004Z" fill="#5F6583"/>
<path d="M4.66683 7.00004C4.34016 7.00004 4.0835 6.73754 4.0835 6.41671C4.0835 6.09587 4.346 5.83337 4.66683 5.83337C4.98766 5.83337 5.25016 6.09587 5.25016 6.41671C5.25016 6.73754 4.9935 7.00004 4.66683 7.00004Z" fill="#5F6583"/>
</svg>
