<svg width="24" height="25" viewBox="0 0 24 25" fill="none" xmlns="http://www.w3.org/2000/svg">
<path d="M12 22.75C6.34614 22.75 1.75 18.1539 1.75 12.5C1.75 6.84614 6.34614 2.25 12 2.25C17.6539 2.25 22.25 6.84614 22.25 12.5C22.25 18.1539 17.6539 22.75 12 22.75ZM12 2.75C6.62386 2.75 2.25 7.12386 2.25 12.5C2.25 17.8761 6.62386 22.25 12 22.25C17.3761 22.25 21.75 17.8761 21.75 12.5C21.75 7.12386 17.3761 2.75 12 2.75Z" fill="#FF0000" stroke="#FF0000"/>
<path d="M9.34582 15.5066L9.33973 15.5126L9.33385 15.5189C9.3036 15.5514 9.24473 15.5801 9.16937 15.5801C9.10483 15.5801 9.04422 15.5578 8.99293 15.5066C8.89819 15.4118 8.89819 15.2484 8.99293 15.1537L14.6529 9.49366C14.7477 9.39892 14.9111 9.39892 15.0058 9.49366C15.1006 9.5884 15.1006 9.75182 15.0058 9.84655L9.34582 15.5066Z" fill="#FF0000" stroke="#FF0000"/>
<path d="M14.8294 15.5801C14.7648 15.5801 14.7042 15.5578 14.6529 15.5066L8.99293 9.84655C8.89819 9.75182 8.89819 9.5884 8.99293 9.49366C9.08767 9.39892 9.25108 9.39892 9.34582 9.49366L15.0058 15.1537C15.1006 15.2484 15.1006 15.4118 15.0058 15.5066C14.9545 15.5578 14.8939 15.5801 14.8294 15.5801Z" fill="#FF0000" stroke="#FF0000"/>
</svg>
