<svg width="20" height="20" viewBox="0 0 20 20" fill="none" xmlns="http://www.w3.org/2000/svg">
<path d="M10.0629 6.34473V10.0627L12.3867 12.3865" stroke="#19224C" stroke-width="1.39425" stroke-linecap="round" stroke-linejoin="round"/>
<path d="M2.94111 5.29533L2.24399 5.29812C2.24472 5.48189 2.31798 5.65793 2.44783 5.78796C2.57769 5.91798 2.75363 5.99148 2.93739 5.99246L2.94111 5.29533ZM5.3039 6.00361C5.39544 6.00404 5.48618 5.98643 5.57092 5.95179C5.65566 5.91715 5.73275 5.86616 5.79779 5.80173C5.86282 5.7373 5.91453 5.66069 5.94996 5.57627C5.98539 5.49186 6.00384 5.40129 6.00427 5.30974C6.0047 5.21819 5.98709 5.12746 5.95245 5.04272C5.91781 4.95797 5.86682 4.88088 5.80239 4.81585C5.73796 4.75081 5.66135 4.6991 5.57693 4.66368C5.49252 4.62825 5.40195 4.60979 5.3104 4.60937L5.3039 6.00361ZM3.62615 2.92511C3.62566 2.83357 3.60715 2.74301 3.57166 2.65862C3.53618 2.57423 3.48442 2.49765 3.41934 2.43326C3.35426 2.36887 3.27714 2.31793 3.19237 2.28335C3.1076 2.24877 3.01686 2.23122 2.92531 2.23171C2.83376 2.2322 2.74321 2.25071 2.65882 2.2862C2.57442 2.32168 2.49785 2.37344 2.43346 2.43852C2.36907 2.5036 2.31813 2.58072 2.28355 2.66549C2.24896 2.75026 2.23142 2.841 2.2319 2.93255L3.62615 2.92511ZM2.46614 8.93339C2.4795 8.84228 2.47467 8.74943 2.45194 8.66019C2.42921 8.57096 2.38903 8.48711 2.33371 8.41349C2.27839 8.33988 2.20904 8.27795 2.12966 8.23128C2.05027 8.18462 1.96243 8.15415 1.8712 8.14162C1.77997 8.1291 1.68717 8.13477 1.59814 8.15832C1.50912 8.18186 1.42564 8.22281 1.35254 8.2788C1.27943 8.33478 1.21813 8.4047 1.1722 8.48451C1.12626 8.56432 1.09659 8.65243 1.0849 8.74377L2.46614 8.93339ZM16.4411 3.68451C12.8905 0.133832 7.15267 0.0966515 3.62522 3.62503L4.61049 4.61029C7.58488 1.63683 12.4397 1.65449 15.4559 4.66978L16.4411 3.68451ZM3.68471 16.4409C7.23539 19.9916 12.9732 20.0288 16.5006 16.5004L15.5154 15.5152C12.541 18.4886 7.6862 18.471 4.66998 15.4557L3.68471 16.4409ZM16.5006 16.5004C20.0281 12.973 19.9918 7.2352 16.4411 3.68451L15.4559 4.66978C18.4712 7.686 18.4888 12.5408 15.5154 15.5152L16.5006 16.5004ZM3.62522 3.62503L2.44755 4.80177L3.43375 5.78704L4.61049 4.61029L3.62522 3.62503ZM2.93739 5.99246L5.3039 6.00361L5.3104 4.60937L2.94483 4.59821L2.93739 5.99246ZM3.63823 5.29162L3.62615 2.92511L2.2319 2.93255L2.24399 5.29812L3.63823 5.29162ZM1.08397 8.74284C0.893118 10.1396 1.02864 11.5615 1.47988 12.897C1.93113 14.2326 2.68583 15.4462 3.68471 16.4409L4.66998 15.4557C3.82341 14.6129 3.18381 13.5843 2.80141 12.4527C2.41902 11.321 2.30426 10.1169 2.46614 8.93339L1.08397 8.74284Z" fill="#19224C"/>
</svg>
