<svg width="20" height="20" viewBox="0 0 20 20" fill="none" xmlns="http://www.w3.org/2000/svg">
<path d="M10.0108 1.875C10.6225 1.88167 11.2316 1.9525 11.8291 2.08583C11.9563 2.11421 12.0713 2.18159 12.1583 2.27855C12.2452 2.37552 12.2997 2.49722 12.3141 2.62667L12.4558 3.89917C12.4758 4.07857 12.5376 4.25077 12.6363 4.40192C12.735 4.55307 12.8678 4.67894 13.024 4.76941C13.1802 4.85987 13.3555 4.91241 13.5357 4.92279C13.7159 4.93317 13.8961 4.9011 14.0616 4.82917L15.2283 4.31667C15.3468 4.26446 15.4787 4.25037 15.6056 4.27634C15.7325 4.30232 15.8482 4.36708 15.9366 4.46167C16.7802 5.36251 17.4085 6.44294 17.7741 7.62167C17.8124 7.74561 17.8111 7.87839 17.7705 8.00157C17.7299 8.12476 17.6519 8.23226 17.5475 8.30917L16.5133 9.0725C16.3887 9.16422 16.2838 9.28015 16.205 9.41333C15.7936 9.28474 15.3684 9.20585 14.9383 9.17833C15.1 8.73306 15.39 8.34566 15.7716 8.065L16.4366 7.57583C16.1694 6.87556 15.79 6.22343 15.3133 5.645L14.5658 5.9725C14.2206 6.12362 13.8447 6.19145 13.4684 6.17051C13.0922 6.14957 12.7261 6.04044 12.3998 5.85194C12.0735 5.66345 11.7961 5.40086 11.59 5.08538C11.3839 4.7699 11.2549 4.41037 11.2133 4.03583L11.1225 3.2225C10.7549 3.16241 10.3833 3.12982 10.0108 3.125C9.6328 3.12944 9.25565 3.16203 8.88248 3.2225L8.79081 4.03667C8.74912 4.41109 8.62006 4.77048 8.41401 5.08587C8.20797 5.40127 7.93072 5.66385 7.60459 5.85245C7.27847 6.04106 6.9126 6.15041 6.53647 6.17169C6.16034 6.19298 5.78446 6.12561 5.43914 5.975L4.68998 5.64667C4.21338 6.22485 3.83399 6.87669 3.56664 7.57667L4.23164 8.06583C4.53521 8.28882 4.78204 8.58011 4.9522 8.91615C5.12235 9.25219 5.21106 9.62354 5.21114 10.0002C5.21122 10.3769 5.12268 10.7483 4.95266 11.0844C4.78265 11.4205 4.53594 11.7119 4.23248 11.935L3.56664 12.425C3.83331 13.1267 4.21331 13.78 4.68998 14.36L5.44414 14.0292C5.78872 13.8787 6.16381 13.8113 6.53921 13.8323C6.91461 13.8533 7.27983 13.9621 7.60549 14.15C7.93115 14.3379 8.20814 14.5997 8.41416 14.9142C8.62018 15.2287 8.74948 15.5872 8.79164 15.9608L8.88248 16.7808C9.14414 16.825 9.40748 16.8533 9.67081 16.8667L9.67998 16.8867L9.31248 18.095C8.92651 18.0611 8.54354 17.999 8.16664 17.9092C8.04131 17.8794 7.92825 17.8116 7.84292 17.7151C7.7576 17.6186 7.70418 17.498 7.68998 17.37L7.54914 16.1C7.52869 15.9211 7.46656 15.7495 7.36776 15.5989C7.26895 15.4484 7.13622 15.3231 6.98022 15.2331C6.82422 15.1432 6.64931 15.0911 6.46951 15.081C6.28972 15.0709 6.11007 15.1031 5.94498 15.175L4.77331 15.6883C4.65469 15.7404 4.52281 15.7544 4.39591 15.7283C4.26901 15.7021 4.15337 15.6372 4.06498 15.5425C3.2217 14.6404 2.59401 13.5589 2.22914 12.3792C2.19072 12.2551 2.19191 12.1222 2.23253 11.9988C2.27315 11.8754 2.35119 11.7678 2.45581 11.6908L3.49164 10.9275C3.63735 10.8207 3.75584 10.6811 3.83752 10.5199C3.9192 10.3588 3.96176 10.1807 3.96176 10C3.96176 9.81934 3.9192 9.64122 3.83752 9.48008C3.75584 9.31894 3.63735 9.17931 3.49164 9.0725L2.45581 8.31083C2.35119 8.23387 2.27315 8.12623 2.23253 8.00287C2.19191 7.87951 2.19072 7.74656 2.22914 7.6225C2.59483 6.44378 3.22308 5.36334 4.06664 4.4625C4.15513 4.36791 4.27082 4.30315 4.39772 4.27718C4.52461 4.2512 4.65644 4.26529 4.77498 4.3175L5.94164 4.83C6.10749 4.90189 6.28789 4.93388 6.46835 4.92341C6.64881 4.91293 6.82429 4.86027 6.9807 4.76966C7.13712 4.67906 7.2701 4.55303 7.36897 4.4017C7.46783 4.25037 7.52983 4.07797 7.54998 3.89833L7.69164 2.62667C7.70594 2.49696 7.76048 2.37499 7.84761 2.27785C7.93474 2.1807 8.05009 2.11327 8.17748 2.085C8.77997 1.95184 9.39464 1.88147 10.0116 1.875H10.0108ZM14.7941 10.005C15.9724 10.0594 17.0844 10.5657 17.8991 11.4186C18.7138 12.2715 19.1687 13.4055 19.1691 14.585C19.1693 15.383 18.9611 16.1671 18.5652 16.86C18.1693 17.5528 17.5994 18.1303 16.9119 18.5353C16.2243 18.9404 15.443 19.1589 14.6451 19.1694C13.8472 19.1799 13.0604 18.9819 12.3625 18.595L10.54 19.15C10.4676 19.1721 10.3906 19.1741 10.3173 19.1557C10.2439 19.1374 10.1769 19.0994 10.1234 19.0459C10.07 18.9924 10.0321 18.9253 10.0139 18.8519C9.99566 18.7785 9.99777 18.7015 10.02 18.6292L10.5741 16.8075C10.1785 16.0941 9.98043 15.288 10.0004 14.4724C10.0203 13.6568 10.2575 12.8614 10.6875 12.1681C11.1175 11.4748 11.7247 10.9089 12.4464 10.5286C13.1682 10.1484 13.9792 9.9676 14.7941 10.005ZM14.585 15H12.9183C12.8402 14.9998 12.7636 15.0215 12.6973 15.0627C12.631 15.104 12.5775 15.163 12.5431 15.2331C12.5087 15.3032 12.4947 15.3816 12.5027 15.4593C12.5107 15.537 12.5404 15.6109 12.5883 15.6725C12.6272 15.7228 12.6771 15.7635 12.7342 15.7915C12.7912 15.8195 12.8539 15.8341 12.9175 15.8342H14.5841C14.6947 15.8342 14.8006 15.7903 14.8788 15.7121C14.9569 15.634 15.0008 15.528 15.0008 15.4175C15.0008 15.307 14.9569 15.201 14.8788 15.1229C14.8006 15.0447 14.6947 15.0008 14.5841 15.0008L14.585 15ZM12.9183 14.1667H16.2516C16.3622 14.1667 16.4681 14.1228 16.5463 14.0446C16.6244 13.9665 16.6683 13.8605 16.6683 13.75C16.6683 13.6395 16.6244 13.5335 16.5463 13.4554C16.4681 13.3772 16.3622 13.3333 16.2516 13.3333H12.9183C12.8371 13.3333 12.7577 13.357 12.6898 13.4014C12.6218 13.4459 12.5684 13.5093 12.536 13.5837C12.5036 13.6582 12.4936 13.7405 12.5074 13.8205C12.5211 13.9005 12.5579 13.9748 12.6133 14.0342C12.6522 14.0761 12.6992 14.1095 12.7515 14.1324C12.8039 14.1554 12.8603 14.1673 12.9175 14.1675L12.9183 14.1667ZM9.99998 6.875C10.7218 6.87502 11.4214 7.12484 11.9799 7.58207C12.5385 8.0393 12.9216 8.67574 13.0641 9.38333C12.6479 9.50478 12.2477 9.67601 11.8725 9.89333C11.8519 9.53217 11.7274 9.18466 11.5138 8.8927C11.3002 8.60073 11.0067 8.37679 10.6688 8.24786C10.3308 8.11893 9.9627 8.09053 9.60893 8.16608C9.25516 8.24162 8.9308 8.41789 8.67495 8.67363C8.41911 8.92937 8.2427 9.25365 8.16701 9.60739C8.09131 9.96113 8.11956 10.3292 8.24834 10.6673C8.37713 11.0053 8.60095 11.2989 8.89282 11.5126C9.1847 11.7263 9.53216 11.851 9.89331 11.8717C9.67567 12.2469 9.50416 12.647 9.38248 13.0633C8.62433 12.9084 7.95061 12.4777 7.49168 11.8546C7.03275 11.2316 6.82124 10.4605 6.89808 9.69045C6.97491 8.92045 7.33463 8.20632 7.90762 7.68624C8.48062 7.16616 9.22615 6.8771 9.99998 6.875Z" fill="#1678F2"/>
</svg>
