<svg width="20" height="20" viewBox="0 0 20 20" fill="none" xmlns="http://www.w3.org/2000/svg">
<path d="M1.66675 8.33332V11.6667C1.66675 13.3333 2.50008 14.1667 4.16675 14.1667H5.35841C5.66675 14.1667 5.97508 14.2583 6.24175 14.4167L8.67508 15.9417C10.7751 17.2583 12.5001 16.3 12.5001 13.825V6.17499C12.5001 3.69165 10.7751 2.74165 8.67508 4.05832L6.24175 5.58332C5.97508 5.74165 5.66675 5.83332 5.35841 5.83332H4.16675C2.50008 5.83332 1.66675 6.66665 1.66675 8.33332Z" stroke="#19224C" stroke-width="1.5"/>
<path d="M15 6.66671C15.7221 7.62799 16.1125 8.79776 16.1125 10C16.1125 11.2023 15.7221 12.3721 15 13.3334M16.525 4.58337C17.6974 6.14587 18.3312 8.04659 18.3312 10C18.3312 11.9535 17.6974 13.8542 16.525 15.4167" stroke="#19224C" stroke-width="1.5" stroke-linecap="round" stroke-linejoin="round"/>
</svg>
