<svg width="32" height="33" viewBox="0 0 32 33" fill="none" xmlns="http://www.w3.org/2000/svg">
<rect y="0.5" width="32" height="32" rx="16" fill="#2A27EB"/>
<g clip-path="url(#clip0_241_53311)">
<path d="M6 16.5C6 14.6867 6.44668 13.0133 7.34 11.48C8.23334 9.94666 9.44668 8.73334 10.98 7.84C12.5133 6.94666 14.1867 6.5 16 6.5C17.8133 6.5 19.4867 6.94666 21.02 7.84C22.5533 8.73334 23.7667 9.94666 24.66 11.48C25.5533 13.0133 26 14.6867 26 16.5C26 18.3133 25.5533 19.9867 24.66 21.52C23.7667 23.0533 22.5533 24.2667 21.02 25.16C19.4867 26.0533 17.8133 26.5 16 26.5C14.1867 26.5 12.5133 26.0533 10.98 25.16C9.44668 24.2667 8.23334 23.0533 7.34 21.52C6.44668 19.9867 6 18.3133 6 16.5ZM7.66 16.5C7.66 18.58 8.36 20.4133 9.76 22C10.4 20.7467 11.4133 19.5533 12.8 18.42C14.1867 17.2867 15.54 16.5733 16.86 16.28C16.66 15.8133 16.4667 15.3933 16.28 15.02C13.9867 15.7533 11.5067 16.12 8.84 16.12C8.32 16.12 7.93334 16.1133 7.68 16.1C7.68 16.1533 7.67668 16.22 7.67 16.3C7.66334 16.38 7.66 16.4467 7.66 16.5ZM7.92 14.44C8.21334 14.4667 8.64668 14.48 9.22 14.48C11.4467 14.48 13.56 14.18 15.56 13.58C14.5467 11.78 13.4333 10.28 12.22 9.08C11.1667 9.61334 10.2633 10.3533 9.51 11.3C8.75668 12.2467 8.22668 13.2933 7.92 14.44ZM10.9 23.08C12.4067 24.2533 14.1067 24.84 16 24.84C16.9867 24.84 17.9667 24.6533 18.94 24.28C18.6733 22 18.1533 19.7933 17.38 17.66C16.1533 17.9267 14.9167 18.6 13.67 19.68C12.4233 20.76 11.5 21.8933 10.9 23.08ZM13.96 8.44C15.1333 9.65334 16.22 11.1667 17.22 12.98C19.0333 12.22 20.4 11.2533 21.32 10.08C19.7733 8.8 18 8.16 16 8.16C15.32 8.16 14.64 8.25334 13.96 8.44ZM17.94 14.4C18.14 14.8267 18.3667 15.3667 18.62 16.02C19.6067 15.9267 20.68 15.88 21.84 15.88C22.6667 15.88 23.4867 15.9 24.3 15.94C24.1933 14.1267 23.54 12.5133 22.34 11.1C21.4733 12.3933 20.0067 13.4933 17.94 14.4ZM19.12 17.42C19.8 19.3933 20.26 21.42 20.5 23.5C21.5533 22.82 22.4133 21.9467 23.08 20.88C23.7467 19.8133 24.1467 18.66 24.28 17.42C23.3067 17.3533 22.42 17.32 21.62 17.32C20.8867 17.32 20.0533 17.3533 19.12 17.42Z" fill="white"/>
</g>
<defs>
<clipPath id="clip0_241_53311">
<rect width="20" height="20" fill="white" transform="translate(6 6.5)"/>
</clipPath>
</defs>
</svg>
