<svg width="123" height="36" viewBox="0 0 123 36" fill="none" xmlns="http://www.w3.org/2000/svg">
<path fill-rule="evenodd" clip-rule="evenodd" d="M51.4768 16.0675C52.494 15.8549 53.4546 16.2995 54.0762 16.9953C55.3383 18.4837 55.5831 24.6689 52.0796 24.9782C47.7285 25.3841 47.5024 16.8794 51.4768 16.0675ZM54.8108 14.27C54.566 13.922 53.4923 12.743 51.7217 12.4724C50.2902 12.2404 48.3877 12.685 47.3517 13.4195C41.3995 17.6332 43.6975 30.6803 51.8347 28.4381C53.4546 27.9935 54.6413 26.5632 54.7732 26.3506L54.8108 28.2062L59.3504 28.2255V5.39795H54.8108V14.27Z" fill="#848182"/>
<path fill-rule="evenodd" clip-rule="evenodd" d="M110.814 20.8609C111.454 23.9922 108.629 26.6403 106.614 24.7653C105.672 23.8762 105.898 22.2719 106.971 21.6341C107.499 21.3248 110.061 20.8996 110.814 20.8609ZM103.355 13.6512L103.298 17.0917C104.014 16.7438 103.958 16.7825 105.144 16.2606C105.822 15.9707 106.651 15.7387 107.461 15.6614C109.401 15.5068 110.908 15.932 110.871 18.0582C109.59 18.7347 106.293 18.5221 104.598 19.3532C98.7589 22.2139 102.696 31.1246 108.742 28.0706C110.061 27.4134 110.023 26.8722 110.871 26.1764L110.908 28.1866H115.128C115.128 25.7705 115.128 23.3737 115.128 20.9575C115.128 18.4641 115.335 16.5119 114.148 14.6949C112.02 11.4477 106.406 12.2208 103.355 13.6512Z" fill="#848182"/>
<path fill-rule="evenodd" clip-rule="evenodd" d="M74.1772 27.6262L74.196 24.0117C73.4614 24.0697 71.6908 25.6353 69.3175 24.7462C64.2882 22.8906 66.9064 13.5547 73.16 16.5507C73.5367 16.7053 73.7439 16.8213 74.196 16.9953V13.1681C71.7661 11.9504 67.9989 12.163 65.6444 13.6127C61.1991 16.3574 60.5021 24.3596 65.6067 27.5682C67.6787 28.8826 72.0864 29.0952 74.1772 27.6262Z" fill="#848182"/>
<path fill-rule="evenodd" clip-rule="evenodd" d="M118.461 28.1672H122.982L122.963 5.41699H118.461V28.1672Z" fill="#848182"/>
<path fill-rule="evenodd" clip-rule="evenodd" d="M94.8398 28.1674H99.4359V12.8589H94.8398C94.8398 15.0624 94.8398 27.027 94.8398 28.1674Z" fill="#848182"/>
<path fill-rule="evenodd" clip-rule="evenodd" d="M16.8177 0.816895L32.1315 2.16992L24.7665 9.8242H8.85L1.50391 2.16992L16.8177 0.816895Z" fill="#FDD12F"/>
<path fill-rule="evenodd" clip-rule="evenodd" d="M16.8177 35.1454L1.50391 33.831L8.85 26.1768H24.7665L32.1315 33.831L16.8177 35.1454Z" fill="#39C84F"/>
<path fill-rule="evenodd" clip-rule="evenodd" d="M0.0742188 18.0004L1.50577 2.16992L8.85186 9.8242V26.1765L1.50577 33.8308L0.0742188 18.0004Z" fill="#00A0FC"/>
<path fill-rule="evenodd" clip-rule="evenodd" d="M33.5283 18.0004L32.1345 2.16992L24.7695 9.8242V26.1765L32.1345 33.8308L33.5283 18.0004Z" fill="#C51F25"/>
<path fill-rule="evenodd" clip-rule="evenodd" d="M97.1176 10.2496C98.3985 10.2496 99.4345 9.18646 99.4345 7.87209C99.4345 6.55772 98.3985 5.49463 97.1176 5.49463C95.8368 5.49463 94.8008 6.55772 94.8008 7.87209C94.8008 9.18646 95.8368 10.2496 97.1176 10.2496Z" fill="#848182"/>
<path fill-rule="evenodd" clip-rule="evenodd" d="M83.5191 16.0675C84.5363 15.8549 85.4969 16.2995 86.1185 16.9953C87.3805 18.4837 87.6254 24.6689 84.1219 24.9782C79.7519 25.3841 79.5259 16.8794 83.5191 16.0675ZM86.8343 14.27C86.5894 13.922 85.5158 12.743 83.7452 12.4724C82.3136 12.2404 80.4112 12.685 79.3752 13.4195C73.423 17.6332 75.721 30.6803 83.8582 28.4381C85.4781 27.9935 86.6648 26.5632 86.8154 26.3506L86.8531 28.2062L91.3926 28.2255V5.39795H86.8343V14.27Z" fill="#848182"/>
</svg>
