<svg width="34" height="34" viewBox="0 0 34 34" fill="none" xmlns="http://www.w3.org/2000/svg">
<circle cx="17" cy="17" r="16.5" fill="white" stroke="#DFE4EC"/>
<path d="M16.15 24.0125L16.15 24.0125L16.1521 24.0153C16.3518 24.2777 16.6458 24.4713 17 24.4713C17.3542 24.4713 17.6482 24.2777 17.8479 24.0153L17.85 24.0125L18.975 22.5125C19.1281 22.3084 19.3699 22.1875 19.625 22.1875H20C21.4108 22.1875 22.5493 21.859 23.3292 21.0792C24.109 20.2993 24.4375 19.1608 24.4375 17.75V15.5C24.4375 15.4869 24.4427 15.4713 24.457 15.457C24.4713 15.4427 24.4869 15.4375 24.5 15.4375C24.5131 15.4375 24.5287 15.4427 24.543 15.457C24.5573 15.4713 24.5625 15.4869 24.5625 15.5V17.75C24.5625 19.3237 24.1487 20.443 23.4208 21.1708C22.693 21.8987 21.5737 22.3125 20 22.3125H19.625C19.3882 22.3125 19.2036 22.4322 19.0909 22.5674L19.0827 22.5773L19.075 22.5875L17.9508 24.0865C17.9507 24.0866 17.9505 24.0868 17.9504 24.0869C17.6867 24.4364 17.3397 24.6075 17 24.6075C16.6603 24.6075 16.3133 24.4364 16.0496 24.0869C16.0495 24.0868 16.0493 24.0866 16.0492 24.0865L14.925 22.5875C14.8704 22.5147 14.8074 22.4695 14.78 22.4508C14.7438 22.426 14.7068 22.4053 14.6728 22.3888C14.6275 22.3669 14.5084 22.3125 14.3675 22.3125H14C12.4546 22.3125 11.3484 22.0963 10.6186 21.4799C9.90841 20.8801 9.4375 19.7957 9.4375 17.75V14C9.4375 12.4263 9.85135 11.307 10.5792 10.5792C11.307 9.85135 12.4263 9.4375 14 9.4375H18.5C18.5131 9.4375 18.5287 9.4427 18.543 9.45699C18.5573 9.47128 18.5625 9.48694 18.5625 9.5C18.5625 9.51306 18.5573 9.52872 18.543 9.54301C18.5287 9.5573 18.5131 9.5625 18.5 9.5625H14C12.5892 9.5625 11.4507 9.89097 10.6708 10.6708C9.89097 11.4507 9.5625 12.5892 9.5625 14V17.75C9.5625 19.4671 9.84877 20.6517 10.6604 21.3655C11.4547 22.064 12.6233 22.1875 14 22.1875H14.375C14.5991 22.1875 14.8865 22.33 15.0256 22.5133C15.0258 22.5136 15.026 22.5138 15.0262 22.5141L16.15 24.0125Z" fill="#292D32" stroke="#19224C"/>
<path d="M17 16.5C16.8594 16.5 16.75 16.3896 16.75 16.25C16.75 16.1136 16.8636 16 17 16C17.1364 16 17.25 16.1136 17.25 16.25C17.25 16.3896 17.1406 16.5 17 16.5Z" fill="#292D32" stroke="#19224C"/>
<path d="M20 16.5C19.8594 16.5 19.75 16.3896 19.75 16.25C19.75 16.1136 19.8636 16 20 16C20.1364 16 20.25 16.1136 20.25 16.25C20.25 16.3896 20.1406 16.5 20 16.5Z" fill="#292D32" stroke="#19224C"/>
<path d="M14 16.5C13.8594 16.5 13.75 16.3896 13.75 16.25C13.75 16.1136 13.8636 16 14 16C14.1364 16 14.25 16.1136 14.25 16.25C14.25 16.3896 14.1406 16.5 14 16.5Z" fill="#292D32" stroke="#19224C"/>
<path d="M22.625 13.8125C21.2825 13.8125 20.1875 12.7175 20.1875 11.375C20.1875 10.0325 21.2825 8.9375 22.625 8.9375C23.9675 8.9375 25.0625 10.0325 25.0625 11.375C25.0625 12.7175 23.9675 13.8125 22.625 13.8125ZM22.625 10.0625C21.905 10.0625 21.3125 10.655 21.3125 11.375C21.3125 12.095 21.905 12.6875 22.625 12.6875C23.345 12.6875 23.9375 12.095 23.9375 11.375C23.9375 10.655 23.345 10.0625 22.625 10.0625Z" fill="#292D32"/>
</svg>
