<svg width="34" height="34" viewBox="0 0 34 34" fill="none" xmlns="http://www.w3.org/2000/svg">
<circle cx="17" cy="17" r="16.5" fill="white" stroke="#DFE4EC"/>
<path d="M11.75 15.5C10.925 15.5 10.25 16.175 10.25 17C10.25 17.825 10.925 18.5 11.75 18.5C12.575 18.5 13.25 17.825 13.25 17C13.25 16.175 12.575 15.5 11.75 15.5Z" fill="#19224C"/>
<path d="M22.25 15.5C21.425 15.5 20.75 16.175 20.75 17C20.75 17.825 21.425 18.5 22.25 18.5C23.075 18.5 23.75 17.825 23.75 17C23.75 16.175 23.075 15.5 22.25 15.5Z" fill="#19224C"/>
<path d="M17 15.5C16.175 15.5 15.5 16.175 15.5 17C15.5 17.825 16.175 18.5 17 18.5C17.825 18.5 18.5 17.825 18.5 17C18.5 16.175 17.825 15.5 17 15.5Z" fill="#19224C"/>
</svg>
