<svg width="34" height="34" viewBox="0 0 34 34" fill="none" xmlns="http://www.w3.org/2000/svg">
<circle cx="17" cy="17" r="16.5" fill="white" stroke="#DFE4EC"/>
<path d="M17 15.89C16.6925 15.89 16.4375 15.635 16.4375 15.3275V12.83C16.4375 12.5225 16.6925 12.2675 17 12.2675C17.3075 12.2675 17.5625 12.5225 17.5625 12.83V15.3275C17.5625 15.6425 17.3075 15.89 17 15.89Z" fill="#19224C"/>
<path d="M17.015 23.2625C15.08 23.2625 13.1525 22.955 11.315 22.34C10.6325 22.115 10.115 21.6275 9.89 21.0125C9.665 20.3975 9.74 19.6925 10.1075 19.0775L11.06 17.4875C11.27 17.135 11.4575 16.475 11.4575 16.0625V14.4875C11.4575 11.42 13.9475 8.92999 17.015 8.92999C20.0825 8.92999 22.5725 11.42 22.5725 14.4875V16.0625C22.5725 16.4675 22.76 17.135 22.97 17.4875L23.9225 19.0775C24.275 19.6625 24.335 20.36 24.1025 20.9975C23.87 21.635 23.36 22.1225 22.715 22.34C20.8775 22.9625 18.95 23.2625 17.015 23.2625ZM17.015 10.0625C14.57 10.0625 12.5825 12.05 12.5825 14.495V16.07C12.5825 16.6775 12.3425 17.555 12.0275 18.0725L11.075 19.67C10.88 19.9925 10.835 20.3375 10.9475 20.6375C11.06 20.9375 11.315 21.1625 11.675 21.2825C15.125 22.43 18.92 22.43 22.37 21.2825C22.6925 21.1775 22.94 20.9375 23.0525 20.6225C23.1725 20.3075 23.135 19.9625 22.9625 19.67L22.01 18.08C21.695 17.5625 21.455 16.685 21.455 16.0775V14.5025C21.4475 12.05 19.46 10.0625 17.015 10.0625Z" fill="#19224C"/>
<path d="M17 25.175C16.1975 25.175 15.41 24.845 14.84 24.275C14.27 23.705 13.94 22.9175 13.94 22.115H15.065C15.065 22.625 15.275 23.12 15.635 23.48C15.995 23.84 16.49 24.05 17 24.05C18.065 24.05 18.935 23.18 18.935 22.115H20.06C20.06 23.8025 18.6875 25.175 17 25.175Z" fill="#19224C"/>
</svg>
