<svg width="35" height="35" viewBox="0 0 512 512" fill="none" xmlns="http://www.w3.org/2000/svg">
<g clip-path="url(#clip0_198_36006)">
<path d="M256 512C397.385 512 512 397.385 512 256C512 114.615 397.385 0 256 0C114.615 0 0 114.615 0 256C0 397.385 114.615 512 256 512Z" fill="url(#paint0_linear_198_36006)"/>
<path d="M300.621 269.569L286.833 255.781L273.045 269.569L286.833 283.358L300.621 269.569Z" fill="white"/>
<path opacity="0.5" d="M273.009 269.528L266.15 262.669L259.291 269.528L266.15 276.387L273.009 269.528Z" fill="white"/>
<path d="M179.4 285.6L163.5 301.5L179.4 317.4L195.3 301.5L179.4 285.6Z" fill="#2F70D6"/>
<path d="M217.6 357.8L205.8 369.6L194 357.8L204.7 347.1V275.1L199.5 269.8L204.7 264.7V194.4L206.9 190V264.7L212.1 269.8L206.9 275.1V347.1L217.6 357.8Z" fill="#5184D8"/>
<path d="M201.5 337V345.4C200.4 345.8 199.3 346.1 198.1 346.5C191.9 348.3 185.3 349.3 178.5 349.3C171.4 349.3 164.6 348.4 158.1 346.6C127.3 338 104.5 309.9 104.3 276.3L104.2 267V257.2L133.8 243.8V279C133.8 281.8 133.9 284.5 134 287.1V287.3C134 288.1 134 288.8 134 289.6C134 296.2 134.9 302.5 136.7 308.5C136.8 308.9 136.9 309.3 137.1 309.8C137.2 310.2 137.3 310.5 137.5 310.9C138.2 313.2 139.1 315.4 140 317.5C140 317.6 140 317.7 140.1 317.8C140.9 319.9 141.9 321.9 143 323.7C143 323.8 143.1 323.9 143.2 324C149.3 335.4 160.2 343.9 175.9 345.6C176.9 345.7 177.9 345.7 178.9 345.6C187.9 344.8 195.5 341.7 201.5 337Z" fill="white"/>
<path d="M251.3 212.2V281.6C251.3 282.2 251.3 282.8 251.2 283.4C248.5 309.2 232.5 331.1 210.1 341.9V327.9C211 326.6 211.8 325.3 212.5 324C212.6 323.9 212.6 323.8 212.7 323.7C213.8 321.8 214.7 319.9 215.6 317.8C215.6 317.7 215.7 317.6 215.7 317.5C216.7 315.4 217.5 313.2 218.2 310.9C218.3 310.5 218.5 310.2 218.6 309.8C218.7 309.3 218.9 309 218.9 308.5C220.6 302.5 221.6 296.1 221.6 289.6C221.6 288.8 221.6 288.1 221.6 287.3V287.1L221.7 283.1C221.7 281.8 221.7 280.3 221.7 279V203.8L223.4 202.9L244.2 191.7L251.2 188.2L251.3 212.2Z" fill="white"/>
<path d="M393.7 345.7L376.9 369.7C338.9 368.5 331.1 338.3 323.5 309.1C319.4 293.1 315.2 277.1 305.6 269.6L307 269.2C328.3 262.4 331.4 247.6 331.4 233.5C331.4 207.8 307.9 189.1 284.9 174.1L278 169.6L271.1 165.4C270.2 164.8 269.2 164.3 268.3 163.8C267.7 163.4 267.1 163 266.4 162.6C265.8 162.2 265.1 161.8 264.5 161.4C262.1 159.6 259.6 157.8 257 156C252.1 152.7 247.5 149.2 243.4 145.3C237.4 139.7 234.4 133.9 234.4 127.8C234.4 123.8 235.5 120.2 237.7 116.8C239.8 113.4 242.5 110.3 245.6 107.4C245.6 107.4 245.7 107.3 245.8 107.3C248.8 104.5 251.9 101.9 255.1 99.4C256.9 98.1 258.5 96.8 260 95.5L259.6 96C257.9 98 256.2 100.3 254.7 102.7C253.1 105.1 252.4 107.8 252.4 110.5C252.4 114.9 255.2 119.5 260.7 124.2C264.9 127.9 270 131.9 276.1 136.1C277.3 136.9 278.5 137.8 279.8 138.7C282.6 140.4 285.4 142.1 288.3 143.8C289.1 144.2 289.9 144.7 290.7 145.2C291.4 145.6 292.2 146 292.9 146.5C322.7 163.9 356.4 183.7 356.4 217.5C356.4 245.2 340.8 262.3 308.8 269.5C338.9 276.2 347.8 294.5 356.5 312.3C364 327.6 371.8 343.4 393.7 345.7Z" fill="white"/>
<path d="M192.7 427.6C193.4 427.2 194.2 427 195.1 427V429.8H194.4C193.3 429.8 192.5 430.1 192 430.6C191.4 431.1 191.2 432.1 191.2 433.4V440.4H188.5V427.2H191.2V429.1C191.5 428.5 192 428 192.7 427.6Z" fill="white"/>
<path d="M202.5 425C202.2 424.7 202 424.2 202 423.8C202 423.4 202.2 422.9 202.5 422.6C202.8 422.3 203.3 422.1 203.7 422.1C204.2 422.1 204.6 422.3 204.9 422.6C205.2 422.9 205.4 423.4 205.4 423.8C205.4 424.2 205.2 424.7 204.9 425C204.6 425.3 204.2 425.5 203.7 425.5C203.3 425.5 202.9 425.3 202.5 425ZM205.1 427.2V440.4H202.4V427.2H205.1Z" fill="white"/>
<path d="M215.5 440.1C214.7 439.7 214 439.2 213.5 438.6C213 438 212.8 437.2 212.7 436.4H215.5C215.5 437 215.8 437.4 216.3 437.8C216.8 438.2 217.4 438.4 218.1 438.4C218.9 438.4 219.5 438.3 219.9 438C220.3 437.7 220.5 437.3 220.5 436.9C220.5 436.4 220.3 436 219.8 435.8C219.3 435.6 218.6 435.3 217.6 435C216.6 434.7 215.8 434.5 215.2 434.2C214.6 433.9 214 433.6 213.6 433C213.1 432.5 212.9 431.8 212.9 430.9C212.9 430.2 213.1 429.6 213.5 429C213.9 428.4 214.5 428 215.3 427.6C216.1 427.3 217 427.1 218 427.1C219.5 427.1 220.7 427.5 221.6 428.2C222.5 428.9 223 430 223.1 431.3H220.4C220.4 430.7 220.1 430.2 219.7 429.9C219.3 429.5 218.7 429.4 217.9 429.4C217.2 429.4 216.6 429.5 216.2 429.8C215.8 430.1 215.6 430.4 215.6 430.9C215.6 431.3 215.7 431.5 216 431.8C216.3 432 216.6 432.2 216.9 432.4C217.3 432.5 217.8 432.7 218.5 432.9C219.5 433.2 220.2 433.4 220.9 433.7C221.5 434 222 434.4 222.5 434.9C222.9 435.4 223.2 436.1 223.2 436.9C223.2 437.7 223 438.3 222.6 438.9C222.2 439.5 221.6 440 220.8 440.3C220 440.6 219.1 440.8 218.1 440.8C217.3 440.7 216.4 440.5 215.5 440.1Z" fill="white"/>
<path d="M231.1 430.3C231.7 429.3 232.4 428.5 233.4 427.9C234.4 427.3 235.4 427 236.6 427C237.6 427 238.5 427.2 239.3 427.6C240.1 428 240.7 428.5 241.2 429.1V427.2H244V440.4H241.2V438.4C240.7 439 240.1 439.5 239.3 440C238.5 440.4 237.6 440.6 236.6 440.6C235.5 440.6 234.4 440.3 233.5 439.7C232.6 439.1 231.8 438.3 231.3 437.3C230.7 436.3 230.5 435.1 230.5 433.7C230.5 432.3 230.5 431.3 231.1 430.3ZM240.5 431.5C240.1 430.8 239.6 430.3 239 430C238.4 429.6 237.7 429.5 237 429.5C236.3 429.5 235.6 429.7 235 430C234.4 430.3 233.9 430.8 233.5 431.5C233.1 432.2 232.9 433 232.9 433.9C232.9 434.8 233.1 435.6 233.5 436.3C233.9 437 234.4 437.5 235 437.9C235.6 438.3 236.3 438.4 237 438.4C237.7 438.4 238.4 438.2 239 437.9C239.6 437.5 240.1 437 240.5 436.4C240.9 435.7 241.1 434.9 241.1 434C241.1 433.1 240.9 432.1 240.5 431.5Z" fill="white"/>
<path d="M255 422.7V440.5H252.3V422.7H255Z" fill="white"/>
<path d="M263.3 430.3C263.9 429.3 264.6 428.5 265.6 427.9C266.6 427.3 267.6 427 268.8 427C269.8 427 270.7 427.2 271.5 427.6C272.3 428 272.9 428.5 273.4 429.1V427.2H276.2V440.4H273.4V438.4C272.9 439 272.3 439.5 271.5 440C270.7 440.4 269.8 440.6 268.8 440.6C267.7 440.6 266.6 440.3 265.7 439.7C264.8 439.1 264 438.3 263.5 437.3C262.9 436.3 262.7 435.1 262.7 433.7C262.7 432.3 262.7 431.3 263.3 430.3ZM272.7 431.5C272.3 430.8 271.8 430.3 271.2 430C270.6 429.6 269.9 429.5 269.2 429.5C268.5 429.5 267.8 429.7 267.2 430C266.6 430.3 266.1 430.8 265.7 431.5C265.3 432.2 265.1 433 265.1 433.9C265.1 434.8 265.3 435.6 265.7 436.3C266.1 437 266.6 437.5 267.2 437.9C267.8 438.3 268.5 438.4 269.2 438.4C269.9 438.4 270.6 438.2 271.2 437.9C271.8 437.5 272.3 437 272.7 436.4C273.1 435.7 273.3 434.9 273.3 434C273.3 433.1 273.1 432.1 272.7 431.5Z" fill="white"/>
<path d="M284.3 440.1C284 439.8 283.8 439.3 283.8 438.9C283.8 438.5 284 438 284.3 437.7C284.6 437.4 285.1 437.2 285.5 437.2C286 437.2 286.4 437.4 286.7 437.7C287 438 287.2 438.5 287.2 438.9C287.2 439.3 287 439.8 286.7 440.1C286.4 440.4 286 440.6 285.5 440.6C285 440.6 284.6 440.5 284.3 440.1Z" fill="white"/>
<path d="M294.9 430.3C295.5 429.3 296.2 428.5 297.2 427.9C298.2 427.3 299.2 427 300.4 427C301.4 427 302.3 427.2 303.1 427.6C303.9 428 304.5 428.5 305 429.1V427.2H307.8V440.4H305V438.4C304.5 439 303.9 439.5 303.1 440C302.3 440.4 301.4 440.6 300.4 440.6C299.3 440.6 298.2 440.3 297.3 439.7C296.4 439.1 295.6 438.3 295.1 437.3C294.5 436.3 294.3 435.1 294.3 433.7C294.3 432.3 294.4 431.3 294.9 430.3ZM304.4 431.5C304 430.8 303.5 430.3 302.9 430C302.3 429.6 301.6 429.5 300.9 429.5C300.2 429.5 299.5 429.7 298.9 430C298.3 430.3 297.8 430.8 297.4 431.5C297 432.2 296.8 433 296.8 433.9C296.8 434.8 297 435.6 297.4 436.3C297.8 437 298.3 437.5 298.9 437.9C299.5 438.3 300.2 438.4 300.9 438.4C301.6 438.4 302.3 438.2 302.9 437.9C303.5 437.5 304 437 304.4 436.4C304.8 435.7 305 434.9 305 434C305 433.1 304.7 432.1 304.4 431.5Z" fill="white"/>
<path d="M316.2 425C315.9 424.7 315.7 424.2 315.7 423.8C315.7 423.4 315.9 422.9 316.2 422.6C316.5 422.3 317 422.1 317.4 422.1C317.9 422.1 318.3 422.3 318.6 422.6C318.9 422.9 319.1 423.4 319.1 423.8C319.1 424.2 318.9 424.7 318.6 425C318.3 425.3 317.9 425.5 317.4 425.5C317 425.5 316.6 425.3 316.2 425ZM318.8 427.2V440.4H316.1V427.2H318.8Z" fill="white"/>
</g>
<defs>
<linearGradient id="paint0_linear_198_36006" x1="0" y1="256" x2="512" y2="256" gradientUnits="userSpaceOnUse">
<stop stop-color="#1779F2"/>
<stop offset="0.1557" stop-color="#1770E7"/>
<stop offset="0.4311" stop-color="#1959C9"/>
<stop offset="0.7912" stop-color="#1B3499"/>
<stop offset="1" stop-color="#1C1C7A"/>
</linearGradient>
<clipPath id="clip0_198_36006">
<rect width="512" height="512" fill="white"/>
</clipPath>
</defs>
</svg>
