<svg width="32" height="32" viewBox="0 0 32 32" fill="none" xmlns="http://www.w3.org/2000/svg">
<path d="M16 32C24.8366 32 32 24.8366 32 16C32 7.16344 24.8366 0 16 0C7.16344 0 0 7.16344 0 16C0 24.8366 7.16344 32 16 32Z" fill="#1779F2"/>
<path d="M18.4847 17.6023L17.402 16.5195L16.3192 17.6023L17.402 18.685L18.4847 17.6023Z" fill="white"/>
<path d="M16.3207 17.6022L15.7771 17.0586L15.2335 17.6022L15.7771 18.1458L16.3207 17.6022Z" fill="white"/>
<path d="M25.8188 23.5939L24.5001 25.4814C21.5063 25.3877 20.8938 23.0127 20.3001 20.7127C19.9751 19.4564 19.6438 18.1939 18.8938 17.6002L19.0063 17.5689C20.6813 17.0377 20.9251 15.8627 20.9251 14.7627C20.9251 12.7377 19.0751 11.2627 17.2626 10.0877L16.7188 9.7377L16.1813 9.40645C16.1063 9.3627 16.0313 9.31894 15.9626 9.2752C15.9126 9.24395 15.8626 9.2127 15.8126 9.18145C15.7626 9.1502 15.7126 9.11895 15.6626 9.0877C15.4751 8.94394 15.2813 8.80645 15.0751 8.6627C14.6876 8.40645 14.3313 8.1252 14.0063 7.81895C13.5313 7.38145 13.2938 6.91895 13.2938 6.4377C13.2938 6.1252 13.3813 5.8377 13.5501 5.56895C13.7188 5.3002 13.9313 5.05645 14.1751 4.83145C14.1813 4.8252 14.1876 4.8252 14.1876 4.81895C14.4251 4.6002 14.6688 4.39395 14.9188 4.19395C15.0563 4.0877 15.1876 3.9877 15.3063 3.8877L15.2813 3.93145C15.1438 4.09395 15.0126 4.26895 14.8938 4.4627C14.7688 4.65645 14.7126 4.8627 14.7126 5.08145C14.7126 5.4252 14.9313 5.7877 15.3626 6.1627C15.6938 6.45645 16.0938 6.7627 16.5751 7.1002C16.6688 7.16895 16.7626 7.23145 16.8626 7.30645C17.0813 7.4377 17.3063 7.5752 17.5313 7.70645C17.5938 7.74395 17.6563 7.78145 17.7188 7.8127C17.7751 7.8502 17.8376 7.88144 17.8876 7.91269C20.2313 9.28145 22.8813 10.8377 22.8813 13.5002C22.8813 15.6814 21.6563 17.0252 19.1313 17.5939C21.5001 18.1252 22.2001 19.5627 22.8876 20.9564C23.4813 22.1689 24.0938 23.4127 25.8188 23.5939Z" fill="white"/>
<path d="M11.9625 24.5504L11.025 25.4816L10.0938 24.5504L10.9375 23.7066V18.0379L10.5312 17.6254L10.9375 17.2191V11.6879L11.1125 11.3379V17.2191L11.5188 17.6254L11.1125 18.0379V23.7066L11.9625 24.5504Z" fill="white"/>
<path d="M14.6063 13.0875V18.55C14.6063 18.6 14.6063 18.6438 14.6 18.6938C14.3875 20.725 13.125 22.4437 11.3625 23.3V22.1938C11.4313 22.0938 11.4938 21.9938 11.55 21.8875C11.5563 21.8813 11.5625 21.875 11.5625 21.8687C11.6438 21.7188 11.725 21.5687 11.7938 21.4C11.7938 21.3937 11.8 21.3875 11.8 21.3813C11.875 21.2125 11.9438 21.0437 12 20.8625C12.0125 20.8312 12.0188 20.8062 12.025 20.7812C12.0375 20.7437 12.0438 20.7125 12.05 20.6812C12.1875 20.2062 12.2625 19.7063 12.2625 19.1938C12.2625 19.1313 12.2625 19.075 12.2563 19.0125V19L12.2688 18.6875C12.275 18.5813 12.275 18.4687 12.275 18.3625V12.45L12.4125 12.375L14.0438 11.4937L14.6 11.2188L14.6063 13.0875Z" fill="white"/>
<path d="M10.6813 23.4746V23.4871H10.6688C10.6751 23.4871 10.6813 23.4809 10.6813 23.4746Z" fill="white"/>
<path d="M10.6813 22.8566V23.6379C10.6688 23.6441 10.6625 23.6504 10.65 23.6629C10.55 23.7316 10.4375 23.7941 10.3313 23.8504C10.3188 23.8566 10.3125 23.8629 10.3 23.8629C10.2875 23.8691 10.2813 23.8754 10.2688 23.8754C9.90627 24.0441 9.51252 24.1379 9.09377 24.1379C7.48752 24.1379 6.18127 22.7441 6.18127 21.0254C6.18127 20.4941 6.30627 19.9879 6.53127 19.5504C6.55002 19.5066 6.57502 19.4691 6.60002 19.4254C6.62502 19.3879 6.64377 19.3504 6.66877 19.3066C6.65627 19.3504 6.64377 19.3879 6.63127 19.4316C6.61877 19.4754 6.60627 19.5191 6.59377 19.5629C6.53127 19.8254 6.49377 20.0941 6.48752 20.3754C6.46877 22.0566 7.63752 23.4379 9.08752 23.4504H9.11252C9.51877 23.4504 9.91252 23.3441 10.2688 23.1379C10.2813 23.1316 10.2875 23.1254 10.3 23.1191C10.3125 23.1129 10.3188 23.1066 10.3313 23.1004C10.4438 23.0316 10.55 22.9566 10.65 22.8691C10.6625 22.8754 10.675 22.8691 10.6813 22.8566Z" fill="white"/>
</svg>
