<svg width="16" height="16" viewBox="0 0 16 16" fill="none" xmlns="http://www.w3.org/2000/svg">
<path d="M8 9.76471C8.97462 9.76471 9.7647 8.97462 9.7647 8C9.7647 7.02538 8.97462 6.23529 8 6.23529C7.02538 6.23529 6.23529 7.02538 6.23529 8C6.23529 8.97462 7.02538 9.76471 8 9.76471Z" stroke="#19224C" stroke-width="1.05882"/>
<path d="M3.09471 7.2C3.37294 7.37412 3.55177 7.67176 3.55177 8C3.55177 8.32823 3.37294 8.62588 3.09471 8.8C2.90588 8.91941 2.78353 9.01412 2.69706 9.12706C2.603 9.24967 2.53401 9.38961 2.49404 9.53888C2.45407 9.68816 2.4439 9.84385 2.46412 9.99706C2.49471 10.2288 2.63177 10.4665 2.9053 10.9412C3.18 11.4159 3.31706 11.6529 3.50235 11.7959C3.62496 11.8899 3.7649 11.9589 3.91418 11.9989C4.06346 12.0389 4.21915 12.049 4.37235 12.0288C4.51353 12.01 4.65647 11.9524 4.85412 11.8476C4.99557 11.7702 5.15437 11.7301 5.31561 11.7309C5.47685 11.7317 5.63523 11.7735 5.77588 11.8524C6.06 12.0171 6.22882 12.32 6.24059 12.6482C6.24882 12.8718 6.27 13.0247 6.32471 13.1559C6.38383 13.2987 6.47053 13.4285 6.57984 13.5378C6.68915 13.6471 6.81893 13.7338 6.96177 13.7929C7.17765 13.8824 7.45177 13.8824 8 13.8824C8.54824 13.8824 8.82235 13.8824 9.03824 13.7929C9.18107 13.7338 9.31085 13.6471 9.42016 13.5378C9.52947 13.4285 9.61617 13.2987 9.67529 13.1559C9.72941 13.0247 9.75118 12.8718 9.75941 12.6482C9.77118 12.32 9.94 12.0165 10.2241 11.8524C10.3648 11.7735 10.5232 11.7317 10.6844 11.7309C10.8456 11.7301 11.0044 11.7702 11.1459 11.8476C11.3435 11.9524 11.4871 12.01 11.6282 12.0288C11.9375 12.0695 12.2502 11.9857 12.4976 11.7959C12.6829 11.6535 12.82 11.4159 13.0941 10.9412C13.2165 10.7294 13.3112 10.5653 13.3818 10.4276M12.9053 8.80059C12.7676 8.71688 12.6534 8.59956 12.5734 8.45962C12.4935 8.31969 12.4504 8.16173 12.4482 8.00059C12.4482 7.67176 12.6271 7.37412 12.9053 7.19941C13.0941 7.08059 13.2159 6.98588 13.3029 6.87294C13.397 6.75033 13.466 6.61039 13.506 6.46111C13.5459 6.31184 13.5561 6.15615 13.5359 6.00294C13.5053 5.77118 13.3682 5.53353 13.0947 5.05882C12.82 4.58412 12.6829 4.34706 12.4976 4.20412C12.375 4.11005 12.2351 4.04107 12.0858 4.0011C11.9365 3.96113 11.7809 3.95096 11.6276 3.97118C11.4865 3.99 11.3435 4.04765 11.1453 4.15235C11.0039 4.22966 10.8452 4.26978 10.6841 4.26895C10.523 4.26813 10.3647 4.22639 10.2241 4.14765C10.0856 4.06524 9.97022 3.94896 9.88893 3.80975C9.80765 3.67053 9.76308 3.51293 9.75941 3.35176C9.75118 3.12824 9.73 2.97529 9.67529 2.84412C9.61617 2.70128 9.52947 2.5715 9.42016 2.46219C9.31085 2.35288 9.18107 2.26618 9.03824 2.20706C8.82235 2.11765 8.54824 2.11765 8 2.11765C7.45177 2.11765 7.17765 2.11765 6.96177 2.20706C6.81893 2.26618 6.68915 2.35288 6.57984 2.46219C6.47053 2.5715 6.38383 2.70128 6.32471 2.84412C6.27059 2.97529 6.24882 3.12824 6.24059 3.35176C6.23692 3.51293 6.19235 3.67053 6.11107 3.80975C6.02978 3.94896 5.91444 4.06524 5.77588 4.14765C5.63523 4.2265 5.47685 4.26829 5.31561 4.26912C5.15437 4.26994 4.99557 4.22976 4.85412 4.15235C4.65647 4.04765 4.51294 3.99 4.37177 3.97118C4.06254 3.93051 3.74982 4.0143 3.50235 4.20412C3.31765 4.34706 3.18 4.58412 2.90588 5.05882C2.78353 5.27059 2.68882 5.43471 2.61824 5.57235" stroke="#19224C" stroke-width="1.05882" stroke-linecap="round"/>
</svg>
