<svg xmlns="http://www.w3.org/2000/svg" width="10" height="10" viewBox="0 0 10 10" fill="none">
  <g clip-path="url(#clip0_691_79583)">
    <path d="M2.5 2.5H7.5V7.5H2.5V2.5Z" fill="white"/>
    <mask id="mask0_691_79583" style="mask-type:luminance" maskUnits="userSpaceOnUse" x="0" y="0" width="10" height="10">
      <path d="M5.00017 9.16732C5.54744 9.16803 6.08947 9.06058 6.59508 8.85114C7.1007 8.6417 7.55994 8.3344 7.94642 7.9469C8.33391 7.56043 8.64121 7.10119 8.85065 6.59557C9.06009 6.08996 9.16754 5.54793 9.16683 5.00065C9.16753 4.45338 9.06007 3.91136 8.85063 3.40574C8.64119 2.90013 8.3339 2.44088 7.94642 2.0544C7.55994 1.66691 7.1007 1.35961 6.59508 1.15017C6.08947 0.940732 5.54744 0.833279 5.00017 0.833988C4.45289 0.83329 3.91087 0.940749 3.40526 1.15019C2.89964 1.35963 2.4404 1.66692 2.05392 2.0544C1.66643 2.44088 1.35914 2.90013 1.1497 3.40574C0.94026 3.91136 0.832802 4.45338 0.8335 5.00065C0.83279 5.54793 0.940244 6.08996 1.14968 6.59557C1.35912 7.10119 1.66642 7.56043 2.05392 7.9469C2.4404 8.33439 2.89964 8.64168 3.40526 8.85112C3.91087 9.06056 4.45289 9.16802 5.00017 9.16732Z" fill="white" stroke="white" stroke-width="0.833333" stroke-linejoin="round"/>
      <path d="M3.3335 5L4.5835 6.25L7.0835 3.75" stroke="black" stroke-width="0.833333" stroke-linecap="round" stroke-linejoin="round"/>
    </mask>
    <g mask="url(#mask0_691_79583)">
      <path d="M0 0H10V10H0V0Z" fill="#0F9623"/>
    </g>
  </g>
  <defs>
    <clipPath id="clip0_691_79583">
      <rect width="10" height="10" fill="white"/>
    </clipPath>
  </defs>
</svg>