<svg xmlns="http://www.w3.org/2000/svg" width="15" height="15" viewBox="0 0 15 15" fill="none">
<g clip-path="url(#clip0_607_99164)">
<path d="M7.5 13.75C10.9375 13.75 13.75 10.9375 13.75 7.5C13.75 4.0625 10.9375 1.25 7.5 1.25C4.0625 1.25 1.25 4.0625 1.25 7.5C1.25 10.9375 4.0625 13.75 7.5 13.75ZM5.73125 9.26875L9.26875 5.73125L5.73125 9.26875ZM9.26875 9.26875L5.73125 5.73125L9.26875 9.26875Z" fill="white"/>
<path d="M5.73125 9.26875L9.26875 5.73125M9.26875 9.26875L5.73125 5.73125M7.5 13.75C10.9375 13.75 13.75 10.9375 13.75 7.5C13.75 4.0625 10.9375 1.25 7.5 1.25C4.0625 1.25 1.25 4.0625 1.25 7.5C1.25 10.9375 4.0625 13.75 7.5 13.75Z" stroke="#046AF3" stroke-width="0.9375" stroke-linecap="round" stroke-linejoin="round"/>
</g>
<defs>
<clipPath id="clip0_607_99164">
<rect width="15" height="15" fill="white"/>
</clipPath>
</defs>
</svg>