<svg width="20" height="21" viewBox="0 0 20 21" fill="none" xmlns="http://www.w3.org/2000/svg">
<g clip-path="url(#clip0_1163_216574)">
<path d="M10 20.7983C15.5228 20.7983 20 16.3212 20 10.7983C20 5.27549 15.5228 0.79834 10 0.79834C4.47715 0.79834 0 5.27549 0 10.7983C0 16.3212 4.47715 20.7983 10 20.7983Z" fill="#1779F2"/>
<path d="M11.553 11.7996L10.8763 11.1229L10.1996 11.7996L10.8763 12.4763L11.553 11.7996Z" fill="white"/>
<path d="M10.2005 11.7995L9.86072 11.4598L9.52098 11.7995L9.86072 12.1392L10.2005 11.7995Z" fill="white"/>
<path d="M16.1367 15.5444L15.3125 16.7241C13.4414 16.6655 13.0586 15.1812 12.6875 13.7437C12.4844 12.9585 12.2773 12.1694 11.8086 11.7983L11.8789 11.7788C12.9258 11.4468 13.0781 10.7124 13.0781 10.0249C13.0781 8.75928 11.9219 7.8374 10.7891 7.10303L10.4492 6.88428L10.1133 6.67725C10.0664 6.6499 10.0195 6.62256 9.97656 6.59521C9.94531 6.57568 9.91406 6.55615 9.88281 6.53662C9.85156 6.51709 9.82031 6.49756 9.78906 6.47803C9.67188 6.38818 9.55078 6.30225 9.42188 6.2124C9.17969 6.05225 8.95703 5.87646 8.75391 5.68506C8.45703 5.41162 8.30859 5.12256 8.30859 4.82178C8.30859 4.62646 8.36328 4.44678 8.46875 4.27881C8.57422 4.11084 8.70703 3.9585 8.85938 3.81787C8.86328 3.81396 8.86719 3.81396 8.86719 3.81006C9.01563 3.67334 9.16797 3.54443 9.32422 3.41943C9.41016 3.35303 9.49219 3.29053 9.56641 3.22803L9.55078 3.25537C9.46484 3.35693 9.38281 3.46631 9.30859 3.5874C9.23047 3.7085 9.19531 3.8374 9.19531 3.97412C9.19531 4.18896 9.33203 4.41553 9.60156 4.6499C9.80859 4.8335 10.0586 5.0249 10.3594 5.23584C10.418 5.27881 10.4766 5.31787 10.5391 5.36475C10.6758 5.44678 10.8164 5.53271 10.957 5.61475C10.9961 5.63818 11.0352 5.66162 11.0742 5.68115C11.1094 5.70459 11.1484 5.72412 11.1797 5.74365C12.6445 6.59912 14.3008 7.57178 14.3008 9.23584C14.3008 10.5991 13.5352 11.439 11.957 11.7944C13.4375 12.1265 13.875 13.0249 14.3047 13.896C14.6758 14.6538 15.0586 15.4312 16.1367 15.5444Z" fill="white"/>
<path d="M7.47656 16.1421L6.89062 16.7241L6.30859 16.1421L6.83594 15.6147V12.0718L6.58203 11.814L6.83594 11.5601V8.10303L6.94531 7.88428V11.5601L7.19922 11.814L6.94531 12.0718V15.6147L7.47656 16.1421Z" fill="white"/>
<path d="M9.12891 8.97803V12.3921C9.12891 12.4233 9.12891 12.4507 9.125 12.4819C8.99219 13.7515 8.20312 14.8257 7.10156 15.3608V14.6694C7.14453 14.6069 7.18359 14.5444 7.21875 14.478C7.22266 14.4741 7.22656 14.4702 7.22656 14.4663C7.27734 14.3726 7.32812 14.2788 7.37109 14.1733C7.37109 14.1694 7.375 14.1655 7.375 14.1616C7.42188 14.0562 7.46484 13.9507 7.5 13.8374C7.50781 13.8179 7.51172 13.8022 7.51562 13.7866C7.52344 13.7632 7.52734 13.7437 7.53125 13.7241C7.61719 13.4272 7.66406 13.1147 7.66406 12.7944C7.66406 12.7554 7.66406 12.7202 7.66016 12.6812V12.6733L7.66797 12.478C7.67188 12.4116 7.67187 12.3413 7.67187 12.2749V8.57959L7.75781 8.53271L8.77734 7.98193L9.125 7.81006L9.12891 8.97803Z" fill="white"/>
<path d="M6.67578 15.4702V15.478H6.66797C6.67188 15.478 6.67578 15.4741 6.67578 15.4702Z" fill="white"/>
<path d="M6.67578 15.0835V15.5718C6.66797 15.5757 6.66406 15.5796 6.65625 15.5874C6.59375 15.6304 6.52344 15.6694 6.45703 15.7046C6.44922 15.7085 6.44531 15.7124 6.4375 15.7124C6.42969 15.7163 6.42578 15.7202 6.41797 15.7202C6.19141 15.8257 5.94531 15.8843 5.68359 15.8843C4.67969 15.8843 3.86328 15.0132 3.86328 13.939C3.86328 13.6069 3.94141 13.2905 4.08203 13.0171C4.09375 12.9897 4.10937 12.9663 4.125 12.939C4.14062 12.9155 4.15234 12.8921 4.16797 12.8647C4.16016 12.8921 4.15234 12.9155 4.14453 12.9429C4.13672 12.9702 4.12891 12.9976 4.12109 13.0249C4.08203 13.189 4.05859 13.3569 4.05469 13.5327C4.04297 14.5835 4.77344 15.4468 5.67969 15.4546H5.69531C5.94922 15.4546 6.19531 15.3882 6.41797 15.2593C6.42578 15.2554 6.42969 15.2515 6.4375 15.2476C6.44531 15.2437 6.44922 15.2397 6.45703 15.2358C6.52734 15.1929 6.59375 15.146 6.65625 15.0913C6.66406 15.0952 6.67187 15.0913 6.67578 15.0835Z" fill="white"/>
</g>
<defs>
<clipPath id="clip0_1163_216574">
<rect width="20" height="20" fill="white" transform="translate(0 0.79834)"/>
</clipPath>
</defs>
</svg>
