<svg width="20" height="20" viewBox="0 0 20 20" fill="none" xmlns="http://www.w3.org/2000/svg">
<path d="M7.4237 17.2248C7.26536 17.2248 7.10703 17.1664 6.98203 17.0414C6.74036 16.7998 6.74036 16.3998 6.98203 16.1581L12.4154 10.7248C12.8154 10.3248 12.8154 9.67477 12.4154 9.27477L6.98203 3.84144C6.74036 3.59977 6.74036 3.19977 6.98203 2.95811C7.2237 2.71644 7.6237 2.71644 7.86536 2.95811L13.2987 8.39144C13.7237 8.81644 13.9654 9.39144 13.9654 9.99977C13.9654 10.6081 13.732 11.1831 13.2987 11.6081L7.86536 17.0414C7.74036 17.1581 7.58203 17.2248 7.4237 17.2248Z" fill="white"/>
</svg>
