<svg width="98" height="24" viewBox="0 0 98 24" fill="none" xmlns="http://www.w3.org/2000/svg">
<circle cx="12" cy="12" r="12" fill="#1678F2"/>
<path d="M38.006 17L35.85 13.192H34.926V17H32.966V7.228H36.634C37.39 7.228 38.034 7.36333 38.566 7.634C39.098 7.89533 39.4947 8.25467 39.756 8.712C40.0267 9.16 40.162 9.664 40.162 10.224C40.162 10.868 39.9753 11.4513 39.602 11.974C39.2287 12.4873 38.6733 12.842 37.936 13.038L40.274 17H38.006ZM34.926 11.722H36.564C37.096 11.722 37.4927 11.596 37.754 11.344C38.0153 11.0827 38.146 10.7233 38.146 10.266C38.146 9.818 38.0153 9.47267 37.754 9.23C37.4927 8.978 37.096 8.852 36.564 8.852H34.926V11.722ZM49.1448 12.954C49.1448 13.234 49.1261 13.486 49.0888 13.71H43.4188C43.4654 14.27 43.6614 14.7087 44.0068 15.026C44.3521 15.3433 44.7768 15.502 45.2808 15.502C46.0088 15.502 46.5268 15.1893 46.8348 14.564H48.9488C48.7248 15.3107 48.2954 15.9267 47.6608 16.412C47.0261 16.888 46.2468 17.126 45.3228 17.126C44.5761 17.126 43.9041 16.9627 43.3068 16.636C42.7188 16.3 42.2568 15.8287 41.9208 15.222C41.5941 14.6153 41.4307 13.9153 41.4307 13.122C41.4307 12.3193 41.5941 11.6147 41.9208 11.008C42.2474 10.4013 42.7048 9.93467 43.2928 9.608C43.8808 9.28133 44.5574 9.118 45.3228 9.118C46.0601 9.118 46.7181 9.27667 47.2968 9.594C47.8848 9.91133 48.3374 10.364 48.6548 10.952C48.9814 11.5307 49.1448 12.198 49.1448 12.954ZM47.1148 12.394C47.1054 11.89 46.9234 11.4887 46.5688 11.19C46.2141 10.882 45.7801 10.728 45.2668 10.728C44.7814 10.728 44.3708 10.8773 44.0348 11.176C43.7081 11.4653 43.5074 11.8713 43.4328 12.394H47.1148ZM53.5434 17.126C52.9087 17.126 52.3394 17.014 51.8354 16.79C51.3314 16.5567 50.93 16.244 50.6314 15.852C50.342 15.46 50.1834 15.026 50.1554 14.55H52.1294C52.1667 14.8487 52.3114 15.096 52.5634 15.292C52.8247 15.488 53.1467 15.586 53.5294 15.586C53.9027 15.586 54.192 15.5113 54.3974 15.362C54.612 15.2127 54.7194 15.0213 54.7194 14.788C54.7194 14.536 54.5887 14.3493 54.3274 14.228C54.0754 14.0973 53.6694 13.9573 53.1094 13.808C52.5307 13.668 52.0547 13.5233 51.6814 13.374C51.3174 13.2247 51 12.996 50.7294 12.688C50.468 12.38 50.3374 11.9647 50.3374 11.442C50.3374 11.0127 50.4587 10.6207 50.7014 10.266C50.9534 9.91133 51.308 9.63133 51.7654 9.426C52.232 9.22067 52.778 9.118 53.4034 9.118C54.3274 9.118 55.0647 9.35133 55.6154 9.818C56.166 10.2753 56.4694 10.896 56.5254 11.68H54.6494C54.6214 11.372 54.4907 11.1293 54.2574 10.952C54.0334 10.7653 53.73 10.672 53.3474 10.672C52.9927 10.672 52.7174 10.7373 52.5214 10.868C52.3347 10.9987 52.2414 11.1807 52.2414 11.414C52.2414 11.6753 52.372 11.876 52.6334 12.016C52.8947 12.1467 53.3007 12.282 53.8514 12.422C54.4114 12.562 54.8734 12.7067 55.2374 12.856C55.6014 13.0053 55.914 13.2387 56.1754 13.556C56.446 13.864 56.586 14.2747 56.5954 14.788C56.5954 15.236 56.4694 15.6373 56.2174 15.992C55.9747 16.3467 55.62 16.6267 55.1534 16.832C54.696 17.028 54.1594 17.126 53.5434 17.126ZM57.7003 13.094C57.7003 12.31 57.8543 11.6147 58.1623 11.008C58.4796 10.4013 58.9043 9.93467 59.4363 9.608C59.9776 9.28133 60.5796 9.118 61.2423 9.118C61.8209 9.118 62.3249 9.23467 62.7543 9.468C63.1929 9.70133 63.5429 9.99533 63.8043 10.35V9.244H65.7783V17H63.8043V15.866C63.5523 16.23 63.2023 16.5333 62.7543 16.776C62.3156 17.0093 61.8069 17.126 61.2283 17.126C60.5749 17.126 59.9776 16.958 59.4363 16.622C58.9043 16.286 58.4796 15.8147 58.1623 15.208C57.8543 14.592 57.7003 13.8873 57.7003 13.094ZM63.8043 13.122C63.8043 12.646 63.7109 12.24 63.5243 11.904C63.3376 11.5587 63.0856 11.2973 62.7683 11.12C62.4509 10.9333 62.1103 10.84 61.7463 10.84C61.3823 10.84 61.0463 10.9287 60.7383 11.106C60.4303 11.2833 60.1783 11.5447 59.9823 11.89C59.7956 12.226 59.7023 12.6273 59.7023 13.094C59.7023 13.5607 59.7956 13.9713 59.9823 14.326C60.1783 14.6713 60.4303 14.9373 60.7383 15.124C61.0556 15.3107 61.3916 15.404 61.7463 15.404C62.1103 15.404 62.4509 15.3153 62.7683 15.138C63.0856 14.9513 63.3376 14.69 63.5243 14.354C63.7109 14.0087 63.8043 13.598 63.8043 13.122ZM69.6526 6.64V17H67.6926V6.64H69.6526ZM71.085 13.094C71.085 12.31 71.239 11.6147 71.547 11.008C71.8644 10.4013 72.289 9.93467 72.821 9.608C73.3624 9.28133 73.9644 9.118 74.627 9.118C75.2057 9.118 75.7097 9.23467 76.139 9.468C76.5777 9.70133 76.9277 9.99533 77.189 10.35V9.244H79.163V17H77.189V15.866C76.937 16.23 76.587 16.5333 76.139 16.776C75.7004 17.0093 75.1917 17.126 74.613 17.126C73.9597 17.126 73.3624 16.958 72.821 16.622C72.289 16.286 71.8644 15.8147 71.547 15.208C71.239 14.592 71.085 13.8873 71.085 13.094ZM77.189 13.122C77.189 12.646 77.0957 12.24 76.909 11.904C76.7224 11.5587 76.4704 11.2973 76.153 11.12C75.8357 10.9333 75.495 10.84 75.131 10.84C74.767 10.84 74.431 10.9287 74.123 11.106C73.815 11.2833 73.563 11.5447 73.367 11.89C73.1804 12.226 73.087 12.6273 73.087 13.094C73.087 13.5607 73.1804 13.9713 73.367 14.326C73.563 14.6713 73.815 14.9373 74.123 15.124C74.4404 15.3107 74.7764 15.404 75.131 15.404C75.495 15.404 75.8357 15.3153 76.153 15.138C76.4704 14.9513 76.7224 14.69 76.909 14.354C77.0957 14.0087 77.189 13.598 77.189 13.122ZM81.9453 17.098C81.5907 17.098 81.2967 16.9907 81.0633 16.776C80.8393 16.552 80.7273 16.2767 80.7273 15.95C80.7273 15.6233 80.8393 15.3527 81.0633 15.138C81.2967 14.914 81.5907 14.802 81.9453 14.802C82.2907 14.802 82.5753 14.914 82.7993 15.138C83.0233 15.3527 83.1353 15.6233 83.1353 15.95C83.1353 16.2767 83.0233 16.552 82.7993 16.776C82.5753 16.9907 82.2907 17.098 81.9453 17.098ZM84.21 13.094C84.21 12.31 84.364 11.6147 84.672 11.008C84.9894 10.4013 85.414 9.93467 85.946 9.608C86.4874 9.28133 87.0894 9.118 87.752 9.118C88.3307 9.118 88.8347 9.23467 89.264 9.468C89.7027 9.70133 90.0527 9.99533 90.314 10.35V9.244H92.288V17H90.314V15.866C90.062 16.23 89.712 16.5333 89.264 16.776C88.8254 17.0093 88.3167 17.126 87.738 17.126C87.0847 17.126 86.4874 16.958 85.946 16.622C85.414 16.286 84.9894 15.8147 84.672 15.208C84.364 14.592 84.21 13.8873 84.21 13.094ZM90.314 13.122C90.314 12.646 90.2207 12.24 90.034 11.904C89.8474 11.5587 89.5954 11.2973 89.278 11.12C88.9607 10.9333 88.62 10.84 88.256 10.84C87.892 10.84 87.556 10.9287 87.248 11.106C86.94 11.2833 86.688 11.5447 86.492 11.89C86.3054 12.226 86.212 12.6273 86.212 13.094C86.212 13.5607 86.3054 13.9713 86.492 14.326C86.688 14.6713 86.94 14.9373 87.248 15.124C87.5654 15.3107 87.9014 15.404 88.256 15.404C88.62 15.404 88.9607 15.3153 89.278 15.138C89.5954 14.9513 89.8474 14.69 90.034 14.354C90.2207 14.0087 90.314 13.598 90.314 13.122ZM95.1963 8.32C94.851 8.32 94.5617 8.21267 94.3283 7.998C94.1043 7.774 93.9923 7.49867 93.9923 7.172C93.9923 6.84533 94.1043 6.57467 94.3283 6.36C94.5617 6.136 94.851 6.024 95.1963 6.024C95.5417 6.024 95.8263 6.136 96.0503 6.36C96.2837 6.57467 96.4003 6.84533 96.4003 7.172C96.4003 7.49867 96.2837 7.774 96.0503 7.998C95.8263 8.21267 95.5417 8.32 95.1963 8.32ZM96.1623 9.244V17H94.2023V9.244H96.1623Z" fill="#848182"/>
<g clip-path="url(#clip0_557_98400)">
<path d="M12 24C18.6274 24 24 18.6274 24 12C24 5.37258 18.6274 0 12 0C5.37258 0 0 5.37258 0 12C0 18.6274 5.37258 24 12 24Z" fill="#1779F2"/>
<path d="M13.8628 13.2012L13.0508 12.3892L12.2387 13.2012L13.0508 14.0133L13.8628 13.2012Z" fill="white"/>
<path d="M12.2397 13.2011L11.832 12.7935L11.4243 13.2011L11.832 13.6088L12.2397 13.2011Z" fill="white"/>
<path d="M19.3635 17.6952L18.3744 19.1108C16.1291 19.0405 15.6697 17.2593 15.2244 15.5343C14.9807 14.5921 14.7322 13.6452 14.1697 13.1999L14.2541 13.1765C15.5104 12.778 15.6932 11.8968 15.6932 11.0718C15.6932 9.55303 14.3057 8.44678 12.9463 7.56553L12.5385 7.30303L12.1354 7.05459C12.0791 7.02178 12.0229 6.98896 11.9713 6.95615C11.9338 6.93271 11.8963 6.90928 11.8588 6.88584C11.8213 6.8624 11.7838 6.83896 11.7463 6.81553C11.6057 6.70771 11.4604 6.60459 11.3057 6.49678C11.015 6.30459 10.7479 6.09365 10.5041 5.86396C10.1479 5.53584 9.96973 5.18896 9.96973 4.82803C9.96973 4.59365 10.0354 4.37803 10.1619 4.17646C10.2885 3.9749 10.4479 3.79209 10.6307 3.62334C10.6354 3.61865 10.64 3.61865 10.64 3.61396C10.8182 3.4499 11.001 3.29521 11.1885 3.14521C11.2916 3.06553 11.39 2.99053 11.4791 2.91553L11.4604 2.94834C11.3572 3.07021 11.2588 3.20146 11.1697 3.34678C11.076 3.49209 11.0338 3.64678 11.0338 3.81084C11.0338 4.06865 11.1979 4.34053 11.5213 4.62178C11.7697 4.84209 12.0697 5.07178 12.4307 5.3249C12.501 5.37646 12.5713 5.42334 12.6463 5.47959C12.8104 5.57803 12.9791 5.68115 13.1479 5.77959C13.1947 5.80771 13.2416 5.83584 13.2885 5.85928C13.3307 5.8874 13.3775 5.91084 13.415 5.93428C15.1729 6.96084 17.1604 8.12803 17.1604 10.1249C17.1604 11.7608 16.2416 12.7687 14.3479 13.1952C16.1244 13.5937 16.6494 14.6718 17.165 15.7171C17.6104 16.6265 18.0697 17.5593 19.3635 17.6952Z" fill="white"/>
<path d="M8.97187 18.4123L8.26875 19.1107L7.57031 18.4123L8.20312 17.7795V13.5279L7.89844 13.2186L8.20312 12.9139V8.76543L8.33438 8.50293V12.9139L8.63906 13.2186L8.33438 13.5279V17.7795L8.97187 18.4123Z" fill="white"/>
<path d="M10.9543 9.81562V13.9125C10.9543 13.95 10.9543 13.9828 10.9496 14.0203C10.7902 15.5438 9.84336 16.8328 8.52148 17.475V16.6453C8.57305 16.5703 8.61992 16.4953 8.66211 16.4156C8.6668 16.4109 8.67148 16.4062 8.67148 16.4016C8.73242 16.2891 8.79336 16.1766 8.84492 16.05C8.84492 16.0453 8.84961 16.0406 8.84961 16.0359C8.90586 15.9094 8.95742 15.7828 8.99961 15.6469C9.00898 15.6234 9.01367 15.6047 9.01836 15.5859C9.02773 15.5578 9.03242 15.5344 9.03711 15.5109C9.14023 15.1547 9.19648 14.7797 9.19648 14.3953C9.19648 14.3484 9.19648 14.3063 9.1918 14.2594V14.25L9.20117 14.0156C9.20586 13.9359 9.20586 13.8516 9.20586 13.7719V9.3375L9.30898 9.28125L10.5324 8.62031L10.9496 8.41406L10.9543 9.81562Z" fill="white"/>
<path d="M8.01035 17.6064V17.6158H8.00098C8.00566 17.6158 8.01035 17.6111 8.01035 17.6064Z" fill="white"/>
<path d="M8.01074 17.142V17.7279C8.00137 17.7326 7.99668 17.7373 7.9873 17.7467C7.9123 17.7982 7.82793 17.8451 7.74824 17.8873C7.73887 17.892 7.73418 17.8967 7.7248 17.8967C7.71543 17.9014 7.71074 17.9061 7.70137 17.9061C7.42949 18.0326 7.13418 18.1029 6.82012 18.1029C5.61543 18.1029 4.63574 17.0576 4.63574 15.7686C4.63574 15.3701 4.72949 14.9904 4.89824 14.6623C4.9123 14.6295 4.93105 14.6014 4.9498 14.5686C4.96855 14.5404 4.98262 14.5123 5.00137 14.4795C4.99199 14.5123 4.98262 14.5404 4.97324 14.5732C4.96387 14.6061 4.95449 14.6389 4.94512 14.6717C4.89824 14.8686 4.87012 15.0701 4.86543 15.2811C4.85137 16.542 5.72793 17.5779 6.81543 17.5873H6.83418C7.13887 17.5873 7.43418 17.5076 7.70137 17.3529C7.71074 17.3482 7.71543 17.3436 7.7248 17.3389C7.73418 17.3342 7.73887 17.3295 7.74824 17.3248C7.83262 17.2732 7.9123 17.217 7.9873 17.1514C7.99668 17.1561 8.00605 17.1514 8.01074 17.142Z" fill="white"/>
</g>
<defs>
<clipPath id="clip0_557_98400">
<rect width="24" height="24" fill="white"/>
</clipPath>
</defs>
</svg>
