<svg width="14" height="14" viewBox="0 0 14 14" fill="none" xmlns="http://www.w3.org/2000/svg">
<g id="Iconsax/Linear/setting2">
<path id="Vector" d="M7 8.75C7.46413 8.75 7.90925 8.56563 8.23744 8.23744C8.56563 7.90925 8.75 7.46413 8.75 7C8.75 6.53587 8.56563 6.09075 8.23744 5.76256C7.90925 5.43437 7.46413 5.25 7 5.25C6.53587 5.25 6.09075 5.43437 5.76256 5.76256C5.43437 6.09075 5.25 6.53587 5.25 7C5.25 7.46413 5.43437 7.90925 5.76256 8.23744C6.09075 8.56563 6.53587 8.75 7 8.75Z" stroke="#6D77A0" stroke-width="0.875" stroke-miterlimit="10" stroke-linecap="round" stroke-linejoin="round"/>
<path id="Vector_2" d="M1.16684 7.5135V6.48683C1.16684 5.88017 1.66267 5.3785 2.27517 5.3785C3.33101 5.3785 3.76267 4.63183 3.23184 3.716C2.92851 3.191 3.10934 2.5085 3.64017 2.20517L4.64934 1.62767C5.11017 1.3535 5.70517 1.51683 5.97934 1.97767L6.04351 2.0885C6.56851 3.00433 7.43184 3.00433 7.96267 2.0885L8.02684 1.97767C8.30101 1.51683 8.89601 1.3535 9.35684 1.62767L10.366 2.20517C10.8968 2.5085 11.0777 3.191 10.7743 3.716C10.2435 4.63183 10.6752 5.3785 11.731 5.3785C12.3377 5.3785 12.8393 5.87433 12.8393 6.48683V7.5135C12.8393 8.12017 12.3435 8.62183 11.731 8.62183C10.6752 8.62183 10.2435 9.3685 10.7743 10.2843C11.0777 10.8152 10.8968 11.4918 10.366 11.7952L9.35684 12.3727C8.89601 12.6468 8.30101 12.4835 8.02684 12.0227L7.96267 11.9118C7.43767 10.996 6.57434 10.996 6.04351 11.9118L5.97934 12.0227C5.70517 12.4835 5.11017 12.6468 4.64934 12.3727L3.64017 11.7952C3.3859 11.6488 3.2001 11.4075 3.12354 11.1242C3.04699 10.841 3.08594 10.5389 3.23184 10.2843C3.76267 9.3685 3.33101 8.62183 2.27517 8.62183C1.66267 8.62183 1.16684 8.12017 1.16684 7.5135Z" stroke="#6D77A0" stroke-width="0.875" stroke-miterlimit="10" stroke-linecap="round" stroke-linejoin="round"/>
</g>
</svg>
