<svg width="24" height="24" viewBox="0 0 40 40" fill="none" xmlns="http://www.w3.org/2000/svg">
<path d="M0 20C0 8.95431 8.95431 0 20 0C31.0457 0 40 8.95431 40 20V40H20C8.95431 40 0 31.0457 0 20Z" fill="#1678F2"/>
<g clip-path="url(#clip0_707_85192)">
<path d="M20 36C28.8366 36 36 28.8366 36 20C36 11.1634 28.8366 4 20 4C11.1634 4 4 11.1634 4 20C4 28.8366 11.1634 36 20 36Z" fill="white"/>
<path d="M22.4848 21.6023L21.402 20.5195L20.3193 21.6023L21.402 22.685L22.4848 21.6023Z" fill="#1779F2"/>
<path d="M20.3207 21.6022L19.7771 21.0586L19.2335 21.6022L19.7771 22.1458L20.3207 21.6022Z" fill="#1779F2"/>
<path d="M29.8187 27.5939L28.5 29.4814C25.5062 29.3877 24.8937 27.0127 24.3 24.7127C23.975 23.4564 23.6437 22.1939 22.8937 21.6002L23.0062 21.5689C24.6812 21.0377 24.925 19.8627 24.925 18.7627C24.925 16.7377 23.075 15.2627 21.2625 14.0877L20.7187 13.7377L20.1812 13.4064C20.1062 13.3627 20.0312 13.3189 19.9625 13.2752C19.9125 13.2439 19.8625 13.2127 19.8125 13.1814C19.7625 13.1502 19.7125 13.1189 19.6625 13.0877C19.475 12.9439 19.2812 12.8064 19.075 12.6627C18.6875 12.4064 18.3312 12.1252 18.0062 11.8189C17.5312 11.3814 17.2937 10.9189 17.2937 10.4377C17.2937 10.1252 17.3812 9.8377 17.55 9.56895C17.7187 9.3002 17.9312 9.05645 18.175 8.83145C18.1812 8.8252 18.1875 8.8252 18.1875 8.81895C18.425 8.6002 18.6687 8.39395 18.9187 8.19395C19.0562 8.0877 19.1875 7.9877 19.3062 7.8877L19.2812 7.93145C19.1437 8.09395 19.0125 8.26895 18.8937 8.4627C18.7687 8.65645 18.7125 8.8627 18.7125 9.08145C18.7125 9.4252 18.9312 9.7877 19.3625 10.1627C19.6937 10.4564 20.0937 10.7627 20.575 11.1002C20.6687 11.1689 20.7625 11.2314 20.8625 11.3064C21.0812 11.4377 21.3062 11.5752 21.5312 11.7064C21.5937 11.7439 21.6562 11.7814 21.7187 11.8127C21.775 11.8502 21.8375 11.8814 21.8875 11.9127C24.2312 13.2814 26.8812 14.8377 26.8812 17.5002C26.8812 19.6814 25.6562 21.0252 23.1312 21.5939C25.5 22.1252 26.2 23.5627 26.8875 24.9564C27.4812 26.1689 28.0937 27.4127 29.8187 27.5939Z" fill="#1779F2"/>
<path d="M15.9625 28.5504L15.025 29.4816L14.0938 28.5504L14.9375 27.7066V22.0379L14.5313 21.6254L14.9375 21.2191V15.6879L15.1125 15.3379V21.2191L15.5188 21.6254L15.1125 22.0379V27.7066L15.9625 28.5504Z" fill="#1779F2"/>
<path d="M18.6062 17.0875V22.55C18.6062 22.6 18.6062 22.6437 18.6 22.6937C18.3875 24.725 17.125 26.4437 15.3625 27.3V26.1937C15.4312 26.0937 15.4937 25.9937 15.55 25.8875C15.5562 25.8812 15.5625 25.875 15.5625 25.8687C15.6437 25.7187 15.725 25.5687 15.7937 25.4C15.7937 25.3937 15.8 25.3875 15.8 25.3812C15.875 25.2125 15.9437 25.0437 16 24.8625C16.0125 24.8312 16.0187 24.8062 16.025 24.7812C16.0375 24.7437 16.0437 24.7125 16.05 24.6812C16.1875 24.2062 16.2625 23.7062 16.2625 23.1937C16.2625 23.1312 16.2625 23.075 16.2562 23.0125V23L16.2687 22.6875C16.275 22.5812 16.275 22.4687 16.275 22.3625V16.45L16.4125 16.375L18.0437 15.4937L18.6 15.2188L18.6062 17.0875Z" fill="#1779F2"/>
<path d="M14.6781 27.4746V27.484H14.6687C14.6734 27.484 14.6781 27.4793 14.6781 27.4746Z" fill="#1779F2"/>
<path d="M14.6812 26.8566V27.6379C14.6687 27.6441 14.6625 27.6504 14.65 27.6629C14.55 27.7316 14.4375 27.7941 14.3312 27.8504C14.3187 27.8566 14.3125 27.8629 14.3 27.8629C14.2875 27.8691 14.2812 27.8754 14.2687 27.8754C13.9062 28.0441 13.5125 28.1379 13.0937 28.1379C11.4875 28.1379 10.1812 26.7441 10.1812 25.0254C10.1812 24.4941 10.3062 23.9879 10.5312 23.5504C10.55 23.5066 10.575 23.4691 10.6 23.4254C10.625 23.3879 10.6437 23.3504 10.6687 23.3066C10.6562 23.3504 10.6437 23.3879 10.6312 23.4316C10.6187 23.4754 10.6062 23.5191 10.5937 23.5629C10.5312 23.8254 10.4937 24.0941 10.4875 24.3754C10.4687 26.0566 11.6375 27.4379 13.0875 27.4504H13.1125C13.5187 27.4504 13.9125 27.3441 14.2687 27.1379C14.2812 27.1316 14.2875 27.1254 14.3 27.1191C14.3125 27.1129 14.3187 27.1066 14.3312 27.1004C14.4437 27.0316 14.55 26.9566 14.65 26.8691C14.6625 26.8754 14.675 26.8691 14.6812 26.8566Z" fill="#1779F2"/>
</g>
<defs>
<clipPath id="clip0_707_85192">
<rect width="32" height="32" fill="white" transform="translate(4 4)"/>
</clipPath>
</defs>
</svg>
