<svg width="22" height="22" viewBox="0 0 22 22" fill="none" xmlns="http://www.w3.org/2000/svg">
<path d="M7.79159 17.4167H7.33325C3.66659 17.4167 1.83325 16.5 1.83325 11.9167V7.33337C1.83325 3.66671 3.66659 1.83337 7.33325 1.83337H14.6666C18.3333 1.83337 20.1666 3.66671 20.1666 7.33337V11.9167C20.1666 15.5834 18.3333 17.4167 14.6666 17.4167H14.2083C13.9241 17.4167 13.6491 17.5542 13.4749 17.7834L12.0999 19.6167C11.4949 20.4234 10.5049 20.4234 9.89992 19.6167L8.52492 17.7834C8.37825 17.5817 8.03909 17.4167 7.79159 17.4167Z" stroke="white" stroke-width="1.375" stroke-miterlimit="10" stroke-linecap="round" stroke-linejoin="round"/>
<path d="M14.6629 10.0834H14.672M10.9953 10.0834H11.0044M7.32861 10.0834H7.33595" stroke="white" stroke-width="1.83333" stroke-linecap="round" stroke-linejoin="round"/>
</svg>
