<svg width="20" height="20" viewBox="0 0 20 20" fill="none" xmlns="http://www.w3.org/2000/svg">
<path d="M16.6003 12.6667C16.5826 12.6667 16.5671 12.6634 16.5537 12.6581C16.5409 12.6529 16.5268 12.6444 16.5121 12.6298L11.0788 7.19643C10.4836 6.60117 9.51697 6.60117 8.92171 7.19643L3.48837 12.6298C3.46685 12.6513 3.43611 12.6646 3.40026 12.6646C3.36441 12.6646 3.33367 12.6513 3.31215 12.6298C3.29062 12.6082 3.27734 12.5775 3.27734 12.5417C3.27734 12.5058 3.29062 12.4751 3.31215 12.4535L2.95859 12.1L3.31215 12.4535L8.74548 7.0202C9.43237 6.33331 10.5581 6.33067 11.2559 7.02104C11.2562 7.02132 11.2564 7.02159 11.2567 7.02186L16.6884 12.4535C16.7099 12.4751 16.7232 12.5058 16.7232 12.5417C16.7232 12.5746 16.712 12.6033 16.6934 12.6244C16.6535 12.6587 16.6174 12.6667 16.6003 12.6667Z" fill="#19224C" stroke="#19224C"/>
</svg>
