<svg width="11" height="11" viewBox="0 0 11 11" fill="none" xmlns="http://www.w3.org/2000/svg">
<g clip-path="url(#clip0_58_30697)">
<path d="M1.83595 3.99C1.84181 3.99 1.84637 3.99106 1.84987 3.99247C1.85308 3.99376 1.85726 3.99608 1.86232 4.00114L4.79631 6.93512C5.12946 7.26828 5.67041 7.26828 6.00356 6.93512L8.93755 4.00114C8.94322 3.99547 8.95203 3.99113 8.96392 3.99113C8.97581 3.99113 8.98462 3.99547 8.99029 4.00114C8.99595 4.0068 9.00029 4.01562 9.00029 4.0275C9.00029 4.03939 8.99595 4.04821 8.99029 4.05387L6.0563 6.98786C5.69715 7.34701 5.10817 7.34858 4.74301 6.9873C4.74287 6.98716 4.74272 6.98701 4.74257 6.98687L1.80958 4.05387C1.80392 4.04821 1.79958 4.03939 1.79958 4.0275C1.79958 4.01751 1.80265 4.00968 1.807 4.00407C1.8228 3.99113 1.83467 3.99 1.83595 3.99Z" fill="#19224C" stroke="#19224C" stroke-width="0.599997"/>
</g>
<defs>
<clipPath id="clip0_58_30697">
<rect width="10.8" height="10.8" fill="white" transform="translate(10.7999 10.7999) rotate(-180)"/>
</clipPath>
</defs>
</svg>
