<svg width="12" height="12" viewBox="0 0 24 24" fill="none" xmlns="http://www.w3.org/2000/svg">
<path d="M7.46475 17.6258L7.46318 17.6249C7.18089 17.4501 6.86064 17.35 6.52 17.35H5.06C3.91889 17.35 3.11034 17.0382 2.58605 16.5139C2.06177 15.9897 1.75 15.1811 1.75 14.04V9.96C1.75 8.81889 2.06177 8.01033 2.58605 7.48605C3.11034 6.96177 3.91889 6.65 5.06 6.65H6.52C6.85317 6.65 7.1865 6.55392 7.4683 6.37194L10.4447 4.51416C11.8439 3.64089 13.081 3.54709 14.0052 4.066L14.0082 4.06762C14.9329 4.57868 15.51 5.67757 15.51 7.33V16.69C15.51 18.3282 14.9257 19.4385 14.0106 19.951C13.639 20.1483 13.222 20.25 12.76 20.25C12.0665 20.25 11.2872 20.01 10.4443 19.4855C10.4442 19.4855 10.4442 19.4855 10.4442 19.4855L7.46475 17.6258ZM13.7675 19.5L13.7675 19.5L13.7728 19.4971C14.6437 19.0132 15.02 17.9025 15.02 16.68V7.32C15.02 6.09261 14.6463 4.97615 13.7702 4.50145C12.8975 4.01845 11.7547 4.29511 10.7155 4.9457C10.7152 4.94588 10.7149 4.94606 10.7146 4.94624L7.73628 6.7952L7.73585 6.79547C7.36198 7.0281 6.94299 7.15 6.52 7.15H5.06C4.19299 7.15 3.45525 7.33264 2.94395 7.84394C2.43265 8.35524 2.25 9.09299 2.25 9.96V14.04C2.25 14.907 2.43265 15.6447 2.94395 16.156C3.45525 16.6674 4.19299 16.85 5.06 16.85H6.52C6.94207 16.85 7.36251 16.9714 7.73915 17.1966L10.7146 19.0538C10.7147 19.0538 10.7148 19.0539 10.7149 19.0539C11.7608 19.7089 12.8996 19.9684 13.7675 19.5Z" fill="#19224C" stroke="#19224C"/>
<path d="M22 12.25H18C17.8661 12.25 17.75 12.1339 17.75 12C17.75 11.8661 17.8661 11.75 18 11.75H22C22.1339 11.75 22.25 11.8661 22.25 12C22.25 12.1339 22.1339 12.25 22 12.25Z" fill="#19224C" stroke="#19224C"/>
<path d="M20 14.75C19.59 14.75 19.25 14.41 19.25 14V10C19.25 9.59 19.59 9.25 20 9.25C20.41 9.25 20.75 9.59 20.75 10V14C20.75 14.41 20.41 14.75 20 14.75Z" fill="#19224C"/>
</svg>
