<svg width="12" height="12" viewBox="0 0 12 12" fill="none" xmlns="http://www.w3.org/2000/svg">
<mask id="path-1-inside-1_278_1691" fill="white">
<path d="M2.49994 10.9349C2.12994 10.9349 1.76494 10.7949 1.48494 10.5149C1.21494 10.2449 1.06494 9.88494 1.06494 9.49994C1.06494 9.11494 1.21494 8.75494 1.48494 8.48494L7.98494 1.98494C8.54494 1.42494 9.45494 1.42494 10.0149 1.98494C10.2849 2.25494 10.4349 2.61494 10.4349 2.99994C10.4349 3.38494 10.2849 3.74494 10.0149 4.01494L3.51494 10.5149C3.23494 10.7949 2.86994 10.9349 2.49994 10.9349ZM8.99994 2.31494C8.82494 2.31494 8.64994 2.37994 8.51494 2.51494L2.01494 9.01494C1.88494 9.14494 1.81494 9.31494 1.81494 9.49994C1.81494 9.68494 1.88494 9.85494 2.01494 9.98494C2.27994 10.2499 2.71994 10.2499 2.98494 9.98494L9.48494 3.48494C9.61494 3.35494 9.68494 3.18494 9.68494 2.99994C9.68494 2.81494 9.61494 2.64494 9.48494 2.51494C9.34994 2.37994 9.17494 2.31494 8.99994 2.31494Z"/>
</mask>
<path d="M2.49994 10.9349C2.12994 10.9349 1.76494 10.7949 1.48494 10.5149C1.21494 10.2449 1.06494 9.88494 1.06494 9.49994C1.06494 9.11494 1.21494 8.75494 1.48494 8.48494L7.98494 1.98494C8.54494 1.42494 9.45494 1.42494 10.0149 1.98494C10.2849 2.25494 10.4349 2.61494 10.4349 2.99994C10.4349 3.38494 10.2849 3.74494 10.0149 4.01494L3.51494 10.5149C3.23494 10.7949 2.86994 10.9349 2.49994 10.9349ZM8.99994 2.31494C8.82494 2.31494 8.64994 2.37994 8.51494 2.51494L2.01494 9.01494C1.88494 9.14494 1.81494 9.31494 1.81494 9.49994C1.81494 9.68494 1.88494 9.85494 2.01494 9.98494C2.27994 10.2499 2.71994 10.2499 2.98494 9.98494L9.48494 3.48494C9.61494 3.35494 9.68494 3.18494 9.68494 2.99994C9.68494 2.81494 9.61494 2.64494 9.48494 2.51494C9.34994 2.37994 9.17494 2.31494 8.99994 2.31494Z" fill="#19224C"/>
<path d="M1.48494 8.48494L0.777835 7.77783L1.48494 8.48494ZM7.98494 1.98494L8.69205 2.69205L7.98494 1.98494ZM10.0149 4.01494L9.30784 3.30783L10.0149 4.01494ZM3.51494 10.5149L4.22205 11.222L3.51494 10.5149ZM8.51494 2.51494L9.22205 3.22205L8.51494 2.51494ZM2.01494 9.01494L1.30783 8.30784L2.01494 9.01494ZM2.49994 9.93494C2.38467 9.93494 2.27722 9.89301 2.19205 9.80784L0.777835 11.222C1.25266 11.6969 1.87521 11.9349 2.49994 11.9349V9.93494ZM2.19205 9.80784C2.1093 9.72508 2.06494 9.61932 2.06494 9.49994H0.0649414C0.0649414 10.1506 0.320587 10.7648 0.777835 11.222L2.19205 9.80784ZM2.06494 9.49994C2.06494 9.38057 2.1093 9.2748 2.19205 9.19205L0.777835 7.77783C0.320587 8.23508 0.0649414 8.84932 0.0649414 9.49994H2.06494ZM2.19205 9.19205L8.69205 2.69205L7.27783 1.27783L0.777835 7.77783L2.19205 9.19205ZM8.69205 2.69205C8.86152 2.52257 9.13836 2.52257 9.30784 2.69205L10.722 1.27783C9.77152 0.32731 8.22836 0.32731 7.27783 1.27783L8.69205 2.69205ZM9.30784 2.69205C9.39059 2.7748 9.43494 2.88057 9.43494 2.99994H11.4349C11.4349 2.34932 11.1793 1.73508 10.722 1.27783L9.30784 2.69205ZM9.43494 2.99994C9.43494 3.11932 9.39059 3.22508 9.30784 3.30783L10.722 4.72205C11.1793 4.2648 11.4349 3.65057 11.4349 2.99994H9.43494ZM9.30784 3.30783L2.80783 9.80784L4.22205 11.222L10.722 4.72205L9.30784 3.30783ZM2.80783 9.80784C2.72266 9.89301 2.61521 9.93494 2.49994 9.93494V11.9349C3.12467 11.9349 3.74722 11.6969 4.22205 11.222L2.80783 9.80784ZM8.99994 1.31494C8.57564 1.31494 8.14134 1.47433 7.80784 1.80783L9.22205 3.22205C9.15855 3.28555 9.07424 3.31494 8.99994 3.31494V1.31494ZM7.80784 1.80783L1.30783 8.30784L2.72205 9.72205L9.22205 3.22205L7.80784 1.80783ZM1.30783 8.30784C0.988559 8.62711 0.814941 9.05219 0.814941 9.49994H2.81494C2.81494 9.53471 2.80811 9.57574 2.79072 9.61792C2.7733 9.66018 2.74862 9.69547 2.72205 9.72205L1.30783 8.30784ZM0.814941 9.49994C0.814941 9.94769 0.988559 10.3728 1.30783 10.692L2.72205 9.27783C2.74862 9.30441 2.7733 9.3397 2.79072 9.38196C2.80811 9.42414 2.81494 9.46517 2.81494 9.49994H0.814941ZM1.30783 10.692C1.96336 11.3476 3.03652 11.3476 3.69205 10.692L2.27783 9.27783C2.40336 9.15231 2.59652 9.15231 2.72205 9.27783L1.30783 10.692ZM3.69205 10.692L10.192 4.19205L8.77783 2.77783L2.27783 9.27783L3.69205 10.692ZM10.192 4.19205C10.5113 3.87277 10.6849 3.44769 10.6849 2.99994H8.68494C8.68494 2.96517 8.69177 2.92414 8.70916 2.88196C8.72658 2.8397 8.75126 2.80441 8.77783 2.77783L10.192 4.19205ZM10.6849 2.99994C10.6849 2.55219 10.5113 2.12711 10.192 1.80783L8.77783 3.22205C8.75126 3.19547 8.72658 3.16018 8.70916 3.11792C8.69177 3.07574 8.68494 3.03471 8.68494 2.99994H10.6849ZM10.192 1.80783C9.85855 1.47433 9.42424 1.31494 8.99994 1.31494V3.31494C8.92564 3.31494 8.84134 3.28555 8.77783 3.22205L10.192 1.80783Z" fill="#19224C" mask="url(#path-1-inside-1_278_1691)"/>
<mask id="path-3-inside-2_278_1691" fill="white">
<path d="M9.00498 4.86997C8.90998 4.86997 8.81498 4.83497 8.73998 4.75997L7.23998 3.25997C7.09498 3.11497 7.09498 2.87497 7.23998 2.72997C7.38498 2.58497 7.62498 2.58497 7.76998 2.72997L9.26998 4.22997C9.41498 4.37497 9.41498 4.61497 9.26998 4.75997C9.19498 4.83497 9.09998 4.86997 9.00498 4.86997Z"/>
</mask>
<path d="M9.00498 4.86997C8.90998 4.86997 8.81498 4.83497 8.73998 4.75997L7.23998 3.25997C7.09498 3.11497 7.09498 2.87497 7.23998 2.72997C7.38498 2.58497 7.62498 2.58497 7.76998 2.72997L9.26998 4.22997C9.41498 4.37497 9.41498 4.61497 9.26998 4.75997C9.19498 4.83497 9.09998 4.86997 9.00498 4.86997Z" fill="#19224C"/>
<path d="M8.73998 4.75997L8.03287 5.46707H8.03287L8.73998 4.75997ZM7.23998 3.25997L7.94708 2.55286L7.94708 2.55286L7.23998 3.25997ZM7.76998 2.72997L7.06287 3.43707L7.06287 3.43707L7.76998 2.72997ZM9.26998 4.22997L9.97708 3.52286L9.97708 3.52286L9.26998 4.22997ZM9.00498 3.86997C9.16088 3.86997 9.32466 3.93044 9.44708 4.05286L8.03287 5.46707C8.30529 5.73949 8.65907 5.86997 9.00498 5.86997V3.86997ZM9.44708 4.05286L7.94708 2.55286L6.53287 3.96707L8.03287 5.46707L9.44708 4.05286ZM7.94708 2.55286C8.19261 2.79838 8.19261 3.19155 7.94708 3.43707L6.53287 2.02286C5.99734 2.55838 5.99734 3.43155 6.53287 3.96707L7.94708 2.55286ZM7.94708 3.43707C7.70156 3.6826 7.30839 3.6826 7.06287 3.43707L8.47708 2.02286C7.94156 1.48733 7.06839 1.48733 6.53287 2.02286L7.94708 3.43707ZM7.06287 3.43707L8.56287 4.93707L9.97708 3.52286L8.47708 2.02286L7.06287 3.43707ZM8.56287 4.93707C8.31735 4.69155 8.31735 4.29838 8.56287 4.05286L9.97708 5.46707C10.5126 4.93155 10.5126 4.05838 9.97708 3.52286L8.56287 4.93707ZM8.56287 4.05286C8.68529 3.93044 8.84907 3.86997 9.00498 3.86997V5.86997C9.35088 5.86997 9.70466 5.73949 9.97708 5.46707L8.56287 4.05286Z" fill="#19224C" mask="url(#path-3-inside-2_278_1691)"/>
<mask id="path-5-inside-3_278_1691" fill="white">
<path d="M5.00003 2.75003C4.97503 2.75003 4.95503 2.74503 4.93003 2.74003L4.25003 2.54003L3.57003 2.74003C3.48003 2.76503 3.38503 2.74003 3.32503 2.67503C3.26003 2.61003 3.23503 2.52003 3.26003 2.43003L3.46003 1.75003L3.26003 1.07003C3.23503 0.980026 3.26003 0.885026 3.32503 0.825026C3.39003 0.760026 3.48503 0.735026 3.57003 0.760026L4.25003 0.960026L4.93003 0.760026C5.02003 0.735026 5.11003 0.760026 5.17503 0.825026C5.24003 0.890026 5.26503 0.985026 5.24003 1.07003L5.04003 1.75003L5.24003 2.43003C5.26503 2.52003 5.24003 2.61503 5.17503 2.67503C5.13003 2.72503 5.06503 2.75003 5.00003 2.75003ZM4.25003 2.03003C4.27503 2.03003 4.29503 2.03503 4.32003 2.04003L4.63003 2.13003L4.54003 1.82003C4.52503 1.77503 4.52503 1.72503 4.54003 1.68003L4.63003 1.37003L4.32003 1.46003C4.27503 1.47503 4.22503 1.47503 4.18003 1.46003L3.87003 1.37003L3.96003 1.68003C3.97503 1.72503 3.97503 1.77503 3.96003 1.82003L3.87003 2.13003L4.18003 2.04003C4.20503 2.03503 4.22503 2.03003 4.25003 2.03003Z"/>
</mask>
<path d="M5.00003 2.75003C4.97503 2.75003 4.95503 2.74503 4.93003 2.74003L4.25003 2.54003L3.57003 2.74003C3.48003 2.76503 3.38503 2.74003 3.32503 2.67503C3.26003 2.61003 3.23503 2.52003 3.26003 2.43003L3.46003 1.75003L3.26003 1.07003C3.23503 0.980026 3.26003 0.885026 3.32503 0.825026C3.39003 0.760026 3.48503 0.735026 3.57003 0.760026L4.25003 0.960026L4.93003 0.760026C5.02003 0.735026 5.11003 0.760026 5.17503 0.825026C5.24003 0.890026 5.26503 0.985026 5.24003 1.07003L5.04003 1.75003L5.24003 2.43003C5.26503 2.52003 5.24003 2.61503 5.17503 2.67503C5.13003 2.72503 5.06503 2.75003 5.00003 2.75003ZM4.25003 2.03003C4.27503 2.03003 4.29503 2.03503 4.32003 2.04003L4.63003 2.13003L4.54003 1.82003C4.52503 1.77503 4.52503 1.72503 4.54003 1.68003L4.63003 1.37003L4.32003 1.46003C4.27503 1.47503 4.22503 1.47503 4.18003 1.46003L3.87003 1.37003L3.96003 1.68003C3.97503 1.72503 3.97503 1.77503 3.96003 1.82003L3.87003 2.13003L4.18003 2.04003C4.20503 2.03503 4.22503 2.03003 4.25003 2.03003Z" fill="#19224C"/>
<path d="M4.93003 2.74003L4.64786 3.69939L4.69041 3.71191L4.73391 3.72061L4.93003 2.74003ZM4.25003 2.54003L4.53219 1.58066L4.25003 1.49767L3.96786 1.58066L4.25003 2.54003ZM3.57003 2.74003L3.83767 3.70354L3.84495 3.70152L3.85219 3.69939L3.57003 2.74003ZM3.32503 2.67503L4.05983 1.99675L4.04627 1.98206L4.03213 1.96792L3.32503 2.67503ZM3.26003 2.43003L2.30066 2.14786L2.29853 2.1551L2.29651 2.16238L3.26003 2.43003ZM3.46003 1.75003L4.41939 2.03219L4.50238 1.75003L4.41939 1.46786L3.46003 1.75003ZM3.26003 1.07003L2.29651 1.33767L2.29853 1.34495L2.30066 1.35219L3.26003 1.07003ZM3.32503 0.825026L4.00331 1.55983L4.018 1.54627L4.03213 1.53213L3.32503 0.825026ZM3.57003 0.760026L3.28786 1.71939H3.28786L3.57003 0.760026ZM4.25003 0.960026L3.96786 1.91939L4.25003 2.00238L4.53219 1.91939L4.25003 0.960026ZM4.93003 0.760026L4.66238 -0.203492L4.6551 -0.201471L4.64786 -0.19934L4.93003 0.760026ZM5.24003 1.07003L4.28066 0.787859L4.28066 0.78786L5.24003 1.07003ZM5.04003 1.75003L4.08066 1.46786L3.99767 1.75003L4.08066 2.03219L5.04003 1.75003ZM5.24003 2.43003L6.20354 2.16238L6.20152 2.15511L6.19939 2.14786L5.24003 2.43003ZM5.17503 2.67503L4.49675 1.94022L4.46271 1.97164L4.43173 2.00606L5.17503 2.67503ZM4.32003 2.04003L4.59884 1.07968L4.55792 1.0678L4.51614 1.05945L4.32003 2.04003ZM4.63003 2.13003L4.35122 3.09037L6.0973 3.5973L5.59037 1.85122L4.63003 2.13003ZM4.54003 1.82003L5.50037 1.54122L5.49491 1.52239L5.48871 1.5038L4.54003 1.82003ZM4.54003 1.68003L5.48871 1.99625L5.49491 1.97766L5.50037 1.95884L4.54003 1.68003ZM4.63003 1.37003L5.59037 1.64884L6.0973 -0.0972487L4.35122 0.40968L4.63003 1.37003ZM4.32003 1.46003L4.04122 0.49968L4.02239 0.505144L4.0038 0.511342L4.32003 1.46003ZM4.18003 1.46003L4.49625 0.511342L4.47766 0.505144L4.45884 0.49968L4.18003 1.46003ZM3.87003 1.37003L4.14884 0.40968L2.40275 -0.0972487L2.90968 1.64884L3.87003 1.37003ZM3.96003 1.68003L2.99968 1.95884L3.00514 1.97766L3.01134 1.99625L3.96003 1.68003ZM3.96003 1.82003L3.01134 1.5038L3.00514 1.52239L2.99968 1.54122L3.96003 1.82003ZM3.87003 2.13003L2.90968 1.85122L2.40275 3.5973L4.14884 3.09037L3.87003 2.13003ZM4.18003 2.04003L3.98391 1.05945L3.94213 1.0678L3.90121 1.07968L4.18003 2.04003ZM5.00003 1.75003C5.0572 1.75003 5.10293 1.75609 5.12942 1.76051C5.14076 1.7624 5.14829 1.76396 5.14666 1.76363C5.1457 1.76344 5.1449 1.76327 5.14084 1.76243C5.13758 1.76176 5.1322 1.76066 5.12614 1.75945L4.73391 3.72061C4.73391 3.72061 4.73397 3.72062 4.73412 3.72065C4.73426 3.72068 4.73447 3.72072 4.73477 3.72078C4.73542 3.72091 4.73623 3.72108 4.73753 3.72135C4.73945 3.72174 4.74451 3.72279 4.74933 3.72377C4.75926 3.72578 4.77805 3.72953 4.80063 3.73329C4.84962 3.74146 4.91785 3.75003 5.00003 3.75003V1.75003ZM5.21219 1.78066L4.53219 1.58066L3.96786 3.49939L4.64786 3.69939L5.21219 1.78066ZM3.96786 1.58066L3.28786 1.78066L3.85219 3.69939L4.53219 3.49939L3.96786 1.58066ZM3.30238 1.77651C3.5454 1.709 3.84631 1.76543 4.05983 1.99675L2.59022 3.35331C2.92374 3.71462 3.41465 3.82105 3.83767 3.70354L3.30238 1.77651ZM4.03213 1.96792C4.21633 2.15212 4.29719 2.43254 4.22354 2.69767L2.29651 2.16238C2.17286 2.60751 2.30372 3.06793 2.61792 3.38213L4.03213 1.96792ZM4.21939 2.71219L4.41939 2.03219L2.50066 1.46786L2.30066 2.14786L4.21939 2.71219ZM4.41939 1.46786L4.21939 0.787859L2.30066 1.35219L2.50066 2.03219L4.41939 1.46786ZM4.22354 0.802382C4.29105 1.0454 4.23462 1.34631 4.00331 1.55983L2.64675 0.0902222C2.28543 0.42374 2.179 0.91465 2.29651 1.33767L4.22354 0.802382ZM4.03213 1.53213C3.84842 1.71584 3.56736 1.8016 3.28786 1.71939L3.85219 -0.19934C3.40269 -0.331547 2.93163 -0.195792 2.61792 0.117919L4.03213 1.53213ZM3.28786 1.71939L3.96786 1.91939L4.53219 0.000660181L3.85219 -0.19934L3.28786 1.71939ZM4.53219 1.91939L5.21219 1.71939L4.64786 -0.19934L3.96786 0.000660181L4.53219 1.91939ZM5.19767 1.72354C4.93254 1.79719 4.65212 1.71633 4.46792 1.53213L5.88213 0.117919C5.56793 -0.19628 5.10751 -0.32714 4.66238 -0.203492L5.19767 1.72354ZM4.46792 1.53213C4.28421 1.34842 4.19845 1.06736 4.28066 0.787859L6.19939 1.35219C6.3316 0.902692 6.19585 0.431632 5.88213 0.117919L4.46792 1.53213ZM4.28066 0.78786L4.08066 1.46786L5.99939 2.03219L6.19939 1.35219L4.28066 0.78786ZM4.08066 2.03219L4.28066 2.71219L6.19939 2.14786L5.99939 1.46786L4.08066 2.03219ZM4.27651 2.69767C4.209 2.45465 4.26543 2.15374 4.49675 1.94022L5.85331 3.40983C6.21462 3.07631 6.32105 2.5854 6.20354 2.16238L4.27651 2.69767ZM4.43173 2.00606C4.59936 1.81981 4.81782 1.75003 5.00003 1.75003V3.75003C5.31223 3.75003 5.66069 3.63024 5.91832 3.34399L4.43173 2.00606ZM4.25003 3.03003C4.19285 3.03003 4.14712 3.02396 4.12063 3.01954C4.1093 3.01766 4.10176 3.01609 4.1034 3.01642C4.10435 3.01662 4.10515 3.01678 4.10921 3.01762C4.11248 3.01829 4.11785 3.01939 4.12391 3.02061L4.51614 1.05945C4.51614 1.05945 4.51608 1.05943 4.51594 1.0594C4.51579 1.05937 4.51558 1.05933 4.51528 1.05927C4.51464 1.05914 4.51382 1.05897 4.51252 1.0587C4.5106 1.05831 4.50554 1.05726 4.50072 1.05629C4.49079 1.05427 4.47201 1.05052 4.44942 1.04676C4.40043 1.03859 4.3322 1.03003 4.25003 1.03003V3.03003ZM4.04122 3.00037L4.35122 3.09037L4.90884 1.16968L4.59884 1.07968L4.04122 3.00037ZM5.59037 1.85122L5.50037 1.54122L3.57968 2.09884L3.66968 2.40884L5.59037 1.85122ZM5.48871 1.5038C5.54213 1.66406 5.54213 1.83599 5.48871 1.99625L3.59134 1.3638C3.50792 1.61406 3.50792 1.88599 3.59134 2.13625L5.48871 1.5038ZM5.50037 1.95884L5.59037 1.64884L3.66968 1.09121L3.57968 1.40121L5.50037 1.95884ZM4.35122 0.40968L4.04122 0.49968L4.59884 2.42037L4.90884 2.33037L4.35122 0.40968ZM4.0038 0.511342C4.16407 0.45792 4.33599 0.45792 4.49625 0.511342L3.8638 2.40871C4.11406 2.49213 4.38599 2.49213 4.63625 2.40871L4.0038 0.511342ZM4.45884 0.49968L4.14884 0.40968L3.59122 2.33037L3.90122 2.42037L4.45884 0.49968ZM2.90968 1.64884L2.99968 1.95884L4.92037 1.40121L4.83037 1.09121L2.90968 1.64884ZM3.01134 1.99625C2.95792 1.83599 2.95792 1.66406 3.01134 1.5038L4.90871 2.13625C4.99213 1.88599 4.99213 1.61406 4.90871 1.3638L3.01134 1.99625ZM2.99968 1.54122L2.90968 1.85122L4.83037 2.40884L4.92037 2.09884L2.99968 1.54122ZM4.14884 3.09037L4.45884 3.00037L3.90121 1.07968L3.59122 1.16968L4.14884 3.09037ZM4.37614 3.02061C4.3822 3.01939 4.38758 3.01829 4.39084 3.01762C4.3949 3.01678 4.3957 3.01662 4.39666 3.01642C4.39829 3.01609 4.39076 3.01766 4.37942 3.01954C4.35293 3.02396 4.3072 3.03003 4.25003 3.03003V1.03003C4.16785 1.03003 4.09962 1.03859 4.05063 1.04676C4.02805 1.05052 4.00926 1.05427 3.99933 1.05629C3.99451 1.05726 3.98945 1.05831 3.98753 1.0587C3.98623 1.05897 3.98542 1.05914 3.98477 1.05927C3.98447 1.05933 3.98426 1.05937 3.98412 1.0594C3.98397 1.05943 3.98391 1.05945 3.98391 1.05945L4.37614 3.02061Z" fill="#19224C" mask="url(#path-5-inside-3_278_1691)"/>
<path d="M3.00003 5.75003C2.97503 5.75003 2.95503 5.74503 2.93003 5.74003L2.25003 5.54003L1.57003 5.74003C1.48003 5.76503 1.39003 5.74003 1.32503 5.67503C1.26003 5.61003 1.23503 5.51503 1.26003 5.43003L1.46003 4.75003L1.26003 4.07003C1.23503 3.98003 1.26003 3.88503 1.32503 3.82503C1.39003 3.76503 1.48503 3.73503 1.57003 3.76003L2.25003 3.96003L2.93003 3.76003C3.01503 3.73503 3.11003 3.76003 3.17503 3.82503C3.24003 3.89003 3.26503 3.98503 3.24003 4.07003L3.04003 4.75003L3.24003 5.43003C3.26503 5.52003 3.24003 5.61503 3.17503 5.67503C3.13003 5.72503 3.06503 5.75003 3.00003 5.75003ZM2.25003 5.03003C2.27503 5.03003 2.29503 5.03503 2.32003 5.04003L2.63003 5.13003L2.54003 4.82003C2.52503 4.77503 2.52503 4.72503 2.54003 4.68003L2.63003 4.37003L2.32003 4.46003C2.27503 4.47503 2.22503 4.47503 2.18003 4.46003L1.87003 4.37003L1.96003 4.68003C1.97503 4.72503 1.97503 4.77503 1.96003 4.82003L1.87003 5.13003L2.18003 5.04003C2.20503 5.03503 2.22503 5.03003 2.25003 5.03003Z" fill="#19224C"/>
<path d="M10.5 8.25003C10.475 8.25003 10.455 8.24503 10.43 8.24003L9.75003 8.04003L9.07003 8.24003C8.98003 8.26503 8.89003 8.24003 8.82503 8.17503C8.76003 8.11003 8.73503 8.01503 8.76003 7.93003L8.96003 7.25003L8.76003 6.57003C8.73503 6.48003 8.76003 6.38503 8.82503 6.32503C8.89003 6.26503 8.98503 6.23503 9.07003 6.26003L9.75003 6.46003L10.43 6.26003C10.515 6.23503 10.61 6.26003 10.675 6.32503C10.74 6.39003 10.765 6.48503 10.74 6.57003L10.54 7.25003L10.74 7.93003C10.765 8.02003 10.74 8.11503 10.675 8.17503C10.63 8.22503 10.565 8.25003 10.5 8.25003ZM9.75003 7.53003C9.77503 7.53003 9.79503 7.53503 9.82003 7.54003L10.13 7.63003L10.04 7.32003C10.025 7.27503 10.025 7.22503 10.04 7.18003L10.13 6.87003L9.82003 6.96003C9.77503 6.97503 9.72503 6.97503 9.68003 6.96003L9.37003 6.87003L9.46003 7.18003C9.47503 7.22503 9.47503 7.27503 9.46003 7.32003L9.37003 7.63003L9.68003 7.54003C9.70503 7.53503 9.72503 7.53003 9.75003 7.53003Z" fill="#19224C"/>
</svg>
