<svg width="12" height="12" viewBox="0 0 24 24" fill="none" xmlns="http://www.w3.org/2000/svg">
<path d="M9.10684 20.943L9.10743 20.9404L9.51685 19.133C9.54472 19.0176 9.64452 18.9399 9.75978 18.9399H14.2598C14.375 18.9399 14.4748 19.0176 14.5027 19.133L14.9116 20.938C15.0115 21.4019 14.9172 21.8223 14.6532 22.1528C14.3468 22.5166 13.8541 22.75 13.2698 22.75H10.7498C10.1969 22.75 9.71053 22.5151 9.3876 22.1243C9.1117 21.78 9.013 21.3472 9.10684 20.943ZM9.85978 19.8639L9.59226 21.039L9.59209 21.039L9.58949 21.052C9.52203 21.3893 9.65742 21.6579 9.78556 21.81C10.0274 22.1044 10.3902 22.24 10.7498 22.24H13.2698C13.6119 22.24 14.009 22.1364 14.2602 21.8224C14.4571 21.5763 14.4803 21.2932 14.4301 21.042L14.4302 21.0419L14.4273 21.029L14.1473 19.7991L14.0588 19.41H13.6598H10.3598H9.85978V19.8639Z" fill="#19224C" stroke="#19224C"/>
<path d="M12.9827 11.4905L12.9828 11.4905L12.9786 11.4854C12.753 11.2066 12.4239 10.97 12.01 10.97C11.5962 10.97 11.2671 11.2066 11.0414 11.4854L11.0414 11.4854L11.0373 11.4905L7.98731 15.3606L7.98627 15.3619C7.85047 15.5354 7.72651 15.7029 7.63997 15.8629C7.55178 16.0258 7.47574 16.2284 7.4971 16.4619C7.51873 16.6982 7.63243 16.8834 7.75371 17.0267C7.86914 17.1631 8.02168 17.2963 8.18512 17.4302L9.92732 18.9832L9.9273 18.9833L9.93163 18.987C10.0297 19.0724 10.0424 19.2314 9.94897 19.3349C9.84907 19.4455 9.69476 19.4489 9.59517 19.3589L9.59248 19.3565L7.86248 17.8165L7.85462 17.8095L7.84647 17.8028C7.27288 17.3339 7.03754 16.9117 7.0002 16.5256C6.96252 16.1359 7.11403 15.6571 7.59272 15.0495C7.59274 15.0495 7.59275 15.0494 7.59277 15.0494L10.6425 11.1798C10.6425 11.1797 10.6426 11.1796 10.6427 11.1796C10.6427 11.1795 10.6427 11.1795 10.6427 11.1795C11.0084 10.7165 11.5093 10.47 12.01 10.47C12.5107 10.47 13.0117 10.7165 13.3773 11.1795C13.3774 11.1796 13.3775 11.1797 13.3776 11.1798L16.4273 15.0495L16.4281 15.0505C16.9041 15.6512 17.0524 16.1095 17.016 16.4885C16.9796 16.8695 16.7446 17.2994 16.1595 17.8148L16.1576 17.8165L14.4306 19.3538C14.3745 19.4017 14.3124 19.42 14.26 19.42C14.1835 19.42 14.1241 19.3943 14.076 19.3404C13.9818 19.2311 13.993 19.0742 14.0942 18.9819C14.0945 18.9816 14.0948 18.9813 14.0952 18.981L15.8212 17.4445C15.8214 17.4444 15.8216 17.4442 15.8218 17.444C15.9971 17.289 16.1536 17.1403 16.2695 16.9927C16.3882 16.8416 16.4955 16.653 16.5135 16.4198C16.5316 16.1859 16.4537 15.9867 16.3648 15.8283C16.279 15.6754 16.1578 15.5175 16.0319 15.3596C16.0316 15.3592 16.0313 15.3588 16.0311 15.3584L12.9827 11.4905Z" fill="#19224C" stroke="#19224C"/>
<path d="M12.0098 13.9C11.8759 13.9 11.7598 13.7839 11.7598 13.65V11.12C11.7598 10.9861 11.8759 10.87 12.0098 10.87C12.1436 10.87 12.2598 10.9861 12.2598 11.12V13.65C12.2598 13.7895 12.148 13.9 12.0098 13.9Z" fill="#19224C" stroke="#19224C"/>
<path d="M12 6.29003C11.5 6.29003 11 6.10002 10.62 5.72002L9.84002 4.94006C9.08002 4.18006 9.08002 2.94005 9.84002 2.18005L10.62 1.40008C11.38 0.640078 12.62 0.640078 13.38 1.40008L14.16 2.18005C14.92 2.94005 14.92 4.18006 14.16 4.94006L13.38 5.72002C13 6.10002 12.5 6.29003 12 6.29003ZM12 2.33007C11.88 2.33007 11.77 2.37008 11.68 2.46008L10.9 3.24004C10.82 3.32004 10.77 3.44005 10.77 3.56005C10.77 3.68005 10.82 3.79006 10.9 3.88006L11.68 4.66003C11.85 4.83003 12.15 4.83003 12.32 4.66003L13.1 3.88006C13.18 3.80006 13.23 3.68005 13.23 3.56005C13.23 3.44005 13.18 3.33004 13.1 3.24004L12.32 2.46008C12.23 2.38008 12.12 2.33007 12 2.33007Z" fill="#19224C"/>
<path d="M20.55 14.0601H19.45C18.37 14.0601 17.5 13.18 17.5 12.11V11.0101C17.5 9.93007 18.38 9.06006 19.45 9.06006H20.55C21.63 9.06006 22.5 9.94007 22.5 11.0101V12.11C22.5 13.19 21.62 14.0601 20.55 14.0601ZM19.45 10.5601C19.2 10.5601 19 10.7601 19 11.0101V12.11C19 12.36 19.2 12.5601 19.45 12.5601H20.55C20.8 12.5601 21 12.36 21 12.11V11.0101C21 10.7601 20.8 10.5601 20.55 10.5601H19.45Z" fill="#19224C"/>
<path d="M4.55 14.0601H3.45C2.37 14.0601 1.5 13.18 1.5 12.11V11.0101C1.5 9.93007 2.38 9.06006 3.45 9.06006H4.55C5.63 9.06006 6.5 9.94007 6.5 11.0101V12.11C6.5 13.19 5.62 14.0601 4.55 14.0601ZM3.45 10.5601C3.2 10.5601 3 10.7601 3 11.0101V12.11C3 12.36 3.2 12.5601 3.45 12.5601H4.55C4.8 12.5601 5 12.36 5 12.11V11.0101C5 10.7601 4.8 10.5601 4.55 10.5601H3.45Z" fill="#19224C"/>
<path d="M18.5402 10.8499C18.3502 10.8499 18.1602 10.78 18.0102 10.63L12.7102 5.32999C12.4202 5.03999 12.4202 4.55999 12.7102 4.26999C13.0002 3.97999 13.4802 3.97999 13.7702 4.26999L19.0702 9.56998C19.3602 9.85998 19.3602 10.34 19.0702 10.63C18.9202 10.78 18.7302 10.8499 18.5402 10.8499Z" fill="#19224C"/>
<path d="M5.4599 10.8499C5.2699 10.8499 5.0799 10.78 4.9299 10.63C4.6399 10.34 4.6399 9.85998 4.9299 9.56998L10.2299 4.26999C10.5199 3.97999 10.9999 3.97999 11.2899 4.26999C11.5799 4.55999 11.5799 5.03999 11.2899 5.32999L5.9899 10.63C5.8399 10.78 5.6499 10.8499 5.4599 10.8499Z" fill="#19224C"/>
</svg>
