<svg width="12" height="12" viewBox="0 0 24 24" fill="none" xmlns="http://www.w3.org/2000/svg">
<g clip-path="url(#clip0_273_50257)">
<path d="M12 21.3981C11.9013 21.3987 11.8034 21.3797 11.712 21.3424C11.6207 21.3051 11.5375 21.2501 11.4675 21.1806L2.81996 12.5331C2.74967 12.4634 2.69387 12.3804 2.65579 12.289C2.61772 12.1976 2.59811 12.0996 2.59811 12.0006C2.59811 11.9016 2.61772 11.8036 2.65579 11.7122C2.69387 11.6208 2.74967 11.5378 2.81996 11.4681L3.95996 10.3356C4.57086 9.71945 5.34536 9.29105 6.19194 9.101C7.03853 8.91095 7.92182 8.9672 8.73746 9.26309L12.795 5.20559L12.09 4.50059C11.9503 4.36007 11.8719 4.16998 11.8719 3.97184C11.8719 3.77371 11.9503 3.58362 12.09 3.44309L14.5575 0.968094C14.698 0.828406 14.8881 0.75 15.0862 0.75C15.2844 0.75 15.4744 0.828406 15.615 0.968094L23.0325 8.38559C23.1722 8.52612 23.2506 8.71621 23.2506 8.91434C23.2506 9.11248 23.1722 9.30257 23.0325 9.44309L20.5575 11.9106C20.4169 12.0503 20.2269 12.1287 20.0287 12.1287C19.8306 12.1287 19.6405 12.0503 19.5 11.9106L18.795 11.2056L14.7375 15.2631C15.0315 16.079 15.0868 16.9618 14.8968 17.808C14.7069 18.6542 14.2795 19.4287 13.665 20.0406L12.5325 21.1806C12.4624 21.2501 12.3793 21.3051 12.2879 21.3424C12.1965 21.3797 12.0987 21.3987 12 21.3981ZM4.40996 12.0006L12 19.5906L12.6075 18.9831C13.0649 18.5247 13.3667 17.9342 13.4704 17.2949C13.574 16.6557 13.4741 16 13.185 15.4206C13.1146 15.2807 13.0898 15.1224 13.114 14.9677C13.1382 14.813 13.2103 14.6698 13.32 14.5581L18.2625 9.61559C18.3322 9.5453 18.4151 9.4895 18.5065 9.45143C18.5979 9.41335 18.696 9.39375 18.795 9.39375C18.894 9.39375 18.992 9.41335 19.0834 9.45143C19.1748 9.4895 19.2577 9.5453 19.3275 9.61559L20.0325 10.3206L21.4425 8.91059L15.09 2.55809L13.68 3.96809L14.385 4.67309C14.4553 4.74282 14.5111 4.82577 14.5491 4.91716C14.5872 5.00856 14.6068 5.10659 14.6068 5.20559C14.6068 5.3046 14.5872 5.40263 14.5491 5.49403C14.5111 5.58542 14.4553 5.66837 14.385 5.73809L9.44246 10.6806C9.33077 10.7903 9.18755 10.8623 9.03288 10.8865C8.8782 10.9107 8.71983 10.8859 8.57996 10.8156C8.00053 10.5264 7.34489 10.4266 6.70564 10.5302C6.0664 10.6338 5.47587 10.9357 5.01746 11.3931L4.40996 12.0006Z" fill="#19224C"/>
<path d="M1.49995 23.2506C1.40125 23.2512 1.3034 23.2322 1.21202 23.1949C1.12065 23.1576 1.03753 23.1026 0.967454 23.0331C0.897158 22.9634 0.841362 22.8804 0.803286 22.789C0.765209 22.6976 0.745605 22.5996 0.745605 22.5006C0.745605 22.4016 0.765209 22.3036 0.803286 22.2122C0.841362 22.1208 0.897158 22.0378 0.967454 21.9681L7.14745 15.7956C7.29093 15.6727 7.47549 15.6085 7.66424 15.6158C7.853 15.6231 8.03206 15.7013 8.16563 15.8349C8.2992 15.9685 8.37745 16.1475 8.38474 16.3363C8.39203 16.5251 8.32782 16.7096 8.20495 16.8531L2.03245 23.0331C1.96237 23.1026 1.87926 23.1576 1.78788 23.1949C1.69651 23.2322 1.59866 23.2512 1.49995 23.2506Z" fill="#19224C"/>
<path d="M18.795 10.8981C18.6963 10.8987 18.5984 10.8797 18.507 10.8424C18.4157 10.8051 18.3325 10.7501 18.2625 10.6806L16.41 8.8281C16.34 8.75817 16.2846 8.67515 16.2467 8.58378C16.2089 8.49242 16.1894 8.39449 16.1894 8.2956C16.1894 8.1967 16.2089 8.09877 16.2467 8.00741C16.2846 7.91604 16.34 7.83302 16.41 7.7631C16.4799 7.69317 16.5629 7.6377 16.6543 7.59985C16.7456 7.56201 16.8436 7.54253 16.9425 7.54253C17.0414 7.54253 17.1393 7.56201 17.2306 7.59985C17.322 7.6377 17.405 7.69317 17.475 7.7631L19.3275 9.61559C19.3978 9.68532 19.4536 9.76827 19.4916 9.85966C19.5297 9.95106 19.5493 10.0491 19.5493 10.1481C19.5493 10.2471 19.5297 10.3451 19.4916 10.4365C19.4536 10.5279 19.3978 10.6109 19.3275 10.6806C19.2574 10.7501 19.1743 10.8051 19.0829 10.8424C18.9915 10.8797 18.8937 10.8987 18.795 10.8981Z" fill="#19224C"/>
</g>
<defs>
<clipPath id="clip0_273_50257">
<rect width="24" height="24" fill="white"/>
</clipPath>
</defs>
</svg>
