<svg width="12" height="12" viewBox="0 0 24 24" fill="none" xmlns="http://www.w3.org/2000/svg">
<path d="M4.2946 18.5577L4.29289 18.5561C3.90204 18.1878 3.69216 17.6108 3.76681 16.9463C3.76682 16.9461 3.76684 16.946 3.76685 16.9459L4.13673 13.707C4.13673 13.707 4.13674 13.7069 4.13674 13.7069C4.13675 13.7068 4.13675 13.7068 4.13676 13.7067C4.16421 13.4679 4.25484 13.1654 4.39347 12.8669C4.53247 12.5675 4.70341 12.3075 4.86758 12.1395L4.86763 12.1395L4.87344 12.1334L13.0834 3.44338L13.0834 3.44336C14.0543 2.41572 14.9847 1.95228 15.8691 1.9273C16.7536 1.90233 17.7089 2.31258 18.7366 3.28346C19.7643 4.25428 20.2277 5.18468 20.2527 6.06912C20.2777 6.9536 19.8674 7.90893 18.8965 8.93664L10.6865 17.6266L10.6845 17.6288C10.3392 17.9987 9.65904 18.3646 9.1591 18.4466L9.1558 18.4471L5.9625 18.9926C5.88514 18.9975 5.82528 19.0027 5.77298 19.0072C5.68954 19.0144 5.62534 19.02 5.53999 19.02C5.04247 19.02 4.6008 18.849 4.2946 18.5577ZM13.4465 3.76669L13.4463 3.76684L5.23792 12.4652C5.23762 12.4655 5.23733 12.4658 5.23703 12.4661C5.08276 12.6284 4.94835 12.8619 4.85189 13.0686C4.75434 13.2776 4.66435 13.5265 4.63468 13.7417L4.63454 13.7417L4.63322 13.7533L4.26362 16.9898C4.26354 16.9905 4.26347 16.9911 4.26339 16.9917C4.2111 17.4267 4.30841 17.8735 4.63667 18.1835C4.96741 18.4959 5.41493 18.558 5.83489 18.4944L5.8349 18.4944L5.84417 18.4929L9.06417 17.9429L9.06494 17.9427C9.28635 17.9046 9.53348 17.7991 9.73561 17.6903C9.93802 17.5815 10.16 17.4345 10.3121 17.2748L10.3134 17.2734L18.5234 8.58338L18.5244 8.58234C19.1594 7.90644 19.6904 7.16038 19.7428 6.29267C19.7969 5.39812 19.3382 4.53407 18.3845 3.63764C17.5397 2.82517 16.7322 2.41 15.93 2.41C14.94 2.41 14.1433 3.02887 13.4465 3.76669Z" fill="#19224C" stroke="#19224C"/>
<path d="M17.3811 9.9576L17.3815 9.95764C17.51 9.97018 17.6118 10.0874 17.603 10.2231C17.5818 10.3521 17.4646 10.45 17.34 10.45H17.3399H17.3398H17.3397H17.3395H17.3394H17.3393H17.3392H17.3391H17.3389H17.3388H17.3387H17.3386H17.3385H17.3383H17.3382H17.3381H17.338H17.3379H17.3377H17.3376H17.3375H17.3374H17.3373H17.3371H17.337H17.3369H17.3368H17.3366H17.3365H17.3364H17.3363H17.3361H17.336H17.3359H17.3358H17.3356H17.3355H17.3354H17.3353H17.3351H17.335H17.3349H17.3348H17.3346H17.3345H17.3344H17.3343H17.3341H17.334H17.3339H17.3338H17.3336H17.3335H17.3334H17.3332H17.3331H17.333H17.3329H17.3327H17.3326H17.3325H17.3323H17.3322H17.3321H17.3319H17.3318H17.3317H17.3316H17.3314H17.3313H17.3312H17.331H17.3309H17.3308H17.3306H17.3305H17.3304H17.3302H17.3301H17.33H17.3298H17.3297H17.3296H17.3294H17.3293H17.3292H17.329H17.3289H17.3288H17.3286H17.3285H17.3284H17.3282H17.3281H17.328H17.3278H17.3277H17.3276H17.3274H17.3273H17.3272H17.327H17.3269H17.3268H17.3266H17.3265H17.3263H17.3262H17.3261H17.3259H17.3258H17.3257H17.3255H17.3254H17.3252H17.3251H17.325H17.3248H17.3247H17.3246H17.3244H17.3243H17.3241H17.324H17.3239H17.3237H17.3236H17.3234H17.3233H17.3232H17.323H17.3229H17.3227H17.3226H17.3225H17.3223H17.3222H17.322H17.3219H17.3218H17.3216H17.3215H17.3213H17.3212H17.3211H17.3209H17.3208H17.3206H17.3205H17.3204H17.3202H17.3201H17.3199H17.3198H17.3196H17.3195H17.3194H17.3192H17.3191H17.3189H17.3188H17.3187H17.3185H17.3184H17.3182H17.3181H17.3179H17.3178H17.3177H17.3175H17.3174H17.3172H17.3171H17.3169H17.3168H17.3167H17.3165H17.3164H17.3162H17.3161H17.3159H17.3158H17.3156H17.3155H17.3154H17.3152H17.3151H17.3149H17.3148H17.3146H17.3145H17.3143H17.3142H17.3141H17.3139H17.3138H17.3136H17.3135H17.3133H17.3132H17.313H17.3129H17.3127H17.3126H17.3125H17.3123H17.3122H17.312H17.3119H17.3117H17.3116H17.3114H17.3113H17.3111H17.311H17.3109H17.3107H17.3106H17.3104H17.3103H17.3101H17.31H17.3098H17.3097H17.3095H17.3094H17.3093H17.3091H17.309H17.3088H17.3087H17.3085H17.3084H17.3082H17.3081H17.3079H17.3078H17.3076H17.3075H17.3074H17.3072H17.3071H17.3069H17.3068H17.3066H17.3065H17.3063H17.3062H17.306H17.3059H17.3057H17.3056H17.3054H17.3053H17.3052H17.305H17.3049H17.3047H17.3046H17.3044H17.3043H17.3041H17.304H17.3038H17.3037H17.3035H17.3034H17.3033H17.3031H17.303H17.3028H17.3027H17.3025H17.3024H17.3022H17.3021H17.3019H17.3018H17.3016H17.3015H17.3013H17.3012H17.3011H17.3009H17.3008H17.3006H17.3005H17.3003H17.3002H17.3H17.2999H17.2997H17.2996H17.2995H17.2993H17.2992H17.299H17.2989H17.2987H17.2986H17.2984H17.2983H17.2981H17.298H17.2978H17.2977H17.2976H17.2974H17.2973H17.2971H17.297H17.2968H17.2967H17.2965H17.2964H17.2963H17.2961H17.296H17.2958H17.2957H17.2955H17.2954H17.2952C14.4136 10.1528 12.0993 7.96086 11.6545 5.09605C11.6357 4.96162 11.7253 4.83145 11.8682 4.80395C12.0022 4.78742 12.131 4.87832 12.1567 5.02174C12.5735 7.66355 14.7146 9.69532 17.3811 9.9576Z" fill="#19224C" stroke="#19224C"/>
<path d="M21 22.25H3C2.86614 22.25 2.75 22.1339 2.75 22C2.75 21.8661 2.86614 21.75 3 21.75H21C21.1339 21.75 21.25 21.8661 21.25 22C21.25 22.1339 21.1339 22.25 21 22.25Z" fill="#19224C" stroke="#19224C"/>
</svg>
