<svg width="12" height="12" viewBox="0 0 12 12" fill="none" xmlns="http://www.w3.org/2000/svg">
<mask id="path-1-inside-1_278_8245" fill="white">
<path d="M11 3.625H8C7.795 3.625 7.625 3.455 7.625 3.25C7.625 3.045 7.795 2.875 8 2.875H11C11.205 2.875 11.375 3.045 11.375 3.25C11.375 3.455 11.205 3.625 11 3.625Z"/>
</mask>
<path d="M11 3.625H8C7.795 3.625 7.625 3.455 7.625 3.25C7.625 3.045 7.795 2.875 8 2.875H11C11.205 2.875 11.375 3.045 11.375 3.25C11.375 3.455 11.205 3.625 11 3.625Z" fill="#19224C"/>
<path d="M11 2.625H8V4.625H11V2.625ZM8 2.625C8.34728 2.625 8.625 2.90272 8.625 3.25H6.625C6.625 4.00728 7.24272 4.625 8 4.625V2.625ZM8.625 3.25C8.625 3.59728 8.34728 3.875 8 3.875V1.875C7.24272 1.875 6.625 2.49272 6.625 3.25H8.625ZM8 3.875H11V1.875H8V3.875ZM11 3.875C10.6527 3.875 10.375 3.59728 10.375 3.25H12.375C12.375 2.49272 11.7573 1.875 11 1.875V3.875ZM10.375 3.25C10.375 2.90272 10.6527 2.625 11 2.625V4.625C11.7573 4.625 12.375 4.00728 12.375 3.25H10.375Z" fill="#19224C" mask="url(#path-1-inside-1_278_8245)"/>
<mask id="path-3-inside-2_278_8245" fill="white">
<path d="M3 3.625H1C0.795 3.625 0.625 3.455 0.625 3.25C0.625 3.045 0.795 2.875 1 2.875H3C3.205 2.875 3.375 3.045 3.375 3.25C3.375 3.455 3.205 3.625 3 3.625Z"/>
</mask>
<path d="M3 3.625H1C0.795 3.625 0.625 3.455 0.625 3.25C0.625 3.045 0.795 2.875 1 2.875H3C3.205 2.875 3.375 3.045 3.375 3.25C3.375 3.455 3.205 3.625 3 3.625Z" fill="#19224C"/>
<path d="M3 2.625H1V4.625H3V2.625ZM1 2.625C1.34728 2.625 1.625 2.90272 1.625 3.25H-0.375C-0.375 4.00728 0.242715 4.625 1 4.625V2.625ZM1.625 3.25C1.625 3.59728 1.34728 3.875 1 3.875V1.875C0.242715 1.875 -0.375 2.49272 -0.375 3.25H1.625ZM1 3.875H3V1.875H1V3.875ZM3 3.875C2.65272 3.875 2.375 3.59728 2.375 3.25H4.375C4.375 2.49272 3.75728 1.875 3 1.875V3.875ZM2.375 3.25C2.375 2.90272 2.65272 2.625 3 2.625V4.625C3.75728 4.625 4.375 4.00728 4.375 3.25H2.375Z" fill="#19224C" mask="url(#path-3-inside-2_278_8245)"/>
<mask id="path-5-inside-3_278_8245" fill="white">
<path d="M5 5.375C3.83 5.375 2.875 4.42 2.875 3.25C2.875 2.08 3.83 1.125 5 1.125C6.17 1.125 7.125 2.08 7.125 3.25C7.125 4.42 6.17 5.375 5 5.375ZM5 1.875C4.24 1.875 3.625 2.49 3.625 3.25C3.625 4.01 4.24 4.625 5 4.625C5.76 4.625 6.375 4.01 6.375 3.25C6.375 2.49 5.76 1.875 5 1.875Z"/>
</mask>
<path d="M5 5.375C3.83 5.375 2.875 4.42 2.875 3.25C2.875 2.08 3.83 1.125 5 1.125C6.17 1.125 7.125 2.08 7.125 3.25C7.125 4.42 6.17 5.375 5 5.375ZM5 1.875C4.24 1.875 3.625 2.49 3.625 3.25C3.625 4.01 4.24 4.625 5 4.625C5.76 4.625 6.375 4.01 6.375 3.25C6.375 2.49 5.76 1.875 5 1.875Z" fill="#19224C"/>
<path d="M5 4.375C4.38228 4.375 3.875 3.86772 3.875 3.25H1.875C1.875 4.97228 3.27772 6.375 5 6.375V4.375ZM3.875 3.25C3.875 2.63228 4.38228 2.125 5 2.125V0.125C3.27772 0.125 1.875 1.52772 1.875 3.25H3.875ZM5 2.125C5.61772 2.125 6.125 2.63228 6.125 3.25H8.125C8.125 1.52772 6.72228 0.125 5 0.125V2.125ZM6.125 3.25C6.125 3.86772 5.61772 4.375 5 4.375V6.375C6.72228 6.375 8.125 4.97228 8.125 3.25H6.125ZM5 0.875C3.68772 0.875 2.625 1.93772 2.625 3.25H4.625C4.625 3.04228 4.79228 2.875 5 2.875V0.875ZM2.625 3.25C2.625 4.56228 3.68772 5.625 5 5.625V3.625C4.79228 3.625 4.625 3.45772 4.625 3.25H2.625ZM5 5.625C6.31228 5.625 7.375 4.56228 7.375 3.25H5.375C5.375 3.45772 5.20772 3.625 5 3.625V5.625ZM7.375 3.25C7.375 1.93772 6.31228 0.875 5 0.875V2.875C5.20772 2.875 5.375 3.04228 5.375 3.25H7.375Z" fill="#19224C" mask="url(#path-5-inside-3_278_8245)"/>
<path d="M11 9.125H9C8.795 9.125 8.625 8.955 8.625 8.75C8.625 8.545 8.795 8.375 9 8.375H11C11.205 8.375 11.375 8.545 11.375 8.75C11.375 8.955 11.205 9.125 11 9.125Z" fill="#19224C"/>
<path d="M4 9.125H1C0.795 9.125 0.625 8.955 0.625 8.75C0.625 8.545 0.795 8.375 1 8.375H4C4.205 8.375 4.375 8.545 4.375 8.75C4.375 8.955 4.205 9.125 4 9.125Z" fill="#19224C"/>
<path d="M7 10.875C5.83 10.875 4.875 9.92 4.875 8.75C4.875 7.58 5.83 6.625 7 6.625C8.17 6.625 9.125 7.58 9.125 8.75C9.125 9.92 8.17 10.875 7 10.875ZM7 7.375C6.24 7.375 5.625 7.99 5.625 8.75C5.625 9.51 6.24 10.125 7 10.125C7.76 10.125 8.375 9.51 8.375 8.75C8.375 7.99 7.76 7.375 7 7.375Z" fill="#19224C"/>
</svg>
