<svg width="12" height="12" viewBox="0 0 12 12" fill="none" xmlns="http://www.w3.org/2000/svg">
<mask id="path-1-inside-1_278_1952" fill="white">
<path d="M7.5 11.375H4.5C1.785 11.375 0.625 10.215 0.625 7.5V4.5C0.625 1.785 1.785 0.625 4.5 0.625H7.5C10.215 0.625 11.375 1.785 11.375 4.5V7.5C11.375 10.215 10.215 11.375 7.5 11.375ZM4.5 1.375C2.195 1.375 1.375 2.195 1.375 4.5V7.5C1.375 9.805 2.195 10.625 4.5 10.625H7.5C9.805 10.625 10.625 9.805 10.625 7.5V4.5C10.625 2.195 9.805 1.375 7.5 1.375H4.5Z"/>
</mask>
<path d="M7.5 11.375H4.5C1.785 11.375 0.625 10.215 0.625 7.5V4.5C0.625 1.785 1.785 0.625 4.5 0.625H7.5C10.215 0.625 11.375 1.785 11.375 4.5V7.5C11.375 10.215 10.215 11.375 7.5 11.375ZM4.5 1.375C2.195 1.375 1.375 2.195 1.375 4.5V7.5C1.375 9.805 2.195 10.625 4.5 10.625H7.5C9.805 10.625 10.625 9.805 10.625 7.5V4.5C10.625 2.195 9.805 1.375 7.5 1.375H4.5Z" fill="#19224C"/>
<path d="M7.5 10.375H4.5V12.375H7.5V10.375ZM4.5 10.375C3.25729 10.375 2.6086 10.1056 2.25148 9.74852C1.89437 9.3914 1.625 8.74271 1.625 7.5H-0.375C-0.375 8.97229 -0.0643659 10.2611 0.837268 11.1627C1.7389 12.0644 3.02771 12.375 4.5 12.375V10.375ZM1.625 7.5V4.5H-0.375V7.5H1.625ZM1.625 4.5C1.625 3.25729 1.89437 2.6086 2.25148 2.25148C2.6086 1.89437 3.25729 1.625 4.5 1.625V-0.375C3.02771 -0.375 1.7389 -0.0643659 0.837268 0.837268C-0.0643659 1.7389 -0.375 3.02771 -0.375 4.5H1.625ZM4.5 1.625H7.5V-0.375H4.5V1.625ZM7.5 1.625C8.74271 1.625 9.3914 1.89437 9.74852 2.25148C10.1056 2.6086 10.375 3.25729 10.375 4.5H12.375C12.375 3.02771 12.0644 1.7389 11.1627 0.837268C10.2611 -0.0643659 8.97229 -0.375 7.5 -0.375V1.625ZM10.375 4.5V7.5H12.375V4.5H10.375ZM10.375 7.5C10.375 8.74271 10.1056 9.3914 9.74852 9.74852C9.3914 10.1056 8.74271 10.375 7.5 10.375V12.375C8.97229 12.375 10.2611 12.0644 11.1627 11.1627C12.0644 10.2611 12.375 8.97229 12.375 7.5H10.375ZM4.5 0.375C3.27695 0.375 2.14989 0.582142 1.36602 1.36602C0.582142 2.14989 0.375 3.27695 0.375 4.5H2.375C2.375 3.41805 2.57786 2.98261 2.78023 2.78023C2.98261 2.57786 3.41805 2.375 4.5 2.375V0.375ZM0.375 4.5V7.5H2.375V4.5H0.375ZM0.375 7.5C0.375 8.72305 0.582142 9.85011 1.36602 10.634C2.14989 11.4179 3.27695 11.625 4.5 11.625V9.625C3.41805 9.625 2.98261 9.42214 2.78023 9.21977C2.57786 9.0174 2.375 8.58195 2.375 7.5H0.375ZM4.5 11.625H7.5V9.625H4.5V11.625ZM7.5 11.625C8.72305 11.625 9.85011 11.4179 10.634 10.634C11.4179 9.85011 11.625 8.72305 11.625 7.5H9.625C9.625 8.58195 9.42214 9.0174 9.21977 9.21977C9.0174 9.42214 8.58195 9.625 7.5 9.625V11.625ZM11.625 7.5V4.5H9.625V7.5H11.625ZM11.625 4.5C11.625 3.27695 11.4179 2.14989 10.634 1.36602C9.85011 0.582142 8.72305 0.375 7.5 0.375V2.375C8.58195 2.375 9.0174 2.57786 9.21977 2.78023C9.42214 2.98261 9.625 3.41805 9.625 4.5H11.625ZM7.5 0.375H4.5V2.375H7.5V0.375Z" fill="#19224C" mask="url(#path-1-inside-1_278_1952)"/>
<mask id="path-3-inside-2_278_1952" fill="white">
<path d="M7.875 4.875H4.125C3.92 4.875 3.75 4.705 3.75 4.5C3.75 4.295 3.92 4.125 4.125 4.125H7.875C8.08 4.125 8.25 4.295 8.25 4.5C8.25 4.705 8.08 4.875 7.875 4.875Z"/>
</mask>
<path d="M7.875 4.875H4.125C3.92 4.875 3.75 4.705 3.75 4.5C3.75 4.295 3.92 4.125 4.125 4.125H7.875C8.08 4.125 8.25 4.295 8.25 4.5C8.25 4.705 8.08 4.875 7.875 4.875Z" fill="#19224C"/>
<path d="M7.875 3.875H4.125V5.875H7.875V3.875ZM4.125 3.875C4.47228 3.875 4.75 4.15272 4.75 4.5H2.75C2.75 5.25728 3.36772 5.875 4.125 5.875V3.875ZM4.75 4.5C4.75 4.84728 4.47228 5.125 4.125 5.125V3.125C3.36772 3.125 2.75 3.74272 2.75 4.5H4.75ZM4.125 5.125H7.875V3.125H4.125V5.125ZM7.875 5.125C7.52772 5.125 7.25 4.84728 7.25 4.5H9.25C9.25 3.74272 8.63228 3.125 7.875 3.125V5.125ZM7.25 4.5C7.25 4.15272 7.52772 3.875 7.875 3.875V5.875C8.63228 5.875 9.25 5.25728 9.25 4.5H7.25Z" fill="#19224C" mask="url(#path-3-inside-2_278_1952)"/>
<path d="M7.875 7.875H4.125C3.92 7.875 3.75 7.705 3.75 7.5C3.75 7.295 3.92 7.125 4.125 7.125H7.875C8.08 7.125 8.25 7.295 8.25 7.5C8.25 7.705 8.08 7.875 7.875 7.875Z" fill="#19224C"/>
</svg>
