<svg width="12" height="12" viewBox="0 0 24 24" fill="none" xmlns="http://www.w3.org/2000/svg">
<path d="M19.77 10.75H15.73C14.7877 10.75 14.1881 10.54 13.8241 10.2064C13.4687 9.88073 13.25 9.35576 13.25 8.52V3.98C13.25 3.14563 13.4705 2.62028 13.8274 2.29404C14.1931 1.95969 14.7933 1.75 15.73 1.75H19.77C20.7123 1.75 21.3119 1.95996 21.6759 2.29362C22.0313 2.61927 22.25 3.14424 22.25 3.98V8.51C22.25 9.35013 22.0291 9.87795 21.6721 10.2052C21.3065 10.5403 20.7067 10.75 19.77 10.75ZM15.73 2.25C15.0584 2.25 14.4947 2.33414 14.135 2.6916C13.7668 3.05754 13.75 3.57727 13.75 3.98V8.51C13.75 8.91606 13.7663 9.43794 14.1361 9.80324C14.4965 10.1591 15.061 10.24 15.73 10.24H19.77C20.4416 10.24 21.0053 10.1559 21.365 9.7984C21.7332 9.43246 21.75 8.91273 21.75 8.51V3.98C21.75 3.57394 21.7337 3.05206 21.3639 2.68676C21.0035 2.33087 20.439 2.25 19.77 2.25H15.73Z" fill="#19224C" stroke="#19224C"/>
<path d="M19.77 22.25H15.73C14.7989 22.25 14.2055 22.023 13.8402 21.6569C13.4748 21.2905 13.25 20.6968 13.25 19.77V15.73C13.25 14.7989 13.477 14.2055 13.8431 13.8402C14.2095 13.4748 14.8032 13.25 15.73 13.25H19.77C20.7011 13.25 21.2945 13.477 21.6597 13.8431C22.0252 14.2095 22.25 14.8032 22.25 15.73V19.77C22.25 20.6955 22.0233 21.2896 21.6564 21.6564C21.2896 22.0233 20.6955 22.25 19.77 22.25ZM15.73 13.75C15.1419 13.75 14.5749 13.813 14.1939 14.1939C13.813 14.5749 13.75 15.1419 13.75 15.73V19.77C13.75 20.3581 13.813 20.9251 14.1939 21.3061C14.5749 21.687 15.1419 21.75 15.73 21.75H19.77C20.3581 21.75 20.9251 21.687 21.3061 21.3061C21.687 20.9251 21.75 20.3581 21.75 19.77V15.73C21.75 15.1419 21.687 14.5749 21.3061 14.1939C20.9251 13.813 20.3581 13.75 19.77 13.75H15.73Z" fill="#19224C" stroke="#19224C"/>
<path d="M8.27 11.25H4.23C2.22 11.25 1.25 10.36 1.25 8.52V3.98C1.25 2.14 2.23 1.25 4.23 1.25H8.27C10.28 1.25 11.25 2.14 11.25 3.98V8.51C11.25 10.36 10.27 11.25 8.27 11.25ZM4.23 2.75C2.89 2.75 2.75 3.13 2.75 3.98V8.51C2.75 9.37 2.89 9.74 4.23 9.74H8.27C9.61 9.74 9.75 9.36 9.75 8.51V3.98C9.75 3.12 9.61 2.75 8.27 2.75H4.23Z" fill="#19224C"/>
<path d="M8.27 22.75H4.23C2.22 22.75 1.25 21.77 1.25 19.77V15.73C1.25 13.72 2.23 12.75 4.23 12.75H8.27C10.28 12.75 11.25 13.73 11.25 15.73V19.77C11.25 21.77 10.27 22.75 8.27 22.75ZM4.23 14.25C3.05 14.25 2.75 14.55 2.75 15.73V19.77C2.75 20.95 3.05 21.25 4.23 21.25H8.27C9.45 21.25 9.75 20.95 9.75 19.77V15.73C9.75 14.55 9.45 14.25 8.27 14.25H4.23Z" fill="#19224C"/>
</svg>
