<svg width="12" height="11" viewBox="0 0 12 11" fill="none" xmlns="http://www.w3.org/2000/svg">
<path d="M5.91501 10.8782L8.3796 4.35127H9.50142L12 10.8782H10.8612L10.2833 9.19547H7.64873L7.05382 10.8782H5.91501ZM7.97167 8.24363H9.90935L8.95751 5.57507H8.92351L7.97167 8.24363ZM1.63173 9.24646L0.849858 8.46459L3.6204 5.71105C3.28045 5.32578 2.98017 4.93201 2.71955 4.52975C2.45892 4.12748 2.23229 3.70538 2.03966 3.26346H3.17847C3.34844 3.58074 3.52408 3.86969 3.70538 4.13031C3.88669 4.39093 4.10198 4.66289 4.35127 4.94618C4.75921 4.50425 5.09632 4.05949 5.36261 3.6119C5.6289 3.16431 5.85269 2.68555 6.03399 2.17564H0V1.08782H3.80737V0H4.89518V1.08782H8.70255V2.17564H7.12181C6.92918 2.79887 6.67139 3.4136 6.34844 4.01983C6.0255 4.62606 5.6204 5.19547 5.13314 5.72805L6.44193 7.07082L6.03399 8.17564L4.35127 6.52691L1.63173 9.24646Z" fill="#19224C"/>
</svg>
