<svg width="14" height="14" viewBox="0 0 14 14" fill="none" xmlns="http://www.w3.org/2000/svg">
<mask id="path-1-inside-1_983_6838" fill="white">
<path d="M6.99935 13.2708C3.54018 13.2708 0.728516 10.4591 0.728516 6.99996C0.728516 3.54079 3.54018 0.729126 6.99935 0.729126C10.4585 0.729126 13.2702 3.54079 13.2702 6.99996C13.2702 10.4591 10.4585 13.2708 6.99935 13.2708ZM6.99935 1.60413C4.02435 1.60413 1.60352 4.02496 1.60352 6.99996C1.60352 9.97496 4.02435 12.3958 6.99935 12.3958C9.97435 12.3958 12.3952 9.97496 12.3952 6.99996C12.3952 4.02496 9.97435 1.60413 6.99935 1.60413Z"/>
</mask>
<path d="M6.99935 13.2708C3.54018 13.2708 0.728516 10.4591 0.728516 6.99996C0.728516 3.54079 3.54018 0.729126 6.99935 0.729126C10.4585 0.729126 13.2702 3.54079 13.2702 6.99996C13.2702 10.4591 10.4585 13.2708 6.99935 13.2708ZM6.99935 1.60413C4.02435 1.60413 1.60352 4.02496 1.60352 6.99996C1.60352 9.97496 4.02435 12.3958 6.99935 12.3958C9.97435 12.3958 12.3952 9.97496 12.3952 6.99996C12.3952 4.02496 9.97435 1.60413 6.99935 1.60413Z" fill="#292D32"/>
<path d="M6.99935 12.2708C4.09247 12.2708 1.72852 9.90684 1.72852 6.99996H-0.271484C-0.271484 11.0114 2.9879 14.2708 6.99935 14.2708V12.2708ZM1.72852 6.99996C1.72852 4.09308 4.09247 1.72913 6.99935 1.72913V-0.270874C2.9879 -0.270874 -0.271484 2.98851 -0.271484 6.99996H1.72852ZM6.99935 1.72913C9.90623 1.72913 12.2702 4.09308 12.2702 6.99996H14.2702C14.2702 2.98851 11.0108 -0.270874 6.99935 -0.270874V1.72913ZM12.2702 6.99996C12.2702 9.90684 9.90623 12.2708 6.99935 12.2708V14.2708C11.0108 14.2708 14.2702 11.0114 14.2702 6.99996H12.2702ZM6.99935 0.604126C3.47206 0.604126 0.603516 3.47267 0.603516 6.99996H2.60352C2.60352 4.57724 4.57663 2.60413 6.99935 2.60413V0.604126ZM0.603516 6.99996C0.603516 10.5272 3.47206 13.3958 6.99935 13.3958V11.3958C4.57663 11.3958 2.60352 9.42267 2.60352 6.99996H0.603516ZM6.99935 13.3958C10.5266 13.3958 13.3952 10.5272 13.3952 6.99996H11.3952C11.3952 9.42267 9.42206 11.3958 6.99935 11.3958V13.3958ZM13.3952 6.99996C13.3952 3.47267 10.5266 0.604126 6.99935 0.604126V2.60413C9.42206 2.60413 11.3952 4.57724 11.3952 6.99996H13.3952Z" fill="#1678F2" mask="url(#path-1-inside-1_983_6838)"/>
<mask id="path-3-inside-2_983_6838" fill="white">
<path d="M9.33268 7.4375H4.66602C4.42685 7.4375 4.22852 7.23917 4.22852 7C4.22852 6.76083 4.42685 6.5625 4.66602 6.5625H9.33268C9.57185 6.5625 9.77018 6.76083 9.77018 7C9.77018 7.23917 9.57185 7.4375 9.33268 7.4375Z"/>
</mask>
<path d="M9.33268 7.4375H4.66602C4.42685 7.4375 4.22852 7.23917 4.22852 7C4.22852 6.76083 4.42685 6.5625 4.66602 6.5625H9.33268C9.57185 6.5625 9.77018 6.76083 9.77018 7C9.77018 7.23917 9.57185 7.4375 9.33268 7.4375Z" fill="#292D32"/>
<path d="M9.33268 6.4375H4.66602V8.4375H9.33268V6.4375ZM4.66602 6.4375C4.97913 6.4375 5.22852 6.68688 5.22852 7H3.22852C3.22852 7.79145 3.87456 8.4375 4.66602 8.4375V6.4375ZM5.22852 7C5.22852 7.31312 4.97913 7.5625 4.66602 7.5625V5.5625C3.87456 5.5625 3.22852 6.20855 3.22852 7H5.22852ZM4.66602 7.5625H9.33268V5.5625H4.66602V7.5625ZM9.33268 7.5625C9.01956 7.5625 8.77018 7.31312 8.77018 7H10.7702C10.7702 6.20855 10.1241 5.5625 9.33268 5.5625V7.5625ZM8.77018 7C8.77018 6.68688 9.01956 6.4375 9.33268 6.4375V8.4375C10.1241 8.4375 10.7702 7.79145 10.7702 7H8.77018Z" fill="#1678F2" mask="url(#path-3-inside-2_983_6838)"/>
<mask id="path-5-inside-3_983_6838" fill="white">
<path d="M7 9.77079C6.76083 9.77079 6.5625 9.57246 6.5625 9.33329V4.66663C6.5625 4.42746 6.76083 4.22913 7 4.22913C7.23917 4.22913 7.4375 4.42746 7.4375 4.66663V9.33329C7.4375 9.57246 7.23917 9.77079 7 9.77079Z"/>
</mask>
<path d="M7 9.77079C6.76083 9.77079 6.5625 9.57246 6.5625 9.33329V4.66663C6.5625 4.42746 6.76083 4.22913 7 4.22913C7.23917 4.22913 7.4375 4.42746 7.4375 4.66663V9.33329C7.4375 9.57246 7.23917 9.77079 7 9.77079Z" fill="#292D32"/>
<path d="M7 8.77079C7.31312 8.77079 7.5625 9.02017 7.5625 9.33329H5.5625C5.5625 10.1247 6.20855 10.7708 7 10.7708V8.77079ZM7.5625 9.33329V4.66663H5.5625V9.33329H7.5625ZM7.5625 4.66663C7.5625 4.97974 7.31312 5.22913 7 5.22913V3.22913C6.20855 3.22913 5.5625 3.87517 5.5625 4.66663H7.5625ZM7 5.22913C6.68688 5.22913 6.4375 4.97974 6.4375 4.66663H8.4375C8.4375 3.87517 7.79145 3.22913 7 3.22913V5.22913ZM6.4375 4.66663V9.33329H8.4375V4.66663H6.4375ZM6.4375 9.33329C6.4375 9.02017 6.68688 8.77079 7 8.77079V10.7708C7.79145 10.7708 8.4375 10.1247 8.4375 9.33329H6.4375Z" fill="#1678F2" mask="url(#path-5-inside-3_983_6838)"/>
</svg>
