<svg width="16" height="17" viewBox="0 0 16 17" fill="none" xmlns="http://www.w3.org/2000/svg">
<path d="M7.99992 3.76299V13.763M5.16659 5.76299H3.66659M5.66659 7.76299H3.66659M14.6666 11.263V3.21632C14.6666 2.41632 14.0133 1.82299 13.2199 1.88966H13.1799C11.7799 2.00966 9.65325 2.72299 8.46658 3.46966L8.35325 3.54299C8.15992 3.66299 7.83992 3.66299 7.64659 3.54299L7.47992 3.44299C6.29325 2.70299 4.17325 1.99632 2.77325 1.88299C1.97992 1.81632 1.33325 2.41632 1.33325 3.20966V11.263C1.33325 11.903 1.85325 12.503 2.49325 12.583L2.68659 12.6097C4.13325 12.803 6.36659 13.5363 7.64659 14.2363L7.67325 14.2497C7.85325 14.3497 8.13992 14.3497 8.31325 14.2497C9.59325 13.543 11.8333 12.803 13.2866 12.6097L13.5066 12.583C14.1466 12.503 14.6666 11.903 14.6666 11.263Z" stroke="#8C90A5" stroke-linecap="round" stroke-linejoin="round"/>
</svg>
