<svg width="44" height="44" viewBox="0 0 44 44" fill="none" xmlns="http://www.w3.org/2000/svg">
<rect x="0.5" y="0.5" width="43" height="43" rx="21.5" fill="white"/>
<path d="M25.7997 12.21C25.3897 11.8 24.6797 12.08 24.6797 12.65V16.14C24.6797 17.6 25.9197 18.81 27.4297 18.81C28.3797 18.82 29.6997 18.82 30.8297 18.82C31.3997 18.82 31.6997 18.15 31.2997 17.75C29.8597 16.3 27.2797 13.69 25.7997 12.21Z" fill="#1678F2"/>
<path d="M30.5 20.19H27.61C25.24 20.19 23.31 18.26 23.31 15.89V13C23.31 12.45 22.86 12 22.31 12H18.07C14.99 12 12.5 14 12.5 17.57V26.43C12.5 30 14.99 32 18.07 32H25.93C29.01 32 31.5 30 31.5 26.43V21.19C31.5 20.64 31.05 20.19 30.5 20.19ZM21.5 27.75H17.5C17.09 27.75 16.75 27.41 16.75 27C16.75 26.59 17.09 26.25 17.5 26.25H21.5C21.91 26.25 22.25 26.59 22.25 27C22.25 27.41 21.91 27.75 21.5 27.75ZM23.5 23.75H17.5C17.09 23.75 16.75 23.41 16.75 23C16.75 22.59 17.09 22.25 17.5 22.25H23.5C23.91 22.25 24.25 22.59 24.25 23C24.25 23.41 23.91 23.75 23.5 23.75Z" fill="#1678F2"/>
<rect x="0.5" y="0.5" width="43" height="43" rx="21.5" stroke="#DFE4EC"/>
<rect x="0.5" y="0.5" width="43" height="43" rx="21.5" stroke="#1678F2"/>
</svg>
