<svg width="40" height="40" viewBox="0 0 40 40" fill="none" xmlns="http://www.w3.org/2000/svg">
<g id="vuesax/bulk/document-upload">
<g id="document-upload">
<path id="Vector" opacity="0.4" d="M34.1641 16.9834H29.3474C25.3974 16.9834 22.1807 13.7667 22.1807 9.81671V5.00004C22.1807 4.08337 21.4307 3.33337 20.5141 3.33337H13.4474C8.31406 3.33337 4.16406 6.66671 4.16406 12.6167V27.3834C4.16406 33.3334 8.31406 36.6667 13.4474 36.6667H26.5474C31.6807 36.6667 35.8307 33.3334 35.8307 27.3834V18.65C35.8307 17.7334 35.0807 16.9834 34.1641 16.9834Z" fill="#8C90A5"/>
<path id="Vector_2" d="M26.3354 3.68328C25.6521 2.99995 24.4688 3.46661 24.4688 4.41661V10.2333C24.4688 12.6666 26.5354 14.6833 29.0521 14.6833C30.6354 14.6999 32.8354 14.6999 34.7188 14.6999C35.6687 14.6999 36.1687 13.5833 35.5021 12.9166C33.1021 10.4999 28.8021 6.14995 26.3354 3.68328Z" fill="#8C90A5"/>
<path id="Vector_3" d="M19.2177 20.7834L15.8844 17.45C15.8677 17.4334 15.851 17.4334 15.851 17.4167C15.751 17.3167 15.6177 17.2334 15.4844 17.1667C15.4677 17.1667 15.4677 17.1667 15.451 17.1667C15.3177 17.1167 15.1844 17.1 15.051 17.0834C15.001 17.0834 14.9677 17.0834 14.9177 17.0834C14.8177 17.0834 14.701 17.1167 14.601 17.15C14.551 17.1667 14.5177 17.1834 14.4844 17.2C14.351 17.2667 14.2177 17.3334 14.1177 17.45L10.7844 20.7834C10.301 21.2667 10.301 22.0667 10.7844 22.55C11.2677 23.0334 12.0677 23.0334 12.551 22.55L13.751 21.35V28.3334C13.751 29.0167 14.3177 29.5834 15.001 29.5834C15.6844 29.5834 16.251 29.0167 16.251 28.3334V21.35L17.451 22.55C17.701 22.8 18.0177 22.9167 18.3344 22.9167C18.651 22.9167 18.9677 22.8 19.2177 22.55C19.701 22.0667 19.701 21.2667 19.2177 20.7834Z" fill="#8C90A5"/>
</g>
</g>
</svg>
