<svg width="16" height="16" viewBox="0 0 16 16" fill="none" xmlns="http://www.w3.org/2000/svg">
<path d="M8 15C4.14 15 1 11.86 1 8C1 4.14 4.14 1 8 1C11.86 1 15 4.14 15 8C15 11.86 11.86 15 8 15ZM8 2C4.69 2 2 4.69 2 8C2 11.31 4.69 14 8 14C11.31 14 14 11.31 14 8C14 4.69 11.31 2 8 2Z" fill="#19224C"/>
<path d="M8 4.5C6.89 4.5 6 5.39 6 6.5H7C7 5.95 7.45 5.5 8 5.5C8.55 5.5 9 5.95 9 6.5C9 7.5 7.5 7.38 7.5 9H8.5C8.5 7.88 10 7.75 10 6.5C10 5.39 9.11 4.5 8 4.5Z" fill="#19224C"/>
<path d="M7.99891 11.62C8.34132 11.62 8.61891 11.3424 8.61891 11C8.61891 10.6576 8.34132 10.38 7.99891 10.38C7.65649 10.38 7.37891 10.6576 7.37891 11C7.37891 11.3424 7.65649 11.62 7.99891 11.62Z" fill="#19224C"/>
<path d="M6.5 7C6.77614 7 7 6.77614 7 6.5C7 6.22386 6.77614 6 6.5 6C6.22386 6 6 6.22386 6 6.5C6 6.77614 6.22386 7 6.5 7Z" fill="#19224C"/>
<path d="M8 9.5C8.27614 9.5 8.5 9.27614 8.5 9C8.5 8.72386 8.27614 8.5 8 8.5C7.72386 8.5 7.5 8.72386 7.5 9C7.5 9.27614 7.72386 9.5 8 9.5Z" fill="#19224C"/>
</svg>
