<svg width="28" height="29" viewBox="0 0 28 29" fill="none" xmlns="http://www.w3.org/2000/svg">
<circle opacity="0.2" cx="14" cy="14.5" r="14" fill="#1678F2"/>
<path d="M14 21C10.14 21 7 17.86 7 14C7 10.14 10.14 7 14 7C17.86 7 21 10.14 21 14C21 17.86 17.86 21 14 21ZM14 8C10.69 8 8 10.69 8 14C8 17.31 10.69 20 14 20C17.31 20 20 17.31 20 14C20 10.69 17.31 8 14 8Z" fill="#1678F2"/>
<path d="M14 10.5C12.89 10.5 12 11.39 12 12.5H13C13 11.95 13.45 11.5 14 11.5C14.55 11.5 15 11.95 15 12.5C15 13.5 13.5 13.38 13.5 15H14.5C14.5 13.88 16 13.75 16 12.5C16 11.39 15.11 10.5 14 10.5Z" fill="#1678F2"/>
<path d="M13.9989 17.62C14.3413 17.62 14.6189 17.3424 14.6189 17C14.6189 16.6576 14.3413 16.38 13.9989 16.38C13.6565 16.38 13.3789 16.6576 13.3789 17C13.3789 17.3424 13.6565 17.62 13.9989 17.62Z" fill="#1678F2"/>
<path d="M12.5 13C12.7761 13 13 12.7761 13 12.5C13 12.2239 12.7761 12 12.5 12C12.2239 12 12 12.2239 12 12.5C12 12.7761 12.2239 13 12.5 13Z" fill="#1678F2"/>
<path d="M14 15.5C14.2761 15.5 14.5 15.2761 14.5 15C14.5 14.7239 14.2761 14.5 14 14.5C13.7239 14.5 13.5 14.7239 13.5 15C13.5 15.2761 13.7239 15.5 14 15.5Z" fill="#1678F2"/>
</svg>
