<svg width="16" height="16" viewBox="0 0 16 16" fill="none" xmlns="http://www.w3.org/2000/svg">
<path d="M9.0013 6.66663H11.3346M4.66797 10.3333H11.3346M5.0013 2.66663H11.0013C11.4146 2.66663 11.7813 2.67996 12.108 2.72663C13.8613 2.91996 14.3346 3.74663 14.3346 5.99996V9.99996C14.3346 12.2533 13.8613 13.08 12.108 13.2733C11.7813 13.32 11.4146 13.3333 11.0013 13.3333H5.0013C4.58797 13.3333 4.2213 13.32 3.89464 13.2733C2.1413 13.08 1.66797 12.2533 1.66797 9.99996V5.99996C1.66797 3.74663 2.1413 2.91996 3.89464 2.72663C4.2213 2.67996 4.58797 2.66663 5.0013 2.66663Z" stroke="#19224C" stroke-linecap="round" stroke-linejoin="round"/>
<path d="M6.73047 6.66663H6.73647M4.73047 6.66663H4.73647" stroke="#19224C" stroke-width="1.33333" stroke-linecap="round" stroke-linejoin="round"/>
</svg>
