<svg width="13" height="13" viewBox="0 0 13 13" fill="none" xmlns="http://www.w3.org/2000/svg">
<path d="M6.4999 5.04837C7.14448 5.04837 7.6699 4.52296 7.6699 3.87837C7.6699 3.23379 7.14448 2.70837 6.4999 2.70837C5.85531 2.70837 5.3299 3.23379 5.3299 3.87837C5.3299 4.52296 5.85531 5.04837 6.4999 5.04837ZM3.67781 10.2917C4.3224 10.2917 4.84781 9.76629 4.84781 9.12171C4.84781 8.47712 4.3224 7.95171 3.67781 7.95171C3.03323 7.95171 2.50781 8.47712 2.50781 9.12171C2.50781 9.76629 3.02781 10.2917 3.67781 10.2917ZM9.32198 10.2917C9.96656 10.2917 10.492 9.76629 10.492 9.12171C10.492 8.47712 9.96656 7.95171 9.32198 7.95171C8.6774 7.95171 8.15198 8.47712 8.15198 9.12171C8.15198 9.76629 8.6774 10.2917 9.32198 10.2917Z" stroke="#19224C" stroke-width="0.8125" stroke-linecap="round" stroke-linejoin="round"/>
</svg>
