<svg width="16" height="16" viewBox="0 0 16 16" fill="none" xmlns="http://www.w3.org/2000/svg">
<path d="M7.99927 6.21325C8.7926 6.21325 9.43927 5.56659 9.43927 4.77325C9.43927 3.97992 8.7926 3.33325 7.99927 3.33325C7.20594 3.33325 6.55927 3.97992 6.55927 4.77325C6.55927 5.56659 7.20594 6.21325 7.99927 6.21325ZM4.52594 12.6666C5.31927 12.6666 5.96594 12.0199 5.96594 11.2266C5.96594 10.4333 5.31927 9.78659 4.52594 9.78659C3.7326 9.78659 3.08594 10.4333 3.08594 11.2266C3.08594 12.0199 3.72594 12.6666 4.52594 12.6666ZM11.4726 12.6666C12.2659 12.6666 12.9126 12.0199 12.9126 11.2266C12.9126 10.4333 12.2659 9.78659 11.4726 9.78659C10.6793 9.78659 10.0326 10.4333 10.0326 11.2266C10.0326 12.0199 10.6793 12.6666 11.4726 12.6666Z" stroke="#19224C" stroke-linecap="round" stroke-linejoin="round"/>
</svg>
