<svg xmlns="http://www.w3.org/2000/svg" width="12" height="12" viewBox="0 0 12 12" fill="none">
<path d="M10.8497 9.59583L10.6163 9.42083C10.5865 9.46068 10.5463 9.47916 10.4997 9.47916C10.4727 9.47916 10.4448 9.47229 10.4103 9.44853C10.346 9.3973 10.3365 9.30722 10.3822 9.24696L10.3829 9.24601C11.3767 7.92307 11.3767 6.07693 10.3829 4.75398L10.3829 4.75398L10.3822 4.75304C10.3358 4.69185 10.3463 4.59993 10.4133 4.54915C10.4743 4.50292 10.5659 4.5132 10.6168 4.57975C11.682 6.00444 11.6817 7.99666 10.6161 9.42112L10.8497 9.59583ZM10.8497 9.59583C11.993 8.0675 11.993 5.9325 10.8497 4.40416L10.2372 9.68333C10.3188 9.74166 10.4063 9.77083 10.4997 9.77083C10.6338 9.77083 10.7622 9.7125 10.8497 9.59583Z" fill="#19224C" stroke="#19224C" stroke-width="0.583333"/>
<path d="M11.45 10.7054L11.4509 10.7042C13.0862 8.52387 13.0862 5.47628 11.4509 3.29591L11.4509 3.29591L11.45 3.29479C11.4037 3.2336 11.4141 3.14168 11.4812 3.0909C11.5422 3.04463 11.6339 3.05496 11.6848 3.12165C13.3972 5.4037 13.3971 8.59728 11.6843 10.8792L11.6841 10.8791L11.6786 10.887C11.6591 10.9149 11.6205 10.9376 11.5675 10.9376C11.5406 10.9376 11.5126 10.9307 11.4782 10.9069C11.4138 10.8557 11.4044 10.7656 11.45 10.7054Z" fill="#19224C" stroke="#19224C" stroke-width="0.583333"/>
<path d="M4.28573 3.7851L4.28576 3.78515L4.29056 3.78214L5.99328 2.71502C5.9934 2.71495 5.99352 2.71488 5.99363 2.71481C6.79027 2.21839 7.50714 2.1672 8.0364 2.45989C8.56034 2.7528 8.89567 3.38402 8.89567 4.3225V9.6775C8.89567 10.6161 8.56024 11.2474 8.03618 11.5402C7.82046 11.66 7.5783 11.7192 7.32067 11.7192C6.92051 11.7192 6.47175 11.584 5.99359 11.2852L4.29056 10.2179L4.29059 10.2178L4.28573 10.2149C4.12871 10.1207 3.94321 10.0625 3.75067 10.0625H3.20817H2.9165C2.26263 10.0625 1.79967 9.88361 1.49962 9.58355C1.19956 9.2835 1.02067 8.82054 1.02067 8.16667V5.83333C1.02067 5.17946 1.19956 4.71651 1.49962 4.41645C1.79967 4.11639 2.26263 3.9375 2.9165 3.9375H3.20817H3.75067C3.94321 3.9375 4.12871 3.87932 4.28573 3.7851Z" fill="#19224C" stroke="#19224C" stroke-width="0.583333"/>
</svg>