<svg width="12" height="12" viewBox="0 0 12 12" fill="none" xmlns="http://www.w3.org/2000/svg">
<path d="M1 5.00002V7.00002C1 8.00002 1.5 8.50002 2.5 8.50002H3.215C3.4 8.50002 3.585 8.55502 3.745 8.65002L5.205 9.56502C6.465 10.355 7.5 9.78002 7.5 8.29502V3.70502C7.5 2.21502 6.465 1.64502 5.205 2.43502L3.745 3.35002C3.585 3.44502 3.4 3.50002 3.215 3.50002H2.5C1.5 3.50002 1 4.00002 1 5.00002Z" stroke="#19224C" stroke-width="0.9"/>
<path d="M9 4C9.43325 4.57677 9.6675 5.27863 9.6675 6C9.6675 6.72137 9.43325 7.42323 9 8M9.915 2.75C10.6185 3.6875 10.9987 4.82793 10.9987 6C10.9987 7.17207 10.6185 8.3125 9.915 9.25" stroke="#19224C" stroke-width="0.9" stroke-linecap="round" stroke-linejoin="round"/>
</svg>
