<svg width="20" height="20" viewBox="0 0 20 20" fill="none" xmlns="http://www.w3.org/2000/svg">
<path d="M9.99967 16.6667C8.13856 16.6667 6.56217 16.0209 5.27051 14.7292C3.97884 13.4375 3.33301 11.8612 3.33301 10C3.33301 8.13893 3.97884 6.56254 5.27051 5.27087C6.56217 3.97921 8.13856 3.33337 9.99967 3.33337C10.958 3.33337 11.8747 3.53115 12.7497 3.92671C13.6247 4.32226 14.3747 4.88837 14.9997 5.62504V3.33337H16.6663V9.16671H10.833V7.50004H14.333C13.8886 6.72226 13.2808 6.11115 12.5097 5.66671C11.7386 5.22226 10.9019 5.00004 9.99967 5.00004C8.61079 5.00004 7.43023 5.48615 6.45801 6.45837C5.48579 7.4306 4.99967 8.61115 4.99967 10C4.99967 11.3889 5.48579 12.5695 6.45801 13.5417C7.43023 14.5139 8.61079 15 9.99967 15C11.0691 15 12.0344 14.6945 12.8955 14.0834C13.7566 13.4723 14.3608 12.6667 14.708 11.6667H16.458C16.0691 13.1389 15.2775 14.3403 14.083 15.2709C12.8886 16.2014 11.5275 16.6667 9.99967 16.6667Z" fill="#B1BED2"/>
</svg>
