<svg width="20" height="20" viewBox="0 0 20 20" fill="none" xmlns="http://www.w3.org/2000/svg">
<path d="M7.79038 3.79322L7.79057 3.79332L14.9239 7.35998C16.4804 8.13823 17.1581 9.11243 17.1581 9.99999C17.1581 10.8876 16.4804 11.8617 14.9239 12.64L7.79057 16.2067C6.60868 16.7976 5.62346 17.1082 4.85278 17.1817C4.08081 17.2553 3.56556 17.0888 3.25784 16.7807C2.95008 16.4725 2.78432 15.957 2.85851 15.1853C2.93257 14.4151 3.24366 13.4309 3.8345 12.2513C3.83454 12.2512 3.83459 12.2511 3.83463 12.251L4.55941 10.8098L4.55943 10.8098L4.56077 10.807C4.80994 10.2987 4.80994 9.70957 4.56077 9.20128L4.56078 9.20127L4.55972 9.19916L3.83473 7.74916L3.83463 7.74897C3.24374 6.56924 2.93315 5.58511 2.8597 4.81487C2.78614 4.04338 2.95251 3.52772 3.26082 3.21941C3.56913 2.9111 4.08479 2.74473 4.85628 2.8183C5.62652 2.89174 6.61065 3.20233 7.79038 3.79322ZM7.8664 10.925H12.3664C12.8737 10.925 13.2914 10.5073 13.2914 9.99999C13.2914 9.49264 12.8737 9.07499 12.3664 9.07499H7.8664C7.35905 9.07499 6.9414 9.49264 6.9414 9.99999C6.9414 10.5073 7.35905 10.925 7.8664 10.925Z" fill="#1678F2" stroke="#1678F2" stroke-width="0.599997"/>
</svg>
