<svg width="16" height="16" viewBox="0 0 16 16" fill="none" xmlns="http://www.w3.org/2000/svg">
<path fill-rule="evenodd" clip-rule="evenodd" d="M4.52722 4.5286C4.65224 4.40362 4.82178 4.33341 4.99856 4.33341C5.17533 4.33341 5.34487 4.40362 5.46989 4.5286L7.99856 7.05727L10.5272 4.5286C10.5887 4.46493 10.6623 4.41414 10.7436 4.3792C10.825 4.34426 10.9124 4.32587 11.001 4.3251C11.0895 4.32433 11.1773 4.3412 11.2592 4.37472C11.3411 4.40824 11.4156 4.45774 11.4782 4.52034C11.5407 4.58293 11.5902 4.65737 11.6238 4.7393C11.6573 4.82123 11.6742 4.90901 11.6734 4.99753C11.6726 5.08605 11.6542 5.17353 11.6193 5.25487C11.5843 5.3362 11.5336 5.40977 11.4699 5.47127L8.94122 7.99993L11.4699 10.5286C11.5913 10.6543 11.6585 10.8227 11.657 10.9975C11.6555 11.1723 11.5854 11.3395 11.4618 11.4631C11.3382 11.5868 11.171 11.6569 10.9962 11.6584C10.8214 11.6599 10.653 11.5927 10.5272 11.4713L7.99856 8.9426L5.46989 11.4713C5.34415 11.5927 5.17575 11.6599 5.00095 11.6584C4.82616 11.6569 4.65895 11.5868 4.53534 11.4631C4.41174 11.3395 4.34162 11.1723 4.34011 10.9975C4.33859 10.8227 4.40578 10.6543 4.52722 10.5286L7.05589 7.99993L4.52722 5.47127C4.40224 5.34625 4.33203 5.17671 4.33203 4.99993C4.33203 4.82316 4.40224 4.65362 4.52722 4.5286Z" fill="white"/>
</svg>
