<svg width="20" height="20" viewBox="0 0 20 20" fill="none" xmlns="http://www.w3.org/2000/svg">
<path d="M10 18.3334C14.5834 18.3334 18.3334 14.5834 18.3334 10.0001C18.3334 5.41675 14.5834 1.66675 10 1.66675C5.41669 1.66675 1.66669 5.41675 1.66669 10.0001C1.66669 14.5834 5.41669 18.3334 10 18.3334ZM7.64169 12.3584L12.3584 7.64175L7.64169 12.3584ZM12.3584 12.3584L7.64169 7.64175L12.3584 12.3584Z" fill="white"/>
<path d="M7.64169 12.3584L12.3584 7.64175M12.3584 12.3584L7.64169 7.64175M10 18.3334C14.5834 18.3334 18.3334 14.5834 18.3334 10.0001C18.3334 5.41675 14.5834 1.66675 10 1.66675C5.41669 1.66675 1.66669 5.41675 1.66669 10.0001C1.66669 14.5834 5.41669 18.3334 10 18.3334Z" stroke="#046AF3" stroke-width="1.25" stroke-linecap="round" stroke-linejoin="round"/>
</svg>
