<svg width="13" height="13" viewBox="0 0 13 13" fill="none" xmlns="http://www.w3.org/2000/svg">
<path d="M6.40793 12.8681L9.0779 5.79726H10.2932L13 12.8681H11.7663L11.1402 11.0451H8.28612L7.64164 12.8681H6.40793ZM8.63598 10.014H10.7351L9.70397 7.12303H9.66714L8.63598 10.014ZM1.76771 11.1004L0.92068 10.2533L3.9221 7.27034C3.55382 6.85297 3.22852 6.42639 2.94618 5.9906C2.66383 5.55481 2.41832 5.09754 2.20963 4.61879H3.44334C3.62748 4.96251 3.81775 5.27554 4.01416 5.55788C4.21058 5.84022 4.44381 6.13484 4.71388 6.44173C5.15581 5.96298 5.52101 5.48116 5.80949 4.99626C6.09797 4.51137 6.34042 3.99272 6.53683 3.44031H0V2.26184H4.12465V1.08337H5.30312V2.26184H9.42776V3.44031H7.7153C7.50661 4.11548 7.22734 4.78144 6.87748 5.43819C6.52762 6.09494 6.08876 6.7118 5.56091 7.28876L6.97875 8.74343L6.53683 9.94032L4.71388 8.1542L1.76771 11.1004Z" fill="#19224C"/>
</svg>
