<svg width="20" height="20" viewBox="0 0 20 20" fill="none" xmlns="http://www.w3.org/2000/svg">
<path d="M13.0079 11.3109L13.0079 11.3109L13.005 11.3137L7.57781 16.741C7.52261 16.7907 7.46518 16.8083 7.42467 16.8083C7.37088 16.8083 7.32038 16.7898 7.27764 16.7471C7.19869 16.6681 7.19869 16.5319 7.27764 16.453L12.711 11.0196C13.2737 10.4569 13.2737 9.54311 12.711 8.98039L7.27764 3.54706C7.19869 3.46811 7.19869 3.33193 7.27764 3.25298C7.35658 3.17403 7.49276 3.17403 7.57171 3.25298L13.005 8.68631C13.3526 9.03383 13.5497 9.50312 13.5497 10C13.5497 10.5004 13.3586 10.967 13.0079 11.3109Z" fill="#292D32" stroke="#19224C" stroke-width="0.833333"/>
</svg>
