<svg width="16" height="16" viewBox="0 0 24 24" fill="none" xmlns="http://www.w3.org/2000/svg">
<path d="M2.96856 5.72764L2.96879 5.72762L5.00879 5.52762L5.0105 5.52745C10.2851 4.99206 15.6389 5.19936 21.0212 5.72762L21.0215 5.72764C21.1526 5.74044 21.2559 5.8623 21.2424 6.00146L21.2423 6.00145L21.2415 6.01166C21.2323 6.13162 21.1284 6.23001 21 6.23001H20.9999H20.9998H20.9997H20.9995H20.9994H20.9993H20.9992H20.9991H20.9989H20.9988H20.9987H20.9986H20.9985H20.9983H20.9982H20.9981H20.998H20.9979H20.9977H20.9976H20.9975H20.9974H20.9973H20.9971H20.997H20.9969H20.9968H20.9966H20.9965H20.9964H20.9963H20.9961H20.996H20.9959H20.9958H20.9956H20.9955H20.9954H20.9953H20.9951H20.995H20.9949H20.9948H20.9946H20.9945H20.9944H20.9943H20.9941H20.994H20.9939H20.9937H20.9936H20.9935H20.9934H20.9932H20.9931H20.993H20.9928H20.9927H20.9926H20.9925H20.9923H20.9922H20.9921H20.9919H20.9918H20.9917H20.9915H20.9914H20.9913H20.9911H20.991H20.9909H20.9907H20.9906H20.9905H20.9903H20.9902H20.9901H20.9899H20.9898H20.9897H20.9895H20.9894H20.9893H20.9891H20.989H20.9889H20.9887H20.9886H20.9885H20.9883H20.9882H20.988H20.9879H20.9878H20.9876H20.9875H20.9874H20.9872H20.9871H20.9869H20.9868H20.9867H20.9865H20.9864H20.9862H20.9861H20.986H20.9858H20.9857H20.9856H20.9854H20.9853H20.9851H20.985H20.9848H20.9847H20.9846H20.9844H20.9843H20.9841H20.984H20.9839H20.9837H20.9836H20.9834H20.9833H20.9831H20.983H20.9829H20.9827H20.9826H20.9824H20.9823H20.9821H20.982H20.9819H20.9817H20.9816H20.9814H20.9813H20.9811H20.981H20.9808H20.9807H20.9805H20.9804H20.9803H20.9801H20.98H20.9798H20.9797H20.9795H20.9794H20.9792H20.9791H20.9789H20.9788H20.9786H20.9785H20.9783H20.9782H20.978H20.9779H20.9777H20.9776H20.9774H20.9773H20.9771H20.977H20.9768H20.9767H20.9765H20.9764H20.9762H20.9761H20.9759H20.9758H20.9756H20.9755H20.9753H20.9752H20.975H20.9749H20.9747H20.9746H20.9744H20.9743H20.9741H20.974H20.9738H20.9737H20.9735H20.9734H20.9732H20.973H20.9729H20.9727H20.9726H20.9724H20.9723H20.9721H20.972H20.9718H20.9717H20.9715H20.9714H20.9712H20.971H20.9709H20.9707H20.9706H20.9704H20.9703H20.9701H20.9699H20.9698H20.9696H20.9695H20.9693H20.9692H20.969H20.9689H20.9687H20.9685H20.9684H20.9682H20.9681H20.9679H20.9677H20.9676H20.9674H20.9673H20.9671H20.967H20.9668H20.9666H20.9665H20.9663H20.9662H20.966H20.9658H20.9657H20.9655H20.9654H20.9652H20.965H20.9649H20.9647H20.9646H20.9644H20.9642H20.9641H20.9639H20.9638H20.9636H20.9634H20.9633H20.9631H20.9629H20.9628H20.9626H20.9625H20.9623H20.9621H20.962H20.9618H20.9617H20.9615H20.9613H20.9612H20.961H20.9608H20.9607H20.9605H20.9604H20.9602H20.96H20.9599H20.9597H20.9595H20.9594H20.9592H20.959H20.9589H20.9587H20.9585H20.9584H20.9582H20.9581H20.9579H20.9577H20.9576H20.9574H20.9572H20.9571H20.9569H20.9567H20.9566H20.9564H20.9562H20.9561H20.9559H20.9557H20.9556H20.9554H20.9552H20.9551H20.9549H20.9547H20.9546H20.9544H20.9542H20.9541H20.9539H20.9537H20.9536H20.9534H20.9532H20.9531H20.9529H20.9527H20.9526H20.9524H20.9522H20.9521H20.9519H20.9517H20.9516H20.9514H20.9512H20.951H20.9509H20.9507H20.9505H20.9504H20.9502H20.95H20.9499H20.9497H20.9495H20.9494H20.9492H20.949H20.9488H20.9487H20.9485H20.9483H20.9482H20.948H20.9478H20.9477H20.9475H20.9473H20.9471H20.947H20.9468H20.9466H20.9465H20.9463H20.9461H20.946H20.9458H20.9456H20.9454H20.9453H20.9451H20.945C15.6445 5.69998 10.337 5.49884 5.0704 6.03247C5.07014 6.0325 5.06987 6.03253 5.0696 6.03255L3.0326 6.23226C3.03243 6.23228 3.03226 6.23229 3.03209 6.23231C2.88193 6.24635 2.76106 6.14228 2.74775 6.0026C2.73378 5.85587 2.83413 5.74076 2.96856 5.72764Z" fill="#19224C" stroke="#19224C"/>
<path d="M8.46812 5.21961C8.46811 5.21961 8.4681 5.21961 8.46809 5.21961L8.4681 5.21957L8.4562 5.21748C8.32208 5.19401 8.23119 5.05809 8.25252 4.93619L8.2531 4.93281L8.4731 3.62281L8.47321 3.6222C8.5566 3.12186 8.63936 2.68383 8.90991 2.34957C9.15261 2.04971 9.62364 1.75 10.69 1.75H13.31C14.3761 1.75 14.8502 2.05891 15.0951 2.36644C15.3677 2.70887 15.4485 3.1516 15.5265 3.63046L15.5265 3.63046L15.527 3.63343L15.747 4.93343L15.7471 4.93415C15.7712 5.07527 15.6716 5.19816 15.5558 5.21553L15.5558 5.21543L15.5459 5.21713C15.4047 5.24123 15.2818 5.14164 15.2645 5.02583L15.2646 5.02582L15.263 5.01657L15.0433 3.71859L15.041 3.70407C15.0086 3.50231 14.9764 3.30232 14.929 3.13454C14.8786 2.95627 14.7964 2.75644 14.6263 2.59311C14.4535 2.42715 14.243 2.34919 14.0338 2.3091C13.8309 2.27019 13.5908 2.26 13.32 2.26H10.7C10.4321 2.26 10.1944 2.26819 9.99489 2.30338C9.78973 2.33956 9.57759 2.41193 9.40208 2.57621C9.22894 2.73827 9.14632 2.939 9.09567 3.11616C9.04882 3.28006 9.01559 3.47745 8.98163 3.67921C8.98019 3.68776 8.97875 3.69633 8.9773 3.7049L8.74766 5.00289L8.74761 5.00288L8.74646 5.00996C8.72663 5.13222 8.62054 5.22 8.50001 5.22L8.47754 5.2199L8.46812 5.21961Z" fill="#19224C" stroke="#19224C"/>
<path d="M4.89895 9.15779L4.89897 9.15779L4.89866 9.15351C4.88955 9.02908 4.9905 8.90282 5.13032 8.88919C5.27967 8.88527 5.39068 8.99213 5.4012 9.12491L6.05103 19.1922L6.05101 19.1922L6.05129 19.1961L6.05307 19.2206C6.07918 19.5817 6.10414 19.9269 6.16166 20.2231C6.22151 20.5314 6.32566 20.8412 6.54786 21.1004C6.99622 21.6235 7.75492 21.75 8.78999 21.75H15.21C16.249 21.75 17.011 21.6238 17.4596 21.1004C17.6824 20.8404 17.7858 20.5298 17.8444 20.2209C17.9009 19.9224 17.9238 19.5745 17.9477 19.2109L17.9489 19.1928L17.949 19.1922L18.5988 9.12495C18.6091 8.99563 18.7264 8.88537 18.8696 8.88918C19.0129 8.90278 19.1107 9.02286 19.1012 9.15437L19.101 9.15779L18.4512 19.2248C18.4512 19.2253 18.4512 19.2259 18.4511 19.2264C18.3941 20.0351 18.3294 20.7563 17.9409 21.299C17.5852 21.7958 16.8661 22.25 15.21 22.25H8.78999C7.13386 22.25 6.41473 21.7958 6.05905 21.299C5.67061 20.7563 5.6059 20.035 5.54886 19.2263C5.54882 19.2258 5.54879 19.2253 5.54875 19.2248L4.89895 9.15779Z" fill="#19224C" stroke="#19224C"/>
<path d="M13.66 17.25H10.33C9.91999 17.25 9.57999 16.91 9.57999 16.5C9.57999 16.09 9.91999 15.75 10.33 15.75H13.66C14.07 15.75 14.41 16.09 14.41 16.5C14.41 16.91 14.07 17.25 13.66 17.25Z" fill="#19224C"/>
<path d="M14.5 13.25H9.5C9.09 13.25 8.75 12.91 8.75 12.5C8.75 12.09 9.09 11.75 9.5 11.75H14.5C14.91 11.75 15.25 12.09 15.25 12.5C15.25 12.91 14.91 13.25 14.5 13.25Z" fill="#19224C"/>
</svg>
