<svg width="16" height="16" viewBox="0 0 16 16" fill="none" xmlns="http://www.w3.org/2000/svg">
<path d="M7.94645 15.1666C3.99979 15.1666 0.779785 11.9533 0.779785 7.99992C0.779785 4.04659 3.99979 0.833252 7.94645 0.833252C11.8931 0.833252 15.1131 4.04659 15.1131 7.99992C15.1131 11.9533 11.8998 15.1666 7.94645 15.1666ZM7.94645 1.83325C4.54645 1.83325 1.77979 4.59992 1.77979 7.99992C1.77979 11.3999 4.54645 14.1666 7.94645 14.1666C11.3465 14.1666 14.1131 11.3999 14.1131 7.99992C14.1131 4.59992 11.3465 1.83325 7.94645 1.83325Z" fill="#1678F2"/>
<path d="M10.6131 8.5H5.27979C5.00645 8.5 4.77979 8.27333 4.77979 8C4.77979 7.72667 5.00645 7.5 5.27979 7.5H10.6131C10.8865 7.5 11.1131 7.72667 11.1131 8C11.1131 8.27333 10.8931 8.5 10.6131 8.5Z" fill="#1678F2"/>
</svg>
