<svg width="14" height="14" viewBox="0 0 14 14" fill="none" xmlns="http://www.w3.org/2000/svg">
<mask id="path-1-inside-1_461_3703" fill="white">
<path d="M8.60384 11.0833C8.60384 11.97 7.88634 12.6875 6.99967 12.6875C6.11301 12.6875 5.39551 11.97 5.39551 11.0833C5.39551 10.1967 6.11301 9.47917 6.99967 9.47917C7.88634 9.47917 8.60384 10.1967 8.60384 11.0833ZM6.27051 11.0833C6.27051 11.4858 6.59717 11.8125 6.99967 11.8125C7.40217 11.8125 7.72884 11.4858 7.72884 11.0833C7.72884 10.6808 7.40217 10.3542 6.99967 10.3542C6.59717 10.3542 6.27051 10.6808 6.27051 11.0833Z"/>
</mask>
<path d="M8.60384 11.0833C8.60384 11.97 7.88634 12.6875 6.99967 12.6875C6.11301 12.6875 5.39551 11.97 5.39551 11.0833C5.39551 10.1967 6.11301 9.47917 6.99967 9.47917C7.88634 9.47917 8.60384 10.1967 8.60384 11.0833ZM6.27051 11.0833C6.27051 11.4858 6.59717 11.8125 6.99967 11.8125C7.40217 11.8125 7.72884 11.4858 7.72884 11.0833C7.72884 10.6808 7.40217 10.3542 6.99967 10.3542C6.59717 10.3542 6.27051 10.6808 6.27051 11.0833Z" fill="#19224C"/>
<path d="M7.60384 11.0833C7.60384 11.4177 7.33406 11.6875 6.99967 11.6875V13.6875C8.43863 13.6875 9.60384 12.5223 9.60384 11.0833H7.60384ZM6.99967 11.6875C6.66529 11.6875 6.39551 11.4177 6.39551 11.0833H4.39551C4.39551 12.5223 5.56072 13.6875 6.99967 13.6875V11.6875ZM6.39551 11.0833C6.39551 10.749 6.66529 10.4792 6.99967 10.4792V8.47917C5.56072 8.47917 4.39551 9.64438 4.39551 11.0833H6.39551ZM6.99967 10.4792C7.33406 10.4792 7.60384 10.749 7.60384 11.0833H9.60384C9.60384 9.64438 8.43863 8.47917 6.99967 8.47917V10.4792ZM5.27051 11.0833C5.27051 12.0381 6.04489 12.8125 6.99967 12.8125V10.8125C7.14946 10.8125 7.27051 10.9335 7.27051 11.0833H5.27051ZM6.99967 12.8125C7.95446 12.8125 8.72884 12.0381 8.72884 11.0833H6.72884C6.72884 10.9335 6.84989 10.8125 6.99967 10.8125V12.8125ZM8.72884 11.0833C8.72884 10.1285 7.95446 9.35417 6.99967 9.35417V11.3542C6.84989 11.3542 6.72884 11.2331 6.72884 11.0833H8.72884ZM6.99967 9.35417C6.04489 9.35417 5.27051 10.1285 5.27051 11.0833H7.27051C7.27051 11.2331 7.14946 11.3542 6.99967 11.3542V9.35417Z" fill="#6D77A0" mask="url(#path-1-inside-1_461_3703)"/>
<mask id="path-3-inside-2_461_3703" fill="white">
<path d="M8.60384 2.91671C8.60384 3.80337 7.88634 4.52087 6.99967 4.52087C6.11301 4.52087 5.39551 3.80337 5.39551 2.91671C5.39551 2.03004 6.11301 1.31254 6.99967 1.31254C7.88634 1.31254 8.60384 2.03004 8.60384 2.91671ZM6.27051 2.91671C6.27051 3.31921 6.59717 3.64587 6.99967 3.64587C7.40217 3.64587 7.72884 3.31921 7.72884 2.91671C7.72884 2.51421 7.40217 2.18754 6.99967 2.18754C6.59717 2.18754 6.27051 2.51421 6.27051 2.91671Z"/>
</mask>
<path d="M8.60384 2.91671C8.60384 3.80337 7.88634 4.52087 6.99967 4.52087C6.11301 4.52087 5.39551 3.80337 5.39551 2.91671C5.39551 2.03004 6.11301 1.31254 6.99967 1.31254C7.88634 1.31254 8.60384 2.03004 8.60384 2.91671ZM6.27051 2.91671C6.27051 3.31921 6.59717 3.64587 6.99967 3.64587C7.40217 3.64587 7.72884 3.31921 7.72884 2.91671C7.72884 2.51421 7.40217 2.18754 6.99967 2.18754C6.59717 2.18754 6.27051 2.51421 6.27051 2.91671Z" fill="#19224C"/>
<path d="M7.60384 2.91671C7.60384 3.25109 7.33406 3.52087 6.99967 3.52087V5.52087C8.43863 5.52087 9.60384 4.35566 9.60384 2.91671H7.60384ZM6.99967 3.52087C6.66529 3.52087 6.39551 3.25109 6.39551 2.91671H4.39551C4.39551 4.35566 5.56072 5.52087 6.99967 5.52087V3.52087ZM6.39551 2.91671C6.39551 2.58233 6.66529 2.31254 6.99967 2.31254V0.312541C5.56072 0.312541 4.39551 1.47776 4.39551 2.91671H6.39551ZM6.99967 2.31254C7.33406 2.31254 7.60384 2.58233 7.60384 2.91671H9.60384C9.60384 1.47776 8.43863 0.312541 6.99967 0.312541V2.31254ZM5.27051 2.91671C5.27051 3.87149 6.04489 4.64587 6.99967 4.64587V2.64587C7.14946 2.64587 7.27051 2.76692 7.27051 2.91671H5.27051ZM6.99967 4.64587C7.95446 4.64587 8.72884 3.87149 8.72884 2.91671H6.72884C6.72884 2.76692 6.84989 2.64587 6.99967 2.64587V4.64587ZM8.72884 2.91671C8.72884 1.96192 7.95446 1.18754 6.99967 1.18754V3.18754C6.84989 3.18754 6.72884 3.06649 6.72884 2.91671H8.72884ZM6.99967 1.18754C6.04489 1.18754 5.27051 1.96192 5.27051 2.91671H7.27051C7.27051 3.06649 7.14946 3.18754 6.99967 3.18754V1.18754Z" fill="#6D77A0" mask="url(#path-3-inside-2_461_3703)"/>
<mask id="path-5-inside-3_461_3703" fill="white">
<path d="M8.60384 6.99996C8.60384 7.88663 7.88634 8.60413 6.99967 8.60413C6.11301 8.60413 5.39551 7.88663 5.39551 6.99996C5.39551 6.11329 6.11301 5.39579 6.99967 5.39579C7.88634 5.39579 8.60384 6.11329 8.60384 6.99996ZM6.27051 6.99996C6.27051 7.40246 6.59717 7.72913 6.99967 7.72913C7.40217 7.72913 7.72884 7.40246 7.72884 6.99996C7.72884 6.59746 7.40217 6.27079 6.99967 6.27079C6.59717 6.27079 6.27051 6.59746 6.27051 6.99996Z"/>
</mask>
<path d="M8.60384 6.99996C8.60384 7.88663 7.88634 8.60413 6.99967 8.60413C6.11301 8.60413 5.39551 7.88663 5.39551 6.99996C5.39551 6.11329 6.11301 5.39579 6.99967 5.39579C7.88634 5.39579 8.60384 6.11329 8.60384 6.99996ZM6.27051 6.99996C6.27051 7.40246 6.59717 7.72913 6.99967 7.72913C7.40217 7.72913 7.72884 7.40246 7.72884 6.99996C7.72884 6.59746 7.40217 6.27079 6.99967 6.27079C6.59717 6.27079 6.27051 6.59746 6.27051 6.99996Z" fill="#19224C"/>
<path d="M7.60384 6.99996C7.60384 7.33434 7.33406 7.60413 6.99967 7.60413V9.60413C8.43863 9.60413 9.60384 8.43891 9.60384 6.99996H7.60384ZM6.99967 7.60413C6.66529 7.60413 6.39551 7.33434 6.39551 6.99996H4.39551C4.39551 8.43891 5.56072 9.60413 6.99967 9.60413V7.60413ZM6.39551 6.99996C6.39551 6.66558 6.66529 6.39579 6.99967 6.39579V4.39579C5.56072 4.39579 4.39551 5.56101 4.39551 6.99996H6.39551ZM6.99967 6.39579C7.33406 6.39579 7.60384 6.66558 7.60384 6.99996H9.60384C9.60384 5.56101 8.43863 4.39579 6.99967 4.39579V6.39579ZM5.27051 6.99996C5.27051 7.95474 6.04489 8.72913 6.99967 8.72913V6.72913C7.14946 6.72913 7.27051 6.85017 7.27051 6.99996H5.27051ZM6.99967 8.72913C7.95446 8.72913 8.72884 7.95474 8.72884 6.99996H6.72884C6.72884 6.85017 6.84989 6.72913 6.99967 6.72913V8.72913ZM8.72884 6.99996C8.72884 6.04517 7.95446 5.27079 6.99967 5.27079V7.27079C6.84989 7.27079 6.72884 7.14974 6.72884 6.99996H8.72884ZM6.99967 5.27079C6.04489 5.27079 5.27051 6.04517 5.27051 6.99996H7.27051C7.27051 7.14974 7.14946 7.27079 6.99967 7.27079V5.27079Z" fill="#6D77A0" mask="url(#path-5-inside-3_461_3703)"/>
</svg>
