<svg width="14" height="14" viewBox="0 0 14 14" fill="none" xmlns="http://www.w3.org/2000/svg">
<path d="M5.64772 11.4659L5.64777 11.4658L5.64036 11.4619C5.51202 11.3944 5.35843 11.3779 5.24692 11.3779C5.1354 11.3779 4.98182 11.3944 4.85348 11.4619L4.85343 11.4618L4.84579 11.4661L2.56047 12.7429C2.56025 12.743 2.56004 12.7431 2.55982 12.7432C2.14126 12.9745 1.76994 12.9658 1.51956 12.8178L1.51757 12.8167C1.26297 12.6685 1.079 12.3491 1.079 11.8767V5.25C1.079 4.2008 1.93146 3.34834 2.98066 3.34834H7.51901C8.56821 3.34834 9.42067 4.2008 9.42067 5.25V11.8767C9.42067 12.348 9.23753 12.667 8.98381 12.8157C8.86356 12.8834 8.72556 12.9208 8.56901 12.9208C8.38287 12.9208 8.17178 12.8661 7.93712 12.7417L5.64772 11.4659ZM8.02529 12.5907L8.02569 12.591C8.15721 12.664 8.29817 12.7184 8.43916 12.7392C8.57689 12.7595 8.74293 12.7512 8.89263 12.6623C9.04364 12.5739 9.12854 12.4284 9.175 12.3031C9.22385 12.1713 9.24567 12.0221 9.24567 11.8708V5.24416C9.24567 4.29253 8.47065 3.51751 7.51901 3.51751H2.98066C2.02903 3.51751 1.254 4.29253 1.254 5.24416V11.8708C1.254 12.0221 1.27582 12.1713 1.32468 12.3031C1.37138 12.4291 1.45695 12.5754 1.60947 12.6637C1.76 12.7509 1.92797 12.7542 2.06067 12.7337C2.19958 12.7122 2.34098 12.659 2.47399 12.5851L2.47438 12.5849L4.76351 11.3093C4.89203 11.2417 5.0662 11.2 5.24984 11.2C5.4318 11.2 5.59984 11.241 5.7343 11.3141C5.73473 11.3143 5.73515 11.3145 5.73557 11.3148L8.02529 12.5907Z" fill="#1678F2" stroke="#1678F2" stroke-width="0.7"/>
<path d="M12.069 11.0075C11.8123 11.0075 11.544 10.9317 11.2698 10.7858L9.11734 9.58416C8.97734 9.50833 8.89567 9.3625 8.89567 9.205V5.25C8.89567 4.49167 8.27735 3.87334 7.51901 3.87334H4.6665C4.42734 3.87334 4.229 3.67501 4.229 3.43584V2.98667C4.229 1.74417 5.23816 0.735008 6.48066 0.735008H11.019C12.2615 0.735008 13.2707 1.74417 13.2707 2.98667V9.61334C13.2707 10.1733 13.049 10.6283 12.6582 10.8558C12.4832 10.955 12.2848 11.0075 12.069 11.0075ZM9.77067 8.94249L11.6957 10.0217C11.9057 10.1383 12.0982 10.1675 12.2148 10.0975C12.3257 10.0333 12.3957 9.84667 12.3957 9.6075V2.98083C12.3957 2.22249 11.7773 1.60417 11.019 1.60417H6.48066C5.72233 1.60417 5.104 2.22249 5.104 2.98083V2.99251H7.51901C8.76151 2.99251 9.77067 4.00166 9.77067 5.24416V8.94249Z" fill="#1678F2"/>
<path d="M6.41683 7.4375H4.0835C3.84433 7.4375 3.646 7.23917 3.646 7C3.646 6.76083 3.84433 6.5625 4.0835 6.5625H6.41683C6.656 6.5625 6.85433 6.76083 6.85433 7C6.85433 7.23917 6.656 7.4375 6.41683 7.4375Z" fill="#1678F2"/>
<path d="M5.25 8.60417C5.01083 8.60417 4.8125 8.40584 4.8125 8.16667V5.83334C4.8125 5.59417 5.01083 5.39584 5.25 5.39584C5.48917 5.39584 5.6875 5.59417 5.6875 5.83334V8.16667C5.6875 8.40584 5.48917 8.60417 5.25 8.60417Z" fill="#1678F2"/>
</svg>
