<svg width="21" height="21" viewBox="0 0 21 21" fill="none" xmlns="http://www.w3.org/2000/svg">
<path d="M12.9163 18.9584H7.91634C5.71124 18.9584 4.25668 18.4854 3.34385 17.5726C2.43102 16.6597 1.95801 15.2052 1.95801 13.0001V8.00008C1.95801 5.79498 2.43102 4.34042 3.34385 3.42759C4.25668 2.51476 5.71124 2.04175 7.91634 2.04175H12.9163C15.1214 2.04175 16.576 2.51476 17.4888 3.42759C18.4017 4.34042 18.8747 5.79498 18.8747 8.00008V13.0001C18.8747 15.2052 18.4017 16.6597 17.4888 17.5726C16.576 18.4854 15.1214 18.9584 12.9163 18.9584ZM7.91634 2.29175C5.96023 2.29175 4.48525 2.63449 3.518 3.60174C2.55075 4.56899 2.20801 6.04397 2.20801 8.00008V13.0001C2.20801 14.9562 2.55075 16.4312 3.518 17.3984C4.48525 18.3657 5.96023 18.7084 7.91634 18.7084H12.9163C14.8725 18.7084 16.3474 18.3657 17.3147 17.3984C18.2819 16.4312 18.6247 14.9562 18.6247 13.0001V8.00008C18.6247 6.04397 18.2819 4.56899 17.3147 3.60174C16.3474 2.63449 14.8725 2.29175 12.9163 2.29175H7.91634Z" fill="#19224C" stroke="#1678F2"/>
<path d="M13.541 8.125H7.29102C7.26087 8.125 7.22959 8.11272 7.20394 8.08707C7.1783 8.06143 7.16602 8.03015 7.16602 8C7.16602 7.96985 7.1783 7.93857 7.20394 7.91293C7.22959 7.88728 7.26087 7.875 7.29102 7.875H13.541C13.5712 7.875 13.6024 7.88728 13.6281 7.91293C13.6537 7.93857 13.666 7.96985 13.666 8C13.666 8.03015 13.6537 8.06143 13.6281 8.08707C13.6024 8.11272 13.5712 8.125 13.541 8.125Z" fill="#19224C" stroke="#1678F2"/>
<path d="M13.541 13.125H7.29102C7.26087 13.125 7.22959 13.1127 7.20394 13.0871C7.1783 13.0614 7.16602 13.0301 7.16602 13C7.16602 12.9699 7.1783 12.9386 7.20394 12.9129C7.22959 12.8873 7.26087 12.875 7.29102 12.875H13.541C13.5712 12.875 13.6024 12.8873 13.6281 12.9129C13.6537 12.9386 13.666 12.9699 13.666 13C13.666 13.0301 13.6537 13.0614 13.6281 13.0871C13.6024 13.1127 13.5712 13.125 13.541 13.125Z" fill="#19224C" stroke="#1678F2"/>
</svg>
