<svg width="16" height="16" viewBox="0 0 16 16" fill="none" xmlns="http://www.w3.org/2000/svg">
<path d="M1.99806 3.98409L3.35588 3.85097L3.35588 3.85098L3.35759 3.8508C6.85806 3.49549 10.4144 3.63265 13.9958 3.98406C13.996 3.98431 13.9961 3.98452 13.9961 3.98466C13.9961 3.9847 13.9961 3.98475 13.9961 3.98481L13.996 3.9848L13.9959 3.98669H13.9958H13.9957H13.9957H13.9956H13.9955H13.9954H13.9953H13.9952H13.9951H13.995H13.995H13.9949H13.9948H13.9947H13.9946H13.9945H13.9944H13.9943H13.9943H13.9942H13.9941H13.994H13.9939H13.9938H13.9937H13.9936H13.9935H13.9935H13.9934H13.9933H13.9932H13.9931H13.993H13.9929H13.9928H13.9927H13.9926H13.9925H13.9925H13.9924H13.9923H13.9922H13.9921H13.992H13.9919H13.9918H13.9917H13.9916H13.9915H13.9914H13.9914H13.9913H13.9912H13.9911H13.991H13.9909H13.9908H13.9907H13.9906H13.9905H13.9904H13.9903H13.9902H13.9901H13.99H13.99H13.9899H13.9898H13.9897H13.9896H13.9895H13.9894H13.9893H13.9892H13.9891H13.989H13.9889H13.9888H13.9887H13.9886H13.9885H13.9884H13.9883H13.9882H13.9881H13.988H13.9879H13.9878H13.9877H13.9877H13.9876H13.9875H13.9874H13.9873H13.9872H13.9871H13.987H13.9869H13.9868H13.9867H13.9866H13.9865H13.9864H13.9863H13.9862H13.9861H13.986H13.9859H13.9858H13.9857H13.9856H13.9855H13.9854H13.9853H13.9852H13.9851H13.985H13.9849H13.9848H13.9847H13.9846H13.9845H13.9844H13.9843H13.9842H13.9841H13.984H13.9839H13.9838H13.9837H13.9836H13.9835H13.9834H13.9833H13.9832H13.9831H13.983H13.9829H13.9828H13.9827H13.9826H13.9825H13.9824H13.9823H13.9822H13.9821H13.9819H13.9818H13.9817H13.9816H13.9815H13.9814H13.9813H13.9812H13.9811H13.981H13.9809H13.9808H13.9807H13.9806H13.9805H13.9804H13.9803H13.9802H13.9801H13.98H13.9799H13.9798H13.9797H13.9796H13.9795H13.9793H13.9792H13.9791H13.979H13.9789H13.9788H13.9787H13.9786H13.9785H13.9784H13.9783H13.9782H13.9781H13.978H13.9779H13.9778H13.9777H13.9775H13.9774H13.9773H13.9772H13.9771H13.977H13.9769H13.9768H13.9767H13.9766H13.9765H13.9764H13.9763H13.9762H13.9761H13.9759H13.9758H13.9757H13.9756H13.9755H13.9754H13.9753H13.9752H13.9751H13.975H13.9749H13.9748H13.9746H13.9745H13.9744H13.9743H13.9742H13.9741H13.974H13.9739H13.9738H13.9737H13.9736H13.9734H13.9733H13.9732H13.9731H13.973H13.9729H13.9728H13.9727H13.9726H13.9725H13.9724H13.9722H13.9721H13.972C10.4349 3.63333 6.88739 3.49886 3.36416 3.85582L2.00608 3.98897C2.00238 3.98929 2.00063 3.9888 2.00009 3.98863C1.99932 3.98839 1.99878 3.98808 1.99846 3.98783C1.99837 3.98745 1.99826 3.98684 1.99818 3.98595C1.99811 3.98525 1.99808 3.98463 1.99806 3.98409Z" fill="#FF0000" stroke="#FF0000"/>
<path d="M5.82047 2.44161L5.67631 3.25643L5.81294 2.44285L5.81304 2.44224C5.86976 2.1019 5.92086 1.8547 6.06932 1.67128C6.11918 1.60968 6.1926 1.54127 6.30947 1.48221C6.25587 1.51231 6.20345 1.54955 6.154 1.59583C6.0069 1.73352 5.94084 1.9006 5.90337 2.03167C5.86947 2.15025 5.84589 2.29048 5.82386 2.42143C5.82273 2.42819 5.8216 2.43491 5.82047 2.44161ZM7.13318 1.34004C7.01149 1.34004 6.89379 1.34246 6.78436 1.35216C6.88462 1.34015 6.99804 1.33337 7.12651 1.33337H8.87318C8.99607 1.33337 9.10523 1.33978 9.20235 1.35119C9.10023 1.34254 8.99177 1.34004 8.87984 1.34004H7.13318Z" fill="#FF0000" stroke="#FF0000"/>
<path d="M3.43194 6.09502C3.43221 6.09472 3.4325 6.09444 3.43278 6.09417C3.43324 6.09443 3.43358 6.09468 3.43383 6.0949C3.43395 6.095 3.43404 6.09509 3.4341 6.09516C3.43413 6.09532 3.43418 6.09556 3.43421 6.09589L3.86731 12.8056L3.8673 12.8056L3.86758 12.8095L3.86916 12.8313C3.88435 13.0415 3.89969 13.2538 3.93127 13.4442C3.89909 13.2529 3.88165 13.0403 3.86514 12.8063L3.43194 6.09502ZM4.1745 14.1023C4.0636 13.9474 3.99644 13.7653 3.95224 13.5555C3.99645 13.763 4.0746 13.9845 4.23831 14.1754C4.28145 14.2258 4.32799 14.2711 4.3777 14.312C4.28998 14.2443 4.22477 14.1726 4.1745 14.1023ZM12.5663 6.09631C12.5666 6.09602 12.5669 6.09576 12.5672 6.09552L12.1342 12.8049C12.1341 12.8054 12.1341 12.8059 12.1341 12.8064C12.1274 12.9005 12.1206 12.9912 12.1128 13.0784C12.1195 12.9943 12.1251 12.909 12.1307 12.8242L12.1319 12.8062L12.1319 12.8056L12.5649 6.0977C12.5652 6.09734 12.5656 6.09686 12.5663 6.09631ZM11.7659 14.1754C11.8175 14.1153 11.8605 14.0521 11.8966 13.9873C11.875 14.0272 11.8511 14.0655 11.8247 14.1023C11.7966 14.1416 11.7638 14.1814 11.725 14.2206C11.739 14.206 11.7526 14.191 11.7659 14.1754Z" fill="#FF0000" stroke="#FF0000"/>
<path d="M9.10672 11.5H6.88672C6.61339 11.5 6.38672 11.2733 6.38672 11C6.38672 10.7267 6.61339 10.5 6.88672 10.5H9.10672C9.38005 10.5 9.60672 10.7267 9.60672 11C9.60672 11.2733 9.38005 11.5 9.10672 11.5Z" fill="#FF0000"/>
<path d="M9.66732 8.83337H6.33398C6.06065 8.83337 5.83398 8.60671 5.83398 8.33337C5.83398 8.06004 6.06065 7.83337 6.33398 7.83337H9.66732C9.94065 7.83337 10.1673 8.06004 10.1673 8.33337C10.1673 8.60671 9.94065 8.83337 9.66732 8.83337Z" fill="#FF0000"/>
</svg>
