<svg width="157" height="200" viewBox="0 0 157 200" fill="none" xmlns="http://www.w3.org/2000/svg">
<path d="M140.633 90.4075C140.633 90.4075 150.075 89.8611 150.075 80.8195V18.7298C150.075 12.6838 152.27 6.83815 156.249 2.29456H107.781C98.3018 2.29456 90.626 9.97951 90.626 19.4491V39.9545C90.626 39.9545 95.124 90.4075 114.491 90.4075" fill="#F9F9FB"/>
<g opacity="0.26">
<path d="M111.195 34.555C111.122 34.473 111.095 34.3728 111.104 34.2636L111.177 33.4623C111.259 32.6246 111.496 31.9144 111.887 31.3316C112.279 30.758 112.725 30.2936 113.226 29.9476C113.726 29.6016 114.382 29.2192 115.183 28.7821C116.076 28.336 116.731 27.9262 117.159 27.562C117.587 27.1978 117.824 26.7425 117.878 26.1871C117.933 25.5861 117.751 25.0944 117.314 24.712C116.886 24.3205 116.276 24.0929 115.502 24.02C114.664 23.9381 113.972 24.0655 113.435 24.4115C112.898 24.7484 112.606 25.231 112.543 25.8502L112.506 26.2144C112.479 26.4603 112.342 26.5695 112.069 26.5422L107.371 25.8957C107.262 25.8866 107.17 25.832 107.098 25.7318C107.025 25.6317 106.997 25.5315 107.007 25.4222L107.016 25.3221C107.152 23.929 107.617 22.727 108.436 21.7255C109.247 20.7239 110.321 19.9772 111.65 19.5037C112.98 19.0303 114.464 18.8664 116.103 19.0303C117.715 19.185 119.099 19.5948 120.255 20.2686C121.411 20.9333 122.267 21.8074 122.823 22.8727C123.378 23.9472 123.597 25.14 123.469 26.4694C123.378 27.4619 123.114 28.2995 122.695 28.9551C122.276 29.6198 121.794 30.1479 121.257 30.5395C120.719 30.931 120.036 31.3499 119.208 31.7869C118.388 32.224 117.769 32.6155 117.35 32.9706C116.941 33.3257 116.704 33.7719 116.649 34.3273L116.604 34.7917C116.595 34.901 116.549 34.992 116.458 35.0649C116.376 35.1377 116.276 35.165 116.167 35.1559L111.45 34.7006C111.35 34.6915 111.259 34.6369 111.195 34.555ZM110.922 41.6298C110.43 41.038 110.23 40.3187 110.303 39.481C110.385 38.616 110.722 37.9422 111.304 37.4687C111.887 36.9861 112.597 36.7858 113.435 36.8677C114.273 36.9497 114.946 37.2775 115.438 37.8602C115.93 38.443 116.13 39.1623 116.048 40.0273C115.966 40.8468 115.629 41.5024 115.038 42.0123C114.446 42.5131 113.726 42.7225 112.88 42.6405C112.06 42.5586 111.404 42.2308 110.922 41.6298Z" fill="#8C90A5"/>
</g>
<path opacity="0.33" d="M94.8053 39.9545V19.4491C94.8053 9.9704 102.49 2.29456 111.96 2.29456H107.781C98.3018 2.29456 90.626 9.97951 90.626 19.4491V39.9545C90.626 39.9545 95.124 90.4075 114.491 90.4075H118.671C99.3034 90.4075 94.8053 39.9545 94.8053 39.9545Z" fill="#CED8E8"/>
<path d="M114.5 90.4075H140.642C140.642 90.4075 130.052 90.4075 130.052 80.9743V48.4043C130.052 45.873 129.024 43.4054 127.093 41.7756C126.219 41.0289 125.117 40.4007 123.77 40.1184C119.135 39.1259 114.5 43.0959 114.5 43.0959L108.382 53.6854L114.5 90.4075Z" fill="#8C90A5"/>
<path d="M122.513 39.9545C122.513 39.9545 114.355 39.5174 114.355 49.1054V188.172C114.355 194.409 109.511 199.709 103.283 199.973C103.064 199.982 102.836 199.991 102.609 199.991C93.5125 199.991 19.8862 199.991 19.8862 199.991V62.4812C19.8862 50.0341 29.975 39.9545 42.413 39.9545H122.513Z" fill="#F9F9FB"/>
<g opacity="0.33">
<path d="M122.513 39.9545C122.495 39.9545 122.377 39.9454 122.167 39.9545H122.513Z" fill="#C8C8DB"/>
<path d="M47.3572 39.9545H42.413C29.9659 39.9545 19.8862 50.0432 19.8862 62.4812V200C19.8862 200 21.7164 200 24.8487 200V62.4812C24.8396 50.0432 34.9192 39.9636 47.3572 39.9545Z" fill="#CED8E8"/>
</g>
<path d="M103.1 200C103.1 200 95.2698 198.57 95.2698 191.505C95.2698 184.503 95.2698 180.105 95.2698 180.105H0.300537V186.815C0.300537 194.091 6.20083 200 13.4851 200H103.1Z" fill="#8C90A5"/>
<path d="M138.548 171.181C134.368 174.405 127.867 172.574 124.853 167.33L121.147 160.865L118.552 156.349L111.395 143.874L110.813 142.854L114.273 140.187L118.152 137.191L123.305 142.263L128.696 147.562L128.705 147.571L133.358 152.142L138.266 156.968C142.6 161.202 142.727 167.958 138.548 171.181Z" fill="#5F6583"/>
<g opacity="0.2">
<path d="M138.548 171.181C138.111 171.527 137.637 171.81 137.145 172.037C140.132 168.559 139.64 162.704 135.752 158.88L115.638 139.13L118.152 137.191L138.274 156.959C142.599 161.202 142.727 167.958 138.548 171.181Z" fill="#8C90A5"/>
</g>
<path d="M133.367 152.133C133.367 152.133 130.225 159.436 121.138 160.865L118.543 156.349C118.543 156.349 126.82 154.382 128.696 147.553L128.705 147.562L133.367 152.133Z" fill="#B1BED2"/>
<g opacity="0.17">
<path d="M122.859 141.816C115.939 145.204 111.396 143.874 111.396 143.874L114.273 140.187L118.152 137.191L122.823 141.78L122.859 141.816Z" fill="#596291"/>
</g>
<path d="M95.2242 91.9007C80.1821 94.1498 69.8201 108.163 72.0691 123.205C74.3182 138.247 88.3314 148.609 103.373 146.36C118.416 144.111 128.778 130.098 126.529 115.056C124.279 100.023 110.257 89.6517 95.2242 91.9007ZM102.845 142.827C89.7518 144.785 77.5597 135.761 75.602 122.668C73.6444 109.574 82.6678 97.3822 95.7614 95.4245C108.855 93.4669 121.047 102.49 123.005 115.584C124.953 128.677 115.93 140.87 102.845 142.827Z" fill="#5F6583"/>
<path d="M114.349 134.188C122.662 125.874 122.662 112.396 114.349 104.082C106.035 95.7684 92.5563 95.7684 84.2427 104.082C75.9292 112.396 75.9292 125.874 84.2427 134.188C92.5563 142.502 106.035 142.502 114.349 134.188Z" fill="#F3F4F8"/>
<g opacity="0.52">
<path d="M89.7246 105.55C89.324 105.613 88.9051 105.44 88.6593 105.076C88.3315 104.575 88.459 103.902 88.9598 103.574C91.2452 102.053 93.7947 101.07 96.5264 100.66C97.1182 100.569 97.6736 100.979 97.7556 101.571C97.8466 102.163 97.4369 102.718 96.845 102.8C94.423 103.164 92.174 104.029 90.1526 105.368C90.0251 105.468 89.8794 105.522 89.7246 105.55Z" fill="white"/>
</g>
<g opacity="0.52">
<path d="M82.0579 122.805C81.466 122.896 80.9106 122.486 80.8286 121.894C80.3187 118.48 80.7558 115.01 82.0943 111.851C82.932 109.866 84.1066 108.063 85.5635 106.469C85.9732 106.032 86.6561 106.005 87.0932 106.406C87.5302 106.815 87.5575 107.498 87.1569 107.935C85.8639 109.338 84.835 110.94 84.0884 112.688C82.9047 115.475 82.5131 118.543 82.9684 121.566C83.0595 122.167 82.6497 122.714 82.0579 122.805Z" fill="white"/>
</g>
<path d="M86.3556 122.058C85.9367 122.121 85.5361 121.848 85.445 121.429C85.3449 120.992 85.6271 120.555 86.0642 120.464C86.2736 120.419 90.9902 119.29 91.2634 114.345C91.2907 113.899 91.6731 113.553 92.1193 113.581C92.5654 113.608 92.9114 113.99 92.8841 114.437C92.5381 120.637 86.4739 122.04 86.4102 122.049C86.392 122.058 86.3738 122.058 86.3556 122.058Z" fill="#8C90A5"/>
<path d="M109.165 111.614C105.377 112.179 102.445 109.638 102.408 109.602C102.071 109.301 102.044 108.791 102.345 108.454C102.645 108.118 103.155 108.09 103.492 108.382C103.647 108.518 107.334 111.687 111.496 109.001C111.878 108.755 112.379 108.864 112.615 109.247C112.861 109.62 112.752 110.13 112.37 110.367C111.268 111.086 110.184 111.459 109.165 111.614Z" fill="#8C90A5"/>
<path d="M94.2955 125.8C92.0009 126.146 89.8976 125.445 89.7792 125.409C89.2147 125.217 88.9142 124.598 89.1054 124.034C89.2966 123.469 89.9158 123.169 90.4803 123.36C90.5077 123.369 93.4305 124.325 95.5338 123.159C96.5627 122.586 97.2365 121.602 97.5825 120.155C97.7191 119.572 98.311 119.217 98.8937 119.353C99.4765 119.49 99.8316 120.082 99.695 120.665C99.2033 122.713 98.1471 124.197 96.5718 125.063C95.8343 125.454 95.0512 125.682 94.2955 125.8Z" fill="#8C90A5"/>
<path d="M107.453 120.173C105.158 120.519 103.055 119.818 102.937 119.782C102.372 119.59 102.062 118.971 102.263 118.407C102.454 117.842 103.073 117.542 103.638 117.733C103.683 117.751 106.597 118.698 108.691 117.533C109.72 116.959 110.394 115.976 110.74 114.528C110.876 113.945 111.468 113.59 112.051 113.726C112.634 113.863 112.989 114.455 112.852 115.038C112.361 117.086 111.304 118.571 109.729 119.436C108.992 119.836 108.209 120.064 107.453 120.173Z" fill="#8C90A5"/>
<path d="M101.106 132.784C100.952 132.811 100.788 132.793 100.633 132.748C100.059 132.575 99.7405 131.974 99.9135 131.4C100.542 129.324 103.282 125.536 109.219 126.128C109.811 126.183 110.248 126.72 110.193 127.312C110.13 127.903 109.602 128.341 109.01 128.286C103.41 127.73 102.053 131.855 101.99 132.028C101.853 132.447 101.498 132.729 101.106 132.784Z" fill="#8C90A5"/>
<g opacity="0.14">
<path d="M55.2697 126.811C55.0511 126.547 54.9601 126.237 54.9874 125.891L55.2241 123.396C55.4791 120.756 56.2166 118.534 57.4368 116.731C58.6569 114.919 60.0591 113.481 61.6343 112.406C63.2096 111.332 65.2492 110.112 67.7623 108.737C70.5576 107.325 72.6246 106.051 73.9631 104.921C75.2924 103.792 76.0482 102.354 76.2121 100.624C76.3942 98.748 75.8023 97.2092 74.4456 95.9891C73.0889 94.778 71.195 94.0496 68.773 93.8129C66.1324 93.5579 63.9744 93.9677 62.299 95.033C60.6236 96.0983 59.6858 97.6007 59.5037 99.5402L59.3944 100.687C59.3216 101.452 58.8663 101.789 58.0377 101.716L43.3143 99.6767C42.9683 99.6403 42.686 99.4764 42.4675 99.1759C42.249 98.8755 42.1579 98.5477 42.1943 98.2017L42.2216 97.8921C42.6405 93.5215 44.1156 89.761 46.6651 86.6014C49.2055 83.4509 52.5654 81.1291 56.7356 79.6358C60.9059 78.1425 65.5588 77.6417 70.6942 78.1334C75.7568 78.616 80.1001 79.9089 83.7149 82.0032C87.3298 84.0974 90.0068 86.829 91.755 90.1798C93.4941 93.5306 94.177 97.2911 93.7764 101.452C93.4759 104.575 92.6655 107.18 91.3453 109.256C90.025 111.332 88.5135 112.998 86.8199 114.236C85.1263 115.475 82.9865 116.777 80.4097 118.142C77.8237 119.508 75.8843 120.738 74.5913 121.839C73.2984 122.941 72.5608 124.361 72.3969 126.091L72.2603 127.548C72.2239 127.894 72.0782 128.177 71.8142 128.395C71.5501 128.614 71.2405 128.705 70.8945 128.677L56.1165 127.257C55.7705 127.23 55.4882 127.084 55.2697 126.811ZM54.4047 149.001C52.8659 147.134 52.2285 144.885 52.4743 142.254C52.7293 139.549 53.7764 137.437 55.5975 135.934C57.4185 134.432 59.6494 133.804 62.2899 134.059C64.9305 134.314 67.0156 135.352 68.5544 137.182C70.0933 139.012 70.7397 141.279 70.4757 143.984C70.2298 146.551 69.1736 148.618 67.307 150.193C65.4404 151.769 63.1914 152.424 60.5508 152.169C57.9922 151.914 55.9435 150.867 54.4047 149.001Z" fill="#8C90A5"/>
</g>
<path d="M135.843 108.6C135.798 108.6 135.761 108.564 135.761 108.518C135.761 105.094 132.975 102.317 129.56 102.317C129.515 102.317 129.479 102.281 129.479 102.235C129.479 102.19 129.515 102.153 129.56 102.153C132.984 102.153 135.761 99.3672 135.761 95.9527C135.761 95.9072 135.798 95.8707 135.843 95.8707C135.889 95.8707 135.925 95.9072 135.925 95.9527C135.925 99.3763 138.711 102.153 142.126 102.153C142.171 102.153 142.208 102.19 142.208 102.235C142.208 102.281 142.171 102.317 142.126 102.317C138.702 102.317 135.925 105.104 135.925 108.518C135.925 108.564 135.889 108.6 135.843 108.6ZM130.58 102.235C133.275 102.672 135.415 104.803 135.852 107.507C136.289 104.812 138.42 102.672 141.124 102.235C138.429 101.798 136.289 99.6677 135.852 96.9634C135.415 99.6677 133.275 101.798 130.58 102.235Z" fill="#5F6583"/>
<path d="M135.843 93.995C135.798 93.995 135.761 93.9585 135.761 93.913V92.356C135.761 92.3105 135.798 92.274 135.843 92.274C135.889 92.274 135.925 92.3105 135.925 92.356V93.913C135.925 93.9585 135.889 93.995 135.843 93.995Z" fill="#5F6583"/>
<path d="M126.037 102.326C125.991 102.326 125.955 102.29 125.955 102.244C125.955 102.199 125.991 102.163 126.037 102.163L127.594 102.153C127.639 102.153 127.676 102.19 127.676 102.235C127.676 102.281 127.639 102.317 127.594 102.317L126.037 102.326Z" fill="#5F6583"/>
<path d="M135.989 112.069C135.944 112.069 135.907 112.033 135.907 111.987L135.889 110.43C135.889 110.385 135.925 110.348 135.971 110.348C136.016 110.348 136.053 110.385 136.053 110.43L136.071 111.987C136.071 112.033 136.035 112.069 135.989 112.069Z" fill="#5F6583"/>
<path d="M144.111 102.09C144.065 102.09 144.029 102.053 144.029 102.008C144.029 101.962 144.065 101.926 144.111 101.926L145.668 101.898C145.714 101.898 145.75 101.935 145.75 101.98C145.75 102.026 145.714 102.062 145.668 102.062L144.111 102.09Z" fill="#5F6583"/>
<path d="M15.1423 49.7973C15.0694 49.7973 15.0148 49.7427 15.0148 49.6699C15.0148 44.4343 10.7535 40.1729 5.51786 40.1729C5.44501 40.1729 5.39038 40.1183 5.39038 40.0455C5.39038 39.9726 5.44501 39.918 5.51786 39.918C10.7535 39.918 15.0148 35.6567 15.0148 30.4211C15.0148 30.3482 15.0694 30.2936 15.1423 30.2936C15.2151 30.2936 15.2697 30.3482 15.2697 30.4211C15.2697 35.6567 19.5311 39.918 24.7667 39.918C24.8395 39.918 24.8941 39.9726 24.8941 40.0455C24.8941 40.1183 24.8395 40.1729 24.7667 40.1729C19.5311 40.1729 15.2697 44.4343 15.2697 49.6699C15.2606 49.7427 15.206 49.7973 15.1423 49.7973ZM7.07488 40.0546C11.2087 40.7193 14.4776 43.9881 15.1423 48.1219C15.807 43.9881 19.0758 40.7193 23.2096 40.0546C19.0758 39.3899 15.807 36.121 15.1423 31.9872C14.4776 36.121 11.1996 39.3899 7.07488 40.0546Z" fill="#5F6583"/>
<path d="M15.1424 27.4345C15.0695 27.4345 15.0149 27.3799 15.0149 27.307V24.9214C15.0149 24.8486 15.0695 24.7939 15.1424 24.7939C15.2152 24.7939 15.2698 24.8486 15.2698 24.9214V27.3161C15.2607 27.3799 15.2061 27.4345 15.1424 27.4345Z" fill="#5F6583"/>
<path d="M0.127476 40.1911C0.0637378 40.1911 0 40.1365 0 40.0637C0 39.9908 0.0546324 39.9362 0.127476 39.9362L2.51309 39.918C2.57683 39.918 2.64056 39.9726 2.64056 40.0454C2.64056 40.1183 2.58593 40.1729 2.51309 40.1729L0.127476 40.1911Z" fill="#5F6583"/>
<path d="M15.3608 55.1058C15.2971 55.1058 15.2334 55.0512 15.2334 54.9875L15.2061 52.6018C15.2061 52.529 15.2607 52.4744 15.3244 52.4744C15.3882 52.4744 15.4519 52.529 15.4519 52.5927L15.4792 54.9783C15.4792 55.0512 15.4246 55.1058 15.3608 55.1058Z" fill="#5F6583"/>
<path d="M27.7989 39.8269C27.7351 39.8269 27.6805 39.7723 27.6714 39.7085C27.6714 39.6357 27.726 39.581 27.7898 39.581L30.1754 39.5355C30.2482 39.5355 30.3028 39.5902 30.3028 39.6539C30.3028 39.7267 30.2482 39.7814 30.1845 39.7814L27.7989 39.8269Z" fill="#5F6583"/>
<path d="M27.0248 24.9944C26.952 24.9944 26.8974 24.9397 26.8974 24.8669C26.8974 19.6313 22.636 15.37 17.4004 15.37C17.3276 15.37 17.2729 15.3153 17.2729 15.2425C17.2729 15.1696 17.3276 15.115 17.4004 15.115C22.636 15.115 26.8974 10.8537 26.8974 5.61808C26.8974 5.54523 26.952 5.4906 27.0248 5.4906C27.0977 5.4906 27.1523 5.54523 27.1523 5.61808C27.1523 10.8537 31.4136 15.115 36.6492 15.115C36.7221 15.115 36.7767 15.1696 36.7767 15.2425C36.7767 15.3153 36.7221 15.37 36.6492 15.37C31.4136 15.37 27.1523 19.6313 27.1523 24.8669C27.1523 24.9397 27.0977 24.9944 27.0248 24.9944ZM18.9666 15.2516C23.1004 15.9163 26.3692 19.1851 27.0339 23.319C27.6986 19.1851 30.9675 15.9163 35.1013 15.2516C30.9675 14.5869 27.6986 11.3181 27.0339 7.1842C26.3601 11.3181 23.0913 14.5869 18.9666 15.2516Z" fill="#5F6583"/>
<path d="M27.0249 2.64056C26.9521 2.64056 26.8975 2.58593 26.8975 2.51309V0.127476C26.8975 0.0546324 26.9521 0 27.0249 0C27.0978 0 27.1524 0.0546324 27.1524 0.127476V2.51309C27.1524 2.57683 27.0978 2.64056 27.0249 2.64056Z" fill="#5F6583"/>
<path d="M12.01 15.3882C11.9463 15.3882 11.8826 15.3335 11.8826 15.2607C11.8826 15.1878 11.9372 15.1332 12.01 15.1332L14.3957 15.115C14.4594 15.115 14.5231 15.1696 14.5231 15.2425C14.5231 15.3153 14.4685 15.3699 14.3957 15.3699L12.01 15.3882Z" fill="#5F6583"/>
<path d="M27.2434 30.3119C27.1797 30.3119 27.1159 30.2572 27.1159 30.1935L27.0886 27.8079C27.0886 27.7351 27.1433 27.6804 27.207 27.6804C27.2707 27.6804 27.3345 27.7351 27.3345 27.7988L27.3618 30.1844C27.3709 30.2481 27.3163 30.3119 27.2434 30.3119Z" fill="#5F6583"/>
<path d="M39.6814 15.0239C39.6177 15.0239 39.5631 14.9693 39.554 14.9055C39.554 14.8327 39.6086 14.7781 39.6723 14.7781L42.0579 14.7325C42.1308 14.7325 42.1854 14.7872 42.1854 14.8509C42.1854 14.9238 42.1308 14.9784 42.067 14.9784L39.6814 15.0239C39.6905 15.0239 39.6905 15.0239 39.6814 15.0239Z" fill="#5F6583"/>
<path d="M149.283 99.2853C149.256 99.2853 149.237 99.2671 149.237 99.2398C149.237 97.4187 147.762 95.9436 145.941 95.9436C145.914 95.9436 145.896 95.9254 145.896 95.8981C145.896 95.8708 145.914 95.8525 145.941 95.8525C147.762 95.8525 149.237 94.3775 149.237 92.5564C149.237 92.5291 149.256 92.5109 149.283 92.5109C149.31 92.5109 149.328 92.5291 149.328 92.5564C149.328 94.3775 150.804 95.8525 152.625 95.8525C152.652 95.8525 152.67 95.8708 152.67 95.8981C152.67 95.9254 152.652 95.9436 152.625 95.9436C150.804 95.9436 149.328 97.4187 149.328 99.2398C149.328 99.2671 149.31 99.2853 149.283 99.2853ZM146.488 95.9072C147.917 96.1348 149.055 97.273 149.283 98.7025C149.511 97.273 150.649 96.1348 152.078 95.9072C150.649 95.6795 149.511 94.5414 149.283 93.1118C149.055 94.5414 147.917 95.6704 146.488 95.9072Z" fill="#5F6583"/>
<path d="M149.283 91.5274C149.256 91.5274 149.237 91.5092 149.237 91.4819V90.6533C149.237 90.626 149.256 90.6078 149.283 90.6078C149.31 90.6078 149.328 90.626 149.328 90.6533V91.4819C149.328 91.5092 149.31 91.5274 149.283 91.5274Z" fill="#5F6583"/>
<path d="M144.075 95.9527C144.047 95.9527 144.029 95.9345 144.029 95.9072C144.029 95.8799 144.047 95.8617 144.075 95.8617L144.903 95.8525C144.93 95.8525 144.949 95.8707 144.949 95.8981C144.949 95.9254 144.93 95.9436 144.903 95.9436L144.075 95.9527Z" fill="#5F6583"/>
<path d="M149.365 101.124C149.337 101.124 149.319 101.106 149.319 101.079L149.31 100.25C149.31 100.223 149.328 100.205 149.356 100.205C149.383 100.205 149.401 100.223 149.401 100.25L149.41 101.079C149.401 101.106 149.383 101.124 149.365 101.124Z" fill="#5F6583"/>
<path d="M153.681 95.8252C153.653 95.8252 153.635 95.807 153.635 95.7797C153.635 95.7524 153.653 95.7342 153.681 95.7342L154.509 95.7159C154.537 95.7159 154.555 95.7342 154.555 95.7615C154.555 95.7888 154.537 95.807 154.509 95.807L153.681 95.8252Z" fill="#5F6583"/>
</svg>
